<?xml version="1.0" encoding="UTF-8"?>
<svg id="Capa_1" data-name="Capa 1" xmlns="http://www.w3.org/2000/svg" version="1.1" viewBox="0 0 512 512">
  <defs>
    <style>
      .cls-1 {
        fill: #0b3d6c;
        stroke-width: 0px;
      }
    </style>
  </defs>
  <path class="cls-1" d="M494.5,54.7h-100.5c-4.1,0-7.5,3.4-7.5,7.5s3.4,7.5,7.5,7.5h100.5c1.4,0,2.5,1.1,2.5,2.5v43H15v-43c0-1.4,1.1-2.5,2.5-2.5h341.5c4.1,0,7.5-3.4,7.5-7.5s-3.4-7.5-7.5-7.5H17.5c-9.6,0-17.5,7.9-17.5,17.5v367.6c0,9.6,7.9,17.5,17.5,17.5h83.5c4.1,0,7.5-3.4,7.5-7.5s-3.4-7.5-7.5-7.5H17.5c-1.4,0-2.5-1.1-2.5-2.5V130.2h482v160.1c-1.4-2-3.4-3.4-5.8-4-1.7-.4-3.3-.5-5-.1l-.6-2.7v-61.4c0-4.1-3.4-7.5-7.5-7.5s-7.5,3.4-7.5,7.5v27.1l-35.8-23.5c1.1-2.9,1.7-6,1.7-9.3,0-14.7-11.9-26.6-26.6-26.6s-22.3,8.1-25.5,19.1h-100.9v-9.5c0-5.8-4.7-10.5-10.5-10.5h-34c-5.8,0-10.5,4.7-10.5,10.5v9.5h-100.9c-3.2-11-13.4-19.1-25.5-19.1s-26.6,11.9-26.6,26.6,11.9,26.6,26.6,26.6,22.3-8.1,25.5-19.1h76c-39.5,17.8-68.4,55-74.5,99.4h-11.9c-5.8,0-10.5,4.7-10.5,10.5v34c0,5.8,4.7,10.5,10.5,10.5h34c5.8,0,10.5-4.7,10.5-10.5v-34c0-5.8-4.7-10.5-10.5-10.5h-6.9c7-45,40.6-81.3,84.1-92.2v2.3c0,5.8,4.7,10.5,10.5,10.5h34c5.8,0,10.5-4.7,10.5-10.5v-2.3c43.6,10.9,77.2,47.2,84.1,92.2h-6.9c-5.8,0-10.5,4.7-10.5,10.5v34c0,5.8,4.7,10.5,10.5,10.5h34c5.8,0,10.5-4.7,10.5-10.5v-34c0-5.8-4.7-10.5-10.5-10.5h-11.9c-6-44.4-35-81.6-74.5-99.4h76c2.9,9.9,11.4,17.4,21.8,18.8l2.7,47c.2,3.2,1.6,6.2,3.9,8.4l20,18.8c-3,3.3-3.7,8.3-1.3,12.3l9.4,16.3c1.9,3.4,5.5,5.2,9.1,5.2s3.6-.5,5.2-1.4l15.4-8.9v75.8H41.4V156.6h429.1v30.4c0,4.1,3.4,7.5,7.5,7.5s7.5-3.4,7.5-7.5v-34.9c0-5.8-4.7-10.5-10.5-10.5H36.9c-5.8,0-10.5,4.7-10.5,10.5v268.7c0,5.8,4.7,10.5,10.5,10.5h438.1c5.8,0,10.5-4.7,10.5-10.5v-89l11.4-6.6v114.6c0,1.4-1.1,2.5-2.5,2.5H136c-4.1,0-7.5,3.4-7.5,7.5s3.4,7.5,7.5,7.5h358.5c9.6,0,17.5-7.9,17.5-17.5V72.2c0-9.6-7.9-17.5-17.5-17.5ZM146.8,363.3h-25v-25h25v25ZM102.1,228c-6.4,0-11.6-5.2-11.6-11.6s5.2-11.6,11.6-11.6,11.6,5.2,11.6,11.6-5.2,11.6-11.6,11.6ZM268.5,228.9h-25v-25h25v25ZM390.2,363.3h-25v-25h25v25ZM398.3,216.4c0-6.4,5.2-11.6,11.6-11.6s11.6,5.2,11.6,11.6,0,.4,0,.6l-4.9-3.2c-2.4-1.6-5.4-1.6-7.9-.2-2.5,1.4-3.9,4.1-3.7,6.9l.4,6.6c-4.1-1.8-7-5.9-7-10.6ZM421.7,251.1l14.5,25.1c1.4,2.4,3.9,3.8,6.5,3.8s2.6-.3,3.7-1c3.6-2.1,4.8-6.7,2.7-10.2l-14.5-25.1,30.8,20.2,7,29.6-26.5,15.3-22.2-20.9-2.1-36.8ZM451.6,334.1l-4.9-8.5,40.1-23.2,4.9,8.5-40.1,23.2Z"/>
  <circle class="cls-1" cx="38.5" cy="91.7" r="7.5"/>
  <circle class="cls-1" cx="60.5" cy="91.7" r="7.5"/>
  <circle class="cls-1" cx="82.5" cy="91.7" r="7.5"/>
</svg>