<?xml version="1.0" encoding="UTF-8"?>
<svg xmlns="http://www.w3.org/2000/svg" version="1.1" viewBox="0 0 5000 4000">
  <defs>
    <style>
      .cls-1 {
        fill: #0f31ac;
      }

      .cls-1, .cls-2, .cls-3, .cls-4, .cls-5, .cls-6, .cls-7, .cls-8, .cls-9, .cls-10, .cls-11, .cls-12, .cls-13, .cls-14, .cls-15, .cls-16, .cls-17, .cls-18, .cls-19, .cls-20, .cls-21, .cls-22 {
        stroke-width: 0px;
      }

      .cls-2 {
        fill: #0b2581;
      }

      .cls-3 {
        fill: #3f5abd;
      }

      .cls-4 {
        fill: #e3e9f7;
      }

      .cls-5 {
        fill: #c9885b;
      }

      .cls-6 {
        fill: #829cf8;
      }

      .cls-7 {
        fill: #1a1a1a;
      }

      .cls-23 {
        stroke: #829cf8;
        stroke-dasharray: 0 28.5;
        stroke-width: 5px;
      }

      .cls-23, .cls-24 {
        fill: none;
        stroke-miterlimit: 10;
      }

      .cls-8 {
        fill: #040c2b;
      }

      .cls-9, .cls-11, .cls-12 {
        fill: #000;
      }

      .cls-10 {
        fill: #96aaed;
      }

      .cls-11 {
        opacity: 0;
      }

      .cls-12, .cls-20 {
        opacity: .1;
      }

      .cls-13 {
        fill: #262c84;
      }

      .cls-24 {
        stroke: #0f31ac;
        stroke-dasharray: 0 0 0 0 0 0 50 50 50 50 50 50;
        stroke-linecap: round;
        stroke-width: 20px;
      }

      .cls-14 {
        fill: gray;
      }

      .cls-15 {
        fill: #db965f;
      }

      .cls-25 {
        opacity: .2;
      }

      .cls-16 {
        fill: #6366ed;
      }

      .cls-17 {
        fill: #dee4fc;
      }

      .cls-18 {
        fill: #949494;
      }

      .cls-19 {
        fill: #fff;
      }

      .cls-20 {
        fill: #040c2b;
      }

      .cls-21 {
        fill: #f9fbfd;
      }

      .cls-22 {
        fill: #acbcf8;
      }
    </style>
  </defs>
  <g id="Background">
    <polyline class="cls-19" points="0 0 5000 0 5000 4000 0 4000"/>
    <g class="cls-25">
      <path class="cls-24" d="M1276.6,3384c508.9-126.3,1087.1-254.9,1985-233,502.1,12.2,615.9-143.6,996.5-337.3,339.2-172.7,505.8-516.1,403.5-710.7-103.3-196.5-417.9-118.2-675.6-410.7-117.4-133.2-96.7-226.6-164.5-374.3-214.5-467.7-1018.7-833.3-1415.2-639.8-523.9,255.6-76,1360-661.6,1661.6-370.4,190.8-650.4-175.5-1016.1,104.2-181.2,138.6-402.9,332.9-420,544,0,0-24,516,968,396Z"/>
      <path class="cls-22" d="M4088.1,2809.3s-92.2,122.2-184.4,289.9c-83.1,151.2-146.3,355-160.3,525.1-39.1-1.9-82.1-3.6-128.6-5.2-275.3-9.8-672.8-15.9-1114.8-15.9s-947.4,7.9-1220.8,20.1c-9.4.4-18.6.8-27.6,1.3-341.3-423-1028.5-1159.9-396.1-1463.1,0,0,46.3-14.1,115.8-44.4,219.8-95.9,671.6-354.1,621.4-840.9,0,0-17.1-90.8-17.1-217.2,0-295.6,93.6-785.5,718.2-763.1,378.3,13.6,726.7,206.1,937.3,514.2,206.6,302.2,536.9,674,806,461.8,62.1-49,144.2-67.2,220.9-45.6,193.6,54.4,413.6,336-169.8,1583.2Z"/>
    </g>
    <path class="cls-20" d="M4590.5,3640.8c0,20-935.9,36.2-2090.5,36.2s-1233.3-5.2-1616.7-13.3c-88.3-1.9-166.1-3.9-231.7-6-43.3-1.4-81.3-2.9-113.6-4.4-83.1-3.9-128.5-8.1-128.5-12.5s73.7-10.9,205.2-15.7c53.9-1.9,117.4-3.8,189.6-5.5,379.7-9.1,997.8-15,1695.7-15s1166.1,4.6,1548.5,11.9c336.8,6.4,542,15,542,24.3Z"/>
  </g>
  <g id="Design">
    <g>
      <g>
        <path class="cls-17" d="M716.4,2760.2h-199.8c-22.2,0-40.2-18-40.2-40.2v-174.3c0-22.2,18-40.2,40.2-40.2h199.8c22.2,0,40.2,18,40.2,40.2v174.3c0,22.2-18,40.2-40.2,40.2Z"/>
        <g>
          <path class="cls-19" d="M523.3,2605.1v98.2h58.2v-98.2h-58.2ZM565.4,2694.9c-5,0-9-3.9-9-8.7s4-8.7,9-8.7,9,3.9,9,8.7-4,8.7-9,8.7Z"/>
          <path class="cls-19" d="M596.9,2618.1v76.9s10.7-2.7,19.6,7.5c.4.4.7.9,1,1.5,1,2,5.2,8,21.2,8h42.3c.4,0,.8,0,1.3-.1,2.9-.5,12.8-3.4,12.4-16.9,0-2.2,1-4.2,2.9-5.5,4-2.6,9.7-9,5.8-23.3-.5-1.8-.1-3.7,1-5.2,3.4-4.7,9.7-15.6,1.3-23.7-1.5-1.5-2.2-3.6-1.8-5.7,1.2-5.9,1.8-17.6-11.8-20.5-.5-.1-1-.2-1.5-.2h-25.3c-3.9,0-7-3.3-6.5-7,2.2-18.3,6-64.9-16.8-45.1-1.1,1-1.9,2.3-2.1,3.7-1.7,9.9-10.7,52.5-42.9,55.7Z"/>
        </g>
      </g>
      <g>
        <path class="cls-17" d="M3248.4,923.2h-199.8c-22.2,0-40.2-18-40.2-40.2v-174.3c0-22.2,18-40.2,40.2-40.2h199.8c22.2,0,40.2,18,40.2,40.2v174.3c0,22.2-18,40.2-40.2,40.2Z"/>
        <g>
          <rect class="cls-19" x="3058.8" y="710.4" width="179.6" height="131.4" rx="31.4" ry="31.4"/>
          <path class="cls-19" d="M3169.4,831.2h-41.7s3.7,33.6,41.7,50.2c0,0-20-29.4,0-50.2Z"/>
          <g>
            <circle class="cls-22" cx="3109.5" cy="776.1" r="12.6" transform="translate(1856.2 3725.8) rotate(-81)"/>
            <circle class="cls-22" cx="3148.5" cy="776.1" r="12.6" transform="translate(1889.1 3764.3) rotate(-81)"/>
            <circle class="cls-22" cx="3187.6" cy="776.1" r="12.6" transform="translate(1922.1 3802.8) rotate(-81)"/>
          </g>
        </g>
      </g>
    </g>
    <g>
      <g>
        <path class="cls-22" d="M3054.5,3609c0,8.8-3.6,16.8-9.4,22.6-3.8,3.8-8.5,6.6-13.8,8.1-2.8.8-5.8,1.2-8.8,1.2h-1045.1c-3.3,0-6.5-.5-9.5-1.4-1-.3-2-.7-2.9-1.1-1-.4-1.9-.9-2.8-1.4-.7-.4-1.4-.8-2.1-1.3-3.8-2.5-7-5.7-9.5-9.5-.4-.7-.9-1.4-1.3-2.1-.5-.9-.9-1.8-1.4-2.8-.4-1-.8-1.9-1.1-2.9-.9-3-1.4-6.2-1.4-9.5l1.4-9.5c.3-1,.7-2,1.1-2.9l1.4-2.8c.4-.7.8-1.4,1.3-2.1l4.2-5.2c1.6-1.6,3.3-3,5.2-4.2.7-.4,1.4-.9,2.1-1.3.9-.5,1.8-.9,2.8-1.4,1-.4,1.9-.8,2.9-1.1,3-.9,6.2-1.4,9.5-1.4,32.7,0,61.2-22.1,69.4-53.7l12.1-46.7,71.2-275.3,11.8-45.7,16.9-65.2,12.5-48.3h657.2l12.5,48.3,9.6,36.9,7.3,28.3,11.8,45.7,12.9,49.8,58.3,225.5,12.1,46.7c8.2,31.6,36.7,53.7,69.4,53.7s6.5.5,9.5,1.4c1,.3,2,.7,2.9,1.1,1,.4,1.9.9,2.8,1.4.7.4,1.4.8,2.1,1.3,3.8,2.5,7,5.7,9.5,9.5.4.7.9,1.4,1.3,2.1.5.9.9,1.8,1.4,2.8.4,1,.8,1.9,1.1,2.9.9,3,1.4,6.2,1.4,9.5Z"/>
        <polygon class="cls-11" points="2869.8 3201.3 2130.2 3201.3 2142 3155.6 2158.9 3090.4 2171.4 3042.1 2828.6 3042.1 2841.1 3090.4 2850.7 3127.3 2858 3155.6 2869.8 3201.3"/>
        <rect class="cls-22" x="1325.8" y="1590" width="2348.5" height="1565.6" rx="65.2" ry="65.2"/>
        <rect class="cls-21" x="1391" y="1655.2" width="2218" height="1435.2" rx="50" ry="50"/>
        <path class="cls-19" d="M3609,1800v1225.1c0,36-29.2,65.2-65.2,65.2H1456.2c-36,0-65.2-29.2-65.2-65.2v-1225.1h2218Z"/>
        <path class="cls-17" d="M3609,1707.4v93H1391v-93c0-28.8,23.3-52.1,52.1-52.1h2113.7c28.8,0,52.1,23.3,52.1,52.1Z"/>
        <g>
          <ellipse class="cls-22" cx="1501.1" cy="1727.8" rx="18.7" ry="17.8"/>
          <ellipse class="cls-22" cx="1555.5" cy="1727.8" rx="18.7" ry="17.8"/>
          <ellipse class="cls-22" cx="1610" cy="1727.8" rx="18.7" ry="17.8"/>
        </g>
        <path class="cls-10" d="M3054.5,3609c0,8.8-3.6,16.8-9.4,22.6-3.8,3.8-8.5,6.6-13.8,8.1-2.8.8-5.8,1.2-8.8,1.2h-1045.1c-3.3,0-6.5-.5-9.5-1.4-1-.3-2-.7-2.9-1.1-1-.4-1.9-.9-2.8-1.4-.7-.4-1.4-.8-2.1-1.3-3.8-2.5-7-5.7-9.5-9.5-.4-.7-.9-1.4-1.3-2.1-.5-.9-.9-1.8-1.4-2.8-.4-1-.8-1.9-1.1-2.9-.9-3-1.4-6.2-1.4-9.5l1.4-9.5c.3-1,.7-2,1.1-2.9l1.4-2.8c.4-.7.8-1.4,1.3-2.1l4.2-5.2c1.6-1.6,3.3-3,5.2-4.2.7-.4,1.4-.9,2.1-1.3.9-.5,1.8-.9,2.8-1.4,1-.4,1.9-.8,2.9-1.1,3-.9,6.2-1.4,9.5-1.4h1045.1c3.3,0,6.5.5,9.5,1.4,1,.3,2,.7,2.9,1.1,1,.4,1.9.9,2.8,1.4.7.4,1.4.8,2.1,1.3,3.8,2.5,7,5.7,9.5,9.5.4.7.9,1.4,1.3,2.1.5.9.9,1.8,1.4,2.8.4,1,.8,1.9,1.1,2.9.9,3,1.4,6.2,1.4,9.5Z"/>
        <g>
          <path class="cls-17" d="M2459.1,2170.3c-3.8-4.9-7.5,5.7-2.6,6.7,1.7-1.2,3-2.9,2.6-6.7ZM2451.6,2184.6c0,5,.4,8.2-.4,12.6,2.4,5.5,7.7.6,9-3.1,1.9-12.4-3.5-15.8-8.6-9.4ZM2478.9,2208.4c2.7,5.4,8.4,7.2,14.5,8.5,2.2-2,2.4-6.4,3.4-9.9-5.4.1-14-2.4-17.9,1.3ZM2478.9,2208.4c2.7,5.4,8.4,7.2,14.5,8.5,2.2-2,2.4-6.4,3.4-9.9-5.4.1-14-2.4-17.9,1.3ZM2451.6,2184.6c0,5,.4,8.2-.4,12.6,2.4,5.5,7.7.6,9-3.1,1.9-12.4-3.5-15.8-8.6-9.4ZM2459.1,2170.3c-3.8-4.9-7.5,5.7-2.6,6.7,1.7-1.2,3-2.9,2.6-6.7ZM2459.1,2170.3c-3.8-4.9-7.5,5.7-2.6,6.7,1.7-1.2,3-2.9,2.6-6.7ZM2451.6,2184.6c0,5,.4,8.2-.4,12.6,2.4,5.5,7.7.6,9-3.1,1.9-12.4-3.5-15.8-8.6-9.4ZM2478.9,2208.4c2.7,5.4,8.4,7.2,14.5,8.5,2.2-2,2.4-6.4,3.4-9.9-5.4.1-14-2.4-17.9,1.3ZM2478.9,2208.4c2.7,5.4,8.4,7.2,14.5,8.5,2.2-2,2.4-6.4,3.4-9.9-5.4.1-14-2.4-17.9,1.3ZM2451.6,2184.6c0,5,.4,8.2-.4,12.6,2.4,5.5,7.7.6,9-3.1,1.9-12.4-3.5-15.8-8.6-9.4ZM2459.1,2170.3c-3.8-4.9-7.5,5.7-2.6,6.7,1.7-1.2,3-2.9,2.6-6.7ZM2459.1,2170.3c-3.8-4.9-7.5,5.7-2.6,6.7,1.7-1.2,3-2.9,2.6-6.7ZM2451.6,2184.6c0,5,.4,8.2-.4,12.6,2.4,5.5,7.7.6,9-3.1,1.9-12.4-3.5-15.8-8.6-9.4ZM2478.9,2208.4c2.7,5.4,8.4,7.2,14.5,8.5,2.2-2,2.4-6.4,3.4-9.9-5.4.1-14-2.4-17.9,1.3ZM2478.9,2208.4c2.7,5.4,8.4,7.2,14.5,8.5,2.2-2,2.4-6.4,3.4-9.9-5.4.1-14-2.4-17.9,1.3ZM2451.6,2184.6c0,5,.4,8.2-.4,12.6,2.4,5.5,7.7.6,9-3.1,1.9-12.4-3.5-15.8-8.6-9.4ZM2459.1,2170.3c-3.8-4.9-7.5,5.7-2.6,6.7,1.7-1.2,3-2.9,2.6-6.7ZM2459.1,2170.3c-3.8-4.9-7.5,5.7-2.6,6.7,1.7-1.2,3-2.9,2.6-6.7ZM2451.6,2184.6c0,5,.4,8.2-.4,12.6,2.4,5.5,7.7.6,9-3.1,1.9-12.4-3.5-15.8-8.6-9.4ZM2478.9,2208.4c2.7,5.4,8.4,7.2,14.5,8.5,2.2-2,2.4-6.4,3.4-9.9-5.4.1-14-2.4-17.9,1.3ZM2478.9,2208.4c2.7,5.4,8.4,7.2,14.5,8.5,2.2-2,2.4-6.4,3.4-9.9-5.4.1-14-2.4-17.9,1.3ZM2451.6,2184.6c0,5,.4,8.2-.4,12.6,2.4,5.5,7.7.6,9-3.1,1.9-12.4-3.5-15.8-8.6-9.4ZM2456.5,2177c1.7-1.2,3-2.9,2.6-6.7-3.8-4.9-7.5,5.7-2.6,6.7ZM3358.6,1977.9c-2.3,0-3.8,1-5.6.9-3.6-.1-8-3.3-12.3-4.9-7.3-2.7-16.6-3.9-23.5-6.3-1.3-.4-2.5-1.8-3.7-2.2-1.3-.4-2.9,0-4.5-.4-1.7-.5-3.2-2-4.8-2.2-3.4-.6-6.5.9-10.1,1.3-5,.6-10.5.2-14.6-.9-5.1-1.4-9-5.8-13.1-6.3-1.7-.2-3.8.9-5.6.9-3.2,0-6.1-2.1-8.2,0-2.2,1.8,2,4.4-.4,6.3-5.4,1.1-11.2-5.9-14.9-5.8-2.9,0-4.4,2.5-6.7,2.7-1.2.1-2.8-.7-4.5-.9-7.1-.7-17.7.9-24.6,0-4.8-.6-6.7-5-11.2-7.2-8.4-4.1-19.4-3.5-28-2.7-3.8.4-7.6,1.6-11.6.9-1.8-.3-3.9-2.1-6.3-2.7-3.7-.9-8-.4-10.5-1.3-3.7-1.5-6.4-5.9-10.1-6.7-3.3-.7-7.1.6-10.8.4-10.5-.3-21.6-1.6-32.8-.9-1.9,1.6-1.4,4.5-3.7,5.8-6,3.3-19.1-1.5-26.5.4-2.4,1.3-2.5,4.5-4.8,4.9-2,.4-7-2.2-9-3.6-2.1-1.5-3.4-4.7-5.6-6.7-3-2.8-7.7-6.4-10.5-7.2-5.1-1.4-12.4.2-18.7-.5-1.6-.2-3.9-1.2-5.6-.9-3.2.6-6.2,4.8-10.1,4.9-1.9,0-4-1.1-6.3-1.3-1.7-.2-3.7.3-5.2,0-2.1-.4-3.8-2.3-6-2.7-3.7-.7-9.4-.9-13.8-.9s-6.4,1.4-9.3.5c-4.5-1.4-6.7-5.6-10.4-7.2-.9-7.1-4.2-6.4-9-8.5-1.5-.7-2.8-2.3-4.1-2.7-7.2-2.3-15.3.6-23.1-.9-2.6-.5-4.7-4-7.5-4.5-2.9-.6-6.4,1.3-10.4,1.8-3.8.5-7.9-1-11.2,0-2.1.6-3.5,3.1-5.6,4-2.1,1-4.6,1.7-6.7,1.8-3.5,0-7.3-3.1-11.2-2.7-3.7.4-8.3,4.4-13,5.4-7.8,1.6-15.6,2-20.2,5.8-1.5,2.2,1.9,3.7.4,5.8-5.3,2.3-14.8-.5-19,3.1-1.2,2.5,2,4.9-.4,6.7-3.4-.4-4.1-1.9-6.3-1.8-4.1.2-6.2,7.1-9.3,7.2-2.5,0-3.8-5.1-6.3-4.9-3.1.2-4.5,8-7.1,8.1-3.1,0-2.4-5.1-4.5-8.5-3.1-5-13.9-5.1-17.2-1.3-1,1.1-5.2,9.7-5.2,10.8,0,2,3.3,8.6,4.1,9.4,2.7,2.7,8.6.9,9.3,7.2-7.7-.2-15.7-5.3-24.2-6.7-5.7-1-11.8-.8-17.5-1.3-1.7,2.6,3.9,4.8,1.5,7.6-1.4,1.7-5-1.7-7.1-1.8-2.9-.2-5.4,2.1-9,2.7-1.5.3-3.4-.2-5.2,0-2.3.3-4,1.6-5.6,1.3-2.9-.5-4.5-3.6-6.7-3.6-1.8,0-4.1,2.1-6.3,2.7-1.7.5-3.6,0-4.9.5-1.7.5-3.5,2.6-5.6,3.6-1.8.8-3.8.9-5.2,1.8-3.5,2.1-4.2,6-7.8,6.3-1.6.1-4.7-.5-6-4-.2-2.7,2-2.3,1.5-5.4-1.1-2.5-8-3.6-9.3-.5-2.6,4.6,2.3,7.2,1.9,12.1-.7.4-1.2,1-1.5,1.8-6.8-3.5-12.4,1.2-16.8,4.5-.5,2.5-.2,6.1-2.2,6.7-5.3.9-9.7-4.7-13.4-1.3-.6,4.6,4.8,2,4.1,6.7-8.3,1.2-17.4-6.4-17.5-16.6,6.1-2.3,13.9,1.8,19.8,1.8s11.8-1.7,11.6-7.6c-.2-5-9.4-7.2-13.8-9-5.2-2.1-11.1-5.5-16.4-6.3-1.7-.3-3.5.2-5.2,0-4.8-.6-8.7-3.6-12.3-4-2.5-.3-4.7.7-6.3,0-3.3-1.4-3-4.9-5.6-6.3-4.9-2.6-10.5-.3-16.4-.5-3.6,0-7-1.2-9.7-.9-1.9.2-3.4,1.3-4.9,1.3-1.1,0-3.3-.6-4.1-.5-2.2.4-4.4,3-6.7,4-3.9,1.8-8.5,1.1-12.7,2.2-4.1,1.1-7.5,6.5-11.2,7.2-2.7.5-7.4-1.8-8.6,1.3-.7,3.2,2.2,4.1,1.1,6.3-2.4,5-8.3,6.8-11.6,11.6-.9,1.3-1,3.5-1.9,4.9-1.3,2.1-3.5,3.1-4.5,4.9-1.5,2.9-.9,5.3-3,6.7-3.3,2.3-8.2.8-11.6,2.2-2,.9-3.4,3.3-5.2,4.5-4.7,3-11.3,4-14.2,9.9-.8,5.1,1,8.9,1.5,12.5.3,2.5-.3,4.8.4,7.2,1.2,4.2,6.2,8.5,10.8,8.5,7.1,0,12.6-10.7,18.3-9.4,2.8.6,3.1,5.9,4.5,9,1.3,2.8,7.2,7.5,6.3,12.1-.7,3.7-7.7,5-11.2,4.9-.3-4.1.5-10.7-2.2-13-5.6,3.2-9.6,2.3-11.2,7.6-2,6.7,3.4,11.7,2.6,17.9-.8,6.6-12.2,4.3-17.2,5.4-3.7.8-5.1,6.3-8.2,10.8-2.1,3.1-6.2,6.4-9.3,8.1-1.6.8-3.4.7-4.9,1.8-2.1,1.7-2.8,5.7-5.2,7.6-1.7,1.4-8.3,5.3-10.1,5.4-2.1,0-4.1-2.4-5.6-1.8-2.2.9-2,6.1-4.5,7.2-4.9,2.1-13.2-5.3-14.9,3.6,2.1,5.1,7.5,3.9,11.2,6.7,2.3,1.8,7.2,9.5,7.8,12.5.5,2.5-.3,12.6-1.1,15.2-2.3,7.2-7.7,4.7-14.5,4.5-1.9,0-3.9.6-5.6.4-11.5-.9-23.1-5.8-28.4,4,.4,7.6,1.8,12.7.4,19.3-1,4.9-4.7,9.2-4.5,13.4,0,2.2,2.2,4.2,2.6,7.2.2,1.6-.6,4.9,0,6.3,1.9,4.4,7.1.7,10.4,1.3,3.3.6,7.1,6.3,7.1,10.8,0,3.1-2.5,8.2-4.1,11.2-3.3,5.9-7.6,6.2-12.3,9.4-3.9,2.7-5.6,7.1-7.8,11.7-2.5,5-4,8-3,15.2-3.3,7.9-8.4,12.8-15.3,16.6-2,1.1-4.8,1.5-6.7,3.1-1.5,1.3-2.4,4.8-4.5,7.6-2.6,3.5-5.3,4.9-6.7,7.6-1.1,2.1-1.4,6.2-2.6,9-1.6,3.8-5,5.6-7.1,9.4-1,1.8-1.5,5.3-2.6,7.6-2.4,5.2-6.4,8.9-6,13.4.4,4.4,4.6,5.1,4.9,9,.2,2.2-1.2,3.5-1.1,5.8.1,3.4,2,5.9,2.2,8.5.6,6.7-1.9,9.3-3,13.9-.5,2.2-.3,4.6-.7,6.3-.9,3.3-4.8,6.4-4.9,10.3,0,2.8,2.4,5,2.6,9,.1,2.7-1.1,5.6-.7,8.1.8,4.9,8,10.5,11.2,14.3,4.2,5.1,9.8,9,11.6,14.3,1.5,4.5,1.5,10.5,4.5,13.9,2.2,2.5,5.8,4.1,8.6,6.7,2.6,2.4,5.4,4.6,8.2,7.2,4.5,4.3,11.4,12.8,18.7,12.1,3.8-.3,7.6-4,11.9-4.9,4.4-.9,10.1-1.4,14.6-.9,3.4.4,6.9,2.9,10.4,2.7,3.7-.2,8.1-3.6,12.3-5.8,7.4-3.8,18.4-9.1,29.1-7.2,8.2,1.4,7.8,12.7,13.4,17,6.6.7,11.9-2.9,17.2-1.3,3.9,1.2,8.6,8.3,9,12.1.4,3.9-1.8,9.7-2.2,12.1-1,5.2-1.1,11.5-1.9,14.8-.6,2.6-2.3,4.2-2.2,6.7,0,2.4,2.5,8.1,4.5,11.2,2.5,3.8,6.4,6.7,9.3,10.8,5.5,7.5,7.8,16.6,11.6,26.4,1.4,3.6,4,9.2,4.1,13,0,2.8-1.3,5.3-1.1,8.1.5,6,3.6,8.6,4.1,13.9,1.2,12.5-8.2,16.2-10.1,26.5-.5,2.4,0,5-.4,7.2-.6,3.3-2.6,5.8-3,9-.4,3.2-1,9.3-.7,12.6.4,4.8,4.6,9.2,6.7,13.4,2.2,4.5,4.1,12.1,6.7,17.9,1.5,3.2,3.9,5.9,4.5,8.5.8,3.4,0,8,.4,12.1.3,3.4,1.9,6.3,2.2,9,1.2,8.3,1.4,16.4,4.9,23.3,1.7,3.4,4.8,5.5,7.1,9.9,2.2,4.1,3,9.8,5.2,14.8,2.3,5.2,5.2,8.8,5.2,11.7,0,2.4-1.9,5-1.9,7.6.1,6.9,6.4,13.8,11.2,13.9,2.2,0,4.4-2.2,6.7-2.7,1.4-.3,2.7.3,4.1,0,2.3-.5,4.2-2.4,6-2.7,4.8-.8,9.6.8,14.2.4,7.8-.7,16.7-5.1,21.6-9.4,5.7-4.9,11.6-10.9,16-16.6,3.2-4.2,4.8-9.9,7.8-13.9,2.4-3.1,6.2-4.8,7.8-8.5,1.1-2.5,3.6-10.7,3.7-13,.2-2.7-1.2-4.7-.7-7.2,1.5-8.2,15.2-6.6,17.9-14.3,2.5-7.2,1.1-16.7-.4-23.3-.5-2.5-2.5-6.4-2.2-9,.4-4.5,6.4-8.6,10.8-13,2.7-2.7,4.8-6.7,7.5-9,3.8-3.3,9.2-4,12.7-6.7,3.2-2.5,8.7-9.5,10.1-13.4,1.6-4.5,0-8.1-.4-13-.6-7.7.5-16.5,0-25.5-3.8-4.1-5.3-10.9-7.5-17,.6-5.1,1.5-9.1.4-13.9-.7-2.8-2.7-4.5-3-7.2-.7-7.1,3.5-10.6,5.6-15.7,1.8-4.6,2.9-9.1,4.5-11.7,2-3.2,5.8-4.8,8.2-8.1,1.7-2.3,2.5-5.4,4.1-8.1,4.2-6.9,10.4-14.5,16.4-19.7,3-2.6,6.3-4.1,9-6.7,2.7-2.7,4.9-5.7,7.5-9,4.5-5.9,10.3-13,13.1-20.2.9-2.3.7-5,1.5-7.2,2.4-7.2,7.7-13.1,9.7-21.1.4-1.4.4-3.2.7-4.9,1.1-4.9,3.8-10.6,0-15.7-3.5-1.3-6.6,3.3-11.2,4-4.8.8-9.2.4-13,1.3-2.3.6-4,2.7-6,3.1-1.3.3-3-.3-4.5,0-3,.5-5.5,2.9-7.5,2.7-4.8-.6-7.6-7.2-10.5-10.8.4-2.7,2.1-3.7,1.5-6.7-.5-2.4-3.2-2.8-5.2-4.9-3.4-3.7-6.3-9.1-10.4-12.6-4.6-3.9-10.8-6.4-13.1-12.1-1.5-3.9-1.5-9.8-3.7-13.9-2.7-5.1-9.2-8.2-10.4-13.4-1.3-5.5-.1-9.3-1.1-14.8-1.5-8.2-8.8-10.4-11.2-17.5-.6-2-.5-4.4-1.1-6.3-1.6-5.1-4.8-9.9-7.1-14.3-2.5-4.9-4.8-9.8-6.3-15.7,1.5-2.4,4.8-2.6,7.8-3.1,5.8,5.9,11.2,13.2,14.9,21.5.9,2.1,1.2,4.8,2.2,6.7,1.6,2.9,4.5,4.3,6,6.3,1.9,2.6,3.7,6.1,4.5,9.4.4,2,0,4.1.4,6.7,1.7,9.7,10.5,13.7,14.9,21.5,1.3,2.3,1.8,5.2,3,7.2,2.3,4.1,6.1,6.4,7.1,11.2-.2,2.4-3.1,1.6-3,4.5,1.2,3.6,4.3,4.6,6,8.1,3.2,6.7,3.6,16.2,6.3,23.8,5.8,4.1,11-2.9,16.8-4.9,1.8-.6,3.8-.3,5.6-.9,2.3-.7,4.6-2.8,7.1-3.6,1.2-.4,2.6,0,3.7-.5,2.7-1.2,4.6-4.5,7.8-6.3,4.9-2.7,10.8-2.7,14.2-5.4,3.3-2.5,3.3-7.3,6-9.4,4.1-3.2,8.8-2.3,13.8-4.5,2.5-1.1,4-4.1,6.3-6.3,1.9-1.8,4.3-3.5,6.3-5.8,1.9-2.1,5.3-4.5,6-6.3.4-1,.2-4.3.7-5.8.7-2,3-3.2,4.5-5.4,1.5-2.3,6.5-11.3,6.4-13.9-.2-2.9-7.6-11.3-9.3-12.1-2.8-1.3-5.2-.5-7.1-1.3-2.7-1.2-4.9-4.1-6.3-7.6-1.4-3.5,0-6.2-4.1-9.4-6.9,7.2-11.4,17.4-26.9,14.3-3.4-1.8-1.9-9.4-3.4-13.4-1.6-2.1-4.8.3-6.3-.5-2.3-9.5-10-12.2-14.2-19.3-1.3-2.2-4.4-7.5-4.1-10.3.4-4.1,5.2-6.3,8.2-6.3,8.6.1,9.6,13.8,15.3,18.4,2.3,1.9,5.3,3.2,8.6,5.8,4.6,3.7,10.3,7.3,17.2,5.4,3.2-.9,5.1-4.1,8.6-3.1,2.9.8,3.6,6.7,5.2,8.5,2.7,3,9,4.3,13.8,4.9,3.8.5,8.3,1.3,11.9,1.8,5.7.7,11.2-.5,15.7-.9,3.6-.3,9.2.3,12.3,0,1.3-.1,3.1-1.1,4.5-.9,5,.6,7.6,7.8,10.4,10.8,5,5.2,11.6,7.7,14.2,12.1-3.1,7.4,7.6,15.7,11.6,15.7s5.7-4.4,9.3-5.4c3.9,2.3,2.7,5.8,3,11.7.2,3.9,1.7,10.2,3,15.2,1.3,4.7,2.4,10.1,3.7,14.3,1.6,5.1,4.8,9.9,7.1,14.8,2.7,5.7,3.3,12,5.2,17,1.7,4.4,5,7.6,6.7,11.2,3.6,7.8,5.6,26.5,13.8,25.1,1.8-.3,2.2-2.2,4.1-4.9,1.2-1.7,3.2-3,4.5-4.9.8-1.2,1.2-3.6,2.2-5.4,1.2-2,2.7-2.9,3-4.5.6-3-.6-6.1-.4-9,.3-3.3,2.3-6.2,2.6-9.4.7-7.1-2.4-12.7-2.2-20.2,2.7-6.3,8.7-6.7,12.7-11.2,1.5-1.7,1.9-4.5,3.4-6.3,1.7-2.1,4.4-3.5,6.3-5.8,3.9-4.7,6.5-10.5,10.1-13.4,2.8-2.3,7-2.3,8.2-7.2-.9-10.7,5.2-8.3,12.7-9,2.2-.2,7.8-1.3,10.1-2.2,2.2-.9,4.6-4.5,6.7-4,2.2.5,2.7,5,4.1,8.5.9,2.3,3.2,5.7,5.2,8.1,2.1,2.5,5.4,3.8,7.1,6.3.9,1.3,1.2,3.7,2.2,5.4,2.7,4.2,6.2,6.5,6.3,12.6,0,3-1.6,5.8-1.1,8.5.5,3,3.8,5.4,6.3,5.4,4.9-.1,8.6-9.1,12.3-8.5,3.5.5,5.2,10.5,6.7,15.7,1,3.4,2,5.9,3,8.5,1,2.6,2.7,5.2,3.4,8.1.7,3.1,0,7.3.4,10.8.2,1.9,1.1,3.4,1.1,4.9.2,7.1-1.8,14.2-1.5,20.2.2,4.3,4.8,6,7.5,9,3.1,3.5,7.2,10.2,8.2,14.4,1.2,4.9.9,9.4,2.2,13.5.6,1.7,2,3.5,3,5.4,3.3,6.3,5.7,9.6,10.8,13.4,3,2.2,6.1,5,9.7,5.8,3.8-5.8-2.5-10-3.7-15.7-1.1-5,.5-10.5-1.1-15.2-1.4-4-8.4-11.4-12.3-14.8-2-1.7-5-2.1-6.7-4-2.7-2.9-3-8.8-5.6-13.9-1.6-3.1-4.7-5.5-5.2-8.5-1.3-7.4,2.5-12.1,3.4-18.4.8-6.3-.3-10.1,3-10.3,2-.1,3.6,4.5,5.6,5.8,3.2,2.1,7.1,2.7,9.7,5.8,2.1,2.5,3.2,6.7,6,9.4,3.3,3.3,8.7,4.9,9.7,8.1.7,2.3-.8,7.4,1.9,8.5,6.7-.8,8.7-9.7,12.7-12.6,5.2-3.8,11.9-5.2,14.5-12.1,1.8-27.1-9.3-33.7-19.8-44.8-2.8-3-11-13.1-10.8-17.9.3-6.5,11.5-18.4,16.4-18.8,5.6-.5,10.5,5.1,9.7,10.8-.5,3.2-6.3,5.4-6,10.8.3,4.8,4.9,6.6,7.1,6.3,3-.4,7.2-6,6.7-11.7-.3-3.7-4.3-5.8-4.1-9.4.4-7.3,9.2-6,14.2-8.1,2-.8,3.7-3.6,6-4.5,8.5-3.3,17.9-5.3,25-12.1,7.9-7.6,10.6-18.4,13.1-32.3,5.3-2.9,2.6-10.2,3.4-17.9-.9-3.2-5.1-2.6-6-5.8-.2-2.3,1.1-2.9.7-5.4-1.9-1.9-1.6-5.6-3.3-8.5-.7-1.2-3.3-2.5-4.9-4.5-3.7-4.6-7.1-11.1-9.7-13.4-3.1-2.8-7.1-3.5-7.1-7.6,0-7.2,10.1-11.2,11.9-16.6-2.9-2-6.6-4.5-11.2-4-2.6.3-4.4,3.8-7.1,3.6-3.2-.3-3.6-5-7.1-6.7-3.8-1.9-8.6-.9-8.2-5.8.2-2.7,3.9-3.1,6-4.9,3-2.8,6.4-12.3,11.6-11.7,6.7.8.1,10.4,5.6,14.3,3.7-.9,5-4.9,9-5.8,5.4-1.3,12.2,1,13.8,5.8,1.2,3.6.3,7.5,3.4,9.4,4.6,2.9,8.6.4,10.8,4.9.8,1.6.5,3.9,1.1,5.4,1.1,2.8,3.3,4.2,4.1,7.6,1,4.4-.4,9.2,3.7,10.8,4.4,1.6,15-4.5,15.3-9,.2-3.4-2.8-9.4-4.9-12.5-3.2-4.9-9-10.8-12.3-13.4-2.4-1.9-7.3-2.8-7.5-7.2-.2-4.7,5.3-5.6,6.3-10.3.6-3-.5-4.6-.7-9,2.8-4.1,3.6-9.1,8.2-9.4,3-.2,4.4,2.8,7.5,2.7,3.4-.2,8.3-4.9,9.7-9,.8-2.2,1-6.1,1.9-9.4.8-2.9,2.3-5.9,2.6-8.5.3-2.6-.4-5.4-.4-8.5,0-4.6,1.6-9.4,1.5-12.1-.2-4.2-3.5-9.5-6-13.5-1.2-1.9-8.4-10.4-3.7-12.6,2.4-1.1,6.4,3.9,7.5,5.4,2.4,3.2,4,5.8,5.6,8.1,4.3,6,5.6,13,11.6,15.7,1.6-2,.1-4,.7-6.7.4-1.9,2.1-2.8,1.9-4.9-.2-2.3-5.4-7.2-7.1-9-3-3.2-6.3-5.3-8.6-7.6-6.2-6.5-9.2-14.7-15.7-17-3.4,1.3-1.7,4.3-5.2,4.5-1.9.1-5.7-3-8.2-4.5-2.6-1.6-5.1-4.2-8.6-4-1.7,0-4.8,3.1-7.1,3.1-3.8,0-9.1-6.2-12.3-6.7-1.9-.3-2.6.9-4.1.4-6.2-2,.8-9.7,1.5-11.7.7-2.2.7-4.9,1.1-6.3.5-1.7,2.3-3.7,3-6.3.5-1.8.2-4.1.8-5.8,4-12.3,21.4-2.8,33.2-5.4,2.1-.5,4.4-3.1,7.1-3.1,5.4-.2,8.5,5.3,14.5,5.8,2.1.2,12-.6,12.3-3.1.3-2.7-4.2-4.8-4.5-6.7-1-6.5,3.1-11.7,6-12.6,11.2-3.3,12,8.4,19,7.6,2.4-.3,5.2-3.6,5.6-6.3.4-2.2-1.8-4.9.4-6.3,2.7,1,8,7.3,8.2,10.8.1,3.1-3.5,8.2-3.7,13.4,0,1.9.7,4,.4,5.4-.7,3.5-4.9,5.3-4.8,7.6,1.3,15.2,13.8,24.1,21.6,31.4,7.7,7.1,14.1,14.7,21.3,20.2,1.5-.9,3.1-2.7,3.4-4.9.3-2.6-1.7-4.6-1.9-7.6-.1-2.1,1.3-4,1.1-5.8-.2-2.7-2.5-3.3-2.2-5.4.6-3.3,3.9-2.6,3.7-5.8-.1-2.6-5-3.4-5.6-7.2-.3-2.2,1-2.5.8-5.8-1-2.2-3-2.3-4.9-4-2.3-2.2-3.7-6-6.3-7.2-2.2-1-4.5.2-6.3-1.3-2.8-2.3-2-8-3.4-12.1,2.6-5.8,7.8-2.2,11.9-3.1,1.6-.4,3.4-3.1,5.2-3.6,5-1.3,10.1,3.5,13.4,2.7,2.7-.6,4.9-7.9,7.5-10.8,2.2-2.4,7.8-6.7,11.2-7.2,2.2-.3,5.1,2,7.8-.5-1.4-7.6-17.8-7-18.3-14.8-.2-2.7,2.3-5.6,4.5-6.3,13.8-4.2,24.9,10.2,38.1,6.7,1-12.7-12.2-18.3-23.5-18.4ZM2464.7,2071.2c.3-4.4,5.3-.7,8.2-1.3,3.6-.8,2.8-4.4,5.2-4.9,1.6-.4,3.1,1.7,5.6,1.3,2.7-.3,5-5,7.5-6.3,4.8-2.5,8.6-1.1,9.3-5.8.4-2.6-1.3-6.5-.8-9.4,1.3-6.4,11.3-5.5,10.8-13-.3-4.5-8.1-5.6-9-9.9-.6-2.7.7-7.3,1.5-9,3.4-7.5,14.2-8.2,17.5-14.3,1.6-2.9,1.5-5.8,2.6-7.2,3.1-4,12.5-4.6,15.7-.9,0,10.1-16.8,11.6-17.2,19.7,0,1.8,1.2,4.8,1.5,7.6.3,2.6,0,4.4.4,5.8,1.2,4.4,6.3,7.8,10.1,8.1,8.9.7,22.3-10.3,30.2-2.2-3.4,9.1-15.7,1.6-24.6,5.4-1.8.8-2.9,2.8-4.5,3.6-2.1,1-6,0-6,4,1.8,4.2,4.6-.8,6.7-.9,2.4,0,5.9,3.1,5.6,6.7-.7,8.3-6.8-.3-10.8,0-5.9.4-7.1,10.4-6,17.9-2.7,1.8-5.7,6.8-9.3,7.2-2.3.3-4.1-2.3-7.1-2.7-6.7-.8-13,6.5-19.4,6.3-2.8-.1-5.7-4.1-10.1-4-2.3,0-4,2-6.3,2.2-3,.4-7.7-1.2-7.5-4ZM2600.1,2583.1c-5.2-.7-9-12.8-6.3-20.2h1.1c3.1,2.2,1.5,7.1,2.2,11.2.6,3.5,4.5,5.7,3,9ZM2628.1,2615.8c3.9,2.2,1.7,11.5,0,14.8-4.2-2.1-2.4-11.1-.7-14.8h.7ZM2626.6,2526.6c.5,3.9-2.5,7.2-3.7,10.3-1.2,2.8-.8,5.4-3.4,6.7-4.6.4-8.2-.3-9.7-3.6,1.4-4.2-.3-7.5.8-11.7,1.5-6.2,15-10.4,16-1.8ZM2628.5,2234.8c-.2,3.7-2.7,7.1-4.1,12.1-1.9,7.1-.7,14.2-6.3,16.6-7.7,3.2-12.3-3.7-19.4-3.1-3.7.3-6.5,4.7-10.4,5.4-6.1,1.1-12.6-5.3-19.8-6.3-1.7-.2-3.6.4-4.9,0-1.7-.5-3.1-2.9-4.9-3.6-3.1-1.2-5.5-.5-8.2-1.3-3.7-7.8-22.3-8.3-23.9,3.1-.7,5.1,2.1,12.1-4.1,13-4,.6-8-4.9-13.4-6.3-2.2-.6-5.4-.2-7.1-.9-4.1-1.7-3.6-6.4-7.1-9.4-2-1.7-7.2-4.1-10.5-4.5-2-.3-3.9.7-6,.4-2.5-.3-6.1-2.5-8.2-4-2-1.5-6.2-3.7-6.7-5.8-.8-3.3,5-7.1,5.2-9.9.1-2.1-2.2-3.5-2.6-6.7-.3-2,.7-4.1.4-5.4-.5-2.3-3.7-4.9-6.7-4.9-2.7,0-5.2,2.6-7.5,2.7-3.3.1-8.6-2.2-12.7-1.8-2.5.2-4.8,2-7.1,2.2-6.5.6-11.8-.4-16.8,0-3.7.3-10,1.7-13.4,3.6-1.7,1-3,3.1-5.2,4.5-1,.6-2.4.6-3.7,1.3-2.1,1.2-4.3,3.9-6.3,4.5-2.9.9-7.4-.7-12.7-.5-3.8.2-10,.2-10.1-5.4,0-8.3,11.8-5.3,18.3-6.7,2.5-.6,3.8-3.3,6.7-5.4,1.4-1,3.2-1.2,4.5-2.2,2.3-1.9,5.6-6.4,6-8.5.3-2-1-4.8-.8-6.3.3-1.9,2.1-3.9,4.1-6.3,3.1-3.7,6.6-8.8,10.5-11.2,2.6-1.7,6.2-1.5,7.5-4,.3-2.9-.4-4.5-.4-7.2,1.6-1.8,2.8-3.2,4.1-3.6,4-1,8,3.4,12.7,3.1,2,0,3.8-1.9,6-3.6,1.8-1.5,3.8-2.5,5.6-3.6,2-1.2,3.9-3.9,6.3-4,5.9-.4,8.1,7.4,10.8,11.7,2.2,3.5,8.6,9.6,12.3,12.1,2.1,1.4,4.8,1.5,7.1,2.7,4.8,2.6,14.4,11.3,14.5,17,0,2.9-2.2,5-1.9,7.6,3.7.7,7.7-4.1,7.8-8.5,0-2.8-2.3-4.3-1.9-7.2,1.7-4.4,6.7,0,9-1.8-.4-5-6.1-5.5-9.7-8.1-1.9-1.4-3.2-4.4-5.2-5.4-2.9-1.4-6-1-8.2-3.1-2.1-2-3.1-6.4-5.2-9.4-3-4.3-9.6-5-7.8-14.8.9-1.5,3.1-3.8,4.5-3.1,2.8.8,2.4,3.7,4.5,5.4,1.5,1.2,3.6,1,5.2,2.2,2,1.5,3,5.4,5.2,7.6,3.1,3.2,8.7,5.5,13.1,8.1,4.1,2.4,10.8,5.6,11.6,9.9.5,2.4-.6,5.1-.4,7.2.3,2.7,1.9,5.4,3,7.2,2.9,4.8,6.9,9,10.1,14.8,0,7.9,2.3,12.7,9.7,11.6,2.7-1.7,1.3-4.1,3.4-6.7,2-2.5,6.3-2.2,6.3-5.8,0-5.6-11.2-6.5-9.7-14.8.4-2.6,2.9-1.4,4.8-1.3,3.2-4.4,9.8-10,14.2-3.1,1.9,13.5,5.4,25.4,13.4,32.7,5.7-2.4,8.1,3.9,13.4,2.7,2.6-.6,3.8-4.5,6.4-4.9,4.6-.8,7.6,5.2,11.9,5.8,7,1.1,12.1-8.6,19-3.6.3,6.8,2.1,10.4,1.9,15.2ZM2652.3,2181.9c-3.5.8-9.6,1-13.1.9-10.3-.3-18-9.6-29.8-9-2.7.1-5.1.9-7.1,1.8-3.2,1.4-5.4,4.6-8.2,5.4-3.5.9-8.8-1.1-11.6,0-3.4,1.4-3.8,11.1-10.4,4.5-.4-4.2,4.2-2.4,4.5-5.8-.2-3.3-3.8-5.1-4.1-9-.4-4.4,3.2-6.2,4.5-11.2.4-1.6,0-3.4.4-4.5.7-1.8,2.5-2.9,3.7-4.9,2.2-3.9,4.6-11.5,9-12.1,4.2-.5,6.5,3.7,10.1,3.6,2.5,4.1,3.6,10.8,8.2,11.7,3.8.7,8.3-3.4,11.9-4.9-.9-4.1-4.7-1.9-5.2-5.8-.8-6.8,11.3-9.1,16.4-7.6,3,7.4-4.5,8.8-4.5,13,0,3.9,10,7.5,12.7,9.4,4.5,3.3,9.2,5.7,13.1,8.5,5.1,3.7,9.7,13.9-.4,16.1ZM2740,2214.2c-2.4,3-6.9,4.6-11.2,4.5-4-.1-7.7-3.8-11.6-5.8-3.9-2.1-8.1-2.3-8.9-7.2-.4-2.3.4-8.6,1.1-11.2.7-2.7,2.7-3.3,2.6-5.8-.1-3.1-6.4-8.6-8.6-11.2-3.1-3.6-7.3-6.4-9-10.8-.6-1.6-.4-3.9-1.1-5.8-1.3-3.7-4.6-5.3-4.9-8.1-.2-1.9,1.8-5.8,3.4-7.2,1.6-1.5,4.9-3.3,7.8-5.8,6.1-5.3,11.3-7,20.9-4.5,2.4,1.7,4.1,8.9,1.5,11.2-6.1-.2-11.4,2.6-11.6,7.6-.1,6.1,10.3,12.7,14.6,15.7.4,2.8.6,5.8,2.2,7.2,5.6-2.5,11.2,1.4,11.2,6.7-1.3,3.6-5,0-7.4,1.3-.7,0-.3,1.5-1.1,1.3,1.9,11.1,11.9,12.2,10.1,27.8ZM2775.5,1981.5c-1.1-4.8,2.5-5.3,2.6-9.4.2-7.9-11.7-10.4-11.2-20.2.4,0,.3-.8.4-1.3,5.5-1.3,5.2,4.6,7.5,9,1.9,3.6,6.5,4.3,7.8,5.8,5.8,6.7,1.7,18.6-7.1,16.1ZM2921.3,1934c-.9-2.6,1.9-3.1,3.4-4,2.6-1.6,4.1-3.6,8.2-3.6-.9,5.2-8,7.1-11.6,7.6ZM2478.9,2208.4c2.7,5.4,8.4,7.2,14.5,8.5,2.2-2,2.4-6.4,3.4-9.9-5.4.1-14-2.4-17.9,1.3ZM2451.6,2184.6c0,5,.4,8.2-.4,12.6,2.4,5.5,7.7.6,9-3.1,1.9-12.4-3.5-15.8-8.6-9.4ZM2456.5,2177c1.7-1.2,3-2.9,2.6-6.7-3.8-4.9-7.5,5.7-2.6,6.7ZM2459.1,2170.3c-3.8-4.9-7.5,5.7-2.6,6.7,1.7-1.2,3-2.9,2.6-6.7ZM2451.6,2184.6c0,5,.4,8.2-.4,12.6,2.4,5.5,7.7.6,9-3.1,1.9-12.4-3.5-15.8-8.6-9.4ZM2478.9,2208.4c2.7,5.4,8.4,7.2,14.5,8.5,2.2-2,2.4-6.4,3.4-9.9-5.4.1-14-2.4-17.9,1.3ZM2478.9,2208.4c2.7,5.4,8.4,7.2,14.5,8.5,2.2-2,2.4-6.4,3.4-9.9-5.4.1-14-2.4-17.9,1.3ZM2451.6,2184.6c0,5,.4,8.2-.4,12.6,2.4,5.5,7.7.6,9-3.1,1.9-12.4-3.5-15.8-8.6-9.4ZM2459.1,2170.3c-3.8-4.9-7.5,5.7-2.6,6.7,1.7-1.2,3-2.9,2.6-6.7ZM2459.1,2170.3c-3.8-4.9-7.5,5.7-2.6,6.7,1.7-1.2,3-2.9,2.6-6.7ZM2451.6,2184.6c0,5,.4,8.2-.4,12.6,2.4,5.5,7.7.6,9-3.1,1.9-12.4-3.5-15.8-8.6-9.4ZM2478.9,2208.4c2.7,5.4,8.4,7.2,14.5,8.5,2.2-2,2.4-6.4,3.4-9.9-5.4.1-14-2.4-17.9,1.3ZM2478.9,2208.4c2.7,5.4,8.4,7.2,14.5,8.5,2.2-2,2.4-6.4,3.4-9.9-5.4.1-14-2.4-17.9,1.3ZM2451.6,2184.6c0,5,.4,8.2-.4,12.6,2.4,5.5,7.7.6,9-3.1,1.9-12.4-3.5-15.8-8.6-9.4ZM2459.1,2170.3c-3.8-4.9-7.5,5.7-2.6,6.7,1.7-1.2,3-2.9,2.6-6.7ZM2459.1,2170.3c-3.8-4.9-7.5,5.7-2.6,6.7,1.7-1.2,3-2.9,2.6-6.7ZM2451.6,2184.6c0,5,.4,8.2-.4,12.6,2.4,5.5,7.7.6,9-3.1,1.9-12.4-3.5-15.8-8.6-9.4ZM2478.9,2208.4c2.7,5.4,8.4,7.2,14.5,8.5,2.2-2,2.4-6.4,3.4-9.9-5.4.1-14-2.4-17.9,1.3ZM2478.9,2208.4c2.7,5.4,8.4,7.2,14.5,8.5,2.2-2,2.4-6.4,3.4-9.9-5.4.1-14-2.4-17.9,1.3ZM2451.6,2184.6c0,5,.4,8.2-.4,12.6,2.4,5.5,7.7.6,9-3.1,1.9-12.4-3.5-15.8-8.6-9.4ZM2459.1,2170.3c-3.8-4.9-7.5,5.7-2.6,6.7,1.7-1.2,3-2.9,2.6-6.7Z"/>
          <path class="cls-17" d="M1711,2083.7c-.7-.6-1.3-1.4-1.9-2.2.2-4.3,5.2-7.4,7.1-3.1-.8,2.9-2.9,4.2-5.2,5.4Z"/>
          <path class="cls-17" d="M2041.6,2010.7c0,2.5-7.4,6.6-8.2,1.8-.1-.8,0-2.5,1.5-3.6,2-1.5,6.6-.6,6.7,1.8Z"/>
          <path class="cls-17" d="M2226.7,2584.9c-.2-5.4-3-17.5-6.3-19.3-1.9-1-6.2-.1-9-1.3-8.8-4-14-17.1-23.1-17.9-2-.2-3.8,1-6,.9-3.6,0-9.1-3-13.1-3.6-2.5-.3-5.9.9-7.5,0-2.3-1.4-2.6-6.5-4.5-8.1-1.5-1.2-4.4-1.7-6.7-2.7-3.7-1.7-6.6-3.7-10.8-4-1.3,0-3,.8-4.5.5-2.3-.5-4.2-3.8-6.3-5.4-2.7-2-5.2-3-6.3-5.8,2.4-9.7-4.3-12.4-6-17.9-.8-2.6-.4-5.7-1.1-8.1-1-3.3-3.7-5.3-6.7-8.1-5.4-5-10.2-9.6-17.9-10.8-3.4-.5-6.7,1.2-10.8.9-4.3-.3-9.8-5-13.1-9.4-3.2-4.4-4.7-8.2-7.5-10.3-2.6-2-6-2-7.8-4-.8-.9-.7-2.4-1.5-4.5-1.3-3.3-3.5-5.1-1.9-9-3-1.8-3.1,3.4-6.3,2.7-2.9-4.9-5.3-7.3-11.9-5.8-3,.7-4.7,5.3-8.2,5.4-2.9,0-5.1-3.8-9-4.5-2.9-.5-6.2.9-8.2.5-3.2-.7-4.2-4-7.1-6.3-2.1-1.7-6.3-4.5-7.5-4.5-3.7.1-6.4,9.6-11.6,6.3-2.5-3.8,4.1-5.8,1.1-9.4-2.3-2.7-4.2,1.2-6,2.7-2.1,1.7-4.1,3.5-6.3,4.5-5.1,2.3-8.3,1.1-12.3,3.6-3.7,2.3-3.9,6.2-6,10.8-1.7,3.8-5.6,9.2-8.2,9.4-3.1.3-6.1-5.3-9-6.7-8.5-4.4-12.7,3.9-19.8,4-6.6.1-16-12.7-15.7-20.2.2-4.5,2.2-11.4,2.6-17,.4-4.5,3-7.1,3-11.2,0-5.4-6-9.7-9-10.3-7-1.5-16.6,3.4-24.6-.5-1.5-3,1.8-5.1,2.6-8.1.5-1.7.2-4,.7-5.8.9-2.8,3.4-5.1,4.5-8.1.8-2.3,1-5.7,1.9-8.5,1-3.3,2.8-5.3,3-7.6.3-3-.6-6.5-2.6-8.5-6.2.4-10.3.8-13.8,2.7-8.1,4.4-6.5,17.5-14.5,20.6-2.8,1.1-6.6,1.1-9.7,1.8-2.6.6-5.9,2.3-8.6,2.2-3.2,0-8.9-3.8-10.8-6.3-1.7-2.2-5.9-13.3-6.3-15.2-3.2-13.2.3-25.3,4.5-34.5.9-1.9,2.3-3.8,3-5.8,1-3.1.3-7.8,1.1-11.2,1.4-6.2,8.2-10,13.1-13,5.5-3.4,10.1-8.9,16.4-9.4,3.2-.3,7.8,1,10.8,1.8,2.8.7,5,2.9,7.5,3.1,6.9.6,8.5-5.8,14.2-9.4,5.8,1,9.7-1.2,14.9-.5,3.6.5,6.2,5.1,9,5.4,2.3.2,4.4-2.7,6.7-2.2,2.2.4,6,6.2,6.3,9.4.4,4-2.5,7.7-1.5,12.1,2.9,3.5,7.6,4.7,12,6.4,2.1.8,4.5-.7,4.5-3,0-3-1.3-6.6-1.6-9.6-.2-2.1.2-3.9,0-5.8-.3-3.2-1.5-6.2-1.5-9,0-12.8,8.5-18.7,15.7-23.8,3.1-2.2,5.5-6,8.2-7.6,3.8-2.3,6.6-2.8,9.7-4.9,5.7-3.8,10.5-6.9,14.9-11.2,2-5.8.1-13.6.4-19.3,2-1.5,3.8.7,6,.4,3.4-.9,3.7-6.7,5.6-9,1.1-1.3,4.2-2.3,5.6-3.6,3.4-3.2,4.5-8,7.5-9.4,1.1-.5,3.5-.4,5.2-.9,2.2-.7,5.4-3.9,9-5.4,2.3-1,7.7-1.2,8.6-2.2,1.1-1.3,0-5.1.4-7.2,1.8-10.1,14.5-12.3,22-15.7,5.3-2.4,10.6-6.7,16.4-5.4-1.1,4.8-6.5,3.1-5.6,9,1.3,8.1,10.3-2.4,12.7-3.6,4.6-2.3,12.3-3.7,18.3-6.3,5.2-2.3,14.6-5.8,9.7-13-4.1-.3-6.1,5.8-9.7,7.6-2.5.4-2-2.5-4.1-2.7-2-.2-3.2,2.2-5.2,1.8-2.1-.4-4.9-4.3-5.2-7.2-.8-7.5,5.3-10.6,7.8-16.1-1.7-6.8-9.5-1.4-14.2-4,.4-4,3.9-6.8,7.8-7.6,3.2-.6,10.4-.1,12.3,1.8,1.1,1.1.1,4,1.9,5.8,1.9,2.1,4.2,1.8,6.7,1.3.9-5.1-5.5-3.8-4.8-7.2,5-4,13.2-.7,19.4-1.8,3.6-.6,7.3-3.7,10.4-5.8,3-2,6.9-5.6,10.1-2.2.9,3.7-2.8,4.9-4.5,6.7-4.9,5.2-9.9,11-14,17-1.4,2.1-.1,4.9,2.4,5.1,2.4.2,5.2-.1,7.9.2,1.8.3,4.1.9,6,1.3,2.2.5,4.6.4,6.3.9,3.1.9,4,4.9,7.1,4.9,5.1,0,5.1-6.6,2.2-10.8.9-4.2,2.4-6.4,1.1-9.4-2.3-5.5-10.8,0-11.2-7.2-.3-4.5,3.1-4.3,4.5-7.6-.6-8.6,5.9-9.3,5.2-17-.3-3.2-2.6-3.2-4.5-6.3-1-1.6-1.4-4.6-2.6-5.8-3.9-4-11.8-3.2-12.3-10.8-.2-4.5.9-8.2.4-13-.5-4.5-3.1-17.1-6.3-17.9-4.2-1.1-8.4,7.5-13.4,10.3-2.7,1.6-6.6,3.3-9.3,2.7-1.8-.4-5.3-3.5-5.6-7.6-.3-4.7,2.6-4.8,3.4-9.9-.6-3-3.2-2.3-5.6-4.5-2.7-2.5-4.9-7.9-8.6-8.5-1.8-.3-4.2,1.6-6,1.8-5.5.5-10.3-4.3-14.5-3.1-5,1.4-4.8,10.8-9.7,12.6.7,4.4-4.3,7.3-4.8,10.8-.4,2.3.6,5.1.7,7.2,1.1,21.4-13.6,31.5-31,30.9-3.4,3.9-2.6,11.2-4.5,16.6-1.6,4.5-7.1,9.3-10.8,9-2.8-.3-6-4.9-6-8.1,0-3.8,4.6-5.9,1.9-10.3.4-3,5.9-4.7,5.2-9.4-.7-4.9-6.4-2.4-11.6-3.1-3.7-.6-8.6-3.2-12-5.4-4.4-2.9-8.1-8.6-13.8-9.4-3.2-.5-6.3,1.3-7.8-.9-1.7-2.4.7-6,.7-7.6,0-2.7-4.3-3.6-4.5-6.3-.1-1.9,4-7.8,5.6-9.4,2.9-3.1,8.3-6.3,13.1-9.4,4.6-3,10-6.3,14.5-8.1,1.9-.8,4.1-.5,6-1.3,4.7-2.1,7.8-6.1,12.3-7.6,2.3-.8,4.9-.6,7.5-1.3,6.2-1.7,10.8-7,16-8.1-1.2,5.2-6,6-7.1,11.2,4.5,9.9,12.2-2.3,17.5-2.2,4.8,0,9.7,8.2,12.7.4-1.1-4.2-4.4-6.6-7.5-9-2.9-2.2-7.4-4.2-7.1-9,3.4-1.8,4.8,3.1,7.8,3.1,1.7,0,3.9-2.4,5.6-3.1,3.9-1.6,10.4-2.1,13.4-5.4,1.8-2,1.6-5.1,3-7.6,1.2-2.1,4.3-2.8,5.6-4.9,1.6-2.7.2-4.9,2.2-6.3,4.4-2.3,9.7.5,14.5,0,2.3-.3,3.8-2.4,6-2.2,4.2.4,6.4,8.5,9.3,10.8,2.1,1.7,6,1.6,6.3,4.9.7,6.5-7.1,7-11.9,10.3-2.4,1.6-3.4,5.4-6.3,6.7-7.9,3.6-19.9-4-22.4,6.3,3.6,6.5,10.3-.4,14.9-.4,3.3,0,7.3,3.7,9.3,6.3,1.7,2.2,2.4,6.6,4.5,8.1,1.4,1,3.9.7,5.6,1.3,5.5,2,10,5.6,16,4,2.1-4.3-4.3-5.6-1.9-9,4,.4,6.6,2.5,9.7,4,4.3-3.8,7.2-4.2,7.1-10.3-.1-5.1-5.7-5.3-5.6-11.2,0-3.3,2-4.8,4.1-4.9,4.8-.2,6.2,8.3,9.7,9,2.1.4,8.4-3.3,9.7-4,1.8-1.1,7.3-5,7.5-7.2.3-3.3-5.8-7.6-8.6-9-4-2-8.1-1.7-9.7-5.8-.9-2.3.5-4.7-1.1-6.3-.2-2.4,2.5-3.9,1.9-6.3-.6-2.4-2.8-2-5.6-3.6-2-1.1-3.9-3.5-5.6-4-2.3-.7-4.6-.1-6.3-.9-6.6-2.9-5.4-9.5-9.7-12.6-5.6.8-10.5-2.4-14.5.5-5-3.3-12.6.8-19,0-1.9-.2-3.7-1.6-5.6-1.8-9.8-1-23.3,6.4-27.2,11.7-.7,1-3.6,6.8-3,9.4,1.1,4.8,8.5,1.3,10.4,5.8-.5,5.6-5.4,8.4-9.3,10.8-3.7,2.2-8.4,7.8-12.3,4.9-1.5-4.8,4.4-4.8,3-9-1.1-3.1-5.8-1.1-7.8-4-2.9-4.1.6-10-.4-16.1,4.2-9.2,20.3-4,24.6-13-.6-2.9-3-1.3-4.9-2.2-2-1-2.4-3.1-4.5-3.1-1.9,0-4.4,2.5-6.7,3.6-2.6,1.2-5.3,2.1-7.1,3.6-4.2,3.2-5.8,11.4-10.8,9.9-1.1-4.9,4.7-7.4,4.1-11.7-1.2-2.8-4.6-1.6-7.1-1.3-7.1.8-12.2,2.6-14.9,7.2-2.4-.4-5.8-2-7.5.4,1.6,3.4,4.9,8.7,8.6,9.4,2.6.5,5.3-2.4,7.8,0,.6,4.8-4.7,4.7-4.9,9.4-.1,2.8,2.9,4.4,2.6,7.2-.4,3.8-8.8,8.6-11.9,6.3,0-4.4,4.9-3.1,4.9-7.2,0-1.7-2.4-4.1-4.1-4.5-3.1-.6-8,2-10.1,4.5-1.8,2.1-1.6,5.9-3.7,7.6-3.3,2.7-7.7,1.2-11.6,1.3-7.5.2-11.8.7-17.2-2.7-1.6-1-4.7-2.8-4.5-5.8,5.9-.3,11.5,3.3,18.3,1.8,2.4-.6,3.3-3.2,5.6-4.5,2.5-1.4,5.6,0,6.3-3.1-.2-5.4-5.5-3.8-6-8.1-.3-2.4,2.8-7.6,4.8-9.9,2.3-2.6,6.3-3,7.1-6.3-1.9-4.6-5.9.3-9,.9-1.8.3-3.6-.5-5.2,0-3.8,1-5.7,5.1-8.2,6.7-.8-.2-1.4-.6-1.9-1.1-1.6-1.7-4-2.5-6.2-1.9-2.4.6-4.7-.7-7.2-1.4-1.8-.5-3.9-.5-5.2-.9-3-1-4.9-5.4-8.6-6.7-2.1-.7-5.7,0-9.3-.4-6.2-.9-11.9-3.1-17.2-2.2-6.4,1.1-10.5,6.5-15.7,9-6.3,3-17.2,7-8.6,13.4,8.5-.4,15.7-4.8,23.1-4.9.8,5.5-2.5,10-4.1,13.9-1.2,2.8-.9,4.7-2.2,5.8-5.3,4.3-14.8-3.7-21.6-4.9-3.8-.7-7,1.2-10.4,1.3-3.6.1-6.8-2-10.1,0-2.9-1.1-2.4-5.3-5.2-5.8-2.1-.4-4.4,2.4-6.3,2.7-1.9.3-3.6-.6-5.6-.4-3.7.2-7.8,2.1-11.9,3.1-4.6,1.1-9.1.5-13.4.9-6,.6-12.5,4.3-18.3,3.6-3.1-.4-5.6-3.8-8.6-4.5-2.1-.5-4.5,0-6.7-.4-2.3-.5-4.2-1.8-6.3-2.2-5.6-1.3-12.2,0-17.9-.9-2.5-.4-4.6-2.3-7.1-2.7-2.7-.5-5.8.5-8.6,0-1.8-.3-3.4-1.8-5.2-2.2-2.3-.6-4.9,0-7.1-.4-2.4-.5-4.4-2.6-6.7-2.7-3.5-.2-6.9,1.9-10.1,2.7-3.6.8-7.1.5-10.8.9-4.6.5-9.5,2.8-14.6,3.6-5.2.8-9.8,2.3-14.2,4.5-5,2.5-9.1,3.6-14.2,4.5-4.4.8-10.3.1-13.4,5.4.8,3.7,3.4,7.5,2.2,12.1-2.5,6.4-8.1.7-12.3.4-3.8-.2-10.3,1.6-14.5,2.7-4.7,1.2-11.1,2.7-10.8,7.6.4,8.2,16.6,1.6,20.5,5.4.6,6.1-6.7,5-11.9,5.8-2.4.4-4.8,2.5-6.7,2.7-1.9.2-3.8-1-5.2-.9-3.7.3-6.7,3.2-11.6,4.9-3,1.1-10.6,3.8-10.8,6.3-.4,3.9,7.9,6.9,12.3,9.4,5.9,3.3,9.2,5.3,14.5,6.7,5.8,1.5,16.3,1.2,22,.5,2.2-.3,4.9-1.5,6.3-1.3,3.6.4,3.6,3.7,6.7,4,3.7.4,5.4-2.6,9-3.6,3.6-1,8.3-.3,11.9-2.2,3.7-1.9,5.2-5.6,7.8-5.8,4.3-.4,6.5,4.8,11.2,5.8,7.6,1.6,13.6-.6,19,2.7,4.3,2.6,6.6,10.4,8.6,13.4.9,1.3-2.4,4.7-2.6,6.7-.2,1.4.8,3.5.7,5.4-.2,4.7-3.3,7.8-.7,10.3,2.7,2.8,7.2-3.8,9.7.5,2.5,4.3-2.4,5.9-3,9.9-.7,4.6,1.2,9.1,1.1,13.4,0,1.9-.5,6.5-1.1,8.1-1.1,3.1-4.9,3.1-5.2,6.3-.5,5.1,6.2,8.7,6.7,13,.4,3.1-2.1,8.7-3,11.2-2.5,7.1-6.5,13.1-10.8,19.3-4,5.8-10,11.2-12.7,17-1.5,3.2-1.7,6.9-3,9.9-1.9,4.3-5.2,6.4-7.1,10.8-.7,6.2-.2,11.7,0,17.5.3,5.8-.2,11.6.4,17,.3,3,1.2,8.9,2.6,11.6,1.6,3.2,4.2,2.3,7.5,4.5,2.5,1.7,6.3,5.9,7.1,9,.9,3.4.4,8.6.8,13,.4,4.7.5,10.1,1.5,13.4,1.1,3.7,6,7.3,6,11.6,0,4-4.5,4.4-4.5,8.5,0,6.5,10.7,6.7,11.9,13,.7,3.2-1.3,6.8-.7,9.4.7,3.2,5.1,5.8,6.3,7.2,2.2,2.5,3.5,6.7,7.1,5.8,2.6-4.1-2.1-7.3-3.4-10.8-1.4-3.8-1.4-10.4-3-16.6-1-3.9-3.9-6.9-4.9-10.3-1-3.6-.8-7.3-1.9-10.3-1-2.9-4.5-6.9-4.9-9.9-1.2-10.7,8.2-14.4,10.8-6.3,1.6,4.9-.7,9.3,0,14.4.6,4.1,4.9,8,7.1,11.6,2.5,4.1,4.4,8.1,6.7,10.8,0,.8,0,1.4,0,1.9.1,3.2,1.3,6.3,3.2,8.8,2.2,2.8,4.4,5.5,6.4,8.6,4.1,6.3,10.7,14,9.7,24.7-.3,3.4-3.1,6.4-3,9.9.1,3,3.2,6.6,6,9,3,2.5,5.5,5.4,7.8,6.7,1.7,1,4.7,1.1,6.7,2.2,2.7,1.4,4.8,4.9,7.8,6.7,3.8,2.3,8.8,3.7,13.4,6.3,4.4,2.5,10.3,5.8,13.8,5.8,3.5,0,7.3-4.4,11.2-4.5,9.1-.3,13.1,14,20.5,18.4,1.9,1.1,4.3,1.2,6.7,1.8,1.9.5,3.4,1.5,5.2,2.2,3.9,1.6,8.8,1.5,11.9,3.1,4.8,2.5,8.2,13.3,12.3,16.1.2,2.9-.4,6.8.4,9,1.9,3.1,4.7,2.4,7.8,4.5,3.8,2.5,5,8.8,8.6,10.8,1.2.7,4.4.6,6.3,1.3,4.9,1.8,6.6,8.7,10.8,7.2,2.8-1,2.5-4.4,3-7.6,1.8-2.4,3.9-6.2,6.7-6.3,4.6-.1,5,5.8,6.7,11.2,1,3.1,3.5,5.8,4.1,9,1.1,5.6.6,22.2-.4,25.5-1.2,4.1-5.8,5.8-8.6,10.3-1.3,2.1-2,5.2-3,6.7-1.8,2.7-4.6,3.4-6,5.8-.8,1.4-1.5,4.4-2.2,6.3-2.3,5.7-5.2,9.7-3.4,16.6.8,2.8,4.5,4.7,4.5,8.1,0,3.9-6.9,7.4-7.5,11.7-.4,3.2,2.1,8.9,3,13,.6,3.1,5.5,5.1,7.1,7.2,2.6,3.5,4.7,8.6,7.1,13,4.7,8.7,8.5,19.3,13.1,27.8,2.4,4.4,5.8,8.4,7.5,13,.8,2.3.7,5.1,1.5,7.2,2.7,7.2,14.4,14.8,20.5,18.4,2.8,1.7,6,2.3,8.6,4,4,2.6,11.8,9.7,13.8,13.9,1.8,3.7,2.9,12.9,3.7,18.8,1.1,7.9,0,13.9.4,22.4.2,4.6,1.4,9.3,1.5,13.9,0,1.6-.7,2.8-.7,4.5-.2,5.6,1.1,11.9.7,17.5-.2,3.1-.9,5.5-.7,8.1.2,2.8,1.3,5.2,1.5,7.6.2,2.6-.6,6-.4,8.1.5,5.7,3.9,10.1,4.9,15.2.7,4.1,1.2,12.6.7,17.5-.2,2.6-1.5,5.2-1.9,8.1-.2,2.2.3,4.6,0,6.7-.4,3.1-2,5.6-1.9,8.5.3,6.1,5.9,11,6.7,17,.3,2-.4,4.3-.4,6.3.1,3.7,1.6,6.8,2.2,10.3,1,5.2,0,12.4,4.5,14.8,4.7-1.7-.9-8,1.9-10.8,5.3,1.9,3.6,12.4,5.2,18.8-2.1,1.6-4.6-1.8-6,1.3-1.2,2.7,1.8,5.3,1.9,7.2.2,3.3-2,7.1-1.5,9.4.8,3.8,6.5,3.1,7.5,6.3,1,3.4-1.9,5.8-1.9,9.4,0,3.6,4,10.3,7.1,15.2,1.4,2.3,3.6,3.8,4.9,5.8,1.1,1.9,1.8,5.2,3,6.7,1.3,1.6,4.4,2.5,6.3,4.1,3.2,2.6,6.9,9.2,10.1,11.2,1.4.9,3.4,1.3,5.2,2.3,2.4,1.3,4.9,3.5,7.1,4.5,6.1,2.6,12.2,4.4,17.2,7.2h5.2c1-.7,4.6-.7,5.6,0h.7c3-1,6-2,6.7-5.8-2.3-6.3-10.1-5.5-15.3-9-3.5-2.3-6.8-7.3-9.3-10.8-2.6-3.5-7.8-8.3-7.8-12.6,0-3.5,3.1-4.4,3.7-7.6.5-2.3-.8-3,0-5.8,1.5-5.3,5.7-5.3,5.6-10.7-.3-8.9-14.6-5.2-14.9-14.4-.2-6.1,7.2-5.9,8.2-11.7.4-2.7-.6-3.8-.7-8.1.8-4.4,4.8-5,5.6-9.4-1.6-3.2-5.1-1-7.5-2.7-2.3-1.6-3.3-5.1-3-8.5,3.9-2,11.4,4.8,14.2-1.8,1.4-3.1-1.6-10.8.4-13.9,1.3-2.1,8.4-2.2,11.2-2.7,4-.8,8.6-1.8,10.8-3.6,2.4-1.9,6-7.5,5.6-13-.2-2.6-1.7-3.5-3.4-5.8-1.4-2-2-4.4-3-6.3-1.7-3.1-4.5-2.7-5.2-7.2,5.4-1.2,13.5,5.3,21.3,2.7,3.7-1.3,8.7-10.7,10.5-14.8.5-1.3.5-3.4,1.1-4.9.7-1.7,2-3.1,2.2-4,.6-2.4.3-4.3.7-5.8,1.4-4.6,4.8-6,7.1-9.4,1.7-2.5,2.5-5.5,4.1-8.1,1.8-2.7,3.3-5.2,4.5-7.6,1.1-8.2-2.7-13.9-1.1-21.1,1.8-8.1,11-13,17.5-16.6,2.2-1.2,4.5-3.3,6.4-4,4.5-1.9,10.1-.9,14.2-2.7,7-3.1,7.7-12.1,11.2-19.7,1.6-3.6,3.8-7.3,4.1-9.8.3-2.3-.7-4.4-.4-7.2.3-2.7,2.4-5.1,3-8.1.8-3.9,1.1-9.6,1.1-13.9s-1.4-6.7-1.5-9.9c-.5-11.6,3.5-12.9,7.1-19.3,1.8-3.1,2.5-6.7,3.7-9,6-10.8,16.4-16,15.7-32.3ZM1988.6,2158.6c3.5-.4,8.5-.9,10.1.9-1.2,5.9-11.8,4.4-15.7,2.2.3-2.2,3.2-2.8,5.6-3.1ZM1945.7,2149.6c-5.3,3.8-8.4,9.7-10.1,17.9-.5,2.4-5.7,8.7-8.2,8.1-5.9-1.5,1.6-14.6,3-16.6,1.5-2.2,3.5-4.2,5.2-6.7,1.7-2.5,2.8-5.8,4.5-7.2,2.4-2,10.8-4.4,12.3-2.2-.5,4.8-3.6,4.5-6.7,6.7ZM1961,2177.4c-2.8,1.1-7.7,2.5-8.2-1.3-.6-4.7,4.1-3.6,6.7-4,4.3-.7,9.2-4.5,14.5-2.2-3.4,3.5-7.2,5.4-13.1,7.6ZM1967,2140.7c1.7.2,3.9,2.5,6,2.7,2,.2,3.6-1.3,4.9-.9,3.1,1,4.4,6.6,1.5,9.4-2.4.4-3.4-1.3-5.2-.9-5.1,1-7,12.9-10.8,12.6-3.6-.4-5.5-10.8-1.9-13.9.1-2.7-1.6-3.1-1.5-5.8,1.1-1.7,4.1-3.4,7.1-3.1ZM1952.8,2119.2c3.4,1.1,12.3,12.8,4.9,16.6-.7.4-10.9,1.7-12.7,1.3-2.6-.5-4.1-4.8-6.7-5.4-5.2-1.1-12.1,7.5-15.7.5.9-4,4.6-4.1,8.6-5.4,7-2.3,15.6-9.5,21.6-7.6ZM1920.4,1968.1c6.1.8,13-1,17.2,1.3.9,2.2-1,3.5-2.2,4.5-7.2-6.3-17.7,3.6-24.6-3.1.5-9.5,6.3-8.5,9.7-2.7ZM1905.8,2079.7c7-2,4.2,12.8,0,13-5.8.3-4.7-11.7,0-13ZM1874.1,2016.9c-.5,2.7-3.5,2.3-5.6,3.1-3.6,1.5-8.8,4.5-14.5,3.1.3-3.3,4.7-3.8,7.8-5.8,2.7-1.7,4-4.6,6.7-4.5,2.1,0,3.9,2.4,5.6,4ZM1853.2,1982.9c6.6-.7,18-6.7,19.8,3.1-1.5,2.6-4,1.3-6.3,1.8-5.8,1.2-12,5.6-17.2,4,.5-3.9,2.3-6.2,3.7-9ZM1978.5,2446c-2.8.5-4.2-5.2-1.5-6.7,3.6-2,4.4,6.2,1.5,6.7Z"/>
          <path class="cls-17" d="M3323.5,2864.6c-1.1,5.6-4.7,11.8-9.3,15.7-3.4,2.8-14.1,8.5-15.3.5-.3-2.2,2.1-12.6,3-14.8,2.6-6.3,5.5-2.2,9.7-1.3,4.4.8,8.5-3.2,11.9,0Z"/>
          <path class="cls-17" d="M3294.4,2212.9c1.5,5.4,2.6,10.7,3.7,15.7-4.1,6.1-12.2,3.9-18.3,7.2-2.8,1.6-3.6,7.2-6.4,8.1-2.2.7-3.9-2.3-6-2.2-5.4.1-8,10.8-14.6,8.1-3.8,2.7.1,13-4.5,13.9-3.3.6-5.1-4.5-7.1-7.6-2.4-3.8-5.9-5.9-6-9-.1-3.2,5.4-8.5,7.1-10.8,2.1-2.7,6.3-7.8,9-8.5,5-1.3,10,.6,13.8-1.3,3.3-1.7,3.5-7.9,5.2-9.4,1.5-1.3,3.2-1,4.5-1.8,3.5-2.3,7.2-10,5.2-17.9-1.2-5-8.2-10.5-3.7-16.6,6.6.8,15.3,8.7,16.4,16.6.4,3.1-1,6.2-.8,9.4.1,1.9,1.6,3.8,2.2,6.3Z"/>
          <path class="cls-17" d="M3295.9,2164c-.8,2.3-2.5,1.8-4.1,3.1-1.5,1.3-3.3,5.4-5.2,5.8-3,.7-6.4-3.5-9.3-2.7-3.5,1-1.5,4.2-2.6,8.1-3.1-.8-8.1-4.9-8.2-9,0-2.6,2.7-4.2,3.4-7.2,1.1-5.1-1.8-7.7-3.4-12.6-.1-.7.4-.8.4-1.3,3.6-.9,10.8,7.3,19,9,5.3,1.1,9.8.5,10.1,6.7Z"/>
          <path class="cls-17" d="M3282.1,2619c.4,3.7-5,3.3-5.6.9.1-2.9,4.9-3.8,5.6-.9Z"/>
          <path class="cls-17" d="M3256,2126.3c3.7,2.3,12.6,7.7,6.3,12.6-3.8-1.7-7.8-7.5-6.3-12.6Z"/>
          <path class="cls-17" d="M3238.8,2599.3c4.3-2.8,8.9-8.9,16.4-5.8-1.6,5.6-7.3,5.5-10.8,8.1-3.6,2.6-6.6,7.1-11.2,7.6-.3-.8-.8-1.4-1.5-1.8,0-5,4.1-6.1,7.1-8Z"/>
          <path class="cls-17" d="M3228.8,2515c4.4,0,8.5-1.6,11.5.5-.6,11.2-15,2.7-24.6,4.5-2,.4-2.6,2.3-4.9,1.3.1-3.8,3.5-7.6,7.1-8.1,2.7-.3,6.8,1.8,10.8,1.8Z"/>
          <path class="cls-17" d="M3232.5,2528.9c.4,6.2-6.6,6.9-8.6,11.7,3.1,5.7,4.3,13.7,7.8,18.8-.1,3.4.6,7.9-1.1,9.4-7.5,1.7-11.5-14.5-14.6-20.2-5.7,1.3-.5,23.4-8.2,20.6-3.8-1.3,0-7.7-.8-12.5-.7-4.3-4.2-5.2-4.5-8.5-.2-2.8,2.5-5.7,3.4-8.5,1.2-4.1.4-11.9,4.5-12.1,2-.1,4.7,5,6,5.4,4.5,1.2,9.8-5.5,16-4Z"/>
          <path class="cls-17" d="M3218.7,2595.7c-1.4,3.4-9,1.8-9.7-1.3,1.3-3.5,9.1-2.5,9.7,1.3Z"/>
          <path class="cls-17" d="M3211.6,2606.4c-.4.7-.9,1.3-1.5,1.8-2.8-1.1-5.9-1.9-6.7-5.4,2.1-3.7,8.1-.6,8.2,3.6Z"/>
          <path class="cls-17" d="M3201.5,2595.2c-1.9,3.2-8.5-.3-10.8,3.1-3.9-.1-7.8-.2-8.6-4,1.1-3.3,4.7-1,7.5-1.3,4.5-.5,10.7-4.3,11.9,2.2Z"/>
          <path class="cls-17" d="M3148.9,2766.9c0-4-2.1-7.4-2.6-11.6-.2-1.5.2-3.5,0-5.4-.2-2.8-1.4-5.1-1.1-6.7.5-3,3.4-3.3,4.1-5.8,1.2-4.2-1.4-4.8-1.5-9.9,0-3.5,2.2-5.3,3.7-9.9.7-2.1.7-6.1,1.5-7.6,1-1.9,5.1-3.5,6.7-4.5,5.7-3.4,10.3-9.6,16.1-10.8,1.4-.3,3.4.2,4.5,0,3.4-.7,7.6-4.1,12.3-5.4,4.5-1.2,8.5-.8,11.9-3.1,3.7-2.6,9-9.4,10.4-13.4,1.7-4.9,1.2-9.1,4.5-10.8,1.6-.8,3.2,0,4.8-.4,1.7-.5,5.4-2.7,6.7-4,2.6-2.8,3-7.4,6-10.3,2-2,5.9-5.1,8.6-6.7,1.6-1,4.6-2,6-1.8,5.3.5,7.7,9.4,13.4,7.6,2-.6,4.1-5.8,6-9,2.7-4.6,4.6-10.7,9.3-12.1,3.8-1.1,8,1.7,10.1-2.2.5-2.8-1.8-4.5,0-6.3,4.4.3,11.7,7.4,18.3,7.6,3.5.1,10.1-4.6,10.8,1.8.3,2.9-2.7,5.2-3.4,8.1-.5,2.1.7,3.2-.4,5.4-3,1.4-6.2,2.2-6.3,6.3-.1,5.1,6,7.5,9.7,10.3,2.5,1.9,4.6,4.8,6,5.8,1.1.8,3,1.2,3.7,1.8,2.4,1.9,4.1,6.2,7.5,6.3,3.8.1,7.6-5.7,9.7-11.2,2.5-6.5,2.6-14.3,3.7-21.1.4-2.3,1.7-4.5,2.2-6.7,1.4-6.1,3.4-14.4,7.8-16.6,4.5,5.7,6,16.7,5.2,26,3,2.7,8.2,1.8,8.9,8.1.3,2.2-.9,4.9-.7,7.2.3,3.8,2.6,7.1,3,10.3.7,6-.8,10.9,1.5,15.2,2.9,5.5,8.6,5.3,12.3,11.2,0,3.7,1.1,5.2,1.9,8,.3,1.4,0,3.6.4,4.5,1.2,3,4.4,3.3,5.6,5.8.6,1.2.4,3.6,1.1,5.8,1,3.3,3.5,5.8,5.2,9,1.7,3.1,4.4,6.5,4.8,9,.7,4.5-1.9,7.5-2.6,11.2-.8,4.5,0,10.2-1.5,14.8-1.7,5.4-6,10.7-9.3,17.5-2.7,5.6-6.5,11.9-10.4,15.7-2.4,2.3-5.2,3.6-7.5,5.8-3.6,3.5-6.5,8-9.7,12.1-3.4,4.3-7.4,7.5-10.1,11.2-3.8,5.3-5.7,13.9-12.3,14.8-3.8.5-7.3.1-10.8,1.8-5.5,2.6-9.2,7.5-11.9,7.6-2.9.1-5.5-4.1-8.2-4.5-3-.5-5.3,2.7-9.7,2.7-1.8,0-2.7-1.3-5.2-2.2-5.3-2-11.2-1.9-11.9-9-.4-3.8,2-5.5,1.9-9-.2-3.4-3-4.3-4.1-7.2.7-3.1.9-7-1.9-9,0-2.8.5-4.8,1.5-6.3-2.2,1.1-5,1.8-7.5,3.6-2.7,2-4.7,6.5-7.8,5.8-3-1.2-.7-4.8-1.1-7.6-.3-2.2-4.5-11.4-6.4-13-2.2-1.8-10.1-5.3-12.7-5.8-11.5-2.2-18.9,5.2-28,6.3-2.3.3-4.9-.5-7.1,0-7.5,1.6-15.9,8.7-20.5,13.4-7.7.9-15.5-1.9-23.5.9-7.9,2.8-12.4,10.7-24.6,8.5-2.4-2.5-6.7-3.7-6.7-8.1,0-3.4,4.2-5.6,5.6-8.1,1.5-2.6,4-8.8,4.1-12.6,0-3-1.7-6.5-1.5-10.3.1-2.9,1.5-6.1,1.5-9Z"/>
          <path class="cls-17" d="M3142.6,2580c2-.3,3.6-2.1,5.6-2.2,4.3-.2,8.6,3.9,13.8,3.1,1.1,1.5.4,2.7.4,4.9,4.4,2.8,11.5,2.3,13.8,7.6-3.3,4.2-8.1,1.2-12.3.4-3.8-.6-7.8-.3-11.9-.9-5.2-.7-9.9-4.2-14.9-4.9-3-.5-6.1.5-9,0-3.4-.6-15.9-6.3-16-10.3-.2-4.1,5.6-5.3,10.8-4.5,6.7,1.1,11.2,8.2,19.8,6.7Z"/>
          <path class="cls-17" d="M3152.6,2549.1c-2.8-1-5.5-.4-6.7-1.3-2.6-1.9-2.2-7.3-3-10.3-.8-3.1-3.9-4.7-5.6-9-2.4-6.1-3.5-19.8,3-21.1,2.6-.5,5.3,1.9,7.1,1.3,3.6-1.1,3-6.7,6-9,1.7-1.3,4.7-.7,7.1-1.8,2.4-1.1,4.3-3.9,6-6.3,1.6-2.2,2.8-6,4.8-7.6,2.3-1.8,4.5-1.9,6.3-3.6,4.9-4.5,5-10.7,9-16.1,3.3-4.6,8.6,4.4,9,8.1,1.9,2.9,5.5,3.6,7.1,6.7-2.2,7.9-8.4,8.6-7.1,19.7.2,1.8,1.2,5.2,2.2,7.6,1.1,2.6,4.2,5.5,4.1,7.2-.2,3.4-5.9,3.2-7.1,6.7-1.1,3.3,0,3.5-.4,8.5-1.6,3.7-5.8,4.5-7.1,9-1.6,5.3.2,12.2-3.4,16.1-2.5-.2-5.2,2.6-8.2,2.2-3.3-.4-6.4-5.8-11.6-5.8-2,0-4.3,1.5-6.3,1.3-1.6-.1-2.9-1.9-5.2-2.7Z"/>
          <path class="cls-17" d="M3128.5,2539.1c9.5,0,9.5,17.7,0,17.7s-9.5-17.7,0-17.7Z"/>
          <path class="cls-17" d="M3114.6,2536.9c1.2.2,5.3,7.1,5.2,9-.1,3.2-4.1,3-5.2,7.2-1.8,6.4.8,13.7-2.2,17-1.7,1.2-4.8.9-7.5.9-6.8-5.7-12.1-12.5-17.9-20.2-2.1-2.8-4.7-5.2-6-8.1-1.9-4.3-2.6-9-4.8-13-2-3.5-5.5-6-7.5-9.9-1.6-3.1-1.7-7.3-3.3-10.3-1.5-2.8-4.1-4-6-6.3-1.2-1.5-1.9-3.8-3-5.4-4.7-6.7-13.7-10.3-14.2-20.2,1.9-2.6,3.9,1,7.5,1.8,2.3.5,5-.2,6.7.4,3.4,1.4,5.7,7.7,9.3,11.2,2,1.9,4.6,3.3,6.7,5.4,2.2,2.2,3.8,5.4,5.6,6.7,2.4,1.8,5.8,3,9,5.4,4.3,3.3,12,6.7,13.1,13.5.3,1.7-.7,4.5-.4,5.8.5,2.4,3,3.4,4.5,5.4,1.8,2.5,2.2,6.2,4.8,6.7,2.6.9,2.8-3.6,5.6-3.1Z"/>
          <path class="cls-17" d="M2938.5,2442.8c3.2,1.3,13.9,16.9,10.8,25.6-.9,2.5-4.6,5.6-8.2,4.9-7.4-1.4-6-21.2-3.7-29.1.2-.6.6-1.1,1.1-1.3Z"/>
          <path class="cls-17" d="M2690.4,2669.7c.3-3.6,2.5-9.5,4.9-11.7,3.4-3.1,8.1-2.8,11.6-4.9,2.9-1.8,6.8-4.8,9-8.1,1.8-2.8,1.9-6,3.4-8.1,1-1.4,3.3-1.8,4.5-3.6,1.1-1.6.8-4.5,2.6-6.3,5.2-2.7,6.7,8.7,7.5,16.6.2,2.4,1.3,5.1,1.1,6.3-.5,3.6-3.8,4.3-4.8,6.7-.3,9.8-3.5,18.4-6.3,26.4-2.5,7-3.9,14.6-6,20.6-.7,2.2-2.3,3.9-3,5.8-2.7,7.6-3.7,19.6-8.6,22.9-1.8,1.2-8.6,3.2-10.4,3.1-4.6,0-8.5-4.2-9.7-9-.6-2.5,0-5.2-.4-8.1-.5-3.6-2.2-6.7-1.9-10.8.8-9.1,8.2-13.6,8.6-21.1.3-5.7-2.4-11.3-1.9-17Z"/>
          <path class="cls-17" d="M2932.9,1926.4c-.9,5.2-8,7.1-11.6,7.6-.9-2.6,1.9-3.1,3.4-4,2.6-1.6,4.1-3.6,8.2-3.6Z"/>
          <path class="cls-17" d="M2386.7,2079.3c.4-2.6-1.2-5.7-3.4-7.2-1.2-.8-3.1-.4-4.5-1.3-3.6-2.4-5-7.4-7.1-8.5.3-4.9-1.1-8.5,0-11.7.7-1.9,5.6-7.4,8.2-8.5,3.3-1.4,6.7-.1,8.6-3.1.9-.1,1.4,0,1.9.4,0,2.8-2,3.3-2.2,5.8.5,4.1,6.4,1.5,7.1,5.4-.6,4.2-3.7,5-3.7,8.1,0,2.7,4.5,7.7,6.7,11.2,1.6,2.6,4.5,4.5,6,7.2,1.3,2.3,1.6,5.1,2.6,6.3,2,2.2,6.4,2.6,6.7,5.8.4,4.3-4.4,6-3.7,10.8-5.1,4.8-13.7,2.3-22,3.6-3.8.6-7.9,5.1-11.9,1.3-.9-3,3.3-3.4,3.7-6.3-.3-2.6-3.1-2.3-3.7-4.5,1.1-3.5,4.5-4.2,4.1-9.4,2.1-2.7,6.1-1.7,6.7-5.4Z"/>
          <path class="cls-17" d="M2358.7,2068.5c5-3.7,13.7-.9,14.2,3.6.4,3.4-2.6,3.8-3.7,7.6-1,3.4.2,7.5-1.1,9.9-1.1,2-4.2,1.9-6.3,2.7-4.7,1.7-13.8,8.3-17.5.9.5-4,3.8-4.8,4.9-8.1,0-2.6-2.2-4-1.9-6.7.5-3.4,2.6-2.2,5.6-3.6,2.2-1,3.1-4.2,6-6.3Z"/>
        </g>
      </g>
      <g>
        <path class="cls-23" d="M3312.5,1995.5c-191,342-810,142-810,142"/>
        <path class="cls-23" d="M2068.5,2857.5s620-403,1261-58c0,0,248-427-17-804"/>
        <path class="cls-23" d="M1763.5,2302.5s-58,378,311,532c0,0-211-553,428-701"/>
        <path class="cls-23" d="M1763.5,2216.5c-7.8,18.1,1003-98,1566,603"/>
      </g>
      <g>
        <g>
          <g>
            <rect class="cls-19" x="3309.4" y="2884.3" width="700.1" height="384.7"/>
            <rect class="cls-6" x="3309.7" y="2784.2" width="699.8" height="100.4"/>
            <g>
              <ellipse class="cls-4" cx="3375.1" cy="2834.4" rx="15.3" ry="14.5"/>
              <ellipse class="cls-4" cx="3419.7" cy="2834.4" rx="15.3" ry="14.5"/>
              <ellipse class="cls-4" cx="3464.3" cy="2834.4" rx="15.3" ry="14.5"/>
            </g>
          </g>
          <g>
            <path class="cls-9" d="M3809.8,2718.1s79.8,254.3,127.5,257.4c0,0-169.8-17.2-127.5-257.4Z"/>
            <path class="cls-5" d="M3632.6,2815.5l12.5,60.2,36.7.8,68.1,1.5,27.4-32.1c-4.2-4.5-7.2-13.6-9.5-25-2-10.1-3.3-22-4.2-34.1-2.6-35.6-1.2-73.1-1.2-73.1l-95.4,30.5c-3.1,45.4-34.4,71.2-34.4,71.2Z"/>
            <path class="cls-12" d="M3632.6,2815.5s18.8,31.7,53.5,37.6c1.1-9.3,1.6-17.8,1.6-24.8,0-8.4,7.5-12.4,15.8-13.7,31.9-4.9,42.5-18.1,56.1-30.8,1.7-1.6,10.2-21.2,11.7-22.7-2.6-35.6-9-47.3-9-47.3l-95.4,30.5c-3.1,45.4-34.4,71.2-34.4,71.2Z"/>
            <path class="cls-15" d="M3770.3,2646.5s40.6,122.7-53.1,152.5c-4,1.3-8.4,1.2-12.4-.1-17.3-5.8-61.3-29.5-58.2-120.3,0,0,39.9-140.8,123.6-32.1Z"/>
            <path class="cls-3" d="M3580.4,2832.8l.2,6,3.9,108.9,1,26.9,3.7,102.6,222.8,22.6,9,.9h.6c0,0-.5-15.4-.5-15.4l-1.5-43.7c-.8-7.4-1.3-14.6-1.7-21.7-1.6-34.3,1.8-65.6,7-92.3,7-35.6,17.5-63,24.2-78.2-.9-.7-1.4-1-1.4-1l-13.6-4.7-10.6-3.6-55.6-19.1s0,0,0,0c-32.8,29.5-60.3,35.7-81.7,32-34.7-5.9-53.5-37.6-53.5-37.6l-33.3,11.1-9.7,3.2-1.6.5c-1.1.3-2.2.6-3.3,1-1.5.5-2.9.9-4.3,1.5Z"/>
            <path class="cls-1" d="M3754.7,2979.8l7.8,2.3,7-19.6c34.4-100.1,64.6-118.9,64.6-118.9l-10.6-3.6c-48.3,53.3-64.2,122.5-64.2,122.5l-4.7,17.2Z"/>
            <polygon class="cls-13" points="3589.6 2829.8 3589.6 2962.5 3594.3 2962.5 3599.3 2826.6 3589.6 2829.8"/>
            <polygon class="cls-15" points="3529.3 3101 3563.5 3118.6 3581 3127.6 3584.1 3129.2 3583.7 3120.6 3583 3107.4 3581.5 3075.8 3576.6 2977.8 3575.1 2947.3 3544.2 2938.3 3532.9 3062.3 3530.6 3086.9 3529.3 3101"/>
            <path class="cls-15" d="M3311.5,3014.3c11.2,23.2,60.1,45,60.1,45l150.7,99.2c9.7,6.4,21,7.4,31,4.1,9.8-3.2,18.2-10.6,22.3-21.2l5.4-14,2.7-7,4.3-11.2-5-1.9-16.4-6.4-36-14.1-83-32.5c-14.9-8-29.2-20.8-38-29.5-4.8-4.7-9-10-12.4-15.9-6.9-11.8-16.7-23.2-24.7-31.7-8.1-8.5-14.4-14-14.4-14-4.2,4.1-4.5,10.7-.8,15.2l15.4,18.7-20.2-11.9c-6.8-4-14.7-6.1-22.6-5.6-29.6,1.8-18.4,34.5-18.4,34.5Z"/>
            <path class="cls-3" d="M3491.8,3050.9l41.1,11.4,37.6,10.4,11,3,3.4.9,4.4.4-3.8-105.8-5-138.6c-42.3,16.1-47.9,60.9-47.9,60.9l-40.7,157.2Z"/>
            <path class="cls-12" d="M3553.2,3162.7c9.8-3.2,18.2-10.6,22.3-21.2l5.4-14,3.1,1.6-.4-8.6,4.3-11.2-5-1.9-1.6-31.6,3.4.9,4.4.4-3.8-105.8-8.8,6.4-5.4,3.9s5.7,33.7-.7,91.1c-1,8.9-2.3,18.3-3.9,28.2-.9,5.7-2,11.5-3.1,17.6-2.7,13.9-6.1,28.6-10.3,44.1Z"/>
            <path class="cls-1" d="M3554.5,3269h276c-.5-9.4-1.3-18.8-2.3-28.2-1.7-15.9-3.9-40.6-5.4-71.6-1-20.4-1.7-43.5-1.7-68.5,0-5,0-10.2,0-15.4.2-16.9.6-34.6,1.5-52.8,0-.3,0-.6,0-.9-.3-1.3-1.6-5.5-4.6-11.8-1.2-2.5-2.7-5.3-4.5-8.4-7.5-12.7-20.8-30-43.8-48.8-.1,0-.2-.2-.3-.2-2.5-1.5-30.9-16-91.9,64-3.3,4.3-9.9,4-12.8-.6-11.9-19.4-40.3-61.7-69.2-77.9-.4-.2-1-.4-1.5-.4h-9.5c-.8.1-1.5.4-2,.9-.5.5-.9,1.2-.9,2-.3,10.9-1.2,53.7,0,140,0,.2,0,.5,0,.7-1.6,6.7-25.5,109.4-27.2,177.8Z"/>
            <path class="cls-12" d="M3580.6,2838.7l3.9,108.9,1,26.9,17.7-7.7c48.8-16.3,69.8-55.2,78.6-90.3,2-8.1,3.4-16.1,4.3-23.5-34.7-5.9-53.5-37.6-53.5-37.6l-33.3,11.1-9.7,3.2-1.6.5c-1.1.3-2.2.6-3.3,1-.4.7-.8,1.4-1.2,2.1-1,1.8-1.9,3.5-2.9,5.3Z"/>
            <path class="cls-12" d="M3812.1,3099.8c1.4,24.2,4.7,48,10.7,69.4-1-20.4-1.7-43.5-1.7-68.5h.6c0,0-.5-15.4-.5-15.4.2-17,.6-34.8,1.5-53.2,0,0-1-4.6-4.7-12.3-1.6-34.3,1.8-65.6,7-92.3l-6.5-6.1s-19.3,46.1-8.6,93.9c5.9,26.5.4,54,2.3,84.4Z"/>
            <g>
              <polygon class="cls-7" points="3753.2 3192 3482.3 3177.7 3479.5 3230.3 3685.7 3236.7 3753.2 3192"/>
              <path class="cls-18" d="M3376.9,3221.5l284.9,15.1c9.4.5,15.5-5.6,13.7-13.7l-39.3-167.9c-1.9-8.1-11.1-15-20.5-15.5l-284.9-15.1c-9.4-.5-15.5,5.6-13.7,13.7l39.3,167.9c1.9,8.1,11.1,15,20.5,15.5Z"/>
              <path class="cls-14" d="M3357.4,3220h311.1c5.9,0,10.7,4.8,10.7,10.7v6.1h-321.8v-16.8h0Z" transform="translate(6861.2 6638.2) rotate(-177)"/>
              <polygon class="cls-18" points="3679.4 3228.5 3753.2 3192 3752.4 3206.6 3678.5 3245.3 3679.4 3228.5"/>
            </g>
            <path class="cls-15" d="M3876.9,2947.5l93.6,128.1c14.1,19.3,8.5,46.5-12.1,58.7h0l-76-99-5.6-87.8Z"/>
            <path class="cls-15" d="M3924.4,3066.9l-4.2,3.3-13.9,10.8-30.4,23.8-70.2,54.9c-14.4,8.8-32.8,14.5-44.8,17.6-6.5,1.7-13.2,2.6-19.9,2.6-13.7,0-28.5,2.5-39.8,5.1-11.4,2.6-19.4,5.2-19.4,5.2,1.4,5.7,6.9,9.3,12.6,8.4l24-3.7-20.5,11.3c-6.9,3.8-12.7,9.5-16.3,16.6-13.6,26.4,8.6,27,8.6,27,25.7,2.1,81-22.4,81-22.4l162.1-79.1,25.2-14.3-34-67.4Z"/>
            <path class="cls-3" d="M3958.6,3049.8l-71.6-120.1c-28.3-55.6-33.1-78.8-38.9-81.8-7.1,30.9-67.1,89.2-22.7,193.2l35.2,70.4,97.8-60.2"/>
            <g>
              <path class="cls-9" d="M3509,3002.4c19-.3,41.5-9.8,62.5-21.8,37.2-21.2,69.7-50.2,69.7-50.2,16.4-17.7,26.1-36.3,31.6-54.1,14.7-47.6-1.1-89-1.1-89-3.2-8.3-5.9-15.7-8.2-22.4h0c-.4-1.3-.9-2.5-1.3-3.8t0,0c-5.8-17.3-9.4-30.5-12.7-44.4-1.4-5.9.6-12,5.2-15.9l18.5-15.9c4.1-1.7,9.6-15.2,13.8-27.5,3.7-11,6.5-21,6.5-21-.8,7.5-1,15.1-1,21.9,0,13.7,1,24.3,1,24.3l27.4.8c-2.8-5.1-3.3-12.9-2.8-20.8.9-14.1,5.1-28.5,5.1-28.5,1.6,13.2,3.6,23,5.6,30.2,5.9,21.1,12.4,20.6,12.4,20.6-3-6.8-5.1-13.4-6.4-19.7-4.9-22.8-.6-40.6-.6-40.6l17.7,43.4,8.1,20c18.8,29.7,8.6,59.5,8.6,59.5-2.2,6.4-4,12.4-5.4,17.9-.2.9-.4,1.8-.6,2.6h0c-2.1,8.9-3.3,16.8-3.8,23.6-2,27.4,6.7,38.7,6.7,38.7,2.5,3.7,5.3,7.3,8.4,10.6h0c30.3,33.4,83.9,48.8,83.9,48.8-9.4-12.5-8.6-57.1-8.6-57.1,16.4,77.5,41.5,72,41.5,72-15-4.5-17.2-30.4-23.1-55.2-4-16.7-17.4-42.5-23.2-58.7-5.8-16.5-12.5-36.8-18.2-54.7-7.8-24.4-13.8-44.3-13.8-44.3-1.1-5.1-2.2-9.9-3.4-14.5-26.3-101.5-77.2-87.2-77.2-87.2-49.8-15.7-80.1,16.8-98.4,58.4-23.8,53.9-27.5,123.1-27.5,123.1-1.2,19.6-12.3,43.5-22.5,61.8-10.7,19.2-18.3,40-22,61.7-.8,5-1.8,9.8-2.8,14.3-12.6,15-27.6,29.2-41.3,33-.7.2-1.4.4-2.1.5.6-.1,1.3-.2,2.1-.4,8.8-1.8,23.4-7.5,39.3-24.8-11.6,45.3-29.7,64.3-29.7,64.3,4.7,3.9,37.9-23.9,37.9-23.9-2.9,7.6-23.1,22.4-38.4,32.8-9.8,6.6-17.5,11.4-17.5,11.4Z"/>
              <path class="cls-9" d="M3509.4,2943.4c-.5,0-.8,0-.8,0,.3,0,.5,0,.8,0Z"/>
              <path class="cls-9" d="M3509.4,2943.4c1,0,3.1,0,6-.5-2,.4-4,.6-6,.5Z"/>
            </g>
          </g>
        </g>
        <g>
          <g>
            <rect class="cls-19" x="3316.4" y="1398.3" width="700.1" height="384.7"/>
            <rect class="cls-6" x="3316.7" y="1298.2" width="699.8" height="100.4"/>
            <g>
              <ellipse class="cls-4" cx="3382.1" cy="1348.4" rx="15.3" ry="14.5"/>
              <ellipse class="cls-4" cx="3426.7" cy="1348.4" rx="15.3" ry="14.5"/>
              <ellipse class="cls-4" cx="3471.3" cy="1348.4" rx="15.3" ry="14.5"/>
            </g>
          </g>
          <g>
            <path class="cls-15" d="M3869.8,1648.4l-42.9,134.6h44.9l52.9-124.2c3.8-10.4,3.6-21.9-.7-32.2l-50.1-120.9-60,48.2,55.9,94.5Z"/>
            <path class="cls-15" d="M3531.7,1659.4l3.6-9.9,39.5-110-31.6-4.8-14.3-2.2-29.3-4.4-14.1,58.4-3.5,14.6-151.6-47.1s-7.7-23.8-31.9-48.2c-5.4,1.4-7.8,8-4.6,12.8l9.3,14.1s-34.9-23.3-60.3-13.8l43.1,82.2,10.9,1.8,211.2,67.8c9.4,3,19.4-1.9,23.3-11.3h0"/>
            <path class="cls-5" d="M3741.7,1380.4l-.4,67.2-98.3,18.2-57.1-29.6,24.7-32.5,13.7-18c2.7-3.6,3.9-8.2,3.2-12.8l-11.9-77.1,95.8-43.7-8.1,61.3-1.3,10.1c-2.9,32.6,39.8,56.9,39.8,56.9Z"/>
            <path class="cls-12" d="M3711.3,1252.1l-9,69.5c-33.6,61.3-76.1,75.7-91.7,82.1l13.7-18c2.7-3.6,3.9-8.2,3.2-12.8l-11.9-77.1,95.8-43.7Z"/>
            <g>
              <path class="cls-15" d="M3725.2,1259.2l-11.3,29.1c-12.4,18.7-24.6,33-36,44.1-32.2,31.3-57.2,35.6-57.2,35.6-10.7,1.8-19.4-6.3-26.4-19.3-19.8-36.5-26.2-111.4-26.2-111.4l123.5-15.1,33.6,37Z"/>
              <path class="cls-9" d="M3725.8,1281.9c-1.4,47.3-24.1,44.2-24.1,44.2l2-22.7,8.4-14c13.1-33.2-10.2-29.5-10.2-29.5-19,5.3-18.3,29.5-18.3,29.5h-6.6c-4.4-6.8-5.8-30.2-5.8-30.2-46.3-55.2-100.3,2.3-100.3,2.3-43.4-31.9-8-54-8-54-6.2-46,39-37.2,39-37.2,0,0,30.1-26.6,47.8-9.7,0,0,27.4-1.8,37.2,26.6,0,0,24.8-5.3,32.8,20.4,0,0,.7.8,1.8,2.4,11.9,17.1,14.6,38.9,7.7,58.5-1.7,5-3.2,10-3.3,13.4Z"/>
              <path class="cls-9" d="M3683.3,1288.9l-4.4,35.4c-.7,5.3-3.2,10.1-7.1,13.7-29.2,26.1-51,29.9-51,29.9-10.7,1.8-19.4-6.3-26.4-19.3,44.2-4.1,82-63.2,82-63.2l7,3.4Z"/>
            </g>
            <path class="cls-1" d="M3549.4,1608.9l-20.1-7.3-41.6-15.2-9.2-3.3c22.9-126.2,45.1-151.8,55.2-156.6,3.7-1.7,5.7-.7,5.7-.7l5.9,108.9,4,74.2Z"/>
            <path class="cls-12" d="M3577,1543.3l-39.5,107.7-8.2-46.9,1.8-67.7,2.7-103.8c3.7-1.7,5.7-.7,5.7-.7l5.9,106.6,31.6,4.7Z"/>
            <path class="cls-1" d="M3519.1,1772.7c.9,3.9,2.8,7.5,5.6,10.3h297.6c.8-2.2,1.3-4.5,1.3-7v-3.3c0,0,.2-6,.2-6l.5-24.1.9-45.1.6-30.1.9-45.1.6-30.1.5-27.4c0-.5,0-1,0-1.5l-.8-16.3-.2-3.5-1.3-26.6-3.8-75.2-.4-7.5-52.3-35.9-19.8-13.6-3.4-2.3-20.3-13.9s6.3,12.2-8.6,29.9c-7.6,9.1-20.9,19.6-43.4,30.6-5.4,2.6-11.1,4-16.9,4-1.4,0-2.7,0-4.1-.2-5.7-.5-11.3-2.4-16.4-5.6-8.5-5.3-15.7-14.2-14.2-28.9.4-4.1,1.5-8.7,3.4-13.9l-22.7,10.3-2.5,1.1-5.3,2.4-57.1,25.9c-3.3,1.5-5.4,4.9-5.2,8.7l.3,8.9,1,30.1,1.5,45.1,1,30.1,1.5,45.1,1,30.1.2,5c0,.9,0,1.8,0,2.6l-5.4,37.5-4.4,30.1-6.5,45.1-3.4,23.6c-.2,2.2,0,4.4.4,6.5Z"/>
            <g>
              <polygon class="cls-3" points="3532.5 1441.8 3533.5 1471.9 3823.1 1471.9 3821.6 1441.8 3532.5 1441.8"/>
              <polygon class="cls-3" points="3535 1517 3535.9 1547.1 3826.9 1547.1 3826.7 1543.6 3825.4 1517 3535 1517"/>
              <polygon class="cls-3" points="3537.4 1592.2 3538.4 1622.3 3826.6 1622.3 3827.2 1592.2 3537.4 1592.2"/>
              <polygon class="cls-3" points="3528.6 1697.5 3825.2 1697.5 3825.7 1667.4 3533 1667.4 3528.6 1697.5"/>
              <path class="cls-3" d="M3519.1,1772.7h304.6v-6c.1,0,.6-24.1.6-24.1h-302.2l-3.4,23.6c-.2,2.2,0,4.4.4,6.5Z"/>
            </g>
            <path class="cls-12" d="M3792.6,1513.8l24.6,269.2h5.2c.8-2.2,1.3-4.5,1.3-7l.2-9.3,3.9-201.9c0-.5,0-1,0-1.5l-1-19.7-34.1-29.8Z"/>
            <path class="cls-1" d="M3806.3,1432.9s42.1-13.9,103.1,134.3l-64.9,50.4s-107.5-153.1-38.3-184.6Z"/>
            <path class="cls-12" d="M3663.5,1442.1c-5.8-1.4-6.7-8.4-6.8-8.9,1,4.1,3.9,7,6.8,8.9Z"/>
            <g>
              <path class="cls-9" d="M3331.4,1617.1l-37.1-5.2-69.8-160c-.4-.9,0-2,.9-2.7l1.5-1c.9-.6,1.9-.8,2.8-.5l3.6,1.1,99.7,164.2c.3.5.3.2.5.7l.2.9c.3,1.3-1,2.6-2.4,2.4Z"/>
              <polygon class="cls-19" points="3229.2 1447.4 3264 1459.6 3334.2 1614.8 3298.4 1608.7 3229.2 1447.4"/>
            </g>
            <path class="cls-15" d="M3286.2,1601.1l11-11c15-30.7-2.5-56.3-15.2-69.5-5.9-6.2-14.1-9.7-22.7-10l-5.2-.2c-8.1-.3-14.8,6.3-14.8,14.4,0,24.1,3.7,46.3,46.8,76.4Z"/>
          </g>
        </g>
        <g>
          <g>
            <rect class="cls-19" x="945.4" y="2060.3" width="700.1" height="384.7"/>
            <rect class="cls-6" x="945.7" y="1960.2" width="699.8" height="100.4"/>
            <g>
              <ellipse class="cls-4" cx="1011.1" cy="2010.4" rx="15.3" ry="14.5"/>
              <ellipse class="cls-4" cx="1055.7" cy="2010.4" rx="15.3" ry="14.5"/>
              <ellipse class="cls-4" cx="1100.3" cy="2010.4" rx="15.3" ry="14.5"/>
            </g>
          </g>
          <g>
            <polygon class="cls-8" points="1223.1 2386.2 1225.8 2403.5 1232.2 2445 1407.1 2445 1406.9 2437.5 1405.7 2361.1 1301.5 2375.5 1298.3 2375.9 1293.6 2376.6 1223.1 2386.2"/>
            <polygon class="cls-12" points="1225.8 2403.5 1232.2 2445 1337.3 2445 1338.7 2403.5 1225.8 2403.5"/>
            <path class="cls-16" d="M1133.5,2445s0,0,0,0h167l.6-41.5.4-28.1.4-24.4-4.2.6-4.7.6-144.8,20.1s-3.1,7.2-6.8,22.6c-2.8,11.7-5.8,28.2-7.9,49.9Z"/>
            <path class="cls-15" d="M1417.9,2306.1l-3.8-9.9-41.6-110.3,33.3-4.8,15.1-2.2,30.9-4.5,14.8,58.5,3.7,14.6,159.6-47.3s8.1-23.9,33.6-48.3c5.7,1.4,8.2,8,4.9,12.9l-9.8,14.2s40.2-30.3,66.9-20.7c0,0,36.9,15.9,21.3,48.2,0,0-4.9,33.3-81.6,43l-222.5,68c-9.9,3-20.5-1.9-24.6-11.3h0Z"/>
            <path class="cls-5" d="M1196.7,2026.2l.4,67.4,103.6,18.3,60.2-29.7-26-32.6-14.4-18c-2.9-3.6-4.1-8.3-3.4-12.8l12.5-77.4-100.9-43.8,8.5,61.5,1.4,10.1c3,32.7-41.9,57.1-41.9,57.1Z"/>
            <path class="cls-12" d="M1228.7,1897.5l9.5,69.7c35.4,61.5,80.1,75.9,96.6,82.3l-14.4-18c-2.9-3.6-4.1-8.3-3.4-12.8l12.5-77.4-100.9-43.8Z"/>
            <path class="cls-15" d="M1377.9,1882.3s-12.2,138.6-54.8,131.7c0,0-47.6-8-97.1-80.3l-11.8-29.3,35-37.3,128.7,15.2Z"/>
            <path class="cls-9" d="M1308.6,1813.8s125.6,19.3,64.3,105.6c0,0-11,1.8-24-37.1,0,0-9.1,41.9-78.4,22.1,0,0-1.5,23.6-6.1,30.5h-6.9s.8-24.4-19-29.7c0,0-24.4-3.8-10.7,29.7l8.8,14.1,2,22.9s-27.6-49.1-32.1-78.8c0,0-11.4-48.7,31.2-74.6,0,0,35-26.7,70.8-4.6Z"/>
            <path class="cls-1" d="M1399.2,2255.4l21.2-7.3,43.8-15.2,9.6-3.4c-24.1-126.6-47.5-152.3-58.1-157-3.9-1.7-6.1-.7-6.1-.7l-6.2,109.2-4.2,74.4Z"/>
            <path class="cls-12" d="M1370.1,2189.6l41.6,108.1,8.6-47.1-1.9-67.9-2.8-104.1c-3.9-1.7-6.1-.7-6.1-.7l-6.2,107-33.3,4.7Z"/>
            <path class="cls-1" d="M1106.1,2211.2l1,47.1.8,37.3.9,42.7,1.5,75.4.2,9.3c.2,8.5,5.6,16,13.6,18.8,3.1,1.1,6.3,2.1,9.6,3.1,0,0,0,0,.1,0h236.2c15-2.7,27.6-5.4,37.1-7.5.5-.1,1-.2,1.5-.4,10-2.3,16.7-11.6,15.7-21.8l-11.7-121.4-.2-2.6-1.4-14.7c0-.9-.1-1.8,0-2.7l.8-22.7,2.4-71.4,2.5-75,.9-25.9c0-2.6-1-5.1-2.8-6.9-.8-.8-1.7-1.4-2.7-1.8l-22.3-9.6-.5-.2-42.9-18.5-2.6-1.1-23.8-10.3h-.1c2.1,5.4,3.3,10.2,3.7,14.6.5,6.1-.6,11.2-2.6,15.4,0,0,0,.1-.1.2-2.8,5.6-7.4,9.7-12.4,12.6-5.3,3.2-11.2,5-17.3,5.6-1.4.1-2.9.2-4.3.2-6.1,0-12.1-1.4-17.8-4-10.6-4.9-19.2-9.7-26.2-14.4-.1,0-.2-.1-.3-.2-38.2-25.3-28.7-45.2-28.2-46,0,0,0,0,0,0,0,0,0,0,0,0l-21.4,14-3.6,2.3-45.5,29.8-.3.2-30.1,19.7v.5s-5.8,109.2-5.8,109.2l-.4,8.3-.6,11.5c0,.5,0,1,0,1.5Z"/>
            <polygon class="cls-12" points="1106.1 2210.5 1110.2 2413.7 1123.6 2414.6 1154.2 2186.7 1107.1 2189.9 1106.1 2210.5"/>
            <path class="cls-15" d="M1042.1,2337.9l62,107.1h66.1l-28.9-50-12.3-21.4-20.4-35.4-11-19,10.1-23.7,13.6-32,19.7-46.3-34.4-19.1-35.7-19.8-15.9,60.8-17.4,66.6c-2.8,10.8-1.3,22.4,4.3,32Z"/>
            <path class="cls-1" d="M1116.9,2079.9s-46.6-1.2-63.4,158.7l80.7,29.7s62.1-178.1-17.3-188.4Z"/>
            <path class="cls-12" d="M1286.4,2079l.7,30.5,5.8,242.8.6,24.2.6,27,1,41.5h4.9l-1.1-41.5-.7-27.6-.6-24.2-6.3-241.4-.8-30.3.2-1.2c-1.4.1-2.9.2-4.3.2Z"/>
            <path class="cls-12" d="M1290.7,2079.1c.2.4,8.5,15.9,16,8.4l4.8,19.6s36.8-12.3,34.5-65.3l-2.6-1.1c1.5,15.6-2.2,39.9-30.6,61.3l-4.6-19.8s-8.4,6.9-17.5-3Z"/>
            <path class="cls-12" d="M1279,2088.1c6.1-1.4,7.1-8.4,7.1-8.9-1,4.1-4.1,7-7.1,8.9Z"/>
            <path class="cls-12" d="M1188.9,2030.6c8.6,21.1,28.8,49.3,75.9,76.7l6.9-16s3.7-.9,7.3-3.2c-2.2.5-5.1.3-8.9-1.3l-5.3,15.2s-61.4-31.7-72.4-73.7l-3.6,2.3Z"/>
          </g>
        </g>
        <g>
          <g>
            <rect class="cls-19" x="2165.2" y="1545.3" width="700.1" height="384.7"/>
            <rect class="cls-6" x="2165.5" y="1445.2" width="699.8" height="100.4"/>
            <g>
              <ellipse class="cls-4" cx="2230.9" cy="1495.4" rx="15.3" ry="14.5"/>
              <ellipse class="cls-4" cx="2275.4" cy="1495.4" rx="15.3" ry="14.5"/>
              <ellipse class="cls-4" cx="2320" cy="1495.4" rx="15.3" ry="14.5"/>
            </g>
          </g>
          <g>
            <path class="cls-9" d="M2605.4,1328.1s42.9,139,25.4,183.5c-17.5,44.5-19.1,45.3-19.1,45.3,0,0-68.3,15.1-70.7,16.7s-86.6-72.3-86.6-72.3l22.2-138.2,72.3-46.9,56.4,11.9Z"/>
            <path class="cls-5" d="M2462.8,1516.8l12.7,61.2,37.3.8,69.2,1.5,27.8-32.6c-4.2-4.6-7.3-13.8-9.6-25.3-2-10.2-3.3-22.3-4.2-34.6-2.6-36.1-1.3-74.3-1.3-74.3l-96.9,31c-3.2,46.1-34.9,72.3-34.9,72.3Z"/>
            <path class="cls-15" d="M2602.6,1345.2s41.3,124.6-53.9,154.8c-4.1,1.3-8.5,1.2-12.6-.1-17.5-5.9-62.2-30-59-122.1,0,0,40.5-143,125.5-32.6Z"/>
            <polygon class="cls-13" points="2419.1 1531.3 2419.1 1666.1 2423.9 1666.1 2429 1528.1 2419.1 1531.3"/>
            <polygon class="cls-15" points="2358 1806.7 2392.6 1824.5 2410.4 1833.7 2413.6 1835.3 2413.1 1826.6 2412.5 1813.2 2410.9 1781.1 2406 1681.6 2404.4 1650.6 2373 1641.5 2361.5 1767.4 2359.3 1792.4 2358 1806.7"/>
            <polygon class="cls-15" points="2754.1 1855.2 2716.5 1855.7 2687.1 1848.1 2676.8 1818.4 2662.8 1778.1 2671.9 1687.2 2701 1672.3 2730.2 1763.4 2743.3 1809.9 2749.3 1832.5 2754.1 1855.2"/>
            <path class="cls-15" d="M2136.8,1718.7c11.4,23.6,61,45.7,61,45.7l153,100.8c9.8,6.5,21.4,7.5,31.5,4.2,9.9-3.2,18.5-10.7,22.7-21.5l5.5-14.2,2.8-7.1,4.4-11.4-5.1-2-16.6-6.5-36.6-14.3-84.3-33c-15.1-8.1-29.6-21.1-38.5-30-4.8-4.8-9.1-10.2-12.6-16.1-7-12-16.9-23.6-25.1-32.2-8.2-8.6-14.6-14.2-14.6-14.2-4.2,4.1-4.6,10.8-.8,15.4l15.6,19-20.5-12.1c-6.9-4.1-14.9-6.2-22.9-5.7-30.1,1.8-18.7,35-18.7,35Z"/>
            <path class="cls-1" d="M2319.8,1755.9l41.7,11.6,38.2,10.6,11.1,3.1,3.5,1,4.4.5-3.9-107.4-5.1-140.8c-43,16.3-48.7,61.8-48.7,61.8l-41.3,159.7Z"/>
            <path class="cls-12" d="M2392.6,1824.5c1.2-6.1,2.2-12.1,3.2-17.8,1.7-10.1,2.9-19.7,3.9-28.7,6.5-58.2,5.5-71,5.5-71l3.2-18.3,5.6-39.7c-.2,20.8-3.6,83.5-3,132.1h0s0,2,0,2l1.5,30.1,5.1,2-4.4,11.4.4,8.7-3.2-1.6-5.5,14.2c-1.6,4.2-3.9,7.9-6.7,11-4.3,4.9-9.9,8.5-15.9,10.4,4.3-15.8,7.7-30.7,10.4-44.8Z"/>
            <path class="cls-1" d="M2655.9,1875.9c1,20.2,4.4,39.1,6.3,54.1h-275.1c2.9-24.4,7-49.4,11-71.1,6.2-33.4,12.2-58.9,12.9-62.2,0-.2,0-.5,0-.7,0-4.4-.1-8.7-.2-12.9,0-.7-.2-42.1-.2-42.7-.5-36.4-.4-41.5-.2-50.5.1-8.1.7-16.1,1.7-24.2l1.8-14.7-3.8-105.7-.2-4.9-.2-6c1.4-.5,2.8-1,4.3-1.5,1.1-.4,2.2-.7,3.4-1l1.6-.5,9.8-3.3,33.9-11.3s10.1,17,29.1,28.6c7.2,4.4,15.6,8,25.3,9.6,14.3,2.4,31.3.5,50.8-9.6,10.1-5.2,20.8-12.7,32.1-22.9,0,0,0,0,0,0l56.5,19.4,10.5,3.6h.2c0,0,13.8,4.8,13.8,4.8,0,0,.5.3,1.4,1-6.8,15.5-17.4,43.3-24.6,79.4-5.4,27.1-8.7,58.9-7.1,93.7,3.1,6.4,4.3,10.7,4.7,12,0,.3.1.6,0,.9-.9,18.5-1.3,36.5-1.5,53.6l.6,15.7h-.6c0,25.4.7,48.8,1.8,69.5Z"/>
            <path class="cls-12" d="M2645,1805.5c1.5,24.5,4.8,48.7,10.9,70.5-1-20.7-1.7-44.1-1.8-69.5h.6c0,0-.6-15.6-.6-15.6.2-17.3.6-35.4,1.5-54,0,0-1-4.6-4.8-12.5-1.6-34.8,1.8-66.6,7.1-93.7l-.7-.3s-7.2,36.7-11,85.5c-2.1,27.5-3.2,58.8-1.4,89.7Z"/>
            <path class="cls-1" d="M2652.6,1746.3l2.1,60.1,2.6.3,115.2-38.9-48.5-133.4c-17.6-60.9-36.3-79.1-41.5-83.2-12.9,29.5-39.8,103.7-30,195.2Z"/>
            <path class="cls-9" d="M2577.6,1344.8s-38.1,55.6-93.7,42.1c0,0-12.7,29.4,17.5,94.5,0,0,15.9,38.1,4,92.1,0,0-80.2-32.6-68.3-116,0,0,14.3-207.3,126.3-170,0,0,56.4-10.3,81,96.9,0,0,48.5,150.1-46.1,189,0,0,19.9-48.5,5.2-136.2,0,0-37.3-67.5-25.8-92.5Z"/>
            <path class="cls-15" d="M2589.6,1434.6c-1.7,9.2,1.8,17.5,7.8,18.6,5.9,1.1,12.1-5.5,13.8-14.6,1.7-9.2-1.8-17.5-7.8-18.6-5.9-1.1-12.1,5.5-13.8,14.6Z"/>
            <path class="cls-9" d="M2439.4,1467.1s-1.6,62,23,89.8c0,0-29.4-23.8-23-89.8Z"/>
            <path class="cls-9" d="M2646.4,1420.1s16.3,102.4-18.4,153.9c0,0,43.5-46,18.4-153.9Z"/>
            <path class="cls-12" d="M2739.8,1864.7l-23.2-9-29.4-7.6-7-37c15.4,4,48.9,20.3,67.9,35.8l-8.3,17.9Z"/>
            <g>
              <path class="cls-15" d="M2563.7,1722.6l30.3-3.9c-1.7-5.1-5.2-10.6-3.5-15.7,5.5-15.7.2-27.3-3.7-38.4-3.9-11.1-7.5-18.8-7.5-18.8-5.5,2.1-8.6,8-7,13.7l4.5,22.8-1,5-4,8.1-8.1,27.3Z"/>
              <g>
                <rect class="cls-8" x="2507.3" y="1599" width="67.6" height="145.8" rx="7.9" ry="7.9"/>
                <path class="cls-2" d="M2545.4,1619.1c0,2.3-1.9,4.2-4.2,4.2s-4.2-1.9-4.2-4.2,1.9-4.2,4.2-4.2,4.2,1.9,4.2,4.2Z"/>
              </g>
              <path class="cls-15" d="M2696.9,1893.3l-20.1-18.4-130.6-143.7s-17-9-31.1-21.3c-17.7-15.4-17.3-43.5,1.5-57.5,6.6-4.9,14.6-7.5,23.9-4.3,7.5,2.6,13.9,7.3,18.5,13.3l13.6,17.5,5.2,9.6,2,23.2,8.2-4.3c.4,1.2,6.8,7.8,7.4,9,4.5,10.7,21.4,28.4,31.9,40.7l48.1,48.2,33.4,20,43,21c.1,0,.3.2.3.3h0c8.3,19.5-.6,42-19.9,50.5h0c-9.6,4.2-26.9,2.3-35.3-3.9Z"/>
            </g>
          </g>
        </g>
        <g>
          <g>
            <rect class="cls-19" x="1865.4" y="2923.3" width="700.1" height="384.7"/>
            <rect class="cls-6" x="1865.7" y="2823.2" width="699.8" height="100.4"/>
            <g>
              <ellipse class="cls-4" cx="1931.1" cy="2873.4" rx="15.3" ry="14.5"/>
              <ellipse class="cls-4" cx="1975.7" cy="2873.4" rx="15.3" ry="14.5"/>
              <ellipse class="cls-4" cx="2020.3" cy="2873.4" rx="15.3" ry="14.5"/>
            </g>
          </g>
          <g>
            <path class="cls-9" d="M2175.4,2735.3s44.4-88.1,89.4-4.1c0,0,22.6,24,16.6,160.8,0,0-.6,44.2,29.4,27.2,0,0-54,93.3-90.2-23.2-36.2-116.5-45.2-160.8-45.2-160.8Z"/>
            <path class="cls-5" d="M2264.8,2935.5l14,47.1-31.6.7-58.7,1.3-23.6-27.6c3.6-3.9,10.9.3,12.9-9.5,1.7-8.7,5.3-23.2,6-33.6,2.2-30.6-6.1-70.9-6.1-70.9l82.2,26.3c2.7,39.1,4.8,66.1,4.8,66.1Z"/>
            <path class="cls-15" d="M2168,2765.8s-40.6,122.7,53.1,152.5c4,1.3,8.4,1.2,12.4-.1,17.3-5.8,61.3-29.5,58.2-120.3,0,0-39.9-140.8-123.6-32.1Z"/>
            <polygon class="cls-15" points="2419.9 3243 2366.8 3237.9 2349.3 3246.8 2346.2 3248.5 2346.6 3239.8 2347.2 3226.7 2348.8 3195.1 2353.6 3097.1 2355.1 3066.6 2386 3057.6 2401.9 3156 2419.9 3243"/>
            <path class="cls-1" d="M2438.5,3170.2l-41.1,11.4-37.6,10.4-11,3.1h0s-3.3.9-3.3.9l-4.4.5,3.7-102.6,1-26.9,4.1-114.9c42.4,16.1,47.9,60.9,47.9,60.9l40.7,157.2Z"/>
            <path class="cls-12" d="M2377,3282c-9.8-3.2-18.2-10.6-22.3-21.2l-5.4-14-3.1,1.6.4-8.6-4.3-11.2,5-1.9,1.6-31.6-3.4.9-4.4.4,3.8-105.8,3-23.4,7,63s-1.5,4.4,4.9,61.8c1,8.9,2.3,18.3,3.9,28.2.9,5.7,2,11.5,3.1,17.6,2.7,13.9,6.1,28.6,10.3,44.1Z"/>
            <path class="cls-8" d="M2367.5,3308h-261.2c.4-6.2.8-12.7,1.1-19.5,1-20.4,1.7-43.4,1.7-68.5l9-.9,222.8-22.6,4.4-.4,3.3-.9c0,4.7-.1,9.6-.2,14.6,0,.2,0,.5,0,.7,1,4.3,11.3,48.4,19,97.5Z"/>
            <path class="cls-1" d="M2349.8,2952.1c-1.4-.5-2.8-1-4.2-1.5-1.1-.4-2.2-.7-3.3-1l-1.6-.5-9.7-3.2-66.1-10.6s6,36-35,40c-21.6,2.1-40-6-49-39,0,0-34.9,9-35,9l-39.2,14-10.6,3.6-13.6,4.7s-.5.3-1.4,1c6.7,15.2,17.1,42.6,24.2,78.2,5.3,26.7,8.6,58,7,92.3-.3,7.1-.9,14.4-1.7,21.8l-1.5,43.7-.6,15.5h.6c0,0,9-1,9-1l222.8-22.6,4.4-.5,3.3-.9c1-76.6.2-115.1-.1-125.3,0-.8-.4-1.5-.9-2-.5-.5-1.2-.8-2-.8l3.9-108.9.2-6Z"/>
            <path class="cls-12" d="M2118.2,3219.1c-1.4,24.2-4.7,48-10.7,69.4,1-20.4,1.7-43.5,1.7-68.5h-.6c0,0,.5-15.4.5-15.4-.2-17-.6-34.8-1.5-53.2,0,0,1-4.6,4.7-12.3,1.6-34.3-1.8-65.6-7-92.3l.7-.3s7,36.1,10.8,84.2c2.1,27.1,3.2,57.9,1.4,88.3Z"/>
            <path class="cls-15" d="M2108.3,3113.9l-4,194.1h-57.1c-.9-13.3-1.5-24.8-1.7-29l-4.7-145,67.5-20.1Z"/>
            <path class="cls-1" d="M2110.7,3160.8l-2.1,59.2-2.6.3-113.4-38.3,47.7-131.4c17.3-59.9,35.8-77.9,40.9-81.9,12.8,29,39.2,102.1,29.5,192.3Z"/>
            <path class="cls-9" d="M2178.9,2766.3l5,46,15-53s-2,42-10,51l42,2s-9-50-5-53c0,0,16,36,13,53h21s-2-27,0-45l6,45s16.1,1.1,20,41c0,0,15.4-42.1,2.8-85.9-11-37.9-51.4-59.8-88.7-46.9-17.3,6-33.6,19.1-41.1,45.8,0,0-12.1,46,4.4,91.5,0,0,1.6-40.5,12.6-47.5l3-44Z"/>
            <path class="cls-9" d="M2175.4,2810.3s-11.4,14.5-12.8,48.4c0,0-5.1,30.6,8.6,58.5,0,0-16.2-25.3-14.3-56.3,0,0-4.3-42,18.5-50.6Z"/>
            <path class="cls-9" d="M2271.6,2808.1s10.5,16.3,9.6,53.9c0,0,3.1,34-12.5,64.6,0,0,18-27.8,18.1-62.1,0,0,7.1-46.4-15.2-56.4Z"/>
            <path class="cls-15" d="M2259.9,3052s14,8,6.5,41.8l-10.5.2,4-42Z"/>
            <g>
              <rect class="cls-8" x="2191.9" y="2985" width="67.6" height="145.8" rx="7.9" ry="7.9"/>
              <path class="cls-2" d="M2229.9,3005.1c0,2.3-1.9,4.2-4.2,4.2s-4.2-1.9-4.2-4.2,1.9-4.2,4.2-4.2,4.2,1.9,4.2,4.2Z"/>
            </g>
            <path class="cls-15" d="M2191.5,3094.2c13.2,20.3,35.5,39.5,35.5,39.5l115.9,138.3c7.4,8.9,20.6,22.6,25,23,58,6,52.1-51.3,52.1-51.3l-4.2-3.3-13.9-10.8-30.5-23.8-70.3-54.9c-12-11.9-22-28.3-27.9-39.2-3.2-5.9-4.4-12.6-7.3-18.7-6.1-12.9-6.1-29.9-6.1-29.9v16c-5.4-5.8-30.3-34.2-38-36-10.8-2.6-19.1,1.1-25.2,6.6-12.5,11.4-14.4,30.4-5.2,44.6Z"/>
          </g>
        </g>
      </g>
      <g>
        <g>
          <path class="cls-6" d="M1768.6,2042c-53.1,0-96.1,42.1-96.1,94s96.1,191,96.1,191c0,0,96.1-139.1,96.1-191s-43-94-96.1-94ZM1768.6,2149.8c-18.5,0-33.4-14.6-33.4-32.6s15-32.6,33.4-32.6,33.4,14.6,33.4,32.6-15,32.6-33.4,32.6Z"/>
          <ellipse class="cls-19" cx="1768.6" cy="2139.1" rx="62.9" ry="63"/>
          <g>
            <circle class="cls-6" cx="1768.6" cy="2118.5" r="15.8"/>
            <path class="cls-6" d="M1745.4,2139.4h46.3c3.4,0,6.1,2.7,6.1,6.1v28.5c0,.8-.7,1.5-1.5,1.5h-55.6c-.8,0-1.5-.7-1.5-1.5v-28.5c0-3.4,2.7-6.1,6.1-6.1Z"/>
          </g>
        </g>
        <g>
          <path class="cls-6" d="M2500,1864c-53.1,0-96.1,42.1-96.1,94s96.1,191,96.1,191c0,0,96.1-139.1,96.1-191s-43-94-96.1-94ZM2500,1971.8c-18.5,0-33.4-14.6-33.4-32.6s15-32.6,33.4-32.6,33.4,14.6,33.4,32.6-15,32.6-33.4,32.6Z"/>
          <ellipse class="cls-19" cx="2500" cy="1961.1" rx="62.9" ry="63"/>
          <g>
            <circle class="cls-6" cx="2500" cy="1940.5" r="15.8"/>
            <path class="cls-6" d="M2476.8,1961.4h46.3c3.4,0,6.1,2.7,6.1,6.1v28.5c0,.8-.7,1.5-1.5,1.5h-55.6c-.8,0-1.5-.7-1.5-1.5v-28.5c0-3.4,2.7-6.1,6.1-6.1Z"/>
          </g>
        </g>
        <g>
          <path class="cls-6" d="M3309.6,1706c-53.1,0-96.1,42.1-96.1,94s96.1,191,96.1,191c0,0,96.1-139.1,96.1-191s-43-94-96.1-94ZM3309.6,1813.8c-18.5,0-33.4-14.6-33.4-32.6s15-32.6,33.4-32.6,33.4,14.6,33.4,32.6-15,32.6-33.4,32.6Z"/>
          <ellipse class="cls-19" cx="3309.6" cy="1803.1" rx="62.9" ry="63"/>
          <g>
            <circle class="cls-6" cx="3309.6" cy="1782.5" r="15.8"/>
            <path class="cls-6" d="M3286.4,1803.4h46.3c3.4,0,6.1,2.7,6.1,6.1v28.5c0,.8-.7,1.5-1.5,1.5h-55.6c-.8,0-1.5-.7-1.5-1.5v-28.5c0-3.4,2.7-6.1,6.1-6.1Z"/>
          </g>
        </g>
        <g>
          <path class="cls-6" d="M3329.6,2535c-53.1,0-96.1,42.1-96.1,94s96.1,191,96.1,191c0,0,96.1-139.1,96.1-191s-43-94-96.1-94ZM3329.6,2642.8c-18.5,0-33.4-14.6-33.4-32.6s15-32.6,33.4-32.6,33.4,14.6,33.4,32.6-15,32.6-33.4,32.6Z"/>
          <ellipse class="cls-19" cx="3329.6" cy="2632.1" rx="62.9" ry="63"/>
          <g>
            <circle class="cls-6" cx="3329.6" cy="2611.5" r="15.8"/>
            <path class="cls-6" d="M3306.4,2632.4h46.3c3.4,0,6.1,2.7,6.1,6.1v28.5c0,.8-.7,1.5-1.5,1.5h-55.6c-.8,0-1.5-.7-1.5-1.5v-28.5c0-3.4,2.7-6.1,6.1-6.1Z"/>
          </g>
        </g>
        <g>
          <path class="cls-6" d="M2068.6,2573c-53.1,0-96.1,42.1-96.1,94s96.1,191,96.1,191c0,0,96.1-139.1,96.1-191s-43-94-96.1-94ZM2068.6,2680.8c-18.5,0-33.4-14.6-33.4-32.6s15-32.6,33.4-32.6,33.4,14.6,33.4,32.6-15,32.6-33.4,32.6Z"/>
          <ellipse class="cls-19" cx="2068.6" cy="2670.1" rx="62.9" ry="63"/>
          <g>
            <circle class="cls-6" cx="2068.6" cy="2649.5" r="15.8"/>
            <path class="cls-6" d="M2045.4,2670.4h46.3c3.4,0,6.1,2.7,6.1,6.1v28.5c0,.8-.7,1.5-1.5,1.5h-55.6c-.8,0-1.5-.7-1.5-1.5v-28.5c0-3.4,2.7-6.1,6.1-6.1Z"/>
          </g>
        </g>
      </g>
    </g>
  </g>
  <g id="Layer_4" data-name="Layer 4">
    <g>
      <path class="cls-17" d="M4372.8,2384.7h-199.8c-22.2,0-40.2-18-40.2-40.2v-174.3c0-22.2,18-40.2,40.2-40.2h199.8c22.2,0,40.2,18,40.2,40.2v174.3c0,22.2-18,40.2-40.2,40.2Z"/>
      <g>
        <path class="cls-19" d="M4179.7,2229.5v98.2h58.2v-98.2h-58.2ZM4221.7,2319.4c-5,0-9-3.9-9-8.7s4-8.7,9-8.7,9,3.9,9,8.7-4,8.7-9,8.7Z"/>
        <path class="cls-19" d="M4253.3,2242.5v76.9s10.7-2.7,19.6,7.5c.4.4.7.9,1,1.5,1,2,5.2,8,21.2,8h42.3c.4,0,.8,0,1.3-.1,2.9-.5,12.8-3.4,12.4-16.9,0-2.2,1-4.2,2.9-5.5,4-2.6,9.7-9,5.8-23.3-.5-1.8-.1-3.7,1-5.2,3.4-4.7,9.7-15.6,1.3-23.7-1.5-1.5-2.2-3.6-1.8-5.7,1.2-5.9,1.8-17.6-11.8-20.5-.5-.1-1-.2-1.5-.2h-25.3c-3.9,0-7-3.3-6.5-7,2.2-18.3,6-64.9-16.8-45.1-1.1,1-1.9,2.3-2.1,3.7-1.7,9.9-10.7,52.5-42.9,55.7Z"/>
      </g>
    </g>
  </g>
  <g id="Layer_3" data-name="Layer 3">
    <g>
      <path class="cls-17" d="M1762.9,3492.7h-199.8c-22.2,0-40.2-18-40.2-40.2v-174.3c0-22.2,18-40.2,40.2-40.2h199.8c22.2,0,40.2,18,40.2,40.2v174.3c0,22.2-18,40.2-40.2,40.2Z"/>
      <g>
        <rect class="cls-19" x="1573.2" y="3279.8" width="179.6" height="131.4" rx="31.4" ry="31.4"/>
        <path class="cls-19" d="M1683.8,3400.6h-41.7s3.7,33.6,41.7,50.2c0,0-20-29.4,0-50.2Z"/>
        <g>
          <circle class="cls-22" cx="1623.9" cy="3345.5" r="12.6" transform="translate(-1934.6 4425.7) rotate(-81)"/>
          <circle class="cls-22" cx="1663" cy="3345.5" r="12.6" transform="translate(-1901.7 4464.3) rotate(-81)"/>
          <circle class="cls-22" cx="1702" cy="3345.5" r="12.6" transform="translate(-1868.7 4502.8) rotate(-81)"/>
        </g>
      </g>
    </g>
  </g>
</svg>