<?xml version="1.0" encoding="UTF-8"?>
<svg id="Layer_30" data-name="Layer 30" xmlns="http://www.w3.org/2000/svg" version="1.1" viewBox="0 0 3000 2000">
  <defs>
    <style>
      .cls-1 {
        fill: #fec5a4;
      }

      .cls-1, .cls-2, .cls-3, .cls-4, .cls-5, .cls-6, .cls-7, .cls-8, .cls-9, .cls-10, .cls-11, .cls-12, .cls-13, .cls-14 {
        stroke-width: 0px;
      }

      .cls-2 {
        fill: #3e5670;
      }

      .cls-3 {
        fill: #4faff7;
      }

      .cls-4 {
        fill: #ff7f2b;
      }

      .cls-5 {
        fill: #2f4154;
      }

      .cls-6 {
        fill: #27191c;
      }

      .cls-7 {
        fill: #c1e9f7;
      }

      .cls-8 {
        fill: #fec5a4;
      }

      .cls-9 {
        fill: #dd9169;
      }

      .cls-10 {
        fill: #024d91;
      }

      .cls-11 {
        fill: #27191c;
      }

      .cls-12 {
        fill: #8380b6;
      }

      .cls-13 {
        fill: #fff;
      }

      .cls-14 {
        fill: #0267c1;
      }
    </style>
  </defs>
  <path class="cls-7" d="M205.5,1036.5C267,753.5,51,264,570,97,914.2-13.8,1216.3,468.2,1613,447c467-25,609-516,1105-294,271.2,121.4,251.4,966.2-63.5,1331.5-52.6,61-177.4,350.3-1140.5,404.5-995.8,56-1144-223.8-1237.5-348.5-139.9-186.6-84.7-440.8-71-504Z"/>
  <g>
    <g>
      <g>
        <path class="cls-3" d="M1618.7,1469.4v-399.1c0-61.7-50-111.7-111.7-111.7h-710.3c-61.7,0-111.7,50-111.7,111.7v399.1c0,61.7,50,111.7,111.7,111.7h24c14.7,0,25.4,13.9,21.6,28.1l-33.6,125.1c-5.4,20.1,17.1,36,34.2,24.2l251.7-173.4c3.7-2.6,8.1-3.9,12.7-3.9h399.6c61.7,0,111.7-50,111.7-111.7Z"/>
        <path class="cls-13" d="M1057.1,1483c-20.7-11.4-36.6-27.9-47.7-49.3-11.1-21.4-16.7-46.5-16.7-75.3v-183.9c0-29,5.6-54.1,16.7-75.4,11.1-21.3,27-37.7,47.7-49.1,20.7-11.4,45-17.2,72.9-17.2,27.9,0,52.2,5.7,72.9,17.2,20.7,11.4,36.6,27.8,47.7,49.1,11.1,21.3,16.7,46.4,16.7,75.4v183.9c0,28.8-5.6,53.8-16.7,75.3-11.1,21.4-27,37.8-47.7,49.3-20.7,11.4-45,17.2-72.9,17.2s-52.2-5.7-72.9-17.2ZM1169.5,1429.8c11.2-6.4,19.8-15.5,25.8-27.4,6-11.9,9-25.9,9-42v-187.7c0-16.2-3-30.2-9-42-6-11.9-14.6-21-25.8-27.4-11.2-6.4-24.4-9.6-39.5-9.6s-28.3,3.2-39.5,9.6c-11.2,6.4-19.9,15.5-26,27.4-6.1,11.9-9.1,25.9-9.1,42v187.7c0,16.2,3,30.2,9.1,42,6.1,11.9,14.7,21,26,27.4,11.2,6.4,24.4,9.6,39.5,9.6s28.3-3.2,39.5-9.6ZM1123.1,1390.3l33.1-41.6,154.9,115.9-33.1,42.2-154.9-116.5Z"/>
      </g>
      <g>
        <path class="cls-12" d="M2203.3,754.9h-710.3c-61.7,0-111.7,50-111.7,111.7v399.1c0,61.7,50,111.7,111.7,111.7h405.5c4.7,0,9.4,1.5,13.2,4.3l257.8,188.7c16.8,12.3,39.7-3,34.9-23.2l-33.9-142.4c-3.3-14,7.3-27.5,21.7-27.5h11.1c61.7,0,111.7-50,111.7-111.7v-399.1c0-61.7-50-111.7-111.7-111.7Z"/>
        <path class="cls-13" d="M1820.7,837.2h54.8l137.3,457.8h-66.8l-97.9-366.5-97.9,366.5h-66.8l137.3-457.8ZM1756.2,1136.4h188.3v58.6h-188.3v-58.6Z"/>
      </g>
    </g>
    <g>
      <g>
        <rect class="cls-13" x="2166.3" y="1107.6" width="49" height="36.5" transform="translate(-21.5 42.9) rotate(-1.1)"/>
        <path class="cls-11" d="M2282.6,1166.2l-60.4-28.8c-1.5-.7-3.2-1-4.9-.7-6.2.9-24.7,1.8-51.4-13-4.8-2.7-10.9-.2-12.4,5.1l-13,45.2c-1.6,5.5,2.6,11,8.4,10.9l130.2-2.4c9-.2,11.7-12.4,3.5-16.2Z"/>
      </g>
      <g>
        <rect class="cls-13" x="2284" y="992.7" width="49" height="36.5" transform="translate(-19.3 45.2) rotate(-1.1)"/>
        <path class="cls-11" d="M2400.3,1051.3l-60.4-28.8c-1.5-.7-3.2-1-4.9-.7-6.2.9-24.7,1.8-51.4-13-4.8-2.7-10.9-.2-12.4,5.1l-13,45.2c-1.6,5.5,2.6,11,8.4,10.9l130.2-2.4c9-.2,11.7-12.4,3.5-16.2Z"/>
      </g>
      <polygon class="cls-13" points="1998.6 391.2 2045.5 588.1 2046.9 669.4 1944.6 668 1931.9 411.5 1951.4 381.3 1998.6 391.2"/>
      <path class="cls-5" d="M2278.6,999.1l56.7-.7c5,0,9-4.2,8.9-9.2l-3.4-213c-.7-41.8-32.3-76.7-73.9-81.3l-192.4-21.3-23.2-12-154.5-7.7h0c-48.1,17.1-62.5,78.1-27.3,114.9l16.1,16.8,242,123.8,26,195.7c.6,4.5,4.5,7.9,9.1,7.9l56.9-.7c4.9,0,8.9-4.1,8.9-9l1.6-221.5c.2-21.5-10.5-41.7-28.4-53.7l-35.1-23.5h69.2c4.9,0,9.1,3.6,9.7,8.5l23.9,178.1c.6,4.5,4.5,7.9,9.1,7.8Z"/>
      <path class="cls-14" d="M1998.6,391.2s72.1,10.5,97.3,75c18.3,46.8,34.1,81.8,41.3,97.5,2.6,5.7,7.8,9.8,13.9,11l118.1,23.8c4.9,1,8,5.7,7.1,10.6l-6.5,33.6c-.9,4.6-5.1,7.7-9.7,7.3l-141.5-12.8c-14.3-1.3-10.1,37.9-10.1,37.9.4,3.5-1.9,6.8-5.4,7.5l-59.6.9c-8.4,1.7-16.3-4.8-16.3-13.4,0-49-15.5-195.9-28.7-278.9Z"/>
      <path class="cls-14" d="M1951.4,381.3c13.9,76.7,27,154.7,27.3,232.9,0,13.2-.6,26.4-1.7,39.6-.9,10.8-.5,21.9-2.5,32.6-2.7,14.2-9,27.6-18.2,38.7-9.9,11.9-23.8,19-34.9,29.7-10.9,10.4-23.5,19.5-35.3,29-17.6,14.2-43.7.7-42.4-21.8.6-9.8,1-20.8,1.3-33,1.3-58.3,11.2-155.6,9.1-210.9-2.1-55.4-14.3-110.9,97.3-136.7Z"/>
      <path class="cls-10" d="M1879.8,511.8l55.4,110c7.6,13.9,17,21.1,30.6,21.8l77.4,5.2-163.4-137Z"/>
      <path class="cls-10" d="M1971.5,506.9l31.1,45.7c3.6,5.8,6.1,10.5,14.8,15.8l61,31.7-96.4-15.2-10.4-78.1Z"/>
      <g>
        <rect class="cls-5" x="2125.6" y="633.2" width="154.3" height="20.8" rx="2" ry="2"/>
        <path class="cls-2" d="M2284.6,460.2h162.6c6.9,0,12.1,6.1,11,12.9l-26.5,171.5c-.8,5.4-5.5,9.5-11,9.5h-162.6c-6.9,0-12.1-6.1-11-12.9l26.5-171.5c.8-5.4,5.5-9.5,11-9.5Z"/>
        <path class="cls-13" d="M2353.7,578c-.8,0-1.5,0-2.3-.3-7.8-1.8-12-12.4-9.4-23.8h0c2.6-11.4,11-19.1,18.8-17.4,7.8,1.8,12,12.4,9.4,23.8-1.2,5.4-3.8,10.2-7.2,13.4-2.9,2.7-6.1,4.2-9.3,4.2ZM2344.7,554.5c-2.3,9.9,1,19.1,7.4,20.5,3,.7,6.2-.5,9.1-3.2,3.1-2.9,5.3-7.2,6.5-12.1,2.3-9.9-1-19.1-7.4-20.5-6.3-1.4-13.3,5.4-15.5,15.3h0Z"/>
      </g>
      <path class="cls-1" d="M2121.5,659.4c29.9,8.3,32.3,8,54.6,13.2,10.3,2.4,24.9,13.7,31.2,8.5,7-5.7,9.7-10.7,5.8-18.8s-12-13.5-20.7-16c-3.8-1.1-7.9-1.7-11.1-4-3.2-2.3-5.2-7.1-2.8-10.3,2.3-3.2,8-4.3,7.7-8.2-.2-3.5-5-4.3-8.5-3.9-11.5,1.3-41.6,8.6-52.2,13.3l-4.1,26.3Z"/>
      <path class="cls-14" d="M2124.7,656l6.5-33.4c.9-4.7-2-9.3-6.7-10.5l-114.8-40.7c-4-1-7.3-3.8-9-7.5l-74.3-145.5-65.2,64.5,79.5,133.3c7.4,12.4,19.8,20.9,34,23.3l139.6,23.7c4.8.8,9.5-2.4,10.4-7.2Z"/>
      <g>
        <path class="cls-4" d="M1980.4,406.5s-40.3,40.7-86.8,14.3c-46.5-26.4-68.4-14.5-107.3.8-33.1,13-64.5,3.8-96.6-16.2l-31.5,1.5,18.5,22.5c40.5,24.2,78.5,36.4,115.9,17.7,37.4-18.8,58.2-32.5,106.8-10.4,48.6,22.1,85.1-22,85.1-22l-4.2-8.3Z"/>
        <g>
          <path class="cls-1" d="M1964.6,307.6l-13.2,73.7,27.8,33.8c1,1.9,3.5,2.2,5,.7l14.4-24.6.6-3.3.8-3.8,6.1-30.7.6-3.1-42.1-42.8Z"/>
          <path class="cls-9" d="M1975.4,329.5s-2.5,36.3,23.9,58.4l.8-3.8,6.1-30.7-30.7-24Z"/>
          <path class="cls-1" d="M2052.4,294.9c-1.2,14.9-1.8,39.1-.1,53.9,0,.8.2,1.8-.3,2.5-.7,1-2.3.9-3.6.9-5.9,0-10.9,4.3-14.8,8.8-3.9,4.5-7.5,9.6-12.8,12-5.4,2.4-11.5,5-17.5,3.6-6.4-1.4-12.2-7.4-14.6-13.4-7.5-15.4-16-37.4-24.7-61.5l14.9-33.2,73.6,26.3Z"/>
          <path class="cls-11" d="M1968,262c3.5-3.6,7.6-6.6,12.2-8.5,5.1-2.1,10.7-2.8,16.1-3.5.2,0,.6,0,1.2-.1.5-1.5,1.5-3.6,1.6-3.9.8-1.3,1.7-2.5,2.8-3.5.3-.3.7-.6,1-.9,6.3-5.1,12.7-4.7,19-2.5,4.6,1.6,9.1,4.2,13.5,6.3,2.5,1.2,4.9,2,7.4,2.4,3.3.5,6.7.3,10.2-.9,6.5-2.1,12-6.5,18.8-7.6,10.4-1.8,19.9,7.4,21.6,17.1.4,2.3.4,4.7,0,7-2.5,14.1-12.3,28.4-26.7,32.1-6.1,1.6-12.5.5-18.5-.7-8.1-1.6-16.1-3.1-24.2-4.5-4.1-.7-8.3-1.4-12.4-2.1-2.4-.4-8.6-2.8-9.8.6-.6,1.8,0,3.8.5,5.6,1.7,8.2,2.8,16.6,4.2,24.8.3,2.1,1.3,9.9-2.9,8.9-.6-.1-1.1-.5-1.6-.9-4.9-3.7-7.5-9.7-9.8-15.1-1.2-2.7-2.3-5.5-3.7-8.1-1.3-2.4-3.1-5.9-5.6-7.2-4.4-2.5-6.6,2.4-8.1,5.7-2.2,4.9-4.5,9.4-7.5,13.9-1.1,1.6-2.4,3.1-4.2,3.8-4.9,2-6.9-4-7.1-7.7-.3-3.7-.4-7.4-.4-11.2,0-14.3,2.1-28.7,12.5-39.4Z"/>
        </g>
      </g>
    </g>
    <g>
      <g>
        <path class="cls-8" d="M802.4,1252.5l15.1-49.9-41.9-18.7s-11.7,50.3-28.4,51.2c0,0,27.7,44.8,55.3,17.3Z"/>
        <path class="cls-11" d="M807.2,1258.7c-.3-4.3-4.3-7.4-8.5-6.8h0c-2,.3-4,.9-5.9,1.6-8.4,3.2-18.1,2.6-26.1-1.5-6-3.1-10.9-8.2-13.9-14.2-1.3-2.5-3.4-4.5-6-5.5-13.4-5-27-9.1-41.1-12-3.5-.7-7-1.4-10.5-1.2-3.5.2-7.1,1.4-9.6,4-4.4,4.6-3.9,12.2-1,17.9,5.8,11.4,18.7,17.1,31,20.3,12.3,3.2,25.4,4.9,36.2,11.7,5.8,3.7,10.6,8.6,16.2,12.7,5.5,4,12.2,7.2,19.1,6.4,8.4-1,15.1-8,18-15.9,2.3-6.3,2.7-11.5,2.3-17.6Z"/>
      </g>
      <g>
        <path class="cls-8" d="M586.2,1160.7l39.4-34.1-25.5-38.2s-36.7,36.3-51.4,28.1c0,0-.5,52.6,37.5,44.2Z"/>
        <path class="cls-11" d="M586.9,1168.4c2-3.8.4-8.6-3.6-10.3h0c-1.9-.9-3.9-1.4-5.9-1.8-8.8-1.8-16.7-7.5-21.2-15.2-3.4-5.8-4.8-12.7-4.2-19.4.3-2.8-.4-5.6-2.1-7.9-8.7-11.4-18-22.1-28.3-32.1-2.5-2.5-5.2-4.9-8.3-6.6s-6.8-2.6-10.2-1.7c-6.2,1.5-9.8,8.2-10.4,14.6-1.2,12.7,6.7,24.4,15.4,33.8,8.7,9.3,18.9,17.7,24.3,29.3,2.9,6.2,4.4,13,6.9,19.4,2.5,6.4,6.5,12.6,12.7,15.6,7.6,3.6,17,1.3,23.7-3.9,5.3-4.1,8.5-8.3,11.3-13.7Z"/>
      </g>
      <path class="cls-5" d="M1209.7,951.3c-3.3,6.8-8.2,12.6-14.1,17.1-5.9,4.5-12.8,7.6-20.2,9l-248.5,56.4c-7.8,1.5-14.3,6.7-17.4,14l-80.4,171.3c-2,4.6-7.4,6.8-12,4.7l-52.8-23.2c-4.2-1.9-6.4-6.6-5-11l48.7-164,13.1-43.2c5-16.5,17.4-29.6,33.5-35.6l260.5-96.4,2.2-.2,22.5-1.8c55.3-4.5,94.3,53,69.9,102.7Z"/>
      <path class="cls-5" d="M1115.2,850.6l-260.5,96.4c-1.5.6-3,1.2-4.5,1.9-13.9,6.6-24.5,18.8-29.1,33.7l-13.1,43.2-9.5,6.3-167.5,111.1c-4.2,2.8-9.8,1.6-12.6-2.6l-31.6-48c-2.6-3.9-1.7-9.2,2-12.1l164.1-137c19.2-15.1,41.3-26.2,64.8-32.6l226.7-54.7,70.7-5.7Z"/>
      <path class="cls-6" d="M850.2,948.9c-13.9,6.6-24.5,18.8-29.1,33.7l-13.1,43.2-9.5,6.3c14.9-73,47-82.3,51.6-83.3Z"/>
      <path class="cls-1" d="M947.1,782.7c.2,1-11.2,6.6-12.6,7.3-7.5,4-14.8,6.8-23.2,8-8,1.1-15.9.8-23.9.7-5.9,0-11.9.2-17.8.7-5,.5-10.6,2.1-15.3-.6-4.3-2.6-5.3-7.5-1.4-11,4.4-4,10.8-4.3,16.3-5.7,3.9-1,9.3-3.3,7-8.2-.9-1.9-3.3-2.5-5.4-2.6-11.5-.7-24,5.5-29.9,15.6-2.6,4.4-3.9,9.8-7.8,13.2-6.1,5.3-7.9-7.3-8.3-11-.9-9.3,4-17.6,10.6-23.9,5.9-5.6,12.7-10.3,20.1-13.9,7-3.4,13.9-6,21.6-4.3,5.9,1.3,10.9,4.5,16.5,6.7,7.1,2.8,14.2,5.3,22,5,7.8-.3,15.5-2.6,22.1-6.7,4.4,10,7.7,19.8,9.5,30.6Z"/>
      <path class="cls-11" d="M1054.3,543c.1.2.3.4.4.6.2.3.4.5.6.8.2.2.4.5.6.7.2.2.4.4.5.6,0,.1.2.2.3.3.2.2.3.3.5.5.2.3.5.5.8.8.3.3.6.6.9.9,0,0,0,0,.1.1.3.2.5.5.8.7s.5.5.8.7c.3.2.5.4.8.7.7.5,1.3,1.1,2,1.6.3.2.6.5,1,.7h0c.3.2.6.4.9.6,2.5,1.6,5.1,2.9,7.9,3.9.8.3,1.7.6,2.5.8.9.3,1.8.5,2.7.7.5,0,.9.2,1.4.3h0s1.8,17.9,1.8,17.9l.4,3.9c-3.9.7-8,1.4-12.2,2.1-1.3-1-2.5-2.1-3.7-3.2-9-8.4-15.8-19.5-13.6-29.5.6-2.8,1.2-5.2,1.7-7.3Z"/>
      <path class="cls-14" d="M1038.3,742.4l45.4,56.7c-7.1,6.7-16.8,10.5-27,9.9l-134-7.2c-5-.3-8.8-4.5-8.6-9.5l1.6-30.8c.2-4.6,3.8-8.2,8.4-8.6l110.6-8.1c1.6-.1,3-1.1,3.7-2.4Z"/>
      <path class="cls-14" d="M1123.5,563.7s109.7,21.7,109.7,109.4-38,89.3-9.3,237.7c1.8,9.2-4.7,18-12.8,20.2-30.3,8.5-118.1-30.6-212.4-35.9-23-1.3-30.6-24.1-19.1-34.9,38-35.7,43.8-46.1,41.8-81.4-3.6-63.8-29.7-144.7,57.8-204.7l44.3-10.5Z"/>
      <path class="cls-10" d="M1198.1,720.4l-40.4,81.3c-7.1,14.2-17.5,23.2-31.9,25.2l-66.6,8.8,138.9-115.3Z"/>
      <path class="cls-10" d="M1118.1,705.3l-30.1,46.6c-4.1,6.4-10.1,11.4-17.1,14.3l-52,21.8,84.1-8.8,15.1-73.9Z"/>
      <g>
        <rect class="cls-5" x="826.5" y="798.9" width="154.3" height="20.8" rx="2" ry="2" transform="translate(1875.7 1535.2) rotate(174.9)"/>
        <path class="cls-2" d="M805.9,633.8l-161.9,14.4c-6.8.6-11.5,7.2-9.9,13.8l41.7,168.5c1.3,5.4,6.4,8.9,11.8,8.5l161.9-14.4c6.8-.6,11.5-7.2,9.9-13.8l-41.7-168.5c-1.3-5.4-6.4-8.9-11.8-8.5Z"/>
        <path class="cls-13" d="M746.6,757.3c-2.9,0-5.9-1.2-8.7-3.4-3.7-3-6.7-7.5-8.4-12.8-3.6-11.1-.3-22.1,7.2-24.5,3.8-1.2,8-.2,11.9,2.9,3.7,3,6.7,7.5,8.4,12.8,1.7,5.3,1.9,10.7.7,15.3-1.3,4.8-4.1,8.1-7.9,9.3-1,.3-2.1.5-3.2.5ZM740,718.8c-.8,0-1.6.1-2.4.4-6.2,2-8.6,11.5-5.5,21.1,1.5,4.8,4.2,8.8,7.5,11.5,3.1,2.5,6.4,3.4,9.3,2.4,2.9-.9,5.1-3.6,6.1-7.4,1.1-4.1.9-8.9-.6-13.7-1.5-4.8-4.2-8.8-7.5-11.5-2.3-1.8-4.7-2.8-7-2.8Z"/>
      </g>
      <path class="cls-1" d="M963.5,815.1c-14.4-5.2-21.7-10.5-31.4-16.8-2.8-1.8-7.3-4.9-10.5-2-2.3,2.1-1.5,5.8-.7,8.4.8,2.6,4.8,7.9-.3,8.4-8.3.8-16.6,1.2-24.9,2.5-10,1.6-19.4,6.6-26.3,14-2.8,3-5.2,6.4-6.1,10.3-.9,3.9,0,8.4,2.9,11.2,5.6,5.3,14.7,1.9,21.9-1,21.7-8.6,39.5,2.2,82.8-10.8,5-8.4-8.5-14.4-7.5-24.1Z"/>
      <path class="cls-14" d="M962.9,843.1l-6.1-30.1c-.9-4.6,1.9-9.2,6.4-10.5l116.6-32.8c5.3-1.5,9.8-5.3,12-10.4l62.3-139.2,65.2,64.5-63.7,112.4c-8.9,15.8-24.5,26.7-42.4,29.7l-140,23.6c-4.8.8-9.4-2.3-10.4-7.1Z"/>
      <path class="cls-1" d="M1109.3,494.4l14.2,69.3-23.9,34.2c-.9,1.8-3.2,2.2-4.7.8l-15.8-24.5-.7-3.1-.8-3.5-6.5-28.8-.6-2.9,38.8-41.4Z"/>
      <path class="cls-9" d="M1099.6,515.3s3.2,34.2-21.2,55.7l-.8-3.5-6.5-28.8,28.5-23.4Z"/>
      <path class="cls-1" d="M1026.1,484.4c1.5,14,2.6,36.9,1.4,51,0,.8-.1,1.7.4,2.3.7,1,2.2.8,3.4.8,5.6-.2,10.4,3.8,14.2,7.9,3.8,4.1,7.3,8.9,12.4,11.1,5.1,2.2,11,4.4,16.6,3,6.1-1.5,11.4-7.3,13.5-13,6.8-14.7,14.2-35.7,21.9-58.7l-14.8-31-68.9,26.5Z"/>
      <path class="cls-11" d="M1195.8,525.7c-4.4-2.3-9.2-4.6-12.4-8.3-3.6-4.2-3.5-10.4-4.8-15.8-3.8-15.6-19.3-21-26.2-34-.8-1.4-1.5-2.9-2.2-4.4-2.8-5.8-5.3-11.8-10.2-16.2-2.5-2.3-5.1-4.1-7.7-5.6.4-.6.8-1.3,1.1-1.9,6.3-12.5-1.8-29.4-18.2-37.6-16.4-8.2-34.7-4.8-41.1,7.8-2.5,4.9-2.7,10.5-1.1,16-.3-1.1-10.5-.8-11.7-.7-18.9.5-37.5,12.5-47.9,27.9-4.8,7-6.7,14.1-5.7,22.6.7,6.7,3.5,15.4,9.1,19.6,2.4,1.8,5.6,2.1,8.2.7,4.2-2.2,8.3-4.5,12.4-6.6,3.8-2,7.6-3.9,11.5-5.9,5.8-2.9,12-5.6,18.4-6.8,3-.6,6.3-1.6,6.8,2.8.2,2-.7,3.7-1.1,5.6-.4,2.2-.6,4.6-1,6.9-.7,4.9-1.3,9.7-1.9,14.6-.3,2-1,9.4,2.9,8.4.6-.1,1-.5,1.5-.9,3.8-2.9,5.6-7.2,7.5-11.4,1-2.2,2-4.5,3.1-6.7,0,0,.8,1.8,1,2.1.7,1.1,1,1.5,1.8,2.5,2.2,2.6,5.1,3.9,8,5.6,3.7,2.1,9.4,3.7,8.9,9-.4,5.1-2.6,10-3,15.2-.4,5.5.3,11,2.1,16.2,3.6,10.2,11,19.8,21.3,23.9,15.8,6.3,32.9,8.8,49.1,13.9,12.7,3.9,28.3,8.1,39.7-1.2,12.5-10.2,10.1-30.3.9-41.8-4.2-5.3-9.6-9.5-15.3-13.1-1.2-.8-2.6-1.5-4-2.3Z"/>
    </g>
    <g>
      <path class="cls-13" d="M517,393.5h406.4c2,0,3-2.5,1.6-3.9-7.3-7-16.4-12.2-26.2-14.9-4.6-1.2-9.4-2.3-14.1-2.2-5.6,0-11.3,1.6-16.8-.3-8.7-3-9.7-12.2-11.8-19.9-6.6-24.1-32.5-42-57.1-37.7-6.9,1.2-14.6,3.5-21.5,1.1-7.8-2.7-11.6-11-16-17.3-12-17.2-33.1-27.5-54-26.6-20.9,1-41,13.3-51.3,31.5-4.8,8.4-8.5,18.2-11.4,27.4-.6,1.9-1.2,3.9-3.1,4.8-1.3.6-2.7.7-4.1.7-4.5-.1-8.9-1.4-13.3-1.6-4.5-.1-9.1.2-13.6.8-9.7,1.4-19.4,7.1-22.7,16.3-2.1,5.7-1.7,12.4-5.2,17.4-4.1,5.9-12.3,7.3-19.4,6.6-7.1-.8-14.1-3.2-21.3-3.2-12.8.1-23.4,6.4-27,18.1-.4,1.4.6,2.9,2.1,2.9Z"/>
      <path class="cls-13" d="M1430.8,622.6c53,1.3,106.1,1.6,159.1.9,7.5,0,15.4.6,22.7-1.4,7.2-2,16-8.5,14.1-17-2.1-9.4-14.9-8.8-19.4-16.2-3.2-5.3-1.1-12.1-4.6-17.2-4.3-6.5-13.1-5.9-19.7-8.5-11.5-4.5-15.9-15.5-25-23-8.2-6.8-20.3-8.6-30.1-4.5-7.5,3.1-13.6,9.5-16.3,17.1-.6,1.8-1.2,3.7-2.6,4.9-3.3,2.8-9.7.1-13.7.5-4.9.5-9.8,2.9-12,7.2-.9,1.7-1.3,3.7-2.4,5.2-6.2,8.3-22.6-3-25.9,9-.7,2.5-.1,5.3-.8,7.9-1.1,4.6-5.2,6.6-9.6,6.7-2.6,0-5.2-.4-7.8-.2-7.1.6-13.8,6.5-14.2,13.8-.2,4.7,2.1,14.8,8.3,14.9Z"/>
      <path class="cls-13" d="M1970.5,1612.9c-10.6-11.3-27-17.9-42.3-16.6-3.9.3-8,1.2-11.8,0-7.3-2.3-10.5-10.6-15.5-16.3-5.9-6.6-15.3-10-24-8.5-6.3,1-12.5,4.4-18.8,3-7.8-1.8-11.9-9.9-16.3-16.6-8-12.2-20.3-21.9-34.6-24.8-14.3-2.8-30.4,2.1-39.1,13.8-3.8,5.2-6.2,11.4-11.5,15.5-1,.8-2.1,1.5-3.3,1.9-8.3,3.3-14-3.3-20.5-7-4.5-2.5-9.8-3.6-14.9-3.2-2.6.2-5.2.7-7.7,1.6-2.2.8-4.3,3-6.6,3.1-2.8.1-4.6-2.7-6.3-4.4-2.2-2.1-4.1-4.4-5.9-6.8-3.6-4.9-6.7-10.1-10.1-15.2-9.3-13.9-22.8-25.3-38.7-30.4-15.9-5.1-34.3-3.4-48.1,6.1-13.1,9.1-22,24.6-37.2,29.6-11.4,3.7-23.7.6-35.4-2.1-7.9-1.8-16-3.4-24-2.3-8,1-16,5.1-19.8,12.3-2.9,5.4-3.3,12.2-7.7,16.5-4.7,4.5-12.1,4.3-18.3,2.6-6.2-1.7-12.2-4.6-18.6-4.9-9.8-.4-18.9,5.9-24.7,13.8-2.4,3.4-4.3,7.1-6,10.9-1,2.4-2.1,4.9-2.9,7.3-.8,2.7-1.2,5.1-3,7.4-3.1,3.7-7.9,3.6-12.3,4.5-4.1.8-8.3,1.5-12.5,2-3.7.5-7.5.8-11.1,2.1s-6.9,3.7-8.3,7.2c-1,2.5-.6,6.6.8,9.6.9,1.7,2.6,2.7,4.5,2.7,40,0,606,0,606,0,7.5,0,11.4-8.9,6.3-14.3Z"/>
    </g>
  </g>
</svg>