<?xml version="1.0" encoding="UTF-8"?>
<svg id="Layer_1" data-name="Layer 1" xmlns="http://www.w3.org/2000/svg" version="1.1" viewBox="0 0 2750 2000">
  <defs>
    <style>
      .cls-1 {
        fill: #68b8e9;
      }

      .cls-1, .cls-2, .cls-3, .cls-4, .cls-5, .cls-6, .cls-7, .cls-8, .cls-9, .cls-10, .cls-11, .cls-12, .cls-13, .cls-14, .cls-15, .cls-16, .cls-17, .cls-18, .cls-19, .cls-20 {
        stroke-width: 0px;
      }

      .cls-2 {
        fill: #77c3f0;
      }

      .cls-3 {
        fill: #477ebf;
      }

      .cls-4 {
        fill: #ffc5bd;
      }

      .cls-5 {
        fill: #e1f2ff;
      }

      .cls-6 {
        fill: #acdafa;
      }

      .cls-7 {
        fill: #37a6bf;
      }

      .cls-8 {
        fill: #85cbf5;
      }

      .cls-9 {
        fill: #3a99d3;
      }

      .cls-10 {
        fill: #b9e0fb;
      }

      .cls-11 {
        fill: #92d0f6;
      }

      .cls-12 {
        fill: #193972;
      }

      .cls-13 {
        fill: #c6e5fd;
      }

      .cls-14 {
        fill: #193368;
      }

      .cls-15 {
        fill: #7fc8f4;
      }

      .cls-16 {
        fill: #ef9b8f;
      }

      .cls-17 {
        fill: #fff;
      }

      .cls-18 {
        fill: #63b6d3;
      }

      .cls-19 {
        fill: #99d3f7;
      }

      .cls-20 {
        fill: #356195;
      }
    </style>
  </defs>
  <rect class="cls-17" width="2750" height="2000"/>
  <g>
    <g>
      <ellipse class="cls-5" cx="660.31" cy="511.59" rx="82.64" ry="72.81" transform="translate(-170.09 421.21) rotate(-31.56)"/>
      <ellipse class="cls-5" cx="797.59" cy="403.54" rx="38.65" ry="34.45" transform="translate(-93.24 477.08) rotate(-31.56)"/>
      <g>
        <g>
          <path class="cls-5" d="M2070.34,1530.01c94.9-69.09,117.68-226.75,85.46-338.01-27.91-96.36-84.31-184.46-81.17-288.27,2.85-94.13,50.92-158.87,55.73-252.45,9.57-186.2-171.86-339.23-383.29-263.66-93.97,33.59-180.91,99.57-277.31,117.61-135.21,25.3-231.68-71.43-360.51-75.53-112.4-3.57-225.23,35.25-316.52,120.39-71.8,66.96-125.75,158.92-154.18,258.62-24.8,87-12.15,176.67,20.17,255.26l1411.61,466.04Z"/>
          <path class="cls-5" d="M1092.07,1006.92l-433.34,57.05c68.17,179.55,297.79,403.87,601.86,504.26,304.07,100.39,667.53,64.45,809.75-38.22l-5.6-118.27-972.67-404.81Z"/>
        </g>
        <path class="cls-5" d="M617.97,1526.78c-48.67-53.46-76.69-127.15-76.49-201.18.08-28.24,4.36-57.23,18.02-81.54,13.66-24.31,37.98-43.21,64.82-44.03,37.74-1.15,67.89,31.13,92.87,60.91,16.68,19.88,33.35,39.76,50.03,59.64,24.49,29.19,56.19,50.39,91.32,62.63,26.86,9.35,51.13,23.67,65.11,48.81,20.76,37.34,9.55,87.67-17.94,119.84-16.62,19.45-37.19,37-60.86,45.67-22.6,8.27-61.32,16.39-108.06,5.83-21.52-4.86-41.32-16.21-60.28-27.97-21.48-13.32-41.28-29.67-58.53-48.62Z"/>
      </g>
      <g>
        <path class="cls-13" d="M1683.86,1632.11c-133.32,0-267.88-20.59-386.05-59.6-142.43-47.02-277.23-124.03-389.83-222.7-102.07-89.44-177.66-189.71-212.83-282.33-25.1-61.05-49-155.07-20.2-256.07,28.82-101.09,83.7-193.14,154.54-259.21,87.47-81.58,200.18-124.52,317.44-120.74,56.15,1.79,106.78,21.34,155.75,40.24,63.09,24.36,128.34,49.55,204.48,35.31,57.13-10.69,111.98-38.81,165.02-66.01,36.34-18.63,73.91-37.9,112.09-51.55,98.82-35.32,199.61-22.76,276.53,34.45,72.57,53.97,113.12,140.13,108.47,230.49-2.37,46.04-15.34,85.67-27.89,124.01-12.98,39.63-26.39,80.61-27.84,128.42-2.11,69.73,23.25,133.61,47.78,195.39,11.91,30.01,24.23,61.04,33.34,92.48,32.54,112.39,9.29,270.07-85.94,339.41-71.11,51.33-196.81,86.14-344.86,95.5-26.52,1.68-53.24,2.51-80,2.51ZM1132.86,433.82c-111.51,0-218.13,42.4-301.62,120.27-70.49,65.75-125.12,157.39-153.82,258.03-28.59,100.29-4.84,193.71,20.12,254.42,35.03,92.26,110.36,192.16,212.12,281.34,112.34,98.44,246.84,175.27,388.95,222.19,141.59,46.75,306.75,67,465.08,56.97,147.58-9.33,272.79-43.96,343.51-95.01,94.32-68.66,117.28-225.06,84.98-336.61-9.07-31.33-21.37-62.29-33.26-92.25-24.63-62.02-50.09-126.16-47.96-196.42,1.46-48.18,14.94-89.34,27.97-129.15,12.5-38.16,25.42-77.63,27.77-123.33,4.6-89.5-35.57-174.84-107.44-228.29-76.22-56.68-176.14-69.1-274.13-34.09-38.02,13.59-75.52,32.82-111.78,51.41-53.21,27.28-108.22,55.49-165.72,66.26-76.86,14.36-142.45-10.95-205.89-35.44-48.76-18.83-99.18-38.3-154.9-40.07-4.67-.15-9.33-.22-13.98-.22Z"/>
        <path class="cls-13" d="M818.97,1612.75c-13.65,0-28.72-1.41-44.85-5.05-22.25-5.03-42.99-17.16-60.68-28.13-21.85-13.56-41.63-29.99-58.81-48.86-49.02-53.85-77.02-127.49-76.82-202.05.09-33.68,6.04-60.55,18.18-82.16,15.05-26.79,40.3-43.91,65.9-44.69,38.27-1.22,68.48,31.07,93.9,61.37l50.03,59.64c23.75,28.31,55.13,49.83,90.76,62.24h0c32,11.15,53.53,27.31,65.81,49.41,22.14,39.83,7.66,91.17-18.09,121.3-19.44,22.76-40.1,38.25-61.39,46.04-13,4.76-35.37,10.93-63.94,10.93ZM663.88,1204.36c-.63,0-1.27.01-1.9.03-24.7.75-49.12,17.37-63.73,43.37-11.92,21.22-17.76,47.69-17.85,80.91-.2,73.92,27.56,146.93,76.15,200.31,17.01,18.68,36.61,34.97,58.26,48.4,17.51,10.86,38.03,22.87,59.89,27.81,49.24,11.14,88.38,1.16,107.33-5.78,20.88-7.64,41.17-22.89,60.32-45.3,25.17-29.46,39.37-79.59,17.8-118.38-11.97-21.52-33.04-37.29-64.41-48.22-36.07-12.56-67.84-34.35-91.88-63.01l-50.03-59.64c-24.6-29.33-53.81-60.49-89.94-60.49Z"/>
      </g>
    </g>
    <g>
      <g>
        <g>
          <g>
            <polygon class="cls-2" points="1500.13 1300.18 1411.4 1300.18 1322.68 1300.18 1300.64 1494.01 1411.4 1494.01 1522.16 1494.01 1500.13 1300.18"/>
            <path class="cls-11" d="M1674.04,1486.86h-525.28c-20.72,0-37.52,16.8-37.52,37.52h600.31c0-20.72-16.8-37.52-37.52-37.52Z"/>
            <rect class="cls-11" x="813.84" y="599.83" width="1195.13" height="750.3" rx="46" ry="46"/>
            <path class="cls-2" d="M2008.97,645.83v604.39H813.84v-604.39c0-25.4,20.6-46,46-46h1103.12c25.4,0,46,20.6,46,46Z"/>
            <rect class="cls-17" x="1121.94" y="363.19" width="578.93" height="1123.67" transform="translate(2336.43 -486.37) rotate(90)"/>
            <circle class="cls-17" cx="1411.4" cy="1300.18" r="23.67"/>
          </g>
          <rect class="cls-5" x="1139.43" y="380.69" width="543.94" height="1088.67" transform="translate(2336.43 -486.38) rotate(90)"/>
          <g>
            <path class="cls-17" d="M1780.73,678.6h-868.07c-7.77,0-14.06,6.3-14.06,14.06s6.3,14.06,14.06,14.06h868.07c7.77,0,14.06-6.3,14.06-14.06s-6.3-14.06-14.06-14.06Z"/>
            <circle class="cls-17" cx="1837.57" cy="692.67" r="12.38" transform="translate(-125.2 755.93) rotate(-22.5)"/>
            <circle class="cls-17" cx="1874.7" cy="692.67" r="12.38" transform="translate(-122.37 770.14) rotate(-22.5)"/>
            <circle class="cls-17" cx="1911.83" cy="692.67" r="12.38" transform="translate(70.17 1554.75) rotate(-45)"/>
          </g>
        </g>
        <g>
          <path class="cls-13" d="M1398.82,801.14h-7.42c-6.36,0-11.51,7.29-11.51,16.29v39.25c0,8.99,5.15,16.29,11.51,16.29h7.42c6.36,0,11.51-7.29,11.51-16.29v-39.25c0-8.99-5.15-16.29-11.51-16.29Z"/>
          <rect class="cls-15" x="1235.81" y="837.05" width="299.94" height="220.15"/>
          <ellipse class="cls-15" cx="1225.92" cy="971.44" rx="197.24" ry="112.37" transform="translate(-88.85 1818.76) rotate(-71.19)"/>
          <ellipse class="cls-15" cx="1569.69" cy="975.82" rx="112.37" ry="197.24" transform="translate(-230.77 558.1) rotate(-18.81)"/>
          <g>
            <circle class="cls-9" cx="1328.03" cy="1013.47" r="42.03" transform="translate(-286.75 585.36) rotate(-22.5)"/>
            <path class="cls-13" d="M1328.03,1047.65c-18.85,0-34.18-15.33-34.18-34.18s15.33-34.18,34.18-34.18,34.18,15.33,34.18,34.18-15.33,34.18-34.18,34.18Z"/>
          </g>
          <g>
            <circle class="cls-9" cx="1467.88" cy="1013.47" r="42.03" transform="translate(-276.1 638.88) rotate(-22.5)"/>
            <path class="cls-13" d="M1467.88,1047.65c-18.85,0-34.18-15.33-34.18-34.18s15.33-34.18,34.18-34.18,34.18,15.33,34.18,34.18-15.33,34.18-34.18,34.18Z"/>
          </g>
          <rect class="cls-13" x="1338.28" y="890.66" width="39.71" height="25.73"/>
          <rect class="cls-13" x="1416.53" y="890.66" width="39.71" height="25.73"/>
          <polygon class="cls-13" points="1417.71 965.04 1385.77 975.82 1385.77 954.26 1417.71 965.04 1417.71 965.04"/>
          <circle class="cls-13" cx="1225.92" cy="934.68" r="58.35" transform="translate(106.94 1995.05) rotate(-80.78)"/>
          <circle class="cls-13" cx="1575.81" cy="934.68" r="58.35" transform="translate(514.34 2428.03) rotate(-85.27)"/>
          <circle class="cls-9" cx="1575.81" cy="898.2" r="15.8"/>
          <circle class="cls-9" cx="1613.39" cy="934.68" r="15.8"/>
          <circle class="cls-9" cx="1538.23" cy="932.01" r="15.8" transform="translate(371.86 2301.09) rotate(-80.78)"/>
          <circle class="cls-9" cx="1575.81" cy="970.06" r="15.8"/>
          <rect class="cls-9" x="1207.36" y="883.54" width="37.1" height="102.27" rx="17.49" ry="17.49"/>
          <rect class="cls-9" x="1207.36" y="883.54" width="37.1" height="102.27" rx="7.91" ry="7.91" transform="translate(291.24 2160.6) rotate(-90)"/>
          <path class="cls-13" d="M1273.43,818.12c18.62,2.34,33.7,12.22,39.78,24.53,3.45-4.03,5.7-8.73,6.35-13.92,2.34-18.62-16.68-36.35-42.49-39.59-25.81-3.25-48.62,9.22-50.97,27.84-.65,5.19.36,10.31,2.71,15.06,8.94-10.42,26-16.26,44.61-13.92Z"/>
          <path class="cls-13" d="M1520.31,824.24c-19.37,2.44-35.11,12.27-41.52,24.44-3.56-3.94-5.86-8.56-6.51-13.67-2.3-18.33,17.59-35.92,44.44-39.3,26.85-3.38,50.48,8.74,52.79,27.07.64,5.11-.44,10.15-2.92,14.86-9.22-10.2-26.91-15.83-46.28-13.4Z"/>
          <path class="cls-13" d="M1399.36,803.64c-4.13-8.2-2.03-18.82,4.41-25.25,8.3-8.28,21.84-6.67,32.34-9.67,23.2-6.63,33.79-33.8,21.14-54.39-2.82-4.58-10.06-.38-7.23,4.23,6.13,9.98,5.95,22.85-1.35,32.21-7.77,9.97-19.28,10.78-30.82,12.72-10.67,1.8-20.33,6.41-25.42,16.44-4.46,8.8-4.75,19.08-.3,27.93,2.42,4.81,9.65.58,7.23-4.23h0Z"/>
        </g>
      </g>
      <g>
        <g>
          <path class="cls-6" d="M1653.7,935.58l-92.64-59.28h0c2.99-4.68,9.21-6.04,13.89-3.05l75.7,48.45c4.68,2.99,6.04,9.21,3.05,13.89h0Z"/>
          <path class="cls-8" d="M1658.64,851l-11.42-7.31-11.42-7.31c-14.59,22.79-37.8,36.07-63.01,35.48l40.02,25.61,40.02,25.61c-11.09-22.65-8.76-49.29,5.82-72.08Z"/>
          <path class="cls-2" d="M1643.47,849.56h0c-9.89-6.33-12.78-19.48-6.45-29.38l1.9-2.97,35.83,22.93-1.9,2.97c-6.33,9.89-19.48,12.78-29.38,6.45Z"/>
          <path class="cls-6" d="M1808.39,737.03l-131.83-84.37c-3.27-2.1-4.23-6.45-2.13-9.72h0c2.1-3.27,6.45-4.23,9.72-2.13l131.83,84.37c3.27,2.1,4.23,6.45,2.13,9.72h0c-2.1,3.27-6.45,4.23-9.72,2.13Z"/>
          <path class="cls-8" d="M1846.82,768.5l-89.95-57.57-35.02-22.41-89.96-57.57c-3.39-2.17-7.89-1.18-10.06,2.21l-16.26,25.41c-27.96,43.69-15.16,101.99,28.53,129.95l16.85,10.78,35.02,22.41,16.85,10.78c43.69,27.96,101.99,15.16,129.95-28.53l16.26-25.41c2.17-3.38,1.18-7.89-2.21-10.06ZM1820.51,796.11c-23.64,36.93-72.91,47.75-109.84,24.12l-10.72-6.86-47.29-30.26-10.72-6.86c-36.93-23.64-47.75-72.91-24.11-109.84l12.34-19.27,77.7,49.72,47.29,30.26,77.69,49.72-12.34,19.28Z"/>
          <rect class="cls-19" x="1556.32" y="857.81" width="66.36" height="152.15" transform="translate(-53.89 1769.3) rotate(-57.38)"/>
          <rect class="cls-6" x="1563.88" y="883.59" width="10.05" height="164.95" transform="translate(-90.49 1766.79) rotate(-57.38)"/>
          <rect class="cls-8" x="1570.26" y="880.01" width="38.48" height="107.76" transform="translate(-53.89 1769.3) rotate(-57.38)"/>
          <rect class="cls-6" x="1571.86" y="882.93" width="36.13" height="105.24" transform="translate(-55.1 1770.43) rotate(-57.38)"/>
          <path class="cls-8" d="M1653.27,686.41c-26.54,41.48-31.28,90.71-17.19,134.33,5.05,15.63,20.35,25.42,36.65,23.45,45.51-5.48,88.22-30.4,114.77-71.88l22.09-34.52-134.23-85.9-22.09,34.52Z"/>
          <path class="cls-19" d="M1806.86,742.06l-19.37,30.26c-26.37,41.2-68.69,66.08-113.87,71.76-17.06-.93-25.31-13.48-28.21-25.11-10.77-43.13-1.99-88.75,24.55-130.23l15.57-24.33,121.32,77.64Z"/>
          <path class="cls-6" d="M1667.46,832.24c-1.46-.93-2.5-2.48-2.72-4.34-.4-3.29,1.95-6.27,5.24-6.67,40.46-4.87,76.2-27.24,98.05-61.38l7.14-11.16c1.78-2.79,5.49-3.6,8.28-1.82,2.79,1.78,3.6,5.49,1.82,8.28l-7.14,11.16c-23.79,37.17-62.69,61.53-106.72,66.83-1.44.17-2.82-.18-3.94-.9Z"/>
          <path class="cls-19" d="M1654.26,858.68c-3.31-.29-6.6-1.36-9.6-3.27l-5.28-3.38-1.73-1.11-4.85-3.11c-15.96,17.33-37.61,26.26-60.02,24.04l80.04,51.22c-9.87-20.14-9.11-43.45,1.44-64.4Z"/>
        </g>
        <g>
          <g>
            <path class="cls-4" d="M1654.8,905.75l13.71-20.51c10.45,6.81,27.83,19.64,42.18,28.28,16.02,9.64,30.17,17.7,38.22,21.82l-21.51,32.2h0c-23.63-16.03-55.75-42.75-72.59-61.78Z"/>
            <circle class="cls-4" cx="1737.79" cy="951.19" r="19.36" transform="translate(-152.19 357.33) rotate(-11.25)"/>
            <path class="cls-4" d="M1668.14,885c-5.66-3.78-13.32-2.26-17.11,3.4-3.78,5.66-2.26,13.32,3.4,17.11s13.32,2.26,17.11-3.4,2.26-13.32-3.4-17.11Z"/>
          </g>
          <path class="cls-4" d="M1666.82,884.7c-5.99-3-13.27-.58-16.27,5.41-3,5.99-.58,13.27,5.41,16.27,5.99,3,13.27.58,16.27-5.41s.58-13.27-5.41-16.27Z"/>
          <path class="cls-4" d="M1670.14,887.5c-2.07-2.45-4.07-6.51-4.35-10.14-.11-1.4.05-2.77.15-4.13.18-2.46.37-5.01-.39-7.56-.7-2.38-1.6-4.58-2.7-7.22l-1.35-3.24c-.5-1.24-.95-2.19-1.4-3.15l-.82-1.77c-.11-.27-.23-.64-.35-1.03-.39-1.24-.87-2.77-1.91-3.42-.86-.42-1.67-.4-2.42-.03-1.81.86-2.45,3.01-2.29,4.75.12,1.43.65,3.62.89,4.95.15.87.66,2.43.63,3.69,0,.69-.53,1.06-.86,1.32-.14.12-10.76,26.13-6.94,36.92,0,.02.03.02.05.04.72.52,1.44,1.11,2.12,1.68.68.56,1.33,1.2,1.93,1.88l.97,1.1c.4.47,1.31,1.59,1.31,1.59l1.28-.23,16.63-15.36-.19-.64Z"/>
        </g>
        <g>
          <g>
            <path class="cls-4" d="M1802.05,1468.62l-.96,28.22c-.14,4.21.04,7.95-3.84,9.58l-20.94,10.28c-10.93,4.59-7.66,16.63,4.2,16.63h54.72v-16.67l1.19-48.04h-34.37Z"/>
            <g>
              <path class="cls-14" d="M1829.63,1515.35c.86-.49,2.82-1.61,3.46-1.87,2.19-.88,4.38,1.25,4.38,3.6v27.82c0,2.34-1.9,4.25-4.24,4.25h-103.05c-3.07,0-5.56-2.49-5.56-5.56,0-.37.07-.8.15-1.17.37-1.68,1.54-3.15,3.22-3.88l61.38-29.74c3.4-1.69,6.01-.38,6.67,2.65,1.08,4.98,5.4,8.01,15.62,7.88,7.42-.09,13.88-1.63,17.99-3.97Z"/>
              <path class="cls-12" d="M1837.47,1542.41v2.49c0,2.34-1.9,4.25-4.24,4.25h-103.05c-3.07,0-5.56-2.49-5.56-5.56,0-.37.07-.8.15-1.17h112.71Z"/>
            </g>
          </g>
          <g>
            <path class="cls-4" d="M1935.51,1464l4.11,27.04c.39,4.17.71,7.51-2.44,10.31l-16.53,16.47c-8.88,7.86-1.91,18.21,9.32,14.39l51.82-17.59-6.37-19.05-7.36-42.62-32.55,11.05Z"/>
            <g>
              <path class="cls-14" d="M1880.38,1542.43c.43-1.7,1.56-3.19,3.26-3.9l30.67-16.54,16.11-15.9c2.7-2.7,5.61-2.27,7.17.43.71,1.21,1.63,2.13,2.77,2.84,1.85,1.21,4.33,1.7,7.59,1.28,1.99-.21,4.4-.78,7.03-1.7,6.95-2.48,12.56-6.03,15.75-9.51.64-.78,2.13-2.48,2.63-2.91,1.85-1.56,4.54-.21,5.32,1.99l5.32,15.61,3.62,10.72c.78,2.27-.43,4.68-2.63,5.39l-46.45,15.78c-6.18,2.1-12.66,3.17-19.18,3.17h-33.52c-3.12,0-5.61-2.48-5.61-5.61,0-.35.07-.78.14-1.14Z"/>
              <path class="cls-12" d="M1880.38,1542.43h44.64c2.08,0,4.14-.34,6.11-1.01l55.72-18.93.78,2.34c.78,2.27-.43,4.68-2.63,5.39l-52.81,17.94c-1.97.67-4.03,1.01-6.11,1.01h-40.24c-3.12,0-5.61-2.48-5.61-5.61,0-.35.07-.78.14-1.14Z"/>
            </g>
          </g>
          <polygon class="cls-14" points="1843.61 1502.4 1866.95 1297.56 1892.37 1084.46 1845.26 1061.8 1797.28 1090.85 1795.13 1297.56 1793.01 1502.4 1843.61 1502.4"/>
          <polygon class="cls-12" points="1979.54 1486.11 1954.31 1294.12 1949.8 1087.49 1892.37 1062.23 1840.57 1089.32 1882.83 1299.29 1932.08 1495.57 1979.54 1486.11"/>
          <g>
            <g>
              <path class="cls-4" d="M1804.19,845.86c-11.08,11.08-11.46,28.81-1.15,40.35.37.41.75.81,1.14,1.21,11.47,11.48,30.08,11.48,41.56,0,11.48-11.47,11.48-30.08,0-41.56-11.47-11.48-30.08-11.48-41.56,0Z"/>
              <circle class="cls-4" cx="1740.26" cy="950.26" r="20.98" transform="translate(-227.1 1197.27) rotate(-35.79)"/>
              <path class="cls-4" d="M1845.74,887.41h0c-30.83,31.22-55.31,50.7-90.17,77.33l-.47.36-29.67-29.67h0c31.22-30.82,51.77-54.25,78.4-89.11l.36-.47,41.55,41.56Z"/>
            </g>
            <path class="cls-18" d="M1795.24,851.24c15.56-17.35,36.49-20.05,50.9-6.48,10.46,9.84,10.04,28.49,5.29,40.02-1.41,3.42-7.18,10.61-9.51,13.4-8.14,9.72-43.39,44.96-60.44,59.93l-43.78-38.37c19.49-22.14,41.36-50.45,57.55-68.49Z"/>
          </g>
          <path class="cls-18" d="M1945.95,972.39c0-27.08,1.79-90.88,1.79-90.88,0-34.56-24.5-53.02-61.37-61.68l-44.42,1.92c-11.83,5.2-30.73,15.75-40.91,24.16l5.03,79.43c-3.46,57.45-6.91,127.6-10.65,186.36h156.99c-1.79-27.54-6.45-112.95-6.45-139.31Z"/>
          <g>
            <path class="cls-4" d="M1878.66,877.31c2.73,15.93,17.43,26.8,33.29,24.98.57-.06,1.13-.15,1.7-.24,16.49-2.83,27.57-18.49,24.74-34.99-2.83-16.49-18.49-27.57-34.99-24.74-16.49,2.83-27.57,18.49-24.74,34.99Z"/>
            <circle class="cls-4" cx="1936.03" cy="1003.19" r="21.63" transform="translate(-154.43 383.04) rotate(-10.87)"/>
            <path class="cls-4" d="M1938.38,867.07h0c8.2,38.69,18.74,94.38,18.95,131.86l.02.6-42.65,7.32h0c-8.76-42.6-20.04-86.39-35.88-128.96l-.18-.58,59.73-10.25Z"/>
          </g>
          <path class="cls-18" d="M1877.56,876.01c-2.77-17.11,10.34-33.48,29.28-36.55,14.68-2.38,27.74,4.47,34.54,15.39,2.02,3.24,3.19,6.85,4.12,10.49,3.23,12.66,7.06,24.86,9.81,37.7,3.84,17.95,7.49,42.55,9.5,60.82l-60.42,12.22c-6.21-29.68-17.25-61.96-24.53-90.94l-2.29-9.13Z"/>
          <path class="cls-7" d="M1805.74,935.66c.98,0,1.77-.79,1.77-1.77v-34.1c0-.98-.79-1.77-1.77-1.77s-1.77.79-1.77,1.77v34.1c0,.98.79,1.77,1.77,1.77Z"/>
          <path class="cls-7" d="M1902.94,978.18l4.72-.95c.96-.19,1.58-1.13,1.39-2.09-.2-.96-.94-1.59-2.1-1.39l-1.13.23-12.5-73.11c-.16-.97-1.09-1.53-2.05-1.45-.96.17-1.61,1.08-1.45,2.05l13.11,76.71Z"/>
          <path class="cls-7" d="M1844.62,849.03c.76,0,1.55-.02,2.38-.07,14.62-.85,35.93-8.62,46.61-21.37l1.16-1.4c.63-.75.53-1.87-.22-2.5-.75-.63-1.87-.54-2.49.23l-1.16,1.39c-10.05,11.98-30.22,19.3-44.1,20.11-5.97.34-13.54-.59-15.36-7.06-.51-1.85-.45-3.98.2-6.34.26-.95-.3-1.92-1.24-2.18-.98-.25-1.93.3-2.18,1.24-.82,2.99-.89,5.76-.19,8.24,1.28,4.52,5.21,9.71,16.61,9.71Z"/>
          <g>
            <path class="cls-4" d="M1886.37,819.83c-8.87,9.79-26.75,15.75-39.46,15.75-2.06,0-8.3,0-9.08-3.69-.85-4.05,4.12-10.15,4.12-10.15l-7.66-59.75,39.74-10.5,4.54,25.26,7.81,43.08Z"/>
            <path class="cls-16" d="M1878.56,776.75c-5.32,20.01-18.52,36.55-36.62,44.99l-7.66-59.75,39.74-10.5,4.54,25.26Z"/>
            <path class="cls-14" d="M1842.73,759.25c-3.76-2.79-8.28-4.47-13.2-5.08-9.76-1.22-16.93,3.83-24-5.35-3.51-4.55-5.36-10.32-6.37-16.14-1.31-7.54-1.23-15.63,1.88-22.61,3.11-6.98,9.73-12.56,16.95-12.54,6.14.02,9.35,1.17,15.12,2.78,4.87,1.36,10.25.13,15.3.01,8.29-.19,16.57-2.78,24.85-.96,6.9,1.52,13.56,6.52,15.13,13.83,6.54,1.27,10.93,8.54,13.42,15.09,2.49,6.54,2.43,13.97,1.02,20.93-2.14,10.56-5.69,17.75-11.51,26.41-2.77,4.13-9.4,11.33-9.4,11.33l-1.41.93s-34.35-26.1-37.78-28.64Z"/>
            <path class="cls-4" d="M1892.65,751.8c-2.41,20.61-13.79,40.67-34.86,51.37-11.33,5.75-28.06,7.74-35.56-2.32-6.68-8.96-8.65-20.96-8.78-32.24-.14-11.92.67-23.84,2.62-35.59,2.76-16.62,20.38-28.37,43.15-25.66,25.6,3.04,35.92,23.07,33.42,44.43Z"/>
            <path class="cls-14" d="M1894.78,752.08c-1.6,13.67-6.85,25.51-14.28,35.82l-4.75-.53c.77-5.86.94-12.04-.69-14.58l-12.65-3.62,1.95-16.71c-3.44-2.33-6.52-7.83-7.1-13.26l-.16.12c-13.05,2.83-29.88,2.58-43.94-1.2.21-1.83.5-3.66.78-5.41,3.07-18.36,22.6-30.15,45.44-27.49,24.52,2.94,38.39,21.27,35.4,46.86Z"/>
            <path class="cls-4" d="M1879.19,773.83c-2.32,5.45-8.14,8.18-12.99,6.12-4.85-2.07-6.9-8.16-4.57-13.61,2.32-5.45,8.14-8.18,12.99-6.12,4.85,2.07,6.9,8.16,4.57,13.61Z"/>
            <path class="cls-16" d="M1865.1,771.19s-.07,0-.1-.01c-.48-.09-.8-.55-.71-1.03.17-.92.5-1.79.98-2.6,1.64-2.73,4.83-4.27,7.67-3.57.49.11.96.29,1.41.54.89.49,1.63,1.22,2.14,2.1.24.43.09.97-.33,1.21-.43.24-.97.1-1.21-.33-.35-.61-.84-1.09-1.45-1.43-.3-.17-.63-.29-.96-.37-2.13-.51-4.48.67-5.74,2.76-.38.62-.63,1.29-.76,2-.08.45-.49.76-.93.73Z"/>
            <g>
              <path class="cls-14" d="M1815.27,760.6c-1.58-.43-3.2.5-3.63,2.08-.43,1.58.5,3.2,2.08,3.63,1.58.43,3.2-.5,3.63-2.08.43-1.58-.5-3.2-2.08-3.63Z"/>
              <path class="cls-14" d="M1832.83,760.6c-1.58-.43-3.2.5-3.63,2.08-.43,1.58.5,3.2,2.08,3.63,1.58.43,3.2-.5,3.63-2.08.43-1.58-.5-3.2-2.08-3.63Z"/>
              <path class="cls-14" d="M1842.28,751.71c-.15-.62-.94-.96-1.68-1.06-3.43-.47-6.84-.03-10.18.75-1.17.27-4.37.74-3.84,2.32.34,1.02,2.22,1.75,3.39,1.62,2.61-.28,5.21-.63,7.8-1.04,1.47-.23,5.01-.55,4.51-2.58Z"/>
              <path class="cls-14" d="M1803.11,751.71c.15-.62.94-.96,1.68-1.06,3.43-.47,6.84-.03,10.18.75,1.17.27,4.37.74,3.84,2.32-.34,1.02-2.22,1.75-3.39,1.62-2.61-.28-5.21-.63-7.8-1.04-1.47-.23-5.01-.55-4.51-2.58Z"/>
              <path class="cls-16" d="M1820.26,780.04c-.12,0-.23-.04-.35-.1-1.73-.88-2.83-2.04-3.27-3.43-.4-1.26-.23-2.62.51-4.04.41-.8,1.04-1.79,1.74-2.89.85-1.34,1.81-2.86,2.62-4.41.22-.43.76-.61,1.2-.37.43.23.6.76.37,1.2-.84,1.61-1.82,3.16-2.69,4.53-.67,1.06-1.27,2-1.66,2.77-.51.98-.65,1.88-.39,2.68.29.91,1.12,1.74,2.4,2.39.43.22.61.76.39,1.19-.17.33-.51.5-.85.48Z"/>
              <path class="cls-17" d="M1820.73,784.59l15.59-.89c-2.82,6.53-13.21,7.21-15.59.89Z"/>
            </g>
          </g>
          <g>
            <rect class="cls-3" x="1842.3" y="1038.95" width="86.55" height="136.18" rx="6.9" ry="6.9" transform="translate(67.16 2321.25) rotate(-64.15)"/>
            <path class="cls-20" d="M1820.1,1074.32c1.21-2.51,3.3-4.29,5.71-5.22l3.13-6.47,7.81,3.78-13.32,27.49-7.81-3.78,3.13-6.47c-.76-2.47-.66-5.21.56-7.72l.78-1.62Z"/>
          </g>
          <g>
            <path class="cls-4" d="M1900.69,1112.35l-25.18-11.49c6.95-15.23,15.53-38.39,23.46-61.56,6.75-19.71,13.36-36.78,17.58-46.03l39.53,18.03h0c-18.13,36.45-36.1,68.03-55.26,100.83l-.12.21Z"/>
            <circle class="cls-4" cx="1936.11" cy="1002.73" r="21.72" transform="translate(-128.06 300.44) rotate(-8.59)"/>
            <path class="cls-4" d="M1875.31,1101.3c-3.17,6.95-.11,15.16,6.85,18.33,6.95,3.17,15.16.11,18.33-6.85,3.17-6.95.11-15.16-6.85-18.34-6.95-3.17-15.16-.11-18.34,6.85Z"/>
          </g>
          <g>
            <circle class="cls-4" cx="1887.79" cy="1107.12" r="13.94" transform="translate(-271.73 1462) rotate(-39.72)"/>
            <path class="cls-4" d="M1883.16,1148.12c-.62.6-1.46,1.44-1.9,1.79-2.23,1.79-4.36,2.06-5.74,1.56-1.31-.47-1.33-.87-2.57-1.15-1.24-.28-3.85.91-5.06.53-2.36-.74-2.07-2.04-3.85-2.59-1.98-.62-4.64-.17-6.36-1.33-2.05-1.38-1.54-2.81-3.65-4.11-1.22-.75-2.63-1.08-3.81-1.88-.39-.26-.82-.79-1.07-1.17-.25-.4-.76-1.22-.42-1.52,2.59-2.26,3.56-7.12,3.56-7.12-.54.5-1.14.96-1.86,1.22-.8.29-1.68.3-2.53.15-.57-.1-1.14-.26-1.69-.46-.28-.1-.63-.17-.83-.38-.21-.22-.36-.49-.41-.78-.05-.28,0-.58.13-.83,1.12-2.12,2.36-4.24,3.62-6.29,1.75-2.83,5.63-9.77,7.11-12.72,1.21-2.41,3.15-2.63,7.56-5.03,1.69-.92,3.48-1.81,5.12-2.43,2.62-1,7.24-2.71,8.66-4.72l22.86,14.56c-5.36,9.64-4.81,15.42-8.06,22.41-1.36,2.93-5.63,9.22-8.82,12.3Z"/>
          </g>
        </g>
      </g>
      <g>
        <g>
          <path class="cls-4" d="M763.66,1376.34l-22.38-21.92-32.68,41.81,25.54,32.49c2.85,3.63,8.67,2.13,9.4-2.43l2.2-13.64c.99-9.07,4.34-17.71,9.72-25.08l8.2-11.23Z"/>
          <path class="cls-14" d="M746.72,1407.69s-5.77,42.22-8.21,52.5c-.93,3.66-2.5,6.43-4.59,8.25-6.23,5.79-16.28,2.79-19.76-9.43-4.91-17.52-10.22-55.51-8.11-69.25.63-3.94,2.91-7.08,6.15-9.44h.06c3.3-2.29,7.57-3.8,12.17-4.51-1.26,11.93.4,27.44,3.3,35.38,3.3,9,12.62,9.69,16.11,3.59,1.73-3.03,2.88-7.1,2.88-7.1Z"/>
          <path class="cls-12" d="M733.92,1468.44c-6.23,5.79-16.28,2.79-19.76-9.43-4.91-17.52-10.22-55.51-8.11-69.25.63-3.94,2.91-7.08,6.15-9.44-1.8,2.3-2.99,4.89-3.44,7.65-2.16,13.67,3.14,51.73,8.11,69.25,2.99,10.61,10.96,14.23,17.05,11.22Z"/>
        </g>
        <g>
          <path class="cls-4" d="M1110.17,758.84l-22.89-10.7c-6.47,13.84-17.49,33.52-28.89,52.74-9.7,16.36-17.65,31.06-21.58,39.46l35.93,16.8h0c14.6-34.17,25.9-65.36,37.35-98.08l.07-.21Z"/>
          <circle class="cls-4" cx="1054.96" cy="848.34" r="19.83" transform="translate(-297.92 800.07) rotate(-36.76)"/>
          <circle class="cls-4" cx="1098.91" cy="753.09" r="12.63" transform="translate(-177.2 1135.58) rotate(-51.11)"/>
        </g>
        <g>
          <g>
            <path class="cls-4" d="M939.6,861.1c13.96-5.02,29.29,1.81,35.01,15.3.2.48.4.97.57,1.47,5.2,14.46-2.31,30.39-16.77,35.58-14.46,5.2-30.39-2.31-35.58-16.77-5.2-14.46,2.31-30.39,16.77-35.58Z"/>
            <circle class="cls-4" cx="1054.79" cy="848.5" r="19.86" transform="translate(-86.38 120.3) rotate(-6.27)"/>
            <path class="cls-4" d="M958.41,913.44h0c39.17-13.8,65.73-26.9,102.6-46l.49-.26-13.43-37.38h0c-38.99,14.29-67.34,22.43-107.94,31.17l-.54.12,18.82,52.35Z"/>
          </g>
          <path class="cls-18" d="M947.82,855.61c-21.25,5.91-31.89,23.15-26.09,40.97,4.21,12.92,20.35,20.09,32.13,20.67,3.5.17,11.98-1.86,15.31-2.74,11.6-3.04,50.65-17.98,70.34-26.55l-8-54.91c-26.82,7.76-61.3,16.33-83.69,22.55Z"/>
        </g>
        <g>
          <path class="cls-4" d="M922.22,1431.35l-12.59,23.58c-1.88,3.52-3.81,6.49-1.39,9.67l12.29,18.35c6.79,8.94-1.61,17.25-11.32,11.63l-44.83-25.93,7.9-13.66,21.79-39.93,28.16,16.29Z"/>
          <g>
            <path class="cls-14" d="M877.47,1456.57c-.47-.8-1.54-2.65-1.95-3.17-1.38-1.76-4.18-1.05-5.29.87l-13.19,22.79c-1.11,1.92-.45,4.38,1.47,5.49l84.43,48.84c2.52,1.46,5.74.6,7.19-1.92.17-.3.32-.69.43-1.03.5-1.55.23-3.31-.8-4.7l-36.19-53.46c-1.99-2.99-4.75-3.16-6.72-.99-3.24,3.57-8.22,4.01-16.53-.94-6.03-3.59-10.6-7.92-12.86-11.78Z"/>
            <path class="cls-12" d="M858.23,1475.02l-1.18,2.04c-1.11,1.92-.45,4.38,1.47,5.49l84.43,48.84c2.52,1.46,5.74.6,7.19-1.92.17-.3.32-.69.43-1.03l-92.35-53.42Z"/>
          </g>
        </g>
        <path class="cls-12" d="M872.6,1441.86l64.99-177.87-57.63-178.73,46.25-27.58,52.53,22.72,29.28,167.13c2.54,14.48.37,29.39-6.2,42.55l-86.54,173.51-42.68-21.74Z"/>
        <path class="cls-12" d="M727.7,1363.94l90.1-113.47-.39-164.88,45.33-28.22,51.25,25.61-21.32,169.15c-1.61,12.75-7.54,24.57-16.82,33.47l-120.96,116.1h0c-13.39-8.42-23.05-21.64-26.99-36.96l-.21-.81Z"/>
        <path class="cls-14" d="M906.45,1161.46c-.09,0-.18,0-.27,0-.92-.11-1.58-.94-1.48-1.86l9.18-78.65c.11-.92.94-1.57,1.86-1.48.92.11,1.58.94,1.48,1.86l-9.18,78.65c-.1.83-.78,1.45-1.59,1.48Z"/>
        <path class="cls-18" d="M983.07,1102.12l-165.58,17.98c-4.43-29.09-2.92-185.96-2.52-206.98.34-17.8,1.98-70.13,1.98-70.13,16.32,5.9,31.82,8.33,45.52,7.12l55.82,1.21c12.7,1.81,33.18,1.41,47.36-.6l.81,43.46c.27,14.11-.74,31.37-1.41,47.09-.74,17.47-.74,34.93,1.41,52.26,4.64,36.74,10.23,67.76,16.61,108.6Z"/>
        <path class="cls-7" d="M895.35,885.95c5.15-.04,9.92-1.1,14.17-3.16,8.26-3.99,14.37-11.82,16.34-20.94.19-.91-.38-1.8-1.29-2-.93-.19-1.8.39-2,1.29-1.75,8.12-7.17,15.08-14.51,18.62-4.93,2.38-10.87,3.24-16.86,2.63-11.61-1.17-27.16-8.32-32.76-24.63-.31-.88-1.28-1.34-2.13-1.05-.88.3-1.34,1.26-1.05,2.13,6.12,17.81,23,25.61,35.6,26.88,1.49.15,2.99.23,4.49.21Z"/>
        <path class="cls-4" d="M862.47,850.1l27.89-7.3,27.92,8.54.02,3.06c.21,8.36-5.42,15.66-11.94,18.71-4.44,2.08-9.37,2.53-14.16,2.07-13.57-1.32-27.23-9.9-29.73-25.08Z"/>
        <path class="cls-14" d="M844.21,773.26c1.06-4.62,4.52-10.06,11.15-12.57-.22-10.95,3.61-18.56,13.22-24.4,4.83-2.94,12.65-4.5,18.23-3.5,4.08.73,7.92,3.22,10.03,6.66,3.18-4,7.18-7.31,12.42-8.82,9.32-2.68,20.14-1.01,26.51,4.5,5.99,5.18,8.01,15.22,2.31,20.73,7.1,3.25,11.13,11.91,8.99,19.34-2.14,7.43-11.07,12.96-18.85,12.07l-58.17,32.7c-9.47-8.04-19.57-22.58-24.17-33.13-1.57-3.59-2.54-9.75-1.67-13.57Z"/>
        <polygon class="cls-4" points="871.54 866.47 914.05 864.32 913.22 848.07 910.16 788.18 867.65 790.36 868.64 809.87 871.54 866.47"/>
        <path class="cls-16" d="M868.64,809.87c4.59,21.6,23.16,37.02,44.58,38.19l-3.06-59.88-42.51,2.18.99,19.51Z"/>
        <path class="cls-16" d="M938.13,798.17c-1.08,5.5-5.93,9.18-10.82,8.22-4.9-.96-7.99-6.2-6.91-11.7s5.93-9.18,10.82-8.22c4.9.96,7.99,6.2,6.91,11.7Z"/>
        <path class="cls-4" d="M858.43,783.3c1.58,17.36,6.73,31.76,17.18,44.28,3.98,4.77,9.25,8.64,15.21,10.86,11.27,4.21,25.84,2.19,33.16-7.16,6.52-8.33,8.65-19.65,9.02-30.31.4-11.27-.11-22.58-1.69-33.73-2.25-15.79-18.65-27.3-40.27-25.24-24.3,2.31-34.46,21.04-32.62,41.3Z"/>
        <path class="cls-14" d="M888.67,740.15c21.57-2.76,40.14,8.2,43.2,25.47.44,2.06.32,2.54.32,2.54-14.5,7.22-36.3,8.9-52.26,5.64l-.11-.14c-.49,5.16-3.33,10.36-6.61,12.65l.98,7.68-3.91,8.72-10.29,1.32c-2-5.88-3.41-12.26-4.31-19.25-3.03-24.12,9.88-41.62,32.99-44.61Z"/>
        <path class="cls-4" d="M858.79,806.75c2.26,5.13,7.79,7.66,12.35,5.66,4.57-2.01,6.44-7.79,4.19-12.93s-7.79-7.66-12.36-5.66-6.44,7.79-4.19,12.93Z"/>
        <path class="cls-16" d="M872.15,804.1s.03,0,.05,0c.45-.09.75-.53.67-.98-.16-.85-.48-1.67-.96-2.45-1.59-2.57-4.66-4-7.3-3.3-.47.12-.91.3-1.33.53-.83.47-1.52,1.16-2,2.01-.23.41-.08.92.32,1.14.4.23.91.09,1.14-.32.32-.58.79-1.05,1.35-1.37.29-.16.6-.28.92-.37,1.9-.45,4.24.59,5.45,2.56.37.6.62,1.23.74,1.88.08.44.5.73.93.67Z"/>
        <path class="cls-14" d="M868.48,811.67c2.06-1.69,3.46-4.56,3.95-7.92.58-3.9.05-8.84-2.26-12l4.47,1.61c.27,2.94.21,5.92.07,8.7-.32,5.22.45,10.68,3.17,15.15,1.75,2.87,5.08,4.52,7.73,4.07,1.93-.31,3.5-.8,5.24-1.7,11.26-5.54,27.03-6.69,38.49-3.58,1.23.33,1.94,1.71,1.58,2.93-1.48,4.96-3.64,9.21-6.42,12.76-4.09,5.31-10.73,8.62-18.63,9.36-5.22.49-10.47-.17-15.29-1.95-5.94-2.21-11.29-6.1-15.47-11.11-.45-.53-.84-1.09-1.27-1.63-3.02-4.24-4.99-10.31-5.34-14.68Z"/>
        <g>
          <g>
            <path class="cls-14" d="M921.89,792.82c1.48-.44,3.04.4,3.48,1.88.44,1.48-.4,3.04-1.88,3.48-1.48.44-3.04-.4-3.48-1.88-.44-1.48.4-3.04,1.88-3.48Z"/>
            <path class="cls-14" d="M899.32,794.92c1.48-.44,3.04.4,3.49,1.88.44,1.48-.4,3.04-1.88,3.48-1.48.44-3.04-.4-3.49-1.88-.44-1.48.4-3.04,1.88-3.48Z"/>
            <path class="cls-14" d="M890.11,787.32c.08-.6.8-1,1.48-1.16,3.18-.77,6.44-.69,9.65-.28,1.13.14,4.18.28,3.84,1.81-.22.99-1.92,1.86-3.03,1.85-2.49-.01-4.97-.09-7.45-.23-1.4-.08-4.77-.03-4.5-1.99Z"/>
            <path class="cls-14" d="M917.2,785.29c2.87-1.53,6.06-2.23,9.31-2.59.91-.1,1.85-.31,2.76-.2.41.05.81.17,1.09.45.33.32.49,1.15.35,1.58-.14.42-.52.77-.96,1.01-1.24.68-2.81.91-4.19,1.22-1.5.33-3,.64-4.51.92-1.39.26-4.65,1.11-4.95-.88-.09-.61.49-1.17,1.11-1.5Z"/>
            <path class="cls-16" d="M914.95,812.76c.11-.01.22-.04.33-.1,1.61-.88,2.63-2,3.01-3.32.35-1.2.15-2.48-.59-3.81-.41-.75-1.02-1.67-1.71-2.7-.83-1.25-1.78-2.66-2.59-4.1-.22-.4-.73-.55-1.14-.32-.4.22-.55.74-.32,1.14.84,1.5,1.8,2.95,2.66,4.22.66.99,1.25,1.86,1.64,2.58.51.92.66,1.77.44,2.52-.25.87-1.02,1.67-2.21,2.32-.4.22-.56.73-.34,1.14.17.3.49.46.82.43Z"/>
            <path class="cls-17" d="M918.84,817.81l-16.89-.52c3.24,6.99,14.49,7.43,16.89.52Z"/>
          </g>
          <g>
            <path class="cls-17" d="M924.5,804.81c4.4-1.18,7.33-5.51,6.65-10.13-.73-4.97-5.37-8.42-10.34-7.69-4.98.73-8.42,5.37-7.69,10.34h0c.73,4.97,5.37,8.42,10.34,7.69.36-.05.7-.12,1.04-.22ZM919.99,788.04c.31-.08.62-.15.94-.2,4.5-.66,8.7,2.46,9.36,6.96.66,4.5-2.46,8.7-6.96,9.36-4.5.66-8.7-2.46-9.36-6.96-.61-4.18,2.03-8.09,6.02-9.16Z"/>
            <path class="cls-17" d="M902.45,806.86c1.97-.53,3.7-1.7,4.93-3.36,1.45-1.95,2.06-4.36,1.7-6.76-.73-4.97-5.37-8.42-10.34-7.69-2.41.35-4.54,1.62-5.99,3.58-1.45,1.95-2.06,4.36-1.7,6.76.35,2.41,1.62,4.54,3.58,5.99,1.95,1.45,4.36,2.06,6.76,1.7.36-.05.71-.13,1.05-.22ZM897.91,790.1c.31-.08.63-.15.95-.2,4.5-.66,8.7,2.46,9.36,6.96.32,2.18-.23,4.35-1.54,6.12-1.31,1.77-3.24,2.92-5.42,3.24-2.18.32-4.35-.23-6.12-1.54-1.77-1.31-2.92-3.24-3.24-5.42h0c-.32-2.18.23-4.35,1.54-6.12,1.12-1.5,2.68-2.56,4.46-3.04Z"/>
            <path class="cls-17" d="M913.13,795.48c-1.48-.47-2.97-.33-4.32.44-.51.29-.98-.5-.46-.79,1.55-.88,3.32-1.08,5.03-.53.56.18.32,1.07-.24.88h0Z"/>
            <path class="cls-17" d="M891.35,796.31c-3.52-.66-5.9-1.13-9.42-1.79-.58-.11-.45-1.02.14-.91,3.16.59,9.06,1.72,9.42,1.79.58.11.45,1.02-.14.91h0Z"/>
          </g>
        </g>
        <g>
          <circle class="cls-4" cx="1099" cy="753.2" r="12.53" transform="translate(151.03 1689.4) rotate(-79.07)"/>
          <path class="cls-4" d="M1077.54,710.29c1.47-.64,2.62-.08,3.71,1.2,1.77,2.09,3.18,5.73,4.4,6.98,3.73,4.7,8,7.43,8.82-1.17,1.68-8.46,2.4-17.24,4.47-25.59.16-.66,1.01-3.28,2.54-3.33,2.02-.07,2.94.94,3.5,3.63,1.18,5.7.19,16.06.56,18.64,3.3-7.77,5.96-14.62,9.19-22.37.3-.72,1.72-4.02,4.3-2.91,1.29.56,1.77,2.04,1.42,4.85-.96,7.78-5.69,20.7-6.23,23.32,4.11-5.77,7.47-11.23,11.63-16.88.5-.68,2.45-3.12,4.33-1.99.98.59.96,2.33.35,4.68-1.8,6.97-8.67,19.17-9.4,21.4,4.06-3.19,7.82-6.8,11.93-9.88.98-.73,2.22-1.1,3.34-.1.91.81.26,2.49-.84,4.35-5.01,8.46-9.69,15.91-13.66,24.84-3.23,7.27-8.67,10.51-10.71,16.17l-24.27-6.04c-.11-6.01-3.19-9.53-4.75-18.33-.94-5.29-6.11-11.89-6.24-17.72-.02-1.05.17-3.12,1.62-3.75Z"/>
          <path class="cls-16" d="M1099.1,742.04s-.04,0-.06,0c-.46-.05-.79-.47-.74-.93.51-4.41-1.26-9.44-4.5-12.83-.32-.34-.31-.87.02-1.19.34-.32.87-.31,1.19.02,3.58,3.74,5.52,9.31,4.95,14.19-.05.44-.43.76-.87.74Z"/>
        </g>
        <g>
          <path class="cls-4" d="M689.4,734.22l23.81-8.45c5.11,14.4,14.18,35.04,23.68,55.28,8.08,17.21,14.58,32.61,17.68,41.35l-37.38,13.26h0c-11.24-35.42-19.49-67.55-27.73-101.23l-.05-.22Z"/>
          <circle class="cls-4" cx="735.73" cy="828.61" r="19.83" transform="translate(-271.01 1291.62) rotate(-73.1)"/>
          <circle class="cls-4" cx="701.16" cy="729.58" r="12.63" transform="translate(-259.04 1048.84) rotate(-64.53)"/>
        </g>
        <g>
          <g>
            <path class="cls-4" d="M847.03,860.55c-12.89-7.34-29.17-3.24-37.11,9.07-.28.44-.56.89-.82,1.35-7.6,13.35-2.94,30.33,10.41,37.93,13.35,7.6,30.33,2.94,37.93-10.41,7.6-13.35,2.94-30.33-10.41-37.93Z"/>
            <circle class="cls-4" cx="735.71" cy="828.37" r="19.86" transform="translate(-186.43 1442.47) rotate(-82.05)"/>
            <path class="cls-4" d="M819.52,908.89h0c-36.22-20.31-60.15-37.77-93.19-62.92l-.44-.34,19.65-34.52h0c35.96,20.77,62.49,33.65,100.99,49.22l.51.21-27.52,48.35Z"/>
          </g>
          <path class="cls-18" d="M839.87,853.73c19.73,9.85,27.44,28.28,18.68,44.84-6.36,12.01-21.85,18.29-33.56,16.84-3.48-.43-12.76-3.75-16.36-5.6-11.9-6.15-49.31-28.1-66.37-39.53l19.79-52.31c25.09,12.24,57.3,25.52,77.83,35.77Z"/>
        </g>
        <g>
          <circle class="cls-4" cx="701.06" cy="729.68" r="12.53" transform="translate(-210.53 1168.91) rotate(-71.87)"/>
          <path class="cls-4" d="M726.55,689.04c-1.4-.78-2.6-.33-3.8.84-1.96,1.91-3.71,5.39-5.05,6.52-4.17,4.32-8.68,6.63-8.66-2.02-.86-8.58-.73-17.39-1.99-25.9-.1-.67-.69-3.36-2.2-3.56-2.01-.27-3.02.66-3.83,3.28-1.72,5.56-1.74,15.97-2.36,18.5-2.54-8.05-4.52-15.13-7-23.15-.23-.74-1.33-4.17-4-3.31-1.34.43-1.96,1.86-1.88,4.69.21,7.83,3.67,21.15,3.96,23.81-3.53-6.14-6.35-11.89-9.95-17.92-.43-.72-2.14-3.34-4.12-2.4-1.03.49-1.18,2.22-.8,4.63,1.12,7.11,6.79,19.92,7.3,22.21-3.73-3.57-7.13-7.52-10.93-10.98-.9-.82-2.11-1.31-3.31-.43-.99.72-.5,2.46.42,4.41,4.17,8.9,8.12,16.77,11.2,26.04,2.51,7.55,7.61,11.3,9.1,17.12l24.74-3.67c.69-5.97,4.09-9.18,6.49-17.79,1.44-5.18,7.23-11.25,7.92-17.04.12-1.04.14-3.12-1.25-3.89Z"/>
          <path class="cls-16" d="M702.03,718.56c-.44-.02-.79-.38-.8-.82-.09-4.91,2.37-10.27,6.29-13.64.35-.3.88-.26,1.18.09.3.35.26.88-.09,1.18-3.55,3.06-5.8,7.9-5.71,12.34.01.46-.36.85-.82.85-.02,0-.04,0-.06,0Z"/>
        </g>
        <path class="cls-7" d="M966.21,915.77c.93,0,1.68-.75,1.68-1.68v-7.57c0-.93-.75-1.68-1.68-1.68s-1.68.75-1.68,1.68v7.57c0,.93.75,1.68,1.68,1.68Z"/>
        <path class="cls-18" d="M768.77,851.36l-6.72-33.4-8.56-4.71-37.04-85.6-32.52,13.3,27.51,101.73c1.51,5.59,5.01,10.44,9.83,13.65l20.98,13.94,26.51-18.91Z"/>
        <path class="cls-18" d="M1022.11,865.8l9.4-32.75,8.91-4,43.84-82.32,31.33,15.89-34.62,96.29c-2.61,7.26-7.99,13.2-14.97,16.5l-26.5,12.56-17.4-22.16Z"/>
      </g>
      <g>
        <polygon class="cls-2" points="1280.95 1299.79 1280.95 1523.41 1220.28 1537.52 1185.21 1545.72 1124.6 1559.83 1063.93 1545.72 1028.86 1537.52 968.25 1523.41 968.25 1299.79 1124.6 1263.37 1280.95 1299.79"/>
        <polygon class="cls-8" points="1280.95 1299.79 1280.95 1523.41 1220.28 1537.52 1185.21 1545.72 1124.6 1559.83 1124.6 1263.37 1280.95 1299.79"/>
        <polygon class="cls-19" points="1305.79 1285.29 1305.79 1332.96 1124.6 1367.55 943.4 1332.96 943.4 1285.29 1124.6 1250.7 1305.79 1285.29"/>
        <polygon class="cls-10" points="1305.79 1285.29 1124.6 1319.88 943.4 1285.29 1124.6 1250.7 1305.79 1285.29"/>
        <polygon class="cls-1" points="1220.28 1301.72 1220.28 1537.52 1185.21 1545.72 1185.21 1301.72 1220.28 1301.72"/>
        <polygon class="cls-1" points="1063.93 1301.72 1063.93 1545.72 1028.86 1537.52 1028.86 1301.72 1063.93 1301.72"/>
        <g>
          <path class="cls-1" d="M1138.72,1288.85c-5.28,0-10.44-2.27-14.11-6.56-5.8-6.78-6.05-16.45-.6-23.52l45.76-59.38c6.34-8.23,15.94-13.1,26.33-13.37,10.53-.24,20.22,4.11,26.97,12.01,6.75,7.89,9.56,18.28,7.69,28.5-1.86,10.22-8.16,18.95-17.27,23.94l-65.74,36.03c-2.87,1.57-5.97,2.33-9.03,2.33ZM1196.98,1205.11c-.13,0-.26,0-.4,0-4.61.12-8.87,2.28-11.69,5.93l-44.47,57.7,63.88-35.02c4.05-2.22,6.84-6.09,7.67-10.63.83-4.54-.42-9.15-3.42-12.65-2.91-3.41-7.11-5.34-11.58-5.34Z"/>
          <path class="cls-1" d="M1145.71,1263.14l-41.84-63.74c-6.39-9.73-16.71-15.87-28.3-16.85-11.58-.95-22.8,3.35-30.73,11.88-7.93,8.53-11.43,20.01-9.61,31.51,1.82,11.5,8.69,21.34,18.87,27l66.61,37.1c2.97,1.65,6.15,2.46,9.29,2.46,5.07,0,10.02-2.09,13.75-6.1,6.04-6.49,6.83-15.84,1.96-23.25ZM1063.38,1236.25c-5.01-2.79-8.4-7.64-9.29-13.3-.9-5.66.83-11.32,4.74-15.52,3.54-3.81,8.41-5.92,13.55-5.92.53,0,1.06.02,1.59.07,5.71.48,10.8,3.51,13.95,8.3l41.42,63.09-65.94-36.72Z"/>
          <path class="cls-1" d="M1247,1368.92c-17.67-7.04-28.58-20.45-39.14-33.43-16.63-20.44-32.34-39.75-77.95-39.75h-.08l-.02-34.78h.1c62.16,0,86.88,30.39,104.93,52.58,8.81,10.83,15.76,19.38,25.03,23.07l-19.25,3.03,6.38,29.28Z"/>
          <path class="cls-1" d="M1012.37,1337.35l-16.22-22.4-17.02,12.15c14.08-45.63,63.34-51.03,99.3-54.98,16.69-1.83,33.96-3.72,42.63-8.78l17.53,30.03c-15.06,8.79-35.13,10.99-56.37,13.32-37.76,4.14-63.02,8.51-69.85,30.66Z"/>
        </g>
      </g>
      <g>
        <polygon class="cls-2" points="1508.53 1355.66 1508.53 1543.57 1457.55 1555.43 1428.08 1562.32 1377.14 1574.17 1326.17 1562.32 1296.69 1555.43 1245.76 1543.57 1245.76 1355.66 1377.14 1325.06 1508.53 1355.66"/>
        <polygon class="cls-8" points="1508.53 1355.66 1508.53 1543.57 1457.55 1555.43 1428.08 1562.32 1377.14 1574.17 1377.14 1325.06 1508.53 1355.66"/>
        <polygon class="cls-19" points="1529.4 1343.48 1529.4 1383.54 1377.14 1412.61 1224.89 1383.54 1224.89 1343.48 1377.14 1314.41 1529.4 1343.48"/>
        <polygon class="cls-10" points="1529.4 1343.48 1377.14 1372.55 1224.89 1343.48 1377.14 1314.41 1529.4 1343.48"/>
        <polygon class="cls-1" points="1457.55 1357.29 1457.55 1555.43 1428.08 1562.32 1428.08 1357.29 1457.55 1357.29"/>
        <polygon class="cls-1" points="1326.17 1357.29 1326.17 1562.32 1296.69 1555.43 1296.69 1357.29 1326.17 1357.29"/>
        <g>
          <path class="cls-1" d="M1389.01,1346.47c-4.43,0-8.77-1.91-11.86-5.51-4.87-5.7-5.08-13.82-.51-19.76l38.46-49.89c5.33-6.92,13.4-11.01,22.12-11.23,8.85-.2,16.99,3.46,22.66,10.09,5.68,6.63,8.03,15.36,6.46,23.95-1.57,8.59-6.86,15.92-14.51,20.12l-55.24,30.28c-2.41,1.32-5.01,1.96-7.58,1.96ZM1437.97,1276.1c-.11,0-.22,0-.33,0-3.88.1-7.46,1.92-9.82,4.99l-37.37,48.48,53.68-29.43c3.4-1.86,5.75-5.12,6.45-8.93.7-3.81-.35-7.69-2.87-10.63-2.45-2.86-5.98-4.48-9.73-4.48Z"/>
          <path class="cls-1" d="M1394.88,1324.87l-35.16-53.57c-5.37-8.18-14.04-13.34-23.78-14.16-9.73-.8-19.16,2.82-25.82,9.98-6.66,7.16-9.6,16.81-8.08,26.48,1.53,9.66,7.31,17.93,15.86,22.69l55.98,31.17c2.49,1.39,5.17,2.06,7.81,2.06,4.26,0,8.42-1.76,11.55-5.12,5.07-5.46,5.74-13.31,1.65-19.53ZM1325.7,1302.27c-4.21-2.35-7.06-6.42-7.81-11.18-.75-4.76.7-9.51,3.98-13.04,2.98-3.2,7.07-4.97,11.39-4.97.44,0,.89.02,1.33.06,4.8.4,9.07,2.95,11.72,6.98l34.8,53.02-55.41-30.85Z"/>
          <path class="cls-1" d="M1480.01,1413.76c-14.84-5.91-24.02-17.19-32.89-28.09-13.97-17.18-27.17-33.4-65.5-33.4h-.07l-.02-29.22h.08c52.23,0,73,25.53,88.17,44.18,7.4,9.1,13.25,16.28,21.03,19.38l-16.18,2.54,5.36,24.61Z"/>
          <path class="cls-1" d="M1282.84,1387.22l-13.63-18.82-14.3,10.21c11.83-38.35,53.22-42.88,83.44-46.2,14.03-1.54,28.54-3.13,35.82-7.38l14.73,25.24c-12.66,7.39-29.52,9.23-47.37,11.19-31.73,3.48-52.96,7.15-58.7,25.76Z"/>
        </g>
      </g>
    </g>
  </g>
</svg>