<?xml version="1.0" encoding="UTF-8"?>
<svg id="Layer_1" data-name="Layer 1" xmlns="http://www.w3.org/2000/svg" version="1.1" viewBox="0 0 512 512">
  <defs>
    <style>
      .cls-1 {
        fill: #000;
        stroke: #000;
        stroke-miterlimit: 10;
        stroke-width: 2px;
      }
    </style>
  </defs>
  <g id="calendar-schedule-day-date-transfer">
    <path class="cls-1" d="M133,160h-48c-4.4,0-8,3.6-8,8v48c0,4.4,3.6,8,8,8h48c4.4,0,8-3.6,8-8v-48c0-4.4-3.6-8-8-8ZM125,208h-32v-32h32v32Z"/>
    <path class="cls-1" d="M213,160h-48c-4.4,0-8,3.6-8,8v48c0,4.4,3.6,8,8,8h48c4.4,0,8-3.6,8-8v-48c0-4.4-3.6-8-8-8ZM205,208h-32v-32h32v32Z"/>
    <path class="cls-1" d="M245,224h48c4.4,0,8-3.6,8-8v-48c0-4.4-3.6-8-8-8h-48c-4.4,0-8,3.6-8,8v48c0,4.4,3.6,8,8,8ZM253,176h32v32h-32v-32Z"/>
    <path class="cls-1" d="M325,224h48c4.4,0,8-3.6,8-8v-48c0-4.4-3.6-8-8-8h-48c-4.4,0-8,3.6-8,8v48c0,4.4,3.6,8,8,8ZM333,176h32v32h-32v-32Z"/>
    <path class="cls-1" d="M133,240h-48c-4.4,0-8,3.6-8,8v48c0,4.4,3.6,8,8,8h48c4.4,0,8-3.6,8-8v-48c0-4.4-3.6-8-8-8ZM125,288h-32v-32h32v32Z"/>
    <path class="cls-1" d="M213,240h-48c-4.4,0-8,3.6-8,8v48c0,4.4,3.6,8,8,8h48c4.4,0,8-3.6,8-8v-48c0-4.4-3.6-8-8-8ZM205,288h-32v-32h32v32Z"/>
    <path class="cls-1" d="M277,296c0-4.4-3.6-8-8-8h-16v-32h32v15.7c0,4.4,3.6,8,8,8s8-3.6,8-8v-23.7c0-4.4-3.6-8-8-8h-48c-4.4,0-8,3.6-8,8v48c0,4.4,3.6,8,8,8h24c4.4,0,8-3.6,8-8Z"/>
    <path class="cls-1" d="M133,320h-48c-4.4,0-8,3.6-8,8v48c0,4.4,3.6,8,8,8h48c4.4,0,8-3.6,8-8v-48c0-4.4-3.6-8-8-8ZM125,368h-32v-32h32v32Z"/>
    <path class="cls-1" d="M213,320h-48c-4.4,0-8,3.6-8,8v48c0,4.4,3.6,8,8,8h48c4.4,0,8-3.6,8-8v-48c0-4.4-3.6-8-8-8ZM205,368h-32v-32h32v32Z"/>
    <path class="cls-1" d="M437,269.9V72c0-13.2-10.8-24-24-24h-40v-8c0-13.3-10.7-24-24-24s-24,10.7-24,24v8h-192v-8c0-13.3-10.7-24-24-24s-24,10.7-24,24v8h-40c-13.2,0-24,10.8-24,24v336c0,13.2,10.8,24,24,24h229.9c30.9,58.6,103.4,81.2,162.1,50.3,58.6-30.9,81.2-103.4,50.3-162.1-11.3-21.5-28.8-39-50.3-50.3ZM341,40c0-4.4,3.6-8,8-8s8,3.6,8,8v32c0,4.4-3.6,8-8,8s-8-3.6-8-8v-32ZM101,40c0-4.4,3.6-8,8-8s8,3.6,8,8v32c0,4.4-3.6,8-8,8s-8-3.6-8-8v-32ZM37,72c0-4.4,3.6-8,8-8h40v8c0,13.3,10.7,24,24,24s24-10.7,24-24v-8h192v8c0,13.3,10.7,24,24,24s24-10.7,24-24v-8h40c4.4,0,8,3.6,8,8v40H37v-40ZM268,416H45c-4.4,0-8-3.6-8-8V128h384v135c-12.8-4.6-26.4-7-40-7-66.2,0-119.9,53.8-120,120,0,13.6,2.4,27.2,7,40ZM381,480c-57.4,0-104-46.6-104-104s46.6-104,104-104,104,46.6,104,104-46.6,103.9-104,104Z"/>
    <path class="cls-1" d="M373,328h36.7l-10.3,10.3c-3.2,3.1-3.3,8.1-.2,11.3,3.1,3.2,8.1,3.3,11.3.2l.2-.2,24-24c3.1-3.1,3.1-8.2,0-11.3l-24-24c-3.2-3.1-8.2-3-11.3.2-3,3.1-3,8,0,11.1l10.3,10.3h-36.7c-39.7,0-72,32.3-72,72v16c0,4.4,3.6,8,8,8s8-3.6,8-8v-16c0-30.9,25.1-56,56-56h0Z"/>
    <path class="cls-1" d="M453,344c-4.4,0-8,3.6-8,8v16c0,30.9-25.1,56-56,56h-36.7l10.3-10.3c3.1-3.2,3-8.2-.2-11.3-3.1-3-8-3-11.1,0l-24,24c-3.1,3.1-3.1,8.2,0,11.3l24,24c3.2,3.1,8.2,3,11.3-.2,3-3.1,3-8,0-11.1l-10.3-10.3h36.7c39.7,0,72-32.3,72-72v-16c0-4.4-3.6-8-8-8h0Z"/>
  </g>
</svg>