<?xml version="1.0" encoding="UTF-8"?>
<svg id="_Слой_1" data-name="Слой 1" xmlns="http://www.w3.org/2000/svg" version="1.1" viewBox="0 0 512 512">
  <defs>
    <style>
      .cls-1 {
        fill: #07396a;
        stroke-width: 0px;
      }
    </style>
  </defs>
  <path class="cls-1" d="M79.6,229.1C32.5,233.7-1.9,275.5,2.6,322.6c4.2,43.8,41,77.2,85,77.4h47.1c4.4,0,8-3.6,8-8s-3.6-8-8-8h-47.1c-38.5-.9-68.9-32.7-68.1-71.2.8-37.2,30.7-67.1,67.9-68.1h.3c4.4,0,8-3.6,8-8,0,0,0-.2,0-.3v-4.8c0-67.8,55.1-122.6,122.9-122.5,43.1,0,83,22.7,105.1,59.7,2.1,3.6,6.7,4.9,10.4,3.1,9.5-4.7,19.9-7.1,30.5-7.1,38.2-.1,69.2,30.8,69.3,68.9,0,6.4-.9,12.9-2.6,19.1-1.2,4.3,1.3,8.7,5.6,9.9.5.1,1,.2,1.5.3,33.3,3.6,57.5,33.5,53.9,66.8-3.2,30.3-28.5,53.5-58.9,54.3h-56c-4.4,0-8,3.6-8,8s3.6,8,8,8h56c42.4.3,77-33.8,77.3-76.2.3-36.9-25.8-68.7-61.9-75.8.8-4.6,1.2-9.3,1.2-14-.1-47-38.2-85.1-85.2-85.2-10.6,0-21.1,2-30.9,5.9-42.6-63.7-128.7-80.8-192.4-38.3-37.8,25.2-60.8,67.4-61.6,112.8h0Z"/>
  <path class="cls-1" d="M312,416c4.4,0,8-3.6,8-8v-8.5h24c4.4,0,8-3.6,8-8v-191.5c0-4.4-3.6-8-8-8h-176c-4.4,0-8,3.6-8,8v191.5c0,4.4,3.6,8,8,8h24v8.5c0,4.4,3.6,8,8,8s8-3.6,8-8v-8.5h96v8.5c0,4.4,3.6,8,8,8ZM176,272h160v48h-160v-48ZM336,208v48h-160v-48h160ZM176,336h160v47.5h-160v-47.5Z"/>
  <circle class="cls-1" cx="200" cy="296" r="8"/>
  <circle class="cls-1" cx="200" cy="360" r="8"/>
  <circle class="cls-1" cx="200" cy="232" r="8"/>
</svg>