<svg id="OBJECTS" xmlns="http://www.w3.org/2000/svg" xmlns:xlink="http://www.w3.org/1999/xlink" width="90.472" height="76.451" viewBox="0 0 90.472 76.451">
  <defs>
    <linearGradient id="linear-gradient" y1="0.5" x2="1" y2="0.5" gradientUnits="objectBoundingBox">
      <stop offset="0" stop-color="#2484c6"/>
      <stop offset="1" stop-color="#2484c6" stop-opacity="0"/>
    </linearGradient>
    <linearGradient id="linear-gradient-2" y1="0.492" x2="1.002" y2="0.492" gradientUnits="objectBoundingBox">
      <stop offset="0" stop-color="#f7941e"/>
      <stop offset="1" stop-color="#f7941e" stop-opacity="0"/>
    </linearGradient>
  </defs>
  <g id="Group_67" data-name="Group 67" transform="translate(2.66 10.497)">
    <g id="Group_59" data-name="Group 59">
      <path id="Path_99" data-name="Path 99" d="M437.727,182.184v49.759a2.145,2.145,0,0,1-2.144,2.144H353.495a2.143,2.143,0,0,1-2.144-2.144V182.184a2.143,2.143,0,0,1,2.144-2.144h82.088A2.145,2.145,0,0,1,437.727,182.184Z" transform="translate(-351.188 -180.04)" fill="#4a63fe" opacity="0.4"/>
      <path id="Path_100" data-name="Path 100" d="M477.046,358.453H459.47l1.909-5.129.433-1.161.84-2.253h11.212l.84,2.253.433,1.161Z" transform="translate(-424.907 -295.862)" fill="#4a63fe" opacity="0.43"/>
      <path id="Path_101" data-name="Path 101" d="M466.435,379.458H435.369a1.35,1.35,0,0,1-1.349-1.349h0a1.35,1.35,0,0,1,1.349-1.349h31.066a1.35,1.35,0,0,1,1.349,1.349h0A1.346,1.346,0,0,1,466.435,379.458Z" transform="translate(-407.555 -314.17)" fill="#425de2" opacity="0.4"/>
      <rect id="Rectangle_30" data-name="Rectangle 30" width="86.539" height="37.757" transform="translate(0 7.681)" fill="#60f4df" opacity="0.2"/>
    </g>
    <g id="Group_66" data-name="Group 66" transform="translate(2.218 8.689)">
      <g id="Group_60" data-name="Group 60" transform="translate(27.716)">
        <path id="Path_102" data-name="Path 102" d="M498.548,230.7H445.964a1.044,1.044,0,0,1-1.044-1.044v-21.26a1.044,1.044,0,0,1,1.044-1.044h52.584a1.044,1.044,0,0,1,1.044,1.044v21.26A1.044,1.044,0,0,1,498.548,230.7Z" transform="translate(-444.92 -207.35)" fill="#fff" opacity="0.2"/>
        <path id="Path_103" data-name="Path 103" d="M500.841,223.887v8.874a.718.718,0,0,1-.719.716h-50.5a.718.718,0,0,1-.719-.716V213.27c4.664,0,6.987,1.744,8.349,4.034q.134.22.248.449c2.3,4.359,1.61,10.334,6.675,10.334a2.086,2.086,0,0,0,.535-.067,1.491,1.491,0,0,0,.312-.1c3.408-1.435,2.876-11.62,8.937-11.546a4.087,4.087,0,0,1,3.026,1.3c.073.08.146.159.216.245,2.714,3.185,2.752,10.283,6.92,11.572,1.5.465,2.829-.165,4.139-1.206.083-.067.169-.134.251-.207,2.771-2.3,5.527-6.233,9.8-5.269.124.029.248.06.375.1A8.939,8.939,0,0,1,500.841,223.887Z" transform="translate(-447.634 -211.386)" fill="#fff" opacity="0.39"/>
      </g>
      <g id="Group_61" data-name="Group 61" transform="translate(53.478 24.334)">
        <path id="Path_104" data-name="Path 104" d="M553.911,288.946H526.778a.888.888,0,0,1-.888-.888v-3.341a.888.888,0,0,1,.888-.888h27.134a.888.888,0,0,1,.888.888v3.341A.888.888,0,0,1,553.911,288.946Z" transform="translate(-525.89 -283.83)" fill="#9cd7ff" opacity="0.5"/>
        <path id="Path_105" data-name="Path 105" d="M553.911,308.386H526.778a.888.888,0,0,1-.888-.888v-3.341a.888.888,0,0,1,.888-.888h27.134a.888.888,0,0,1,.888.888V307.5A.888.888,0,0,1,553.911,308.386Z" transform="translate(-525.89 -297.085)" fill="#fff" opacity="0.2"/>
      </g>
      <g id="Group_63" data-name="Group 63">
        <path id="Path_106" data-name="Path 106" d="M383.6,218.648H358.854a1.044,1.044,0,0,1-1.044-1.044v-9.211a1.044,1.044,0,0,1,1.044-1.044H383.6a1.044,1.044,0,0,1,1.044,1.044V217.6A1.04,1.04,0,0,1,383.6,218.648Z" transform="translate(-357.81 -207.35)" fill="#9cd7ff" opacity="0.2"/>
        <g id="Group_62" data-name="Group 62" transform="translate(1.06 1.079)" opacity="0.3">
          <path id="Path_107" data-name="Path 107" d="M426.844,223.766h-1.33a.263.263,0,0,1-.264-.264v-6.977a.263.263,0,0,1,.264-.264h1.33a.263.263,0,0,1,.264.264V223.5A.263.263,0,0,1,426.844,223.766Z" transform="translate(-404.852 -214.504)" fill="#fff"/>
          <path id="Path_108" data-name="Path 108" d="M434.835,220h-1.273a.292.292,0,0,1-.293-.293v-8.677a.292.292,0,0,1,.293-.293h1.273a.292.292,0,0,1,.293.293v8.677A.3.3,0,0,1,434.835,220Z" transform="translate(-410.32 -210.74)" fill="#fff"/>
          <path id="Path_109" data-name="Path 109" d="M362.705,220h-1.273a.292.292,0,0,1-.293-.293v-8.677a.292.292,0,0,1,.293-.293h1.273a.292.292,0,0,1,.293.293v8.677A.292.292,0,0,1,362.705,220Z" transform="translate(-361.14 -210.74)" fill="#fff"/>
          <path id="Path_110" data-name="Path 110" d="M370.76,224.707h-1.346a.255.255,0,0,1-.255-.255v-6.557a.255.255,0,0,1,.255-.255h1.346a.255.255,0,0,1,.254.255v6.557A.255.255,0,0,1,370.76,224.707Z" transform="translate(-366.608 -215.445)" fill="#fff"/>
          <path id="Path_111" data-name="Path 111" d="M378.735,220h-1.273a.292.292,0,0,1-.293-.293v-8.677a.292.292,0,0,1,.293-.293h1.273a.292.292,0,0,1,.293.293v8.677A.292.292,0,0,1,378.735,220Z" transform="translate(-372.07 -210.74)" fill="#fff"/>
          <path id="Path_112" data-name="Path 112" d="M386.829,228.893h-1.422a.215.215,0,0,1-.216-.216V224a.215.215,0,0,1,.216-.216h1.422a.215.215,0,0,1,.216.216v4.68A.217.217,0,0,1,386.829,228.893Z" transform="translate(-377.538 -219.631)" fill="#fff"/>
          <path id="Path_113" data-name="Path 113" d="M394.765,220h-1.273a.292.292,0,0,1-.293-.293v-8.677a.292.292,0,0,1,.293-.293h1.273a.292.292,0,0,1,.293.293v8.677A.3.3,0,0,1,394.765,220Z" transform="translate(-382.999 -210.74)" fill="#fff"/>
          <path id="Path_114" data-name="Path 114" d="M402.8,223.766h-1.33a.263.263,0,0,1-.264-.264v-6.977a.263.263,0,0,1,.264-.264h1.33a.263.263,0,0,1,.264.264V223.5A.263.263,0,0,1,402.8,223.766Z" transform="translate(-388.461 -214.504)" fill="#fff"/>
          <path id="Path_115" data-name="Path 115" d="M410.8,220h-1.273a.292.292,0,0,1-.293-.293v-8.677a.292.292,0,0,1,.293-.293H410.8a.292.292,0,0,1,.293.293v8.677A.3.3,0,0,1,410.8,220Z" transform="translate(-393.929 -210.74)" fill="#fff"/>
          <path id="Path_116" data-name="Path 116" d="M418.85,224.707H417.5a.255.255,0,0,1-.255-.255v-6.557a.255.255,0,0,1,.255-.255h1.346a.255.255,0,0,1,.255.255v6.557A.255.255,0,0,1,418.85,224.707Z" transform="translate(-399.397 -215.445)" fill="#fff"/>
        </g>
      </g>
      <g id="Group_64" data-name="Group 64" transform="translate(0 12.167)">
        <path id="Path_117" data-name="Path 117" d="M383.6,256.888H358.854a1.044,1.044,0,0,1-1.044-1.044v-9.211a1.044,1.044,0,0,1,1.044-1.044H383.6a1.044,1.044,0,0,1,1.044,1.044v9.211A1.038,1.038,0,0,1,383.6,256.888Z" transform="translate(-357.81 -245.59)" fill="#fff" opacity="0.2"/>
        <path id="Path_118" data-name="Path 118" d="M383.6,295.138H358.854a1.044,1.044,0,0,1-1.044-1.044v-9.211a1.044,1.044,0,0,1,1.044-1.044H383.6a1.044,1.044,0,0,1,1.044,1.044v9.211A1.04,1.04,0,0,1,383.6,295.138Z" transform="translate(-357.81 -271.67)" fill="#fff" opacity="0.2"/>
        <path id="Path_119" data-name="Path 119" d="M385.236,250.2a.5.5,0,0,0-.5.5.481.481,0,0,0,.07.251l-4.1,4.633a.476.476,0,0,0-.191-.038.5.5,0,0,0-.207.045l-4.413-4.337a.5.5,0,1,0-.961-.207.523.523,0,0,0,.048.213l-5.676,6.128a.505.505,0,0,0-.29-.092.475.475,0,0,0-.242.067l-3.108-4.047a.5.5,0,0,0,.1-.293.5.5,0,1,0-1.005,0,.5.5,0,0,0,.067.245l-3.481,4.512a.535.535,0,0,0-.175-.032.5.5,0,1,0,.423.232l3.468-4.5a.525.525,0,0,0,.2.041.477.477,0,0,0,.15-.025l3.147,4.1a.525.525,0,0,0-.041.2.5.5,0,0,0,1.005,0,.476.476,0,0,0-.025-.15l5.708-6.16a.488.488,0,0,0,.235.06.516.516,0,0,0,.242-.064l4.4,4.321a.482.482,0,0,0-.064.242.5.5,0,1,0,.932-.258l4.1-4.626a.509.509,0,0,0,.2.041.5.5,0,0,0,0-1.009Z" transform="translate(-359.753 -248.733)" fill="#fff" opacity="0.5"/>
        <path id="Path_120" data-name="Path 120" d="M383.133,287.475H361.345a.455.455,0,0,1-.455-.455v-.045a.455.455,0,0,1,.455-.455h21.788a.455.455,0,0,1,.455.455v.045A.455.455,0,0,1,383.133,287.475Z" transform="translate(-359.91 -273.497)" fill="#fff" opacity="0.3"/>
        <path id="Path_121" data-name="Path 121" d="M380.878,292.818H361.323a.433.433,0,0,1-.433-.433v-.092a.433.433,0,0,1,.433-.433h19.555a.433.433,0,0,1,.433.433v.092A.433.433,0,0,1,380.878,292.818Z" transform="translate(-359.91 -277.138)" fill="#fff" opacity="0.3"/>
        <path id="Path_122" data-name="Path 122" d="M385.425,298.185H361.377a.477.477,0,0,1-.477-.477h0a.477.477,0,0,1,.477-.477h24.047a.477.477,0,0,1,.477.477h0A.477.477,0,0,1,385.425,298.185Z" transform="translate(-359.917 -280.8)" fill="#fff" opacity="0.3"/>
        <path id="Path_123" data-name="Path 123" d="M378.647,303.535H361.3a.406.406,0,0,1-.407-.407v-.14a.406.406,0,0,1,.407-.407h17.35a.406.406,0,0,1,.407.407v.14A.406.406,0,0,1,378.647,303.535Z" transform="translate(-359.91 -284.447)" fill="#fff" opacity="0.3"/>
        <path id="Path_124" data-name="Path 124" d="M383.369,308.888H361.348a.458.458,0,0,1-.458-.458v-.041a.458.458,0,0,1,.458-.458h22.021a.458.458,0,0,1,.458.458v.041A.456.456,0,0,1,383.369,308.888Z" transform="translate(-359.91 -288.095)" fill="#fff" opacity="0.3"/>
        <path id="Path_125" data-name="Path 125" d="M385.425,314.245H361.377a.477.477,0,0,1-.477-.477h0a.477.477,0,0,1,.477-.477h24.047a.477.477,0,0,1,.477.477h0A.477.477,0,0,1,385.425,314.245Z" transform="translate(-359.917 -291.75)" fill="#fff" opacity="0.3"/>
      </g>
      <g id="Group_65" data-name="Group 65" transform="translate(27.783 24.337)">
        <path id="Path_126" data-name="Path 126" d="M456.428,289.488a5.649,5.649,0,1,1-5.648-5.648,5.521,5.521,0,0,1,1.3.153,5.648,5.648,0,0,1,4.324,5.046Q456.428,289.263,456.428,289.488Z" transform="translate(-445.13 -283.84)" fill="#9cd7ff" opacity="0.5"/>
        <path id="Path_127" data-name="Path 127" d="M468.518,289.366l-5.628.449,1.3-5.495A5.648,5.648,0,0,1,468.518,289.366Z" transform="translate(-457.239 -284.167)" fill="#9cd7ff"/>
        <path id="Path_128" data-name="Path 128" d="M496.071,285.064H485.2a.371.371,0,0,1-.372-.372h0a.371.371,0,0,1,.372-.372h10.869a.371.371,0,0,1,.372.372h0A.373.373,0,0,1,496.071,285.064Z" transform="translate(-472.199 -284.167)" fill="#9cd7ff" opacity="0.5"/>
        <path id="Path_129" data-name="Path 129" d="M494.467,289.721h-9.294a.344.344,0,0,1-.344-.344v-.054a.344.344,0,0,1,.344-.344h9.294a.344.344,0,0,1,.344.344v.054A.342.342,0,0,1,494.467,289.721Z" transform="translate(-472.199 -287.345)" fill="#9cd7ff" opacity="0.5"/>
        <path id="Path_130" data-name="Path 130" d="M492.25,294.371h-7.108a.3.3,0,0,1-.3-.3v-.137a.3.3,0,0,1,.3-.3h7.108a.3.3,0,0,1,.3.3v.137A.3.3,0,0,1,492.25,294.371Z" transform="translate(-472.206 -290.515)" fill="#9cd7ff" opacity="0.5"/>
        <path id="Path_131" data-name="Path 131" d="M496.071,299.015H485.2a.371.371,0,0,1-.372-.372h0a.371.371,0,0,1,.372-.372h10.869a.371.371,0,0,1,.372.372h0A.371.371,0,0,1,496.071,299.015Z" transform="translate(-472.199 -293.679)" fill="#9cd7ff" opacity="0.5"/>
        <path id="Path_132" data-name="Path 132" d="M494.827,303.671H485.19a.349.349,0,0,1-.35-.35v-.041a.349.349,0,0,1,.35-.35h9.637a.349.349,0,0,1,.35.35v.041A.349.349,0,0,1,494.827,303.671Z" transform="translate(-472.206 -296.856)" fill="#9cd7ff" opacity="0.5"/>
        <path id="Path_133" data-name="Path 133" d="M496.071,308.315H485.2a.371.371,0,0,1-.372-.372h0a.371.371,0,0,1,.372-.372h10.869a.371.371,0,0,1,.372.372h0A.371.371,0,0,1,496.071,308.315Z" transform="translate(-472.199 -300.02)" fill="#9cd7ff" opacity="0.5"/>
        <path id="Path_134" data-name="Path 134" d="M493.882,312.975h-8.718a.334.334,0,0,1-.334-.334v-.076a.334.334,0,0,1,.334-.334h8.718a.334.334,0,0,1,.334.334v.076A.336.336,0,0,1,493.882,312.975Z" transform="translate(-472.199 -303.197)" fill="#9cd7ff" opacity="0.5"/>
        <path id="Path_135" data-name="Path 135" d="M496.071,317.625H485.2a.371.371,0,0,1-.372-.372h0a.371.371,0,0,1,.372-.372h10.869a.371.371,0,0,1,.372.372h0A.373.373,0,0,1,496.071,317.625Z" transform="translate(-472.199 -306.368)" fill="#9cd7ff" opacity="0.5"/>
      </g>
    </g>
    <path id="Path_136" data-name="Path 136" d="M437.727,182.184v49.759a2.145,2.145,0,0,1-2.144,2.144H353.495a2.143,2.143,0,0,1-2.144-2.144V182.184a2.143,2.143,0,0,1,2.144-2.144h82.088A2.145,2.145,0,0,1,437.727,182.184Z" transform="translate(-351.188 -180.04)" fill="url(#linear-gradient)"/>
  </g>
  <g id="Group_80" data-name="Group 80" transform="translate(7.795 31.804)">
    <g id="Group_69" data-name="Group 69" transform="translate(0.811 0)" opacity="0.3">
      <g id="Group_68" data-name="Group 68">
        <path id="Path_137" data-name="Path 137" d="M392.136,251.883c.029-.121-.111-.156-.258.083a1.356,1.356,0,0,1-.916.611c-.025-.064.064-.086.127-.226.073-.156.025-.264-.041-.289s-.172.159-.213.191c-.156.134-.309.264-.465.395a1.006,1.006,0,0,0-.337.458c0,.013-.013.057-.022.115-1.034.789-4.451,1.775-4.913,2.055a8.051,8.051,0,0,1-1.7.076c0-.108-.01-.175-.01-.175a8.034,8.034,0,0,1-2.087-.633,1.528,1.528,0,0,0-.958-.191,1.32,1.32,0,0,0-.1-.156c-.006-.01-.013-.016-.019-.025-.172-.2-.426-.306-.582-.515a2.7,2.7,0,0,1,.108-1.088,4.617,4.617,0,0,1,.935-.9.958.958,0,0,0,.236-1.005,7.541,7.541,0,0,0-.35-1.336c-.08-.162-.22-.274-.293-.417a.583.583,0,0,1-.041-.076c.2-.226-.385-1.868-2.189-1.823a3.11,3.11,0,0,0-1.333.248c-.4.2-.856.57-.827.932-.64.124-.729.773-.78,1.018a3.25,3.25,0,0,0-.038,1.053c.067.519.261,1.015.363,1.527a2.243,2.243,0,0,1-.057,1.279c-.159.382-.538.589-.732.961a1.692,1.692,0,0,0,.022,1.534c.115.213.235.394.334.579a18.788,18.788,0,0,0-.525,1.931l-4.728.8a.258.258,0,0,0-.21.3l1.174,6.9a.256.256,0,0,0,.3.207l4-.678a6.546,6.546,0,0,0,.006,1.635c.064.468.535,1.753.608,2.218a24.814,24.814,0,0,1,.487,3.84,2.656,2.656,0,0,0,.331.21,27.929,27.929,0,0,1,.439,2.994,31.427,31.427,0,0,0-.738,3.074c-.006.054-.013.111-.019.175h2.622c.181-.961.331-1.807.423-2.453v0c.022-.162.041-.305.057-.439,0-.013,0-.029.006-.038.006-.073.013-.14.019-.2.009-.111.016-.229.025-.35,0-.035,0-.073.006-.108.006-.1.01-.2.013-.309,0-.029,0-.057.006-.089,0-.13.006-.264.01-.407,0-.041,0-.086,0-.127,0-.108,0-.216,0-.328,0-.051,0-.1,0-.153v-.127c.439,1.273.78,2.256.78,2.256a14.349,14.349,0,0,0-.465,2.879h2.51c.08-1.451.146-2.657.169-3.233a25.1,25.1,0,0,0-.08-3.029s0,0,0,0a26.746,26.746,0,0,0,.016-4.661,16.953,16.953,0,0,0-.888-4.3l2.466-.42a.251.251,0,0,0,.207-.293l-1.088-6.418a3.4,3.4,0,0,1,.382.019,2.064,2.064,0,0,0,.054-.3c.891-.076,1.632-.156,1.817-.191,1.444-.283,5.037-2.714,5.352-2.93a1.427,1.427,0,0,0,1.056-.455.473.473,0,0,0,.08-.3c.1-.121.28-.547-.029-.458A1.309,1.309,0,0,0,392.136,251.883Z" transform="translate(-369.53 -247.007)" fill="#5fb0e7"/>
      </g>
    </g>
    <g id="Group_79" data-name="Group 79" transform="translate(0 0)">
      <g id="Group_78" data-name="Group 78">
        <g id="Group_71" data-name="Group 71" transform="translate(5.669 16.396)">
          <path id="Path_138" data-name="Path 138" d="M388.717,301.241l-3.363-2.7a6.3,6.3,0,0,0-.162,3.894c.309.98-.019,1.677.146,2.141.156.433,1.3,6.605,1.231,7.06a31.419,31.419,0,0,0-.738,3.073c-.207,1.61-.041,6.828-.2,8.218s1.126,1.594,1.187,1.123c.506-4.018,1.944-10.3,2.119-12.3S388.936,306.077,388.717,301.241Z" transform="translate(-384.901 -298.54)" fill="#ffe1bd"/>
          <g id="Group_70" data-name="Group 70" transform="translate(2.565 6.64)">
            <path id="Path_139" data-name="Path 139" d="M394.215,319.416l-1.355,3.325a7.331,7.331,0,0,1,1.082,3.424c.038.633,0,1.273.032,1.906a.68.68,0,0,0,.022.137c.169-.945.3-1.724.337-2.23a60.5,60.5,0,0,0-.048-6.567C394.263,319.413,394.238,319.413,394.215,319.416Z" transform="translate(-392.86 -319.41)" fill="#fccb95"/>
          </g>
          <path id="Path_140" data-name="Path 140" d="M387.19,374.074a8.33,8.33,0,0,0-.185,1.642,2.532,2.532,0,0,0,.706.9c.325.2,1.037.423,1.095.509a.22.22,0,0,1-.035.3,1.472,1.472,0,0,1-1,.28c-.961-.137-1.072-.557-1.632-.611-.1-.009-.27.137-.541.006a.634.634,0,0,1-.388-.6,2.751,2.751,0,0,1,.4-1.037,8.357,8.357,0,0,0,.232-1.658" transform="translate(-385.076 -349.855)" fill="#ffe1bd"/>
          <path id="Path_141" data-name="Path 141" d="M388.569,381.565c.067-.121.08-.3.016-.344a5.241,5.241,0,0,0-.6-.344c-.188-.083-.484-.15-.379-.1s-.08.267-.255.261a5.205,5.205,0,0,1-1.4-.49,1.174,1.174,0,0,1-.741-.783,2.252,2.252,0,0,0-.337.684,1.155,1.155,0,0,0-.06.519,1.181,1.181,0,0,1,.067.49.937.937,0,0,0,.36.121,1.454,1.454,0,0,0,.382,0l.035-.312a1.336,1.336,0,0,1,.305.022,1.655,1.655,0,0,1,.471.207c.07.08.13.229.22.27a1.909,1.909,0,0,0,.792.178C388.082,381.965,388.454,381.771,388.569,381.565Z" transform="translate(-384.798 -353.925)" fill="#594a5f"/>
        </g>
        <g id="Group_72" data-name="Group 72" transform="translate(6.303 15.823)">
          <path id="Path_142" data-name="Path 142" d="M394.811,324.64c-.073-.076-.837-.194-1.2-.34a2.079,2.079,0,0,1-.843-.786,8.568,8.568,0,0,1-.067-1.594c.041-2.851.5-9.825.56-11.5a36.748,36.748,0,0,0-1.467-10.538l-4.187-3.147a7.392,7.392,0,0,0-.732,4.241c.239,1.2,1.234,1.371,1.409,1.836s2.762,7.961,2.762,7.961a14.1,14.1,0,0,0-.484,3.411c-.01,1.521.729,6.1.872,7.846a5.682,5.682,0,0,1-.013,1.419c-.121.321-.43.7-.41,1.1a.616.616,0,0,0,.477.541c.3.089.458-.083.56-.089.585-.029.751.372,1.763.36a1.605,1.605,0,0,0,1-.426A.217.217,0,0,0,394.811,324.64Z" transform="translate(-386.79 -296.74)" fill="#ffe1bd"/>
          <path id="Path_143" data-name="Path 143" d="M403.712,382.816c.054-.13.045-.312-.029-.344a6.245,6.245,0,0,0-.668-.251c-.2-.051-.519-.076-.4-.038s-.051.277-.229.3a5.674,5.674,0,0,1-1.508-.274.961.961,0,0,1-.764-.665,2.426,2.426,0,0,0-.366.732,1.112,1.112,0,0,0,0,.522,1.136,1.136,0,0,1,.131.477.976.976,0,0,0,.385.064,1.486,1.486,0,0,0,.395-.06l0-.315a1.468,1.468,0,0,1,.318-.022,1.07,1.07,0,0,1,.519.178c.086.064.178.172.28.2a2.139,2.139,0,0,0,.821.054C403.26,383.29,403.62,383.039,403.712,382.816Z" transform="translate(-395.602 -354.559)" fill="#594a5f"/>
        </g>
        <g id="Group_74" data-name="Group 74" transform="translate(10.353 4.784)">
          <g id="Group_73" data-name="Group 73" transform="translate(10.109)">
            <path id="Path_144" data-name="Path 144" d="M431.84,264.245a1.424,1.424,0,0,0,1.063-.455.463.463,0,0,0,.079-.3c.1-.121.28-.547-.029-.458a1.292,1.292,0,0,0,.48-.891c.029-.121-.111-.156-.258.083a1.367,1.367,0,0,1-.916.611c-.026-.067.064-.086.127-.226.073-.156.025-.264-.044-.29-.051-.019-.172.159-.213.191-.156.13-.309.261-.465.395a.99.99,0,0,0-.337.458c-.013.035-.1.391.057.34" transform="translate(-431.294 -262.044)" fill="#ffe1bd"/>
          </g>
          <path id="Path_145" data-name="Path 145" d="M400.09,270.525c1.559-.019,4.353-.286,4.738-.359,1.511-.3,5.377-2.946,5.377-2.946a.736.736,0,0,0-.515-.789c-.98.8-4.489,1.8-4.957,2.087a48.761,48.761,0,0,1-5.212-.016" transform="translate(-399.52 -265.035)" fill="#ffe1bd"/>
        </g>
        <path id="Path_146" data-name="Path 146" d="M383.1,273.28a19.994,19.994,0,0,0-.878,3.2l1.6.251V274.46" transform="translate(-377.371 -264.921)" fill="#cbaad1"/>
        <path id="Path_147" data-name="Path 147" d="M381.269,284.85l-12.819,2.179a.253.253,0,0,1-.293-.21l-1.174-6.9a.253.253,0,0,1,.21-.293l12.819-2.179a.253.253,0,0,1,.293.21l1.174,6.9A.253.253,0,0,1,381.269,284.85Z" transform="translate(-366.98 -267.757)" fill="#2c1e56"/>
        <path id="Path_148" data-name="Path 148" d="M381.829,285.5l-12.106,2.106a.226.226,0,0,1-.258-.181l-1.021-6.02a.225.225,0,0,1,.181-.258l12.106-2.106a.225.225,0,0,1,.258.181l1.021,6.02A.222.222,0,0,1,381.829,285.5Z" transform="translate(-367.976 -268.849)" fill="#39297f"/>
        <path id="Path_149" data-name="Path 149" d="M371.658,292.292l-.2.035a.187.187,0,0,1-.219-.156l-.881-5.183a.187.187,0,0,1,.156-.22l.2-.035a.187.187,0,0,1,.22.156l.881,5.183A.187.187,0,0,1,371.658,292.292Z" transform="translate(-369.278 -274.091)" fill="#4c4199"/>
        <path id="Path_150" data-name="Path 150" d="M375.078,291.642l-.2.035a.187.187,0,0,1-.22-.156l-.881-5.183a.187.187,0,0,1,.156-.22l.2-.035a.187.187,0,0,1,.22.156l.881,5.183A.19.19,0,0,1,375.078,291.642Z" transform="translate(-371.61 -273.648)" fill="#4c4199"/>
        <path id="Path_151" data-name="Path 151" d="M378.5,290.982l-.2.035a.187.187,0,0,1-.22-.156l-.881-5.183a.187.187,0,0,1,.156-.22l.2-.035a.187.187,0,0,1,.22.156l.881,5.183A.191.191,0,0,1,378.5,290.982Z" transform="translate(-373.941 -273.198)" fill="#4c4199"/>
        <path id="Path_152" data-name="Path 152" d="M381.908,290.332l-.2.035a.187.187,0,0,1-.22-.156l-.881-5.183a.187.187,0,0,1,.156-.219l.2-.035a.187.187,0,0,1,.22.156l.881,5.183A.19.19,0,0,1,381.908,290.332Z" transform="translate(-376.266 -272.755)" fill="#4c4199"/>
        <path id="Path_153" data-name="Path 153" d="M385.328,289.682l-.2.035a.187.187,0,0,1-.22-.156l-.881-5.183a.187.187,0,0,1,.156-.219l.2-.035a.187.187,0,0,1,.22.156l.881,5.183A.19.19,0,0,1,385.328,289.682Z" transform="translate(-378.598 -272.312)" fill="#4c4199"/>
        <path id="Path_154" data-name="Path 154" d="M388.748,289.022l-.2.035a.187.187,0,0,1-.22-.156l-.881-5.183a.187.187,0,0,1,.156-.22l.2-.035a.187.187,0,0,1,.22.156l.881,5.183A.193.193,0,0,1,388.748,289.022Z" transform="translate(-380.93 -271.862)" fill="#4c4199"/>
        <path id="Path_155" data-name="Path 155" d="M392.158,288.372l-.2.035a.187.187,0,0,1-.22-.156l-.881-5.183a.187.187,0,0,1,.156-.22l.2-.035a.187.187,0,0,1,.22.156l.881,5.183A.19.19,0,0,1,392.158,288.372Z" transform="translate(-383.255 -271.419)" fill="#4c4199"/>
        <path id="Path_156" data-name="Path 156" d="M395.578,287.712l-.2.035a.187.187,0,0,1-.219-.156l-.881-5.183a.187.187,0,0,1,.156-.22l.2-.035a.187.187,0,0,1,.22.156l.881,5.183A.187.187,0,0,1,395.578,287.712Z" transform="translate(-385.587 -270.969)" fill="#4c4199"/>
        <path id="Path_157" data-name="Path 157" d="M399,287.062l-.2.035a.187.187,0,0,1-.22-.156l-.881-5.183a.187.187,0,0,1,.156-.22l.2-.035a.187.187,0,0,1,.22.156l.881,5.183A.2.2,0,0,1,399,287.062Z" transform="translate(-387.919 -270.525)" fill="#4c4199"/>
        <path id="Path_158" data-name="Path 158" d="M402.408,286.4l-.2.035a.187.187,0,0,1-.22-.156L401.1,281.1a.187.187,0,0,1,.156-.22l.2-.035a.187.187,0,0,1,.22.156l.881,5.183A.187.187,0,0,1,402.408,286.4Z" transform="translate(-390.244 -270.075)" fill="#4c4199"/>
        <path id="Path_159" data-name="Path 159" d="M405.828,285.752l-.2.035a.187.187,0,0,1-.22-.156l-.881-5.183a.187.187,0,0,1,.156-.22l.2-.035a.187.187,0,0,1,.22.156l.881,5.183A.19.19,0,0,1,405.828,285.752Z" transform="translate(-392.576 -269.632)" fill="#4c4199"/>
        <g id="Group_75" data-name="Group 75" transform="translate(5.416 15.642)">
          <path id="Path_160" data-name="Path 160" d="M385.431,296.339a4.877,4.877,0,0,0-1.368,4.419c.06.468.534,1.753.608,2.221a24.77,24.77,0,0,1,.487,3.84,6.752,6.752,0,0,0,6.128.188,26.116,26.116,0,0,0,.016-4.661,22.116,22.116,0,0,0-1.562-6.176" transform="translate(-384.003 -296.17)" fill="#594a5f"/>
        </g>
        <g id="Group_76" data-name="Group 76" transform="translate(5.568 5.629)">
          <path id="Path_161" data-name="Path 161" d="M390.019,271.957a14.684,14.684,0,0,0,.076,2.323,5.06,5.06,0,0,1,.076.614.349.349,0,0,1-.121.239,1.671,1.671,0,0,1-.84.325c-1.149.207-2.965.07-3.478.169-.48.1-.977-.067-.977-.36,0-.2.188-.318.2-.719a23.859,23.859,0,0,0-.153-3.773,14.838,14.838,0,0,1-.2-5.078l3.509-1c.27.045.153.869.423.913a4.292,4.292,0,0,1,1.623,2.332,4.745,4.745,0,0,1,.4.811,1.421,1.421,0,0,1,0,1.107A7.771,7.771,0,0,0,390.019,271.957Z" transform="translate(-384.479 -264.7)" fill="#cbaad1"/>
        </g>
        <path id="Path_162" data-name="Path 162" d="M401.287,280.651a14.692,14.692,0,0,0,.076,2.323,5.048,5.048,0,0,1,.076.614.349.349,0,0,1-.121.239v0a8.7,8.7,0,0,0-.251-2.033,7.293,7.293,0,0,1,.153-2.695c.229-.792.315-1.171.315-1.171s.181-.27.306-.474a1.422,1.422,0,0,1,0,1.107A7.656,7.656,0,0,0,401.287,280.651Z" transform="translate(-390.179 -267.764)" fill="#a779b2"/>
        <path id="Path_163" data-name="Path 163" d="M396.074,270.078a1.539,1.539,0,0,1,1.034.178,8,8,0,0,0,2.09.636,10.2,10.2,0,0,1-.067,2.234,8.592,8.592,0,0,0-1.861.076,12.594,12.594,0,0,0-3.36,1.11" transform="translate(-385.342 -262.721)" fill="#cbaad1"/>
        <path id="Path_164" data-name="Path 164" d="M390.887,249.824a2.154,2.154,0,0,0-2.192-1.46c-1.3.13-2.421.951-2.405,1.928a9.288,9.288,0,0,0,.932,2.832,4.443,4.443,0,0,1,.146,1.68l2.892-.105a3.208,3.208,0,0,1,.1-1.219,4.617,4.617,0,0,1,.935-.9.964.964,0,0,0,.239-1.005,7.544,7.544,0,0,0-.35-1.336C391.1,250.079,390.964,249.967,390.887,249.824Z" transform="translate(-380.146 -247.924)" fill="#ffe1bd"/>
        <g id="Group_77" data-name="Group 77" transform="translate(4.938)">
          <path id="Path_165" data-name="Path 165" d="M388.252,254.17c-.175-.207-.445-.312-.6-.535a1.2,1.2,0,0,1-.207-.783,1.5,1.5,0,0,1,.172-.442,1.2,1.2,0,0,0-.115-1.556,1.766,1.766,0,0,1-.366-.554c-.067-.191-.121-.4.064-.512a.248.248,0,0,1,.334,0c.07.064.277.668.315.255a1.477,1.477,0,0,0-.162-1.212c-.041-.086-.235-.417-.207-.493a.973.973,0,0,1,.786.49c.2-.226-.385-1.868-2.189-1.823a3.109,3.109,0,0,0-1.333.248c-.4.207-.856.57-.83.932-.639.124-.729.773-.779,1.018a3.269,3.269,0,0,0-.038,1.056c.067.519.261,1.012.363,1.527a2.26,2.26,0,0,1-.057,1.276c-.159.382-.538.589-.729.964a1.673,1.673,0,0,0,.022,1.534c.248.471.56.783.48,1.362a1.859,1.859,0,0,0,.611,1.769,1.905,1.905,0,0,0,1.378.372,3.17,3.17,0,0,0,1.13-.356,3.061,3.061,0,0,0,1.712-1.575c.248-.55-.115-.627.105-1.19.124-.315.388-.579.42-.929a1.177,1.177,0,0,0-.258-.818C388.265,254.186,388.258,254.18,388.252,254.17Z" transform="translate(-382.499 -247.007)" fill="#00215b"/>
        </g>
      </g>
    </g>
  </g>
  <g id="Group_81" data-name="Group 81" transform="translate(62.998 29.735)">
    <path id="Path_166" data-name="Path 166" d="M558.346,275.187c-.1-.143-.2-.274-.305-.4h0s-.006-.01-.013-.016c-.06-.073-.124-.146-.188-.216a4.834,4.834,0,0,1-1.212-2.577c-.019-1.562-.038-3.735-.057-5.269,0-.43-.006-.811-.013-1.114,0-.127,0-.239,0-.337,0,0,.019-.124.048-.286s.06-.366.092-.528.067-.366.1-.582v-.006a5.843,5.843,0,0,0-.006-1.7,1.886,1.886,0,0,1,.573.124s-.232-.821-.474-1.8c-.089-.347-.175-.713-.258-1.069a13.991,13.991,0,0,1-.312-1.756,23.539,23.539,0,0,1,.34-3.36c.038-.321.07-.652.092-.986q.038-.477.038-.964c0-.1,0-.2-.006-.293a6.035,6.035,0,0,0-.519-2.234c-.045-.1-.089-.194-.14-.286a9.181,9.181,0,0,0-1.06-1.607.977.977,0,0,0-.312-.48,2.959,2.959,0,0,1-.083-.98c.49-.2.993-2.122.767-3.5q-.019-.124-.048-.239c-.283-1.209-1.063-1.683-1.635-1.581-1.241-1.514-3.118.143-3.551.35a5.211,5.211,0,0,1-1.524.484,2.21,2.21,0,0,1-.34.019.69.69,0,0,1-.216-.032c.1,1.282.573,1.884,1.164,2.106a1.606,1.606,0,0,0,.4.1,2.244,2.244,0,0,0,.328.013.919.919,0,0,0,.188.7c.029.045.146.108.159.162a1.547,1.547,0,0,1,0,.528.211.211,0,0,0,0,.045c-.029.134-.06.315-.083.487-.01.1-.019.2-.019.277a.515.515,0,0,0,.019.159c.038.1.172.127.309.124.054,0,.1-.006.153-.013.022.045.041.089.064.134a3.89,3.89,0,0,0,.646.958.884.884,0,0,0,.235.06,3.049,3.049,0,0,0,1.352-.274,2.858,2.858,0,0,1,.1.385c-.127.045-.207.07-.207.07a5.614,5.614,0,0,0,0,.713,2.347,2.347,0,0,0-.235.235,1.448,1.448,0,0,0-.127.159,1.1,1.1,0,0,0-.064.1,11.872,11.872,0,0,0-1.3,2.864c-.134.41-.251.83-.356,1.257,0,.006,0,.013-.006.019-.06.01-.127.022-.2.032-.888.159-2.453.477-4.1.935l-.468.134.01.076c-.255,0-.655-.035-.891-.01-.153.013-.471.309-.77.55-.242.277-.461.525-.395.566a.085.085,0,0,0,.038.01.459.459,0,0,0,.226-.127.2.2,0,0,0,.13,0c.118-.035.3-.255.382-.315.038-.029.134-.089.223-.146a.6.6,0,0,1,.289.006.139.139,0,0,1-.073.169c-.079.051-.267.073-.283.127s0,.153.27.1a1.443,1.443,0,0,0,.56-.229.663.663,0,0,1,.382-.121l.016.1s2.043.019,3.964-.025l.309-.01q-.043.224-.076.449a.744.744,0,0,1-.118.013l-.7.019a.149.149,0,0,0-.054-.013h-6.459l-.477-1.327-.356-.986-.455-1.257-.821-2.278a.2.2,0,0,0-.254-.121l-.083.032a.2.2,0,0,0-.121.258l.76,2.109.455,1.257.353.986.484,1.336c-.153-.127-.239-.143-.216-.01a1.41,1.41,0,0,0,.745.856,4.353,4.353,0,0,0,.837.235.773.773,0,0,0,.331-.01,3.251,3.251,0,0,1,.6-.079l-.006.21s2.11.226,3.57.436c.6.086,1.193.137,1.74.162-.016.153-.035.309-.051.461-.054.528-.1,1.04-.127,1.518-.029.379-.051.735-.07,1.069-.073,1.4-.086,2.37-.143,2.491a1.316,1.316,0,0,0,.815.223q.014.191.029.391v0c-.022.2-.076.99-.15,2.008-.022.35-.051.725-.076,1.114-.111,1.607-.239,3.42-.321,4.416a1.237,1.237,0,0,0-.073.49c0,.111,0,1.231,0,1.365.022.515.067,1.339.121,2.339h2.638c-.016-.1-.035-.191-.054-.283-.006-.035-.013-.067-.019-.1,0-.057-.009-.127-.022-.22a4.369,4.369,0,0,1,.188-2.431c.175-.449.385-.983.611-1.556.363,1.289.665,2.386.792,3.035a.137.137,0,0,0,0,.016c.006.035.013.067.019.1a.807.807,0,0,0,.051.159c.006.016.016.035.022.054a1.675,1.675,0,0,0,.153.3c0,.006.006.01.01.016.15.239.35.547.586.91h3.357C558.4,275.27,558.375,275.228,558.346,275.187Z" transform="translate(-540.482 -240.505)" fill="#5fb0e7" opacity="0.3"/>
  </g>
  <g id="Group_87" data-name="Group 87" transform="translate(62.123 29.733)">
    <g id="Group_82" data-name="Group 82" transform="translate(7.851 43.039)">
      <path id="Path_167" data-name="Path 167" d="M569.4,375.77a14.612,14.612,0,0,0,.019,1.763c.057.258.862.283.961.146a13.508,13.508,0,0,0,.223-1.8" transform="translate(-567.161 -375.77)" fill="#ffe1bd"/>
      <path id="Path_168" data-name="Path 168" d="M565.845,381.183a5.633,5.633,0,0,1-.076.725h-.97l-.048-.162a1.527,1.527,0,0,1-.563.162h-.821c-.6,0-.942-.076-.955-.181-.064-.442.652-.42.84-.42a1.525,1.525,0,0,0,1.241-.522c.092-.2.051-.248.162-.21a.282.282,0,0,1,.166.143.494.494,0,0,0,.506.277.58.58,0,0,0,.328-.159A.337.337,0,0,1,565.845,381.183Z" transform="translate(-562.407 -379.038)" fill="#3a3a3a"/>
    </g>
    <g id="Group_83" data-name="Group 83" transform="translate(18.784 42.559)">
      <path id="Path_169" data-name="Path 169" d="M601.16,374.919s.264.713.382.951.907-.054.945-.22a7.458,7.458,0,0,0-.6-1.39" transform="translate(-599.763 -374.26)" fill="#ffe1bd"/>
      <path id="Path_170" data-name="Path 170" d="M599.789,378.518c.1.258.255.754.255.754l-.735.439-.143-.108a1.414,1.414,0,0,1-.388.4,3.178,3.178,0,0,1-.729.3,1.83,1.83,0,0,1-1.244-.013c-.223-.385.668-.6.843-.668a1.2,1.2,0,0,0,.741-.98c.013-.216-.044-.248.073-.255,0,0,.226-.038.363.3.01,0,.531-.1.665-.426C599.483,378.26,599.687,378.26,599.789,378.518Z" transform="translate(-596.769 -376.991)" fill="#3a3a3a"/>
    </g>
    <g id="Group_85" data-name="Group 85" transform="translate(9.492 19.269)">
      <path id="Path_171" data-name="Path 171" d="M575.234,306.542s.076-.493.14-.811a4.848,4.848,0,0,0-1.158-4.671,12.779,12.779,0,0,1-3.535.986,5.883,5.883,0,0,1-1.521,0,41.191,41.191,0,0,0,.42,5.861Z" transform="translate(-568.649 -301.06)" fill="#594a5f"/>
      <g id="Group_84" data-name="Group 84" transform="translate(1.364 1.582)">
        <path id="Path_172" data-name="Path 172" d="M588.517,352.845a6.91,6.91,0,0,1-1.263.614l-.118-.2c-.083-.15-.166-.305-.255-.461l0,0a.177.177,0,0,0-.013-.025c-.28-.49-.589-1.009-.91-1.543l0,0a.024.024,0,0,0-.006-.013c-1.747-2.864-3.974-6.087-4.766-7.356,0-.006-.01-.01-.01-.016a1.69,1.69,0,0,1-.153-.3c-.006-.019-.016-.038-.022-.054a.874.874,0,0,1-.051-.159c-.006-.032-.013-.064-.019-.1a.134.134,0,0,1,0-.016.677.677,0,0,1,.159-.57.573.573,0,0,1,.1-.092,1.871,1.871,0,0,1,1.992.261l.111.083c.019.013.038.029.057.041a6.783,6.783,0,0,1,1.7,1.7C586.653,347.07,587.614,350.758,588.517,352.845Z" transform="translate(-578.03 -330.8)" fill="#594a5f"/>
        <path id="Path_173" data-name="Path 173" d="M577.166,318.409c.029,1.343-.465,1.651-1.009,1.515a1.51,1.51,0,0,1-.28-.105,2.418,2.418,0,0,1-.913-.814c0-.006-.01-.01-.006-.016a1.623,1.623,0,0,1-.124-.226c-.006-.019-.016-.038-.022-.054a.882.882,0,0,1-.051-.159c-.006-.032-.013-.064-.019-.1a.139.139,0,0,1,0-.016c-.13-.668-.445-1.817-.827-3.156-.216-.757-.452-1.575-.687-2.4a35.56,35.56,0,0,1-1.375-5.609c.07-2.552,3.032-.522,4.454.477a2.159,2.159,0,0,1,.76,1.826c.013.633.07,6.85.1,8.581,0,.045,0,.086,0,.124C577.166,318.333,577.166,318.374,577.166,318.409Z" transform="translate(-571.849 -306.034)" fill="#594a5f"/>
        <path id="Path_174" data-name="Path 174" d="M585.837,339.4a4.986,4.986,0,0,0,1.416,2.813s-1.954-.592-2.062-.7a7.041,7.041,0,0,1-.592-1.5C584.615,339.865,585.837,339.4,585.837,339.4Z" transform="translate(-580.542 -328.784)" fill="#594a5f"/>
      </g>
      <path id="Path_175" data-name="Path 175" d="M585.121,334.978c-.28-.49-.589-1.009-.91-1.543l0,0a.025.025,0,0,0-.006-.013c-1.747-2.864-3.974-6.087-4.766-7.356,0-.006-.01-.01-.01-.016a1.7,1.7,0,0,1-.153-.3c-.006-.019-.016-.038-.022-.054a.873.873,0,0,1-.051-.159c-.006-.032-.013-.064-.019-.1a.146.146,0,0,1,0-.016c-.13-.668-.446-1.817-.827-3.156l2.234-5.991h.815s-.916,2.768-1.292,4.015a18.845,18.845,0,0,0-.509,3.907c-.073,1.569,1.852,4.225,2.4,5.2C582.588,330.432,584.917,334.581,585.121,334.978Z" transform="translate(-574.918 -311.431)" fill="#4c4051"/>
      <path id="Path_176" data-name="Path 176" d="M569.379,349.833c-.041,0-.08,0-.118,0a6.75,6.75,0,0,1-1.285-.1v-.235c.067-3.614-.337-9.529-.41-11.4-.006-.13,0-1.254,0-1.362-.035-1.61,1.575-.175,2.164,1.085a5.011,5.011,0,0,1,.331.967c.1.42.105.888.21,1.365C570.89,342.982,569.633,347.5,569.379,349.833Z" transform="translate(-567.563 -324.904)" fill="#594a5f"/>
      <path id="Path_177" data-name="Path 177" d="M573.223,311.023c-.006.038-2.663,6.631-3.182,8.062v0a.863.863,0,0,1-.633.439,1.441,1.441,0,0,1-1.823-1.537,3.592,3.592,0,0,1,.019-.512c.121-1.149.535-7.5.6-8.117s.2-1.5.525-1.61C570.353,307.236,573.7,308.732,573.223,311.023Z" transform="translate(-567.576 -305.553)" fill="#594a5f"/>
      <path id="Path_178" data-name="Path 178" d="M575.3,340.03a4.559,4.559,0,0,0-.21,2.539c.146,1.225-.395-1.072-.395-1.072l.34-.856Z" transform="translate(-572.429 -327.631)" fill="#594a5f"/>
    </g>
    <path id="Path_179" data-name="Path 179" d="M550.81,285.3a1.574,1.574,0,0,0-.4-.029,1.623,1.623,0,0,1-.14.089v.07a.122.122,0,0,0-.026,0c-.016.01-.267.169-.293.188s-.331.369-.331.369a.181.181,0,0,0,.166.013c.114-.035.3-.255.379-.315.038-.029.134-.089.223-.146a.444.444,0,0,1,.385.064C550.915,285.754,550.81,285.3,550.81,285.3Z" transform="translate(-545.837 -271.019)" fill="#f4d4b3"/>
    <path id="Path_180" data-name="Path 180" d="M551.943,283.68s-.649.21-.853.245-.76-.029-1.06,0a2.962,2.962,0,0,0-.77.554c-.242.274-.458.525-.395.563.137.083.477-.347.757-.547.213-.153.391-.146.487-.079s.054.165-.029.219-.27.073-.283.127,0,.153.271.1a1.42,1.42,0,0,0,.56-.229.687.687,0,0,1,.382-.121c.2-.022,1.2-.2,1.2-.2" transform="translate(-545.316 -269.941)" fill="#ffe1bd"/>
    <path id="Path_181" data-name="Path 181" d="M560.583,280.53l-.2,1.715-.022.172c-.057,0-.111,0-.165.006-.258.01-.525.016-.792.025-1.919.045-3.961.025-3.961.025l-.118-.764a45.509,45.509,0,0,1,4.569-1.066C560.325,280.571,560.583,280.53,560.583,280.53Z" transform="translate(-549.724 -267.793)" fill="#f2dd86"/>
    <g id="Group_86" data-name="Group 86" transform="translate(0 9.136)">
      <path id="Path_182" data-name="Path 182" d="M540.194,275.457l-.083.029a.2.2,0,0,1-.258-.121l-2.11-5.854a.2.2,0,0,1,.121-.258l.083-.029a.2.2,0,0,1,.258.121l2.109,5.854A.2.2,0,0,1,540.194,275.457Z" transform="translate(-537.731 -269.212)" fill="#1c44b5"/>
      <path id="Path_183" data-name="Path 183" d="M551.385,288.513h-6.653a.232.232,0,0,1-.232-.232v-.038a.232.232,0,0,1,.232-.232h6.653a.231.231,0,0,1,.232.232v.038A.229.229,0,0,1,551.385,288.513Z" transform="translate(-542.347 -282.029)" fill="#1c44b5"/>
    </g>
    <path id="Path_184" data-name="Path 184" d="M569.324,280.53l-.2,1.715c-.057.054-.121.118-.188.178-.258.01-.525.016-.792.025a14.966,14.966,0,0,1,.49-1.8C569.066,280.571,569.324,280.53,569.324,280.53Z" transform="translate(-558.465 -267.793)" fill="#f2dd86"/>
    <path id="Path_185" data-name="Path 185" d="M574.487,277.75c-.872-.356-2.173.038-4.629.636s-2.978.051-2.978.051c.089-.185.067-2.374.34-5.078.057-.582.13-1.187.22-1.8a17.762,17.762,0,0,1,2.259-7,4.807,4.807,0,0,1,2.342-1.352,6.931,6.931,0,0,1,1.877,4.61c0,2.078-.55,4.111-.471,5.307A38.86,38.86,0,0,0,574.487,277.75Z" transform="translate(-557.606 -255.977)" fill="#f2dd86"/>
    <path id="Path_186" data-name="Path 186" d="M570.05,277.98a12.619,12.619,0,0,1-2.11.025c.057-.582.131-1.187.22-1.8l.083,0a1.023,1.023,0,0,0,.964-.764c.162-.617.439-1.6.856-2.889.738-2.307,1.508-2.4,1.508-2.4s1.13-.579,1.174.646C572.789,272,571.491,277.8,570.05,277.98Z" transform="translate(-558.328 -260.62)" fill="#dbc87b"/>
    <path id="Path_187" data-name="Path 187" d="M583.9,313.677a2.614,2.614,0,0,0,1.314-1.737l-.519-.91-1.1.509a7.728,7.728,0,0,0-.146,1.04C583.489,312.627,583.9,313.677,583.9,313.677Z" transform="translate(-568.898 -288.589)" fill="#594a5f"/>
    <path id="Path_188" data-name="Path 188" d="M546.489,288.659l-.076-.611a4.718,4.718,0,0,1-.811.038c-.261-.032-.573-.169-.948-.242s-.461.083-.4.172c.073.108.5.159.5.159s.06.054-.172.054h-.242a1.014,1.014,0,0,1-.283-.127c-.041-.041-.086-.083-.134-.137-.248-.264-.407-.347-.379-.169a1.4,1.4,0,0,0,.748.856,4.36,4.36,0,0,0,.837.232.73.73,0,0,0,.331-.01,3.41,3.41,0,0,1,.716-.086c.21.01.34.01.34.01C546.973,288.841,546.728,288.739,546.489,288.659Z" transform="translate(-541.692 -272.683)" fill="#ffe1bd"/>
    <path id="Path_189" data-name="Path 189" d="M560.176,268.85s-.77.089-1.508,2.4c-.414,1.289-.69,2.272-.853,2.889a1.026,1.026,0,0,1-.967.764l-5.4.143-.035,1.075s2.109.229,3.57.436a15.718,15.718,0,0,0,3.672.127c1.445-.178,2.857-6.513,2.79-7.159C561.334,268.507,560.176,268.85,560.176,268.85Z" transform="translate(-547.058 -259.792)" fill="#f2dd86"/>
    <path id="Path_190" data-name="Path 190" d="M567.695,248.13s-.137.274.169.751c.029.045.146.108.162.162a1.81,1.81,0,0,1-.006.573,5.141,5.141,0,0,0,1.088,2.125,3.516,3.516,0,0,0,2.405-.585,1.705,1.705,0,0,0,1.056-1.963,5.4,5.4,0,0,0-1.355-2.806c-.076-.032-2.31.382-2.4.4A16.791,16.791,0,0,0,567.695,248.13Z" transform="translate(-558.14 -244.512)" fill="#ffd1ab"/>
    <path id="Path_191" data-name="Path 191" d="M566.869,244.667a.88.88,0,0,1-.617-.9c-.025-.77-.124-.8-.595-.366s-3.643,2.106-3.917-1.448a3.774,3.774,0,0,0,2.081-.471c.436-.21,2.31-1.868,3.551-.35.611-.108,1.454.436,1.683,1.82s-.277,3.3-.767,3.506c-.315.134-.468-.191-.585-.846-.051-.34.84-1-.1-1.855A.6.6,0,0,0,566.869,244.667Z" transform="translate(-554.101 -240.498)" fill="#2c1e56"/>
    <path id="Path_192" data-name="Path 192" d="M577.978,258.668s-.086,1,.28,1.308a3.1,3.1,0,0,1-1.842.789s.289-.468-.363-1.68S577.978,258.668,577.978,258.668Z" transform="translate(-563.788 -252.711)" fill="#ffd1ab"/>
    <path id="Path_193" data-name="Path 193" d="M576.843,263.547a5.626,5.626,0,0,1,0-.713s1.231-.423,1.82-.535a1.008,1.008,0,0,1,.312.48A9.513,9.513,0,0,1,576.843,263.547Z" transform="translate(-564.39 -255.363)" fill="#dbc87b"/>
    <path id="Path_194" data-name="Path 194" d="M568.6,255.87a4.149,4.149,0,0,0-.127,1.136c.08.22.627.08.627.08Z" transform="translate(-558.678 -250.979)" fill="#ffd1ab"/>
  </g>
  <g id="Group_93" data-name="Group 93" transform="translate(0 3.837)">
    <g id="Group_88" data-name="Group 88" transform="translate(58.967 10.312)">
      <path id="Path_195" data-name="Path 195" d="M556.713,192.408v12.065a.888.888,0,0,1-.888.888H528.7a.889.889,0,0,1-.891-.888V192.408a.889.889,0,0,1,.891-.888h27.124A.888.888,0,0,1,556.713,192.408Z" transform="translate(-527.81 -191.52)" fill="#fff"/>
      <path id="Path_196" data-name="Path 196" d="M556.713,192.408v1.737h-28.9v-1.737a.889.889,0,0,1,.891-.888h27.124A.888.888,0,0,1,556.713,192.408Z" transform="translate(-527.81 -191.52)" fill="#aec1ff"/>
      <path id="Path_197" data-name="Path 197" d="M557.905,203.928v8.327H531.23V209.6c1.075-1.476,2.549-2.456,5.912-.468,3.233,1.912,3.223-4.241,6.92-3.923s4.677,5.835,7.544,1.619S557.905,203.928,557.905,203.928Z" transform="translate(-530.142 -199.846)" fill="#aec1ff" opacity="0.5"/>
      <rect id="Rectangle_31" data-name="Rectangle 31" width="5.256" height="0.356" transform="translate(1.088 4.028)" fill="#aec1ff" opacity="0.5"/>
      <rect id="Rectangle_32" data-name="Rectangle 32" width="8.883" height="0.356" transform="translate(1.088 4.664)" fill="#aec1ff" opacity="0.5"/>
      <rect id="Rectangle_33" data-name="Rectangle 33" width="6.669" height="0.356" transform="translate(1.088 5.301)" fill="#aec1ff" opacity="0.5"/>
      <rect id="Rectangle_34" data-name="Rectangle 34" width="8.047" height="0.356" transform="translate(1.088 5.937)" fill="#aec1ff" opacity="0.5"/>
      <rect id="Rectangle_35" data-name="Rectangle 35" width="5.256" height="0.356" transform="translate(1.088 6.573)" fill="#aec1ff" opacity="0.5"/>
    </g>
    <g id="Group_90" data-name="Group 90" transform="translate(7.852)">
      <path id="Path_198" data-name="Path 198" d="M387.715,200.04a8.6,8.6,0,0,1-16.115,0Z" transform="translate(-370.187 -187.017)" fill="#5fb0e7"/>
      <g id="Group_89" data-name="Group 89">
        <path id="Path_199" data-name="Path 199" d="M368.7,173.21a8.6,8.6,0,0,0-1.075,7.7l8.133-2.79Z" transform="translate(-367.16 -168.724)" fill="#18bdf7"/>
        <path id="Path_200" data-name="Path 200" d="M398.05,159.11v8.6l6.322,5.823a8.595,8.595,0,0,0-6.322-14.419Z" transform="translate(-388.222 -159.11)" fill="#18bdf7"/>
        <path id="Path_201" data-name="Path 201" d="M379.057,161.61A8.577,8.577,0,0,0,372,165.3l7.057,4.906Z" transform="translate(-370.46 -160.815)" fill="#7c7771"/>
        <path id="Path_202" data-name="Path 202" d="M389.16,197.074a8.6,8.6,0,0,0,7.919-2.622l-6.322-5.823Z" transform="translate(-382.16 -179.238)" fill="#b8ecff"/>
        <path id="Path_203" data-name="Path 203" d="M368.62,191.42a8.6,8.6,0,0,0,6.535,5.654l1.6-8.444Z" transform="translate(-368.155 -179.238)" fill="#15a7ce"/>
      </g>
    </g>
    <g id="Group_91" data-name="Group 91" transform="translate(0 25.12)">
      <path id="Path_204" data-name="Path 204" d="M355.177,238.96H343.72a.569.569,0,0,0-.57.57v3.618a.569.569,0,0,0,.57.57h9.5c.048.382.315,1.136,1.7,1.136,0,0-.57-.1-.687-1.136h.948a.569.569,0,0,0,.57-.57V239.53A.569.569,0,0,0,355.177,238.96Z" transform="translate(-342.937 -238.674)" fill="#5fb0e7"/>
      <path id="Path_205" data-name="Path 205" d="M354.507,238.06H343.05a.569.569,0,0,0-.57.57v3.618a.569.569,0,0,0,.57.57h9.5c.048.382.315,1.136,1.7,1.136,0,0-.57-.1-.687-1.136h.948a.569.569,0,0,0,.57-.57V238.63A.569.569,0,0,0,354.507,238.06Z" transform="translate(-342.48 -238.06)" fill="#ebfaff"/>
      <path id="Path_206" data-name="Path 206" d="M355.238,239.943h-11.4a.177.177,0,0,1-.175-.175v-.143a.177.177,0,0,1,.175-.175h11.4a.177.177,0,0,1,.175.175v.14A.173.173,0,0,1,355.238,239.943Z" transform="translate(-343.285 -239.008)" fill="#b2ebf9"/>
      <path id="Path_207" data-name="Path 207" d="M355.238,242.54h-11.4a.177.177,0,0,1-.175-.175v-.14a.177.177,0,0,1,.175-.175h11.4a.177.177,0,0,1,.175.175v.14A.171.171,0,0,1,355.238,242.54Z" transform="translate(-343.285 -240.781)" fill="#b2ebf9"/>
      <path id="Path_208" data-name="Path 208" d="M355.238,245.14h-11.4a.177.177,0,0,1-.175-.175v-.14a.177.177,0,0,1,.175-.175h11.4a.177.177,0,0,1,.175.175v.14A.171.171,0,0,1,355.238,245.14Z" transform="translate(-343.285 -242.553)" fill="#b2ebf9"/>
      <path id="Path_209" data-name="Path 209" d="M355.238,247.74h-11.4a.177.177,0,0,1-.175-.175v-.14a.177.177,0,0,1,.175-.175h11.4a.177.177,0,0,1,.175.175v.14A.172.172,0,0,1,355.238,247.74Z" transform="translate(-343.285 -244.326)" fill="#b2ebf9"/>
      <path id="Path_210" data-name="Path 210" d="M355.238,250.34h-11.4a.177.177,0,0,1-.175-.175v-.14a.177.177,0,0,1,.175-.175h11.4a.177.177,0,0,1,.175.175v.14A.172.172,0,0,1,355.238,250.34Z" transform="translate(-343.285 -246.099)" fill="#b2ebf9"/>
    </g>
    <g id="Group_92" data-name="Group 92" transform="translate(77.662 26.914)">
      <path id="Path_211" data-name="Path 211" d="M587.14,244.6H598.6a.569.569,0,0,1,.57.57v3.618a.569.569,0,0,1-.57.57h-9.5c-.048.382-.315,1.136-1.7,1.136,0,0,.57-.1.687-1.136h-.948a.569.569,0,0,1-.57-.57v-3.614A.572.572,0,0,1,587.14,244.6Z" transform="translate(-586.57 -244.314)" fill="#5fb0e7"/>
      <path id="Path_212" data-name="Path 212" d="M587.809,243.7h11.457a.569.569,0,0,1,.569.57v3.618a.569.569,0,0,1-.569.569h-9.5c-.048.382-.315,1.136-1.7,1.136,0,0,.566-.1.687-1.136h-.948a.569.569,0,0,1-.569-.569v-3.614A.57.57,0,0,1,587.809,243.7Z" transform="translate(-587.027 -243.7)" fill="#ebfaff"/>
      <path id="Path_213" data-name="Path 213" d="M614.537,249.035h3.083a.267.267,0,0,0,.267-.267v-3.2a.267.267,0,0,0-.267-.267h-3.083a.267.267,0,0,0-.267.267v3.2A.265.265,0,0,0,614.537,249.035Z" transform="translate(-605.457 -244.791)" fill="#80d4dd"/>
      <path id="Path_214" data-name="Path 214" d="M588.927,245.768h7.337a.136.136,0,0,0,.137-.137v-.194a.136.136,0,0,0-.137-.137h-7.337a.136.136,0,0,0-.137.137v.194A.138.138,0,0,0,588.927,245.768Z" transform="translate(-588.084 -244.791)" fill="#80d4dd"/>
      <path id="Path_215" data-name="Path 215" d="M594.141,248.328h5.7a.121.121,0,0,0,.121-.121v-.226a.121.121,0,0,0-.121-.121h-5.7a.121.121,0,0,0-.121.121v.226A.121.121,0,0,0,594.141,248.328Z" transform="translate(-591.65 -246.536)" fill="#80d4dd"/>
      <path id="Path_216" data-name="Path 216" d="M588.927,250.9h7.337a.136.136,0,0,0,.137-.137v-.194a.136.136,0,0,0-.137-.137h-7.337a.136.136,0,0,0-.137.137v.194A.136.136,0,0,0,588.927,250.9Z" transform="translate(-588.084 -248.289)" fill="#80d4dd"/>
      <path id="Path_217" data-name="Path 217" d="M590.864,253.454H597.6a.134.134,0,0,0,.134-.134v-.207a.134.134,0,0,0-.134-.134h-6.733a.134.134,0,0,0-.134.134v.207A.134.134,0,0,0,590.864,253.454Z" transform="translate(-589.406 -250.027)" fill="#80d4dd"/>
      <path id="Path_218" data-name="Path 218" d="M603.646,256.031h2.743a.086.086,0,0,0,.086-.086v-.3a.086.086,0,0,0-.086-.086h-2.743a.086.086,0,0,0-.086.086v.3A.086.086,0,0,0,603.646,256.031Z" transform="translate(-598.154 -251.787)" fill="#80d4dd"/>
    </g>
  </g>
  <g id="Group_94" data-name="Group 94" transform="translate(44.671)">
    <path id="Path_219" data-name="Path 219" d="M498.576,172.5H487.01a1.235,1.235,0,0,1,.115-.4c.3-.694,1.365-2.1,5.228-2.724l1.906-.391S498.671,168.974,498.576,172.5Z" transform="translate(-485.696 -162.002)" fill="#89ceb5"/>
    <path id="Path_220" data-name="Path 220" d="M494.742,179.037H487.01a1.236,1.236,0,0,1,.115-.4,1.756,1.756,0,0,1,.916-.006c.283.076.471.124.471.124h5.03C494.522,178.751,494.742,179.037,494.742,179.037Z" transform="translate(-485.696 -168.54)" fill="#89ceb5"/>
    <path id="Path_221" data-name="Path 221" d="M502.39,164.989a1.925,1.925,0,0,1,.267.655.646.646,0,0,0,.662.5c1.689-.1,1.578-1.152,1.578-1.152a7.682,7.682,0,0,1-.56-2.109" transform="translate(-496.183 -157.843)" fill="#ffe1bd"/>
    <path id="Path_222" data-name="Path 222" d="M489.957,153.708s-.07,2.119.878,2.09,0-2.339,0-2.339Z" transform="translate(-487.705 -151.42)" fill="#2c1e56"/>
    <path id="Path_223" data-name="Path 223" d="M496.637,155.913a4.132,4.132,0,0,1,.019.8,1.208,1.208,0,0,1-.032.172,3.618,3.618,0,0,1-2.186,2.294,2.066,2.066,0,0,1-.312.006,2.609,2.609,0,0,1-2.164-1.954c-.013-.035-.025-.07-.038-.1a8.923,8.923,0,0,1-.474-2.176,2.9,2.9,0,0,1,.105-1.161,8.908,8.908,0,0,1,2.45-.535c.044,0,2.183.15,2.183.15A23.87,23.87,0,0,1,496.637,155.913Z" transform="translate(-488.715 -151.284)" fill="#ffe1bd"/>
    <path id="Path_224" data-name="Path 224" d="M498.012,161.44a3.338,3.338,0,0,1-.029.786.809.809,0,0,1-.013.086,3.279,3.279,0,0,1-2.507,2.431c-.1.013-.191.022-.28.025-1.352.054-1.823-.964-2.2-1.973-.013-.035-.025-.07-.038-.1,0,0,.471.751.706.773s-.057-.27.579-.519a3.144,3.144,0,0,1,1.308-.108c.264.035.741.172.907.194a.174.174,0,0,0,.1-.01,3.06,3.06,0,0,0,.85-1.457C497.43,161.38,497.837,161.408,498.012,161.44Z" transform="translate(-489.746 -156.846)" fill="#2c1e56"/>
    <path id="Path_225" data-name="Path 225" d="M488.52,148.685s.07,1.629,2.746.977a2.972,2.972,0,0,1,1.747-.15c.547,1.721.566,2.549.757,2.479.242-.086-.414-1.514.423-1.362.64.118-.029,1.7-.029,1.7s.779.1.8-.261c.013-.216.038-3.3-.493-4.031a1.469,1.469,0,0,0-1.161-.7s-.671-.563-2.249-.1a3.29,3.29,0,0,1-2.405-.076A3.266,3.266,0,0,0,488.52,148.685Z" transform="translate(-486.706 -147.049)" fill="#2c1e56"/>
    <path id="Path_226" data-name="Path 226" d="M499.964,180.033a10.924,10.924,0,0,1-1.282,4.559v0a.353.353,0,0,0-.029.045.12.12,0,0,0-.029.041,32.183,32.183,0,0,1-3.478,4.461c-1.352,1.238-2.9,2.638-2.9,2.638l-.057-.048a3.637,3.637,0,0,0-.445.48c-.105.188-.21.888-.41.967a.385.385,0,0,1-.1.022.617.617,0,0,1-.29.127,1.837,1.837,0,0,1-.627-.064,1.333,1.333,0,0,1-.286.223,6.361,6.361,0,0,1-.754.4c-.223.073-.261,0-.21-.14s.471-.379.627-.5a2.432,2.432,0,0,0,.506-.668c.1-.207.1-.321,0-.321s-.385.178-.608.223-.331-.013-.223-.14a1.747,1.747,0,0,1,.78-.6,1.54,1.54,0,0,0,.732-.3,2.282,2.282,0,0,0,.411-.5l-.089-.08s2.431-3.389,4.248-6.007c.041-.057.08-.1.121-.162a9.759,9.759,0,0,0,1.123-4.365.622.622,0,0,0-.309-.3Z" transform="translate(-487.085 -169.536)" fill="#5fb0e7"/>
    <path id="Path_227" data-name="Path 227" d="M490.733,213.16a4.206,4.206,0,0,1-.649.872,1.54,1.54,0,0,1-.732.3,1.741,1.741,0,0,0-.783.6c-.1.13,0,.188.223.14s.512-.223.608-.223.1.115,0,.321a2.372,2.372,0,0,1-.506.668c-.153.118-.579.353-.624.5s-.013.213.213.14a6.15,6.15,0,0,0,.754-.4,1.335,1.335,0,0,0,.286-.223,1.848,1.848,0,0,0,.627.064.684.684,0,0,0,.293-.127.431.431,0,0,0,.092-.022c.2-.083.305-.776.414-.967a9.025,9.025,0,0,1,.878-.891Z" transform="translate(-486.542 -192.126)" fill="#ffe1bd"/>
    <path id="Path_228" data-name="Path 228" d="M502.49,182.138h0a13.458,13.458,0,0,0,1.534-4.563l-1.464-1-.748.36c-.468-.207-1.273-.509-1.273-.509l-.353,1.145a.627.627,0,0,1,.309.3,9.849,9.849,0,0,1-1.123,4.365c-.041.057-.083.1-.124.165-1.817,2.615-4.248,6-4.248,6l1.04.913s1.556-1.4,2.908-2.634a32.186,32.186,0,0,0,3.478-4.461c.009-.016.019-.029.029-.045A.483.483,0,0,0,502.49,182.138Z" transform="translate(-491.144 -167.082)" fill="#89ceb5"/>
    <path id="Path_229" data-name="Path 229" d="M486.4,180.73a.2.2,0,0,1-.041-.013.877.877,0,0,1,.086.1c.041.045.016.076.016.076-.057.06-.105.054-.178.048a.279.279,0,0,1-.134-.064.2.2,0,0,1-.166.038c-.067-.006-.149-.076-.261-.185a.056.056,0,0,1,0,.054.193.193,0,0,1-.181.048.591.591,0,0,1-.28-.2c-.038-.038-.089-.1-.146-.169-.054-.038-.1-.073-.143-.1a.4.4,0,0,0-.219-.073h-.013v0c-.547-.013-.792-.248-1.464-.248h3.045a.067.067,0,0,0-.019.013,1.193,1.193,0,0,1-.185.035l.016.016q.062.067.115.134c.121.146.283.34.312.369.041.048.016.08.016.08A.194.194,0,0,1,486.4,180.73Z" transform="translate(-483.153 -169.543)" fill="#5fb0e7"/>
    <path id="Path_230" data-name="Path 230" d="M486,179.85a.207.207,0,0,1-.041-.013.878.878,0,0,1,.086.1c.041.045.016.076.016.076-.057.06-.105.054-.178.048a.279.279,0,0,1-.134-.064.2.2,0,0,1-.165.038c-.067-.006-.15-.076-.261-.185a.056.056,0,0,1,0,.054.193.193,0,0,1-.181.048.591.591,0,0,1-.28-.2c-.038-.038-.089-.1-.146-.169-.054-.038-.1-.073-.143-.1a.4.4,0,0,0-.22-.073h-.013v0c-.547-.013-.792-.248-1.464-.248,0,0,1.569-.754,2.517-.22a3.046,3.046,0,0,0,.4.041c.277,0,.2.143.108.188a1.2,1.2,0,0,1-.185.035l.016.016q.062.067.115.134c.121.146.283.34.312.369.041.048.016.08.016.08A.189.189,0,0,1,486,179.85Z" transform="translate(-482.88 -168.662)" fill="#ffe1bd"/>
    <path id="Path_231" data-name="Path 231" d="M491.309,179.589a1.19,1.19,0,0,1-.184.035,2.431,2.431,0,0,0-.324-.264,3.045,3.045,0,0,0,.4.041C491.475,179.4,491.4,179.541,491.309,179.589Z" transform="translate(-488.28 -169.08)" opacity="0.47" fill="url(#linear-gradient-2)"/>
  </g>
</svg>
