<?xml version="1.0" encoding="UTF-8"?>
<svg id="Capa_1" data-name="Capa 1" xmlns="http://www.w3.org/2000/svg" version="1.1" viewBox="0 0 484.4 484.4">
  <defs>
    <style>
      .cls-1 {
        fill: #0b3d6c;
        stroke-width: 0px;
      }
    </style>
  </defs>
  <path class="cls-1" d="M448,88.2l2-7.9v-1c3-33.5-34.5-46.3-36.4-46.3h-1c-1-1-32.5-5.9-51.2,12.8-14.8,14.8-14.8,37.4-13.8,47.3-3,3.9-6.9,11.8-5.9,19.7,0,5.9,3,12.8,11.8,19.7,5.9,24.6,21.7,37.4,48.2,37.4s2,0,3-1c26.6-1,36.4-23.6,38.4-39.4,7.9-5.9,9.8-13.8,10.8-18.7,1-9.8-3-17.7-5.9-22.6ZM435.2,109.8c0,1,0,3.9-5.9,7.9l-3.9,3v4.9c-1,1-1,23.6-20.7,24.6-22.6,0-29.5-9.8-32.5-26.6l-1-4.9-5.9-3c-2-1-3.9-3-4.9-3.9,0-3,3-6.9,3.9-7.9l3.9-3.9-1-4.9c0-1-3-23.6,7.9-34.5,8.9-8.9,26.6-8.9,33.5-7.9,3.9,1,23.6,8.9,22.6,24.6l-3,16.7,3,3.9c1,2,4.9,6.9,3.9,11.8Z"/>
  <path class="cls-1" d="M474.6,181.7l-40.4-20.7-1-6.9-19.7,3,3,16.7,35.4,17.7c-13.8,11.8-28.6,16.7-52.2,16.7s-38.4-4.9-53.2-16.7l35.4-23.6v-18.7h-19.7v7.9l-47.3,31.5,8.9,8.9c21.7,21.7,45.3,31.5,75.8,31.5s55.1-8.9,76.8-32.5l7.9-8.9-9.8-5.9Z"/>
  <path class="cls-1" d="M132.9,88.2l2-7.9v-1c3-33.5-34.5-46.3-36.4-46.3h-1c-1-1-32.5-5.9-51.2,12.8-14.8,14.8-14.8,37.4-13.8,47.3-3,3.9-6.9,11.8-5.9,19.7,0,5.9,3,12.8,11.8,19.7,5.9,24.6,21.7,37.4,48.2,37.4s2,0,3-1c26.6-1,36.4-23.6,38.4-39.4,7.9-5.9,9.8-13.8,10.8-18.7,1-9.8-3-17.7-5.9-22.6ZM120.1,109.8c0,1,0,3.9-5.9,7.9l-3.9,3v4.9c-1,1-1,23.6-20.7,24.6-22.6,0-29.5-9.8-32.5-26.6l-1-4.9-5.9-3c-2-1-3.9-3-4.9-3.9,0-3,3-6.9,3.9-7.9l3.9-3.9-1-4.9c0-1-3-23.6,7.9-34.5,8.9-8.9,26.6-8.9,33.5-7.9,3.9,1,23.6,8.9,22.6,24.6l-3,16.7,3,3.9c1,2,4.9,6.9,3.9,11.8Z"/>
  <path class="cls-1" d="M159.5,181.7l-40.4-20.7-1-6.9-19.7,3,3,16.7,35.4,17.7c-13.8,11.8-28.6,16.7-52.2,16.7s-38.4-4.9-53.2-16.7l35.4-23.6v-18.7h-19.7v7.9L0,188.6l8.9,8.9c21.7,21.7,45.3,31.5,75.8,31.5s55.1-8.9,76.8-32.5l7.9-8.9-9.8-5.9Z"/>
  <path class="cls-1" d="M285.5,55.7l1-6.9v-1c2-31.5-31.5-42.3-32.5-42.3h-1c-1-1-28.6-4.9-45.3,11.8-12.8,13.8-12.8,33.5-11.8,42.3-2,3.9-5.9,9.8-4.9,17.7,1,4.9,3,11.8,10.8,17.7,4.9,23.6,18.7,34.5,42.3,34.5s2,0,3-1c23.6-1,32.5-21.7,34.5-35.4,5.9-5.9,7.9-11.8,8.9-16.7,1-8.9-2-16.7-4.9-20.7ZM266.8,81.3l-3.9,3v4.9s-1,19.7-15.8,20.7c-16.7,0-23.6-5.9-26.6-22.6l-1-4.9-5.9-3c-1-1-3-2-1-3,0-2,2-4.9,3-5.9l3.9-3.9-1-4.9c-1-4.9-2-21.7,5.9-29.5,6.9-7.9,20.7-7.9,26.6-6.9,3,1,17.7,6.9,17.7,20.7l-3,14.8,3,3.9c0,1,3,5.9,3,9.8,0,1-1,3.9-4.9,6.9Z"/>
  <path class="cls-1" d="M308.2,137.4l-33.5-17.7-1-4.9-19.7,3,2,15.8,29.5,15.8c-11.8,9.8-24.6,13.8-43.3,13.8s-30.5-3.9-43.3-13.8l29.5-20.7v-16.7h-19.7v6.9l-40.4,28.6,7.9,7.9c18.7,18.7,39.4,27.6,66,27.6s48.2-8.9,67.9-31.5l6.9-7.9-8.9-5.9Z"/>
  <path class="cls-1" d="M294.4,224.1h-150.6v256h196.9v-185.1l-46.3-70.9ZM321,460.4h-157.5v-216.6h120.1l37.4,57.1v159.5h0Z"/>
  <polygon class="cls-1" points="301.3 289 301.3 236.9 281.6 236.9 281.6 308.7 335.8 308.7 335.8 289 301.3 289"/>
  <rect class="cls-1" x="232.4" y="173.8" width="19.7" height="56.1"/>
  <rect class="cls-1" x="183.1" y="340.2" width="98.5" height="19.7"/>
  <rect class="cls-1" x="183.1" y="379.6" width="118.2" height="19.7"/>
  <rect class="cls-1" x="183.1" y="419" width="118.2" height="19.7"/>
  <polygon class="cls-1" points="389.9 219.1 389.9 379.6 330.8 379.6 330.8 399.3 409.6 399.3 409.6 219.1 389.9 219.1"/>
  <polygon class="cls-1" points="94.5 379.6 94.5 219.1 74.8 219.1 74.8 399.3 153.6 399.3 153.6 379.6 94.5 379.6"/>
</svg>