<svg id="compatibility" xmlns="http://www.w3.org/2000/svg" xmlns:xlink="http://www.w3.org/1999/xlink" width="87.813" height="90.476" viewBox="0 0 87.813 90.476">
  <defs>
    <linearGradient id="linear-gradient" x1="0.422" y1="0.517" x2="0.352" y2="0.841" gradientUnits="objectBoundingBox">
      <stop offset="0" stop-color="#40447e"/>
      <stop offset="0.996" stop-color="#3c3b6b"/>
    </linearGradient>
    <linearGradient id="linear-gradient-2" x1="0.48" y1="0.467" x2="0.372" y2="0.528" xlink:href="#linear-gradient"/>
    <linearGradient id="linear-gradient-3" x1="0" y1="0.5" x2="1" y2="0.5" xlink:href="#linear-gradient"/>
    <linearGradient id="linear-gradient-4" x1="0.86" y1="-0.265" x2="-0.019" y2="1.502" gradientUnits="objectBoundingBox">
      <stop offset="0.914" stop-color="#ccc"/>
      <stop offset="0.996" stop-color="#f36f56"/>
    </linearGradient>
    <linearGradient id="linear-gradient-6" y1="0.5" x2="1" y2="0.5" gradientUnits="objectBoundingBox">
      <stop offset="0" stop-color="#ff9085"/>
      <stop offset="1" stop-color="#fb6fbb"/>
    </linearGradient>
    <linearGradient id="linear-gradient-8" x1="1.095" y1="0.828" x2="0.375" y2="0.425" gradientUnits="objectBoundingBox">
      <stop offset="0" stop-color="#444b8c"/>
      <stop offset="0.996" stop-color="#26264f"/>
    </linearGradient>
    <linearGradient id="linear-gradient-9" x1="-5.913" y1="1.788" x2="-3.355" y2="1.85" xlink:href="#linear-gradient-8"/>
    <linearGradient id="linear-gradient-10" x1="0.744" y1="0.267" x2="-0.229" y2="1.123" xlink:href="#linear-gradient-4"/>
    <linearGradient id="linear-gradient-11" x1="0" y1="0.5" x2="1" y2="0.5" xlink:href="#linear-gradient-6"/>
    <linearGradient id="linear-gradient-12" x1="1.189" y1="0.799" x2="0.354" y2="0.433" xlink:href="#linear-gradient-8"/>
    <linearGradient id="linear-gradient-13" x1="-12.996" y1="2.737" x2="-9.753" y2="2.799" xlink:href="#linear-gradient-8"/>
    <linearGradient id="linear-gradient-14" x1="0.79" y1="0.283" x2="-0.364" y2="1.08" xlink:href="#linear-gradient-4"/>
  </defs>
  <g id="Illustration" transform="translate(0 0)">
    <g id="Group_138" data-name="Group 138">
      <path id="Path_268" data-name="Path 268" d="M3022.232,1540.583a.452.452,0,0,1-.451-.452v-1.355a.452.452,0,0,1,.9,0v1.355A.452.452,0,0,1,3022.232,1540.583Zm0-3.387a.452.452,0,0,1-.451-.452v-1.355a.452.452,0,0,1,.9,0v1.355A.452.452,0,0,1,3022.232,1537.2Zm0-3.387a.452.452,0,0,1-.451-.452V1532a.452.452,0,1,1,.9,0v1.355A.452.452,0,0,1,3022.232,1533.809Zm0-3.387a.452.452,0,0,1-.451-.451v-1.355a.452.452,0,0,1,.9,0v1.355A.452.452,0,0,1,3022.232,1530.422Zm0-3.387a.452.452,0,0,1-.451-.452v-1.355a.452.452,0,0,1,.9,0v1.355A.452.452,0,0,1,3022.232,1527.034Zm0-3.387a.452.452,0,0,1-.451-.452v-1.355a.452.452,0,0,1,.9,0v1.355A.452.452,0,0,1,3022.232,1523.647Zm0-3.387a.452.452,0,0,1-.451-.452v-1.355a.452.452,0,0,1,.9,0v1.355A.452.452,0,0,1,3022.232,1520.26Zm0-3.388a.452.452,0,0,1-.451-.452v-1.355a.452.452,0,0,1,.9,0v1.355A.452.452,0,0,1,3022.232,1516.873Zm0-3.387a.452.452,0,0,1-.451-.452v-1.355a.452.452,0,1,1,.9,0v1.355A.452.452,0,0,1,3022.232,1513.486Zm0-3.387a.452.452,0,0,1-.451-.452v-1.355a.452.452,0,0,1,.9,0v1.355A.452.452,0,0,1,3022.232,1510.1Z" transform="translate(-2939.49 -1473.815)" fill="#315f8c"/>
      <g id="Group_119" data-name="Group 119" transform="translate(0 10.95)">
        <g id="Group_115" data-name="Group 115">
          <g id="Group_114" data-name="Group 114">
            <g id="Group_113" data-name="Group 113">
              <path id="Path_269" data-name="Path 269" d="M542.688,821.818l-2.606-.152a18.6,18.6,0,0,0-.913-5l2.28-1.146a1.305,1.305,0,0,0,.567-1.733l-.826-1.721a1.273,1.273,0,0,0-1.7-.617l-2.25,1.1a19.212,19.212,0,0,0-3.362-4.015l1.381-2.074a1.355,1.355,0,0,0-.368-1.844l-1.6-1.133a1.291,1.291,0,0,0-1.828.306l-1.382,2.052a19.519,19.519,0,0,0-5.095-1.895l.151-2.523a1.438,1.438,0,0,0-1.285-1.493l-2.022-.214a1.307,1.307,0,0,0-1.47,1.215l-.153,2.551a19.773,19.773,0,0,0-5.509.915l-1.215-2.387a1.52,1.52,0,0,0-1.94-.7l-1.912.84a1.333,1.333,0,0,0-.65,1.856l1.261,2.444a19.618,19.618,0,0,0-4.3,3.613l-2.451-1.588a1.546,1.546,0,0,0-2.089.35l-1.223,1.719a1.388,1.388,0,0,0,.439,1.984l2.538,1.61a18.775,18.775,0,0,0-1.755,5.266l-3.149-.184a1.494,1.494,0,0,0-1.623,1.342l-.126,2.1a1.469,1.469,0,0,0,1.452,1.505l3.235.154a18.587,18.587,0,0,0,1.265,5.3l-2.95,1.448a1.4,1.4,0,0,0-.674,1.925l1.009,1.838a1.534,1.534,0,0,0,2.033.568l2.986-1.5a19.277,19.277,0,0,0,3.768,3.8l-1.833,2.722a1.321,1.321,0,0,0,.423,1.913l1.8,1.036a1.535,1.535,0,0,0,2.012-.494l1.82-2.735a19.6,19.6,0,0,0,5.074,1.374l-.19,3.16a1.286,1.286,0,0,0,1.315,1.363h2.035a1.464,1.464,0,0,0,1.456-1.348l.188-3.125a19.746,19.746,0,0,0,5-1.224l1.376,2.667a1.282,1.282,0,0,0,1.78.5l1.729-.957a1.367,1.367,0,0,0,.586-1.793l-1.334-2.621a19.573,19.573,0,0,0,3.739-3.406l2.4,1.521a1.285,1.285,0,0,0,1.765-.434l1.026-1.623a1.3,1.3,0,0,0-.356-1.782l-2.315-1.5a18.765,18.765,0,0,0,1.623-4.752l2.678.127a1.288,1.288,0,0,0,1.325-1.226l.113-1.889A1.265,1.265,0,0,0,542.688,821.818ZM520.659,836.1A13.515,13.515,0,0,1,507.3,821.874a13.723,13.723,0,0,1,14.977-12.7,13.533,13.533,0,0,1,12.5,14.18A13.746,13.746,0,0,1,520.659,836.1Z" transform="translate(-496.495 -799.714)" fill="#bfc8d6"/>
              <path id="Path_270" data-name="Path 270" d="M959.412,845.246l-1.852-.176-.74,1.625Z" transform="translate(-941.82 -843.592)" fill="#bfc8d6"/>
              <path id="Path_271" data-name="Path 271" d="M1599.66,907.96l2.139.15-.1,1.578Z" transform="translate(-1563.712 -904.433)" fill="#bfc8d6"/>
              <path id="Path_272" data-name="Path 272" d="M1835.89,1156.67l2.128.214-.6,1.162Z" transform="translate(-1792.244 -1145.038)" fill="#bfc8d6"/>
              <path id="Path_273" data-name="Path 273" d="M1919.67,1479.05l2.144.3-.767,1Z" transform="translate(-1873.294 -1456.913)" fill="#bfc8d6"/>
              <path id="Path_274" data-name="Path 274" d="M1782.43,1888.477l2.072.424.359-1.691Z" transform="translate(-1740.526 -1851.772)" fill="#bfc8d6"/>
              <path id="Path_275" data-name="Path 275" d="M1522.75,2120.234l1.857.454.232-1.378Z" transform="translate(-1489.308 -2076.309)" fill="#bfc8d6"/>
              <path id="Path_276" data-name="Path 276" d="M1179.088,2159.218l-1.667-.4,1.58-2.067Z" transform="translate(-1155.231 -2112.529)" fill="#bfc8d6"/>
              <path id="Path_277" data-name="Path 277" d="M894.218,2092.7l-1.938-.523,1.625-1.743Z" transform="translate(-879.383 -2048.37)" fill="#bfc8d6"/>
              <path id="Path_278" data-name="Path 278" d="M678.15,1060.85l2.044.187-.9,1.445Z" transform="translate(-672.231 -1052.341)" fill="#bfc8d6"/>
              <path id="Path_279" data-name="Path 279" d="M523.5,1511.975l1.86.39-.057-1.545Z" transform="translate(-522.62 -1487.648)" fill="#bfc8d6"/>
              <path id="Path_280" data-name="Path 280" d="M626.49,1874.979l1.816.409.223-1.207Z" transform="translate(-622.254 -1839.167)" fill="#bfc8d6"/>
            </g>
            <path id="Path_281" data-name="Path 281" d="M595.6,825.565l-2.627-.154a18.749,18.749,0,0,0-.921-5.039l2.3-1.155a1.316,1.316,0,0,0,.572-1.747l-.833-1.735a1.283,1.283,0,0,0-1.716-.622l-2.269,1.113a19.336,19.336,0,0,0-3.39-4.047l1.392-2.091a1.367,1.367,0,0,0-.371-1.859l-1.617-1.143a1.3,1.3,0,0,0-1.843.309l-1.393,2.069a19.688,19.688,0,0,0-5.137-1.91l.153-2.544a1.451,1.451,0,0,0-1.3-1.5l-2.039-.216a1.318,1.318,0,0,0-1.482,1.225l-.154,2.572a19.92,19.92,0,0,0-5.555.923l-1.225-2.407a1.532,1.532,0,0,0-1.956-.709l-1.928.847a1.343,1.343,0,0,0-.655,1.871l1.271,2.464a19.778,19.778,0,0,0-4.337,3.643l-2.471-1.6a1.559,1.559,0,0,0-2.106.353l-1.233,1.733a1.4,1.4,0,0,0,.443,2l2.559,1.623a18.925,18.925,0,0,0-1.769,5.309l-3.175-.185a1.506,1.506,0,0,0-1.636,1.353l-.127,2.12a1.481,1.481,0,0,0,1.464,1.518l3.262.155a18.736,18.736,0,0,0,1.276,5.341l-2.975,1.46a1.411,1.411,0,0,0-.68,1.941l1.017,1.852a1.548,1.548,0,0,0,2.05.573l3.011-1.512a19.438,19.438,0,0,0,3.8,3.83l-1.848,2.744a1.332,1.332,0,0,0,.427,1.929l1.814,1.045a1.547,1.547,0,0,0,2.028-.5l1.835-2.758a19.762,19.762,0,0,0,5.116,1.385l-.191,3.185a1.3,1.3,0,0,0,1.326,1.374h2.052a1.476,1.476,0,0,0,1.468-1.358l.189-3.151a19.9,19.9,0,0,0,5.046-1.234l1.388,2.689a1.292,1.292,0,0,0,1.795.5l1.743-.965a1.378,1.378,0,0,0,.591-1.807l-1.345-2.642a19.738,19.738,0,0,0,3.77-3.434l2.416,1.533a1.3,1.3,0,0,0,1.78-.437l1.035-1.635a1.3,1.3,0,0,0-.358-1.8l-2.334-1.512a18.919,18.919,0,0,0,1.636-4.791l2.7.129a1.3,1.3,0,0,0,1.336-1.237l.114-1.9A1.277,1.277,0,0,0,595.6,825.565Zm-22.212,14.4a13.626,13.626,0,0,1-13.47-14.342,13.835,13.835,0,0,1,15.1-12.808,13.645,13.645,0,0,1,12.6,14.3A13.859,13.859,0,0,1,573.389,839.963Z" transform="translate(-547.313 -803.166)" fill="#d8dee8"/>
          </g>
        </g>
        <g id="Group_118" data-name="Group 118" transform="translate(46.128 27.423)">
          <g id="Group_117" data-name="Group 117">
            <g id="Group_116" data-name="Group 116">
              <path id="Path_282" data-name="Path 282" d="M1936.993,1655.448l-1.386-.345a10.177,10.177,0,0,0,.014-2.78l1.342-.386a.714.714,0,0,0,.48-.875l-.27-1.008a.7.7,0,0,0-.853-.5l-1.321.366a10.5,10.5,0,0,0-1.4-2.5l.952-.977a.742.742,0,0,0-.012-1.029l-.748-.771a.706.706,0,0,0-1.014-.02l-.95.964a10.687,10.687,0,0,0-2.549-1.533l.336-1.342a.787.787,0,0,0-.541-.932l-1.066-.319a.716.716,0,0,0-.913.505l-.34,1.356a10.811,10.811,0,0,0-3.055-.064l-.412-1.407a.832.832,0,0,0-.972-.574l-1.113.258a.73.73,0,0,0-.537.933l.432,1.441a10.744,10.744,0,0,0-2.678,1.509l-1.157-1.1a.846.846,0,0,0-1.158-.023l-.831.8a.759.759,0,0,0,.036,1.111l1.2,1.122a10.278,10.278,0,0,0-1.475,2.655l-1.675-.417a.817.817,0,0,0-1.008.558l-.28,1.118a.8.8,0,0,0,.629.956l1.724.409a10.176,10.176,0,0,0,.146,2.977l-1.733.481a.765.765,0,0,0-.557.967l.357,1.09a.84.84,0,0,0,1.036.511l1.757-.505a10.561,10.561,0,0,0,1.643,2.423l-1.261,1.279a.723.723,0,0,0,.035,1.072l.863.739a.84.84,0,0,0,1.132-.062l1.255-1.287a10.749,10.749,0,0,0,2.59,1.251l-.421,1.68a.7.7,0,0,0,.569.866l1.094.206a.8.8,0,0,0,.919-.577l.416-1.662a10.83,10.83,0,0,0,2.815-.153l.471,1.573a.7.7,0,0,0,.907.447l1.026-.34a.748.748,0,0,0,.5-.905l-.453-1.544a10.711,10.711,0,0,0,2.355-1.454l1.135,1.06a.7.7,0,0,0,.993-.055l.716-.769a.708.708,0,0,0-.011-.994l-1.094-1.041a10.278,10.278,0,0,0,1.353-2.392l1.427.339a.7.7,0,0,0,.837-.526l.252-1A.694.694,0,0,0,1936.993,1655.448ZM1923.7,1660.9a7.4,7.4,0,0,1-5.748-9,7.509,7.509,0,0,1,9.337-5.321,7.405,7.405,0,0,1,5.29,8.888A7.522,7.522,0,0,1,1923.7,1660.9Z" transform="translate(-1912.044 -1641.256)" fill="#bfc8d6"/>
              <path id="Path_283" data-name="Path 283" d="M2223.291,1642.3l-.978-.281-.562.8Z" transform="translate(-2211.658 -1641.995)" fill="#bfc8d6"/>
              <path id="Path_284" data-name="Path 284" d="M2566.16,1738.45l1.135.3-.21.839Z" transform="translate(-2544.845 -1735.283)" fill="#bfc8d6"/>
              <path id="Path_285" data-name="Path 285" d="M2668.091,1896.06l1.123.33-.443.564Z" transform="translate(-2643.453 -1887.757)" fill="#bfc8d6"/>
              <path id="Path_286" data-name="Path 286" d="M2680.6,2077.89l1.123.378-.514.462Z" transform="translate(-2655.555 -2063.662)" fill="#bfc8d6"/>
              <path id="Path_287" data-name="Path 287" d="M2561.66,2291.506l1.072.438.363-.873Z" transform="translate(-2540.491 -2269.895)" fill="#bfc8d6"/>
              <path id="Path_288" data-name="Path 288" d="M2399.63,2388.906l.953.431.264-.717Z" transform="translate(-2383.741 -2364.266)" fill="#bfc8d6"/>
              <path id="Path_289" data-name="Path 289" d="M2207.447,2373.646l-.856-.383,1.058-.952Z" transform="translate(-2196.992 -2348.487)" fill="#bfc8d6"/>
              <path id="Path_290" data-name="Path 290" d="M2061.93,2309.241l-.99-.477,1.05-.774Z" transform="translate(-2056.088 -2286.264)" fill="#bfc8d6"/>
              <path id="Path_291" data-name="Path 291" d="M2055.14,1727.63l1.08.307-.63.686Z" transform="translate(-2050.477 -1724.815)" fill="#bfc8d6"/>
              <path id="Path_292" data-name="Path 292" d="M1922.96,1960.039l.961.4.125-.836Z" transform="translate(-1922.604 -1949.226)" fill="#bfc8d6"/>
              <path id="Path_293" data-name="Path 293" d="M1942.76,2166.364l.936.4.242-.627Z" transform="translate(-1941.759 -2149.036)" fill="#bfc8d6"/>
            </g>
            <path id="Path_294" data-name="Path 294" d="M1964.514,1663.34l-1.4-.348a10.259,10.259,0,0,0,.014-2.8l1.353-.389a.72.72,0,0,0,.484-.882l-.273-1.017a.7.7,0,0,0-.86-.508l-1.333.37a10.594,10.594,0,0,0-1.414-2.519l.96-.984a.748.748,0,0,0-.012-1.037l-.754-.778a.712.712,0,0,0-1.022-.02l-.958.972a10.79,10.79,0,0,0-2.57-1.546l.339-1.353a.793.793,0,0,0-.545-.94l-1.075-.322a.721.721,0,0,0-.92.509l-.343,1.367a10.9,10.9,0,0,0-3.081-.065l-.416-1.418a.838.838,0,0,0-.98-.579l-1.122.261a.735.735,0,0,0-.541.94l.435,1.453a10.818,10.818,0,0,0-2.7,1.521l-1.167-1.11a.853.853,0,0,0-1.168-.023l-.838.808a.765.765,0,0,0,.036,1.121l1.212,1.131a10.358,10.358,0,0,0-1.487,2.676l-1.689-.42a.824.824,0,0,0-1.017.563l-.282,1.127a.81.81,0,0,0,.634.964l1.738.413a10.261,10.261,0,0,0,.147,3l-1.747.485a.772.772,0,0,0-.561.975l.36,1.1a.846.846,0,0,0,1.045.515l1.772-.509a10.641,10.641,0,0,0,1.657,2.443l-1.271,1.289a.729.729,0,0,0,.035,1.08l.87.745a.847.847,0,0,0,1.141-.063l1.265-1.3a10.813,10.813,0,0,0,2.612,1.261l-.425,1.694a.709.709,0,0,0,.574.873l1.1.208a.807.807,0,0,0,.927-.582l.42-1.675a10.9,10.9,0,0,0,2.838-.154l.475,1.586a.707.707,0,0,0,.914.451l1.035-.343a.754.754,0,0,0,.5-.913l-.457-1.557a10.793,10.793,0,0,0,2.374-1.466l1.144,1.068a.709.709,0,0,0,1-.056l.722-.775a.714.714,0,0,0-.011-1l-1.1-1.049a10.34,10.34,0,0,0,1.364-2.411l1.439.342a.71.71,0,0,0,.844-.53l.254-1.012A.7.7,0,0,0,1964.514,1663.34Zm-13.4,5.5a7.456,7.456,0,0,1-5.8-9.073,7.571,7.571,0,0,1,9.415-5.363,7.466,7.466,0,0,1,5.334,8.96A7.584,7.584,0,0,1,1951.115,1668.841Z" transform="translate(-1938.468 -1648.778)" fill="#d8dee8"/>
          </g>
        </g>
      </g>
      <g id="Group_130" data-name="Group 130" transform="translate(5.345 36.571)">
        <g id="Group_121" data-name="Group 121">
          <path id="Path_295" data-name="Path 295" d="M759.641,2743.161l-74.721-.651v1.926a1.022,1.022,0,0,0,.767,1.046l21.129,3.792a2.892,2.892,0,0,0,.758.036l51.255-4.323a.972.972,0,0,0,.812-1.021Z" transform="translate(-684.125 -2704.823)" fill="url(#linear-gradient)"/>
          <path id="Path_296" data-name="Path 296" d="M711.982,1621.188l-49.845,3.523a1.485,1.485,0,0,1-1.617-1.5v-35.634a1.615,1.615,0,0,1,1.617-1.61h49.845a1.4,1.4,0,0,1,1.329,1.456v32.212A1.522,1.522,0,0,1,711.982,1621.188Z" transform="translate(-660.52 -1585.97)" fill="url(#linear-gradient-2)"/>
          <path id="Path_297" data-name="Path 297" d="M736.372,1621.188l-49.845,3.523a1.485,1.485,0,0,1-1.617-1.5v-35.634a1.615,1.615,0,0,1,1.617-1.61h49.845a1.4,1.4,0,0,1,1.329,1.456v32.212A1.522,1.522,0,0,1,736.372,1621.188Z" transform="translate(-684.115 -1585.97)" fill="url(#linear-gradient-3)"/>
          <path id="Path_298" data-name="Path 298" d="M799.191,1680.327l-46.426,3.06a1.216,1.216,0,0,1-1.316-1.228v-31.2a1.322,1.322,0,0,1,1.316-1.32l46.426-.192a1.144,1.144,0,0,1,1.1,1.193v28.415A1.246,1.246,0,0,1,799.191,1680.327Z" transform="translate(-748.487 -1647.381)" fill="url(#linear-gradient-4)"/>
          <path id="Path_299" data-name="Path 299" d="M735.139,2661.485l-50.219,3.708,21.9,3.929a2.9,2.9,0,0,0,.758.035l52.067-4.392-23.7-3.256A3.852,3.852,0,0,0,735.139,2661.485Z" transform="translate(-684.125 -2626.428)" fill="url(#linear-gradient-3)"/>
          <g id="Group_120" data-name="Group 120" transform="translate(23.21 10.518)">
            <ellipse id="Ellipse_4" data-name="Ellipse 4" cx="8.042" cy="8.145" rx="8.042" ry="8.145" fill="#fff"/>
            <path id="Path_300" data-name="Path 300" d="M1491.523,2021.383a.993.993,0,0,1-.853-.489l-3.025-5.1a1.015,1.015,0,0,1,.341-1.383.988.988,0,0,1,1.366.345l2.1,3.541,2.776-5.523a.989.989,0,0,1,1.339-.441,1.014,1.014,0,0,1,.435,1.356l-3.592,7.145a1,1,0,0,1-.852.55Z" transform="translate(-1483.764 -2008.849)" fill="url(#linear-gradient-6)"/>
          </g>
          <path id="Path_301" data-name="Path 301" d="M909.78,2685.433l41.809-3.133,12.939,1.763-41.448,3.349Z" transform="translate(-901.658 -2646.574)" opacity="0.3" fill="url(#linear-gradient-3)"/>
        </g>
        <g id="Group_125" data-name="Group 125" transform="translate(51.248 20.711)">
          <g id="Group_123" data-name="Group 123">
            <g id="Group_122" data-name="Group 122">
              <path id="Path_302" data-name="Path 302" d="M2253.315,2238.248v27.82c0,.416-.455.538-.972.588l-17.861,2-.273.026c-.561.054-1.02-.257-1.02-.691v-29.071a.967.967,0,0,1,1.02-.823l.37-.012,17.924.058C2253.021,2238.126,2253.315,2237.832,2253.315,2238.248Z" transform="translate(-2233.19 -2237.489)" fill="url(#linear-gradient-8)"/>
              <path id="Path_303" data-name="Path 303" d="M2270.564,2222.27v27.813a.973.973,0,0,1-.937.847l-18.157,1.764c-.56.054-1.019-.256-1.019-.691v-29.063a.966.966,0,0,1,1.019-.822l18.157-.573A.831.831,0,0,1,2270.564,2222.27Z" transform="translate(-2249.888 -2221.542)" fill="url(#linear-gradient-9)"/>
              <path id="Path_304" data-name="Path 304" d="M2288.8,2271.755v25.773a.909.909,0,0,1-.877.79l-17.073,1.636c-.521.049-.948-.241-.948-.646v-26.859a.9.9,0,0,1,.948-.769l17.073-.6A.774.774,0,0,1,2288.8,2271.755Z" transform="translate(-2268.704 -2269.465)" fill="url(#linear-gradient-10)"/>
            </g>
          </g>
          <g id="Group_124" data-name="Group 124" transform="translate(4.781 7.672)">
            <path id="Path_305" data-name="Path 305" d="M2392.493,2462.915a6.823,6.823,0,0,1-6.277,6.724,5.849,5.849,0,0,1-6.316-5.921,6.819,6.819,0,0,1,6.316-6.726A5.849,5.849,0,0,1,2392.493,2462.915Z" transform="translate(-2379.9 -2456.98)" fill="#fff"/>
            <path id="Path_306" data-name="Path 306" d="M2473.291,2540.009a.724.724,0,0,1-.668-.336l-2.374-3.812a.813.813,0,0,1,.267-1.093.756.756,0,0,1,1.073.2l1.646,2.645,2.172-4.423a.813.813,0,0,1,1.045-.407.749.749,0,0,1,.34,1.03l-2.807,5.721a.847.847,0,0,1-.667.471Z" transform="translate(-2467.196 -2530.252)" fill="url(#linear-gradient-11)"/>
          </g>
        </g>
        <g id="Group_129" data-name="Group 129" transform="translate(70.464 32.578)">
          <g id="Group_127" data-name="Group 127">
            <g id="Group_126" data-name="Group 126">
              <path id="Path_307" data-name="Path 307" d="M2833.69,2595.146v19.2c0,.287-.245.366-.524.4l-9.585,1.187-.146.015a.483.483,0,0,1-.545-.486v-19.972a.566.566,0,0,1,.545-.56l.2-.006,9.619.148C2833.531,2595.06,2833.69,2594.859,2833.69,2595.146Z" transform="translate(-2822.89 -2594.619)" fill="url(#linear-gradient-12)"/>
              <path id="Path_308" data-name="Path 308" d="M2842.886,2586.211v19.2a.585.585,0,0,1-.506.574l-9.746,1.023a.482.482,0,0,1-.545-.486V2586.55a.565.565,0,0,1,.545-.559l9.746-.288A.5.5,0,0,1,2842.886,2586.211Z" transform="translate(-2831.79 -2585.704)" fill="url(#linear-gradient-13)"/>
              <path id="Path_309" data-name="Path 309" d="M2852.624,2620.274v17.786a.548.548,0,0,1-.473.537l-9.164.948a.45.45,0,0,1-.507-.453v-18.458a.529.529,0,0,1,.507-.522l9.164-.308A.462.462,0,0,1,2852.624,2620.274Z" transform="translate(-2841.842 -2618.691)" fill="url(#linear-gradient-14)"/>
            </g>
          </g>
          <g id="Group_128" data-name="Group 128" transform="translate(2.256 5.966)">
            <path id="Path_310" data-name="Path 310" d="M2899.565,2772.319a4.061,4.061,0,0,1-3.716,4.009,3.456,3.456,0,0,1-3.729-3.511,4.06,4.06,0,0,1,3.729-4.01A3.457,3.457,0,0,1,2899.565,2772.319Z" transform="translate(-2892.12 -2768.798)" fill="#fff"/>
            <path id="Path_311" data-name="Path 311" d="M2947.228,2818.053a.424.424,0,0,1-.4-.2l-1.4-2.262a.486.486,0,0,1,.158-.649.443.443,0,0,1,.633.117l.973,1.57,1.285-2.635a.482.482,0,0,1,.619-.244.446.446,0,0,1,.2.612l-1.661,3.408a.5.5,0,0,1-.395.281Z" transform="translate(-2943.629 -2812.249)" fill="url(#linear-gradient-11)"/>
          </g>
        </g>
      </g>
      <g id="Group_131" data-name="Group 131" transform="translate(29.237)">
        <path id="Path_312" data-name="Path 312" d="M1445,475.688a9.685,9.685,0,0,0-9.174.681,14.89,14.89,0,0,0-8.282-11.474c-7.412-3.388-16.249.622-19.778,8.908a18.178,18.178,0,0,0-1.45,6.5,7.278,7.278,0,0,0-1.2-.709c-3.966-1.863-8.712.272-10.613,4.755s-.316,9.784,3.687,11.51a22.21,22.21,0,0,0,5.595,1.213s34.309.109,35.382.2a10.905,10.905,0,0,0,10.679-6.849C1452.358,484.673,1450.178,478.064,1445,475.688Z" transform="translate(-1393.704 -463.691)" fill="#284460"/>
        <path id="Path_313" data-name="Path 313" d="M1486.574,488.536a9.7,9.7,0,0,0-9.182.682,14.9,14.9,0,0,0-8.289-11.478c-7.418-3.389-16.263.623-19.795,8.912a18.184,18.184,0,0,0-1.451,6.5,7.282,7.282,0,0,0-1.2-.71c-3.969-1.864-8.72.273-10.622,4.758s-.251,9.625,3.69,11.515a50.3,50.3,0,0,0,5.6,1.213s34.338.107,35.412.2a10.916,10.916,0,0,0,10.688-6.853C1493.941,497.526,1491.76,490.913,1486.574,488.536Z" transform="translate(-1433.896 -476.117)" fill="#315f8c"/>
      </g>
      <path id="Path_314" data-name="Path 314" d="M2591.562,1547.688a.452.452,0,0,1-.452-.452v-1.355a.452.452,0,1,1,.9,0v1.355A.452.452,0,0,1,2591.562,1547.688Zm0-3.387a.452.452,0,0,1-.452-.452v-1.355a.452.452,0,1,1,.9,0v1.355A.452.452,0,0,1,2591.562,1544.3Zm0-3.387a.452.452,0,0,1-.452-.452v-1.355a.452.452,0,0,1,.9,0v1.355A.451.451,0,0,1,2591.562,1540.914Zm0-3.387a.452.452,0,0,1-.452-.452v-1.355a.452.452,0,1,1,.9,0v1.355A.452.452,0,0,1,2591.562,1537.527Zm0-3.387a.452.452,0,0,1-.452-.452v-1.355a.452.452,0,1,1,.9,0v1.355A.451.451,0,0,1,2591.562,1534.139Zm0-3.387a.452.452,0,0,1-.452-.452v-1.355a.452.452,0,0,1,.9,0v1.355A.452.452,0,0,1,2591.562,1530.752Zm0-3.387a.452.452,0,0,1-.452-.452v-.452a.452.452,0,1,1,.9,0v.452A.452.452,0,0,1,2591.562,1527.365Z" transform="translate(-2522.854 -1491.393)" fill="#315f8c"/>
      <g id="Group_137" data-name="Group 137" transform="translate(14.798 11.207)">
        <g id="Group_132" data-name="Group 132" transform="translate(0 19.984)">
          <path id="Path_315" data-name="Path 315" d="M951.052,1422.471a.452.452,0,0,1-.452-.452v-.677a.452.452,0,1,1,.9,0v.677A.452.452,0,0,1,951.052,1422.471Z" transform="translate(-950.6 -1420.89)" fill="#315f8c"/>
        </g>
        <g id="Group_133" data-name="Group 133" transform="translate(0 3.048)">
          <path id="Path_316" data-name="Path 316" d="M951.052,916.977a.452.452,0,0,1-.452-.452V915.17a.452.452,0,1,1,.9,0v1.355A.452.452,0,0,1,951.052,916.977Zm0-3.388a.452.452,0,0,1-.452-.452v-1.355a.452.452,0,0,1,.9,0v1.355A.452.452,0,0,1,951.052,913.59Zm0-3.387a.452.452,0,0,1-.452-.452V908.4a.452.452,0,1,1,.9,0v1.355A.452.452,0,0,1,951.052,910.2Zm0-3.387a.452.452,0,0,1-.452-.452v-1.355a.452.452,0,1,1,.9,0v1.355A.452.452,0,0,1,951.052,906.816Zm0-3.387a.452.452,0,0,1-.452-.452v-1.355a.452.452,0,1,1,.9,0v1.355A.452.452,0,0,1,951.052,903.428Z" transform="translate(-950.6 -901.17)" fill="#315f8c"/>
        </g>
        <g id="Group_134" data-name="Group 134">
          <path id="Path_317" data-name="Path 317" d="M951.052,809.2a.452.452,0,0,1-.452-.452v-.678a.452.452,0,0,1,.452-.452h.677a.452.452,0,1,1,0,.9H951.5v.226A.452.452,0,0,1,951.052,809.2Z" transform="translate(-950.6 -807.62)" fill="#315f8c"/>
        </g>
        <g id="Group_135" data-name="Group 135" transform="translate(2.597)">
          <path id="Path_318" data-name="Path 318" d="M1048.468,808.523h-1.355a.452.452,0,0,1,0-.9h1.355a.452.452,0,1,1,0,.9Zm-3.274,0h-1.355a.452.452,0,0,1,0-.9h1.355a.452.452,0,0,1,0,.9Zm-3.275,0h-1.355a.452.452,0,1,1,0-.9h1.355a.452.452,0,1,1,0,.9Zm-3.274,0h-1.355a.452.452,0,1,1,0-.9h1.355a.452.452,0,0,1,0,.9Zm-3.274,0h-1.355a.452.452,0,1,1,0-.9h1.355a.452.452,0,0,1,0,.9Zm-3.274,0h-1.355a.452.452,0,1,1,0-.9h1.355a.452.452,0,1,1,0,.9Z" transform="translate(-1030.29 -807.62)" fill="#315f8c"/>
        </g>
        <g id="Group_136" data-name="Group 136" transform="translate(22.242)">
          <path id="Path_319" data-name="Path 319" d="M1634.289,808.523h-.677a.452.452,0,1,1,0-.9h.677a.452.452,0,0,1,0,.9Z" transform="translate(-1633.16 -807.62)" fill="#315f8c"/>
        </g>
      </g>
    </g>
  </g>
</svg>
