<?xml version="1.0" encoding="UTF-8"?>
<svg xmlns="http://www.w3.org/2000/svg" version="1.1" viewBox="0 0 512 512">
  <defs>
    <style>
      .cls-1 {
        fill: #07396a;
        stroke-width: 0px;
      }
    </style>
  </defs>
  <g id="Icons">
    <path class="cls-1" d="M207.4,272.5h4.3v12.9h-4.3v-12.9Z"/>
    <path class="cls-1" d="M207.4,220.8h4.3v12.9h-4.3v-12.9Z"/>
    <path class="cls-1" d="M317.2,315.5h-99c-5.9,0-10.8-4.8-10.8-10.8v-6.5h4.3v6.5c0,3.6,2.9,6.5,6.5,6.5h99c3.6,0,6.5-2.9,6.5-6.5v-129.2c0-3.6-2.9-6.5-6.5-6.5h-99c-3.6,0-6.5,2.9-6.5,6.5v6.5h-4.3v-6.5c0-5.9,4.8-10.8,10.8-10.8h99c5.9,0,10.8,4.8,10.8,10.8v129.2c0,5.9-4.8,10.8-10.8,10.8Z"/>
    <path class="cls-1" d="M207.4,195h4.3v12.9h-4.3v-12.9Z"/>
    <path class="cls-1" d="M207.4,246.7h4.3v12.9h-4.3v-12.9Z"/>
    <path class="cls-1" d="M216,197.1h-12.9c-4.8,0-8.6-3.9-8.6-8.6s3.9-8.6,8.6-8.6h12.9c4.8,0,8.6,3.9,8.6,8.6s-3.9,8.6-8.6,8.6ZM203.1,184.2c-2.4,0-4.3,1.9-4.3,4.3s1.9,4.3,4.3,4.3h12.9c2.4,0,4.3-1.9,4.3-4.3s-1.9-4.3-4.3-4.3h-12.9Z"/>
    <path class="cls-1" d="M216,223h-12.9c-4.8,0-8.6-3.9-8.6-8.6s3.9-8.6,8.6-8.6h12.9c4.8,0,8.6,3.9,8.6,8.6s-3.9,8.6-8.6,8.6ZM203.1,210.1c-2.4,0-4.3,1.9-4.3,4.3s1.9,4.3,4.3,4.3h12.9c2.4,0,4.3-1.9,4.3-4.3s-1.9-4.3-4.3-4.3h-12.9Z"/>
    <path class="cls-1" d="M216,248.8h-12.9c-4.8,0-8.6-3.9-8.6-8.6s3.9-8.6,8.6-8.6h12.9c4.8,0,8.6,3.9,8.6,8.6s-3.9,8.6-8.6,8.6ZM203.1,235.9c-2.4,0-4.3,1.9-4.3,4.3s1.9,4.3,4.3,4.3h12.9c2.4,0,4.3-1.9,4.3-4.3s-1.9-4.3-4.3-4.3h-12.9Z"/>
    <path class="cls-1" d="M216,274.6h-12.9c-4.8,0-8.6-3.9-8.6-8.6s3.9-8.6,8.6-8.6h12.9c4.8,0,8.6,3.9,8.6,8.6s-3.9,8.6-8.6,8.6ZM203.1,261.7c-2.4,0-4.3,1.9-4.3,4.3s1.9,4.3,4.3,4.3h12.9c2.4,0,4.3-1.9,4.3-4.3s-1.9-4.3-4.3-4.3h-12.9Z"/>
    <path class="cls-1" d="M216,300.5h-12.9c-4.8,0-8.6-3.9-8.6-8.6s3.9-8.6,8.6-8.6h12.9c4.8,0,8.6,3.9,8.6,8.6s-3.9,8.6-8.6,8.6ZM203.1,287.6c-2.4,0-4.3,1.9-4.3,4.3s1.9,4.3,4.3,4.3h12.9c2.4,0,4.3-1.9,4.3-4.3s-1.9-4.3-4.3-4.3h-12.9Z"/>
    <path class="cls-1" d="M272,220.5c-9.4,0-17.1-7.6-17.1-17.1,0-9.4,7.6-17.1,17.1-17.1,9.4,0,17.1,7.6,17.1,17.1,0,0,0,0,0,0,0,9.4-7.6,17.1-17.1,17.1ZM272,190.7c-7.1,0-12.8,5.7-12.8,12.8,0,7.1,5.7,12.8,12.8,12.8s12.8-5.7,12.8-12.8c0,0,0,0,0,0,0-7-5.7-12.8-12.8-12.8Z"/>
    <path class="cls-1" d="M300.3,244.5h-4.3c0-13.2-10.7-24-24-24s-24,10.7-24,24h-4.3c0-15.6,12.7-28.3,28.3-28.3s28.3,12.7,28.3,28.3Z"/>
    <path class="cls-1" d="M240.8,268.2h31.2v4.3h-31.2v-4.3Z"/>
    <path class="cls-1" d="M240.8,285.4h70v4.3h-70v-4.3Z"/>
  </g>
  <g id="Layer_2" data-name="Layer 2">
    <g>
      <path class="cls-1" d="M184.9,271.4c-3.8,0-6.9,3.1-6.9,6.9v41.7c-43.7-46-43.1-118.8,2-163.9,31.3-31.3,77-42.3,119-28.6,3.6,1.2,7.5-.8,8.7-4.4,1.2-3.6-.8-7.5-4.4-8.7-47-15.3-98-3.1-133.1,32-50.5,50.5-51.1,132.3-1.8,183.6h-42.1c-3.8,0-6.9,3.1-6.9,6.9,0,3.8,3.1,6.9,6.9,6.9h58.6c.9,0,1.8-.2,2.7-.5.8-.4,1.6-.9,2.2-1.5s1.1-1.4,1.5-2.2c.4-.9.5-1.7.5-2.7v-58.6c0-3.8-3.1-6.9-6.9-6.9Z"/>
      <path class="cls-1" d="M399.9,134.6h-58.6c-.9,0-1.8.2-2.7.5-1.7.7-3,2-3.7,3.7-.4.9-.5,1.7-.5,2.7v58.6c0,3.8,3.1,6.9,6.9,6.9s6.9-3.1,6.9-6.9v-41.7c43.7,46,43.1,118.8-2,163.9-31.3,31.3-77,42.3-119,28.6-3.6-1.2-7.6.8-8.7,4.4-1.2,3.6.8,7.5,4.4,8.7,47,15.3,98,3.1,133.1-32,50.5-50.5,51.1-132.3,1.8-183.6h42.1c1.9,0,3.6-.8,4.9-2s2-3,2-4.9c0-3.8-3.1-6.9-6.9-6.9Z"/>
    </g>
  </g>
</svg>