<?xml version="1.0" encoding="UTF-8"?>
<svg id="Capa_1" data-name="Capa 1" xmlns="http://www.w3.org/2000/svg" version="1.1" viewBox="0 0 512 512">
  <defs>
    <style>
      .cls-1, .cls-2 {
        fill: #07396a;
      }

      .cls-1, .cls-3 {
        stroke-width: 0px;
      }

      .cls-2 {
        stroke: #07396a;
        stroke-miterlimit: 10;
        stroke-width: 2px;
      }

      .cls-3 {
        fill: #fff;
      }
    </style>
  </defs>
  <g id="Icons">
    <path class="cls-1" d="M73,342h12.8v40.7h-12.8v-40.7Z"/>
    <path class="cls-1" d="M73,179h12.8v40.7h-12.8v-40.7Z"/>
    <path class="cls-1" d="M399.8,477.6H105.2c-17.6,0-32.1-15.1-32.1-34v-20.5h12.8v20.5c0,11.3,8.6,20.5,19.3,20.5h294.6c10.7,0,19.3-9.1,19.3-20.5V36.2c0-11.3-8.6-20.5-19.3-20.5H105.2c-10.7,0-19.3,9.1-19.3,20.5v20.5h-12.8v-20.5c0-18.6,14.3-34,32.1-34h294.6c17.6,0,32.1,15.1,32.1,34v407.3c0,18.6-14.3,34-32.1,34Z"/>
    <path class="cls-1" d="M73,97.7h12.8v40.7h-12.8v-40.7Z"/>
    <path class="cls-1" d="M73,260.7h12.8v40.7h-12.8v-40.7h0Z"/>
    <path class="cls-1" d="M98.6,104.3h-38.4c-14.3,0-25.6-12.3-25.6-27.1s11.6-27.1,25.6-27.1h38.4c14.3,0,25.6,12.3,25.6,27.1s-11.6,27.1-25.6,27.1ZM60.2,63.6c-7.1,0-12.8,6-12.8,13.6s5.7,13.6,12.8,13.6h38.4c7.1,0,12.8-6,12.8-13.6s-5.7-13.6-12.8-13.6h-38.4Z"/>
    <path class="cls-1" d="M98.6,185.9h-38.4c-14.3,0-25.6-12.3-25.6-27.1s11.6-27.1,25.6-27.1h38.4c14.3,0,25.6,12.3,25.6,27.1s-11.6,27.1-25.6,27.1ZM60.2,145.3c-7.1,0-12.8,6-12.8,13.6s5.7,13.6,12.8,13.6h38.4c7.1,0,12.8-6,12.8-13.6s-5.7-13.6-12.8-13.6h-38.4Z"/>
    <path class="cls-1" d="M98.6,267.3h-38.4c-14.3,0-25.6-12.3-25.6-27.1s11.6-27.1,25.6-27.1h38.4c14.3,0,25.6,12.3,25.6,27.1s-11.6,27.1-25.6,27.1ZM60.2,226.6c-7.1,0-12.8,6-12.8,13.6s5.7,13.6,12.8,13.6h38.4c7.1,0,12.8-6,12.8-13.6s-5.7-13.6-12.8-13.6h-38.4Z"/>
    <path class="cls-1" d="M98.6,348.6h-38.4c-14.3,0-25.6-12.3-25.6-27.1s11.6-27.1,25.6-27.1h38.4c14.3,0,25.6,12.3,25.6,27.1s-11.6,27.1-25.6,27.1ZM60.2,308c-7.1,0-12.8,6-12.8,13.6s5.7,13.6,12.8,13.6h38.4c7.1,0,12.8-6,12.8-13.6s-5.7-13.6-12.8-13.6h-38.4Z"/>
    <path class="cls-1" d="M98.6,430.3h-38.4c-14.3,0-25.6-12.3-25.6-27.1s11.6-27.1,25.6-27.1h38.4c14.3,0,25.6,12.3,25.6,27.1s-11.6,27.1-25.6,27.1ZM60.2,389.6c-7.1,0-12.8,6-12.8,13.6s5.7,13.6,12.8,13.6h38.4c7.1,0,12.8-6,12.8-13.6s-5.7-13.6-12.8-13.6h-38.4Z"/>
    <path class="cls-1" d="M265.3,178.1c-28,0-50.9-24-50.9-53.9s22.6-53.9,50.9-53.9,50.9,24,50.9,53.9h0c0,29.6-22.6,53.9-50.9,53.9ZM265.3,84.1c-21.1,0-38.1,18-38.1,40.4s17,40.4,38.1,40.4,38.1-18,38.1-40.4h0c0-22.1-17-40.4-38.1-40.4Z"/>
    <path class="cls-1" d="M349.5,253.7h-12.8c0-41.6-31.8-75.7-71.4-75.7s-71.4,33.7-71.4,75.7h-12.8c0-49.2,37.8-89.2,84.2-89.2s84.2,40,84.2,89.2Z"/>
    <path class="cls-1" d="M172.4,328.4h92.9v13.6h-92.9v-13.6Z"/>
    <path class="cls-1" d="M172.4,382.7h208.3v13.6h-208.3v-13.6h0Z"/>
  </g>
  <ellipse class="cls-3" cx="392.6" cy="426.5" rx="76.2" ry="79.7"/>
  <g id="Layer_2" data-name="Layer 2">
    <g>
      <path class="cls-2" d="M344.7,447.3c-2.3,0-4.1,2-4.1,4.4v26.4c-26.1-29.2-25.8-75.3,1.2-103.9,18.7-19.8,46.1-26.8,71.2-18.1,2.2.8,4.5-.5,5.2-2.8s-.5-4.8-2.6-5.5c-28.1-9.7-58.6-2-79.6,20.3-30.2,32-30.6,83.8-1.1,116.4h-25.2c-2.3,0-4.1,2-4.1,4.4s1.9,4.4,4.1,4.4h35.1c.5,0,1.1-.1,1.6-.3.5-.3,1-.6,1.3-1s.7-.9.9-1.4c.2-.6.3-1.1.3-1.7v-37.1c0-2.4-1.9-4.4-4.1-4.4h0Z"/>
      <path class="cls-2" d="M473.3,360.6h-35.1c-.5,0-1.1.1-1.6.3-1,.4-1.8,1.3-2.2,2.3-.2.6-.3,1.1-.3,1.7v37.1c0,2.4,1.9,4.4,4.1,4.4s4.1-2,4.1-4.4v-26.4c26.1,29.2,25.8,75.3-1.2,103.9-18.7,19.8-46.1,26.8-71.2,18.1-2.2-.8-4.5.5-5.2,2.8-.7,2.3.5,4.8,2.6,5.5,28.1,9.7,58.6,2,79.6-20.3,30.2-32,30.6-83.8,1.1-116.4h25.2c1.1,0,2.2-.5,2.9-1.3s1.2-1.9,1.2-3.1c0-2.4-1.9-4.4-4.1-4.4h0Z"/>
    </g>
  </g>
</svg>