<?xml version="1.0" encoding="utf-8"?>
<!-- Generator: Adobe Illustrator 27.5.0, SVG Export Plug-In . SVG Version: 6.00 Build 0)  -->
<svg version="1.1" id="data_recover" xmlns="http://www.w3.org/2000/svg" xmlns:xlink="http://www.w3.org/1999/xlink" x="0px"
	 y="0px" viewBox="0 0 113 72.9" style="enable-background:new 0 0 113 72.9;" xml:space="preserve">
<style type="text/css">
	.st0{fill:#074261;}
	.st1{fill:#005F8E;}
	.st2{fill:#FFFFFF;}
	.st3{fill:#E0E0E0;}
	.st4{opacity:0.6;fill:#407BFF;enable-background:new    ;}
	.st5{fill:#EBEBEB;}
	.st6{fill:#407BFF;}
</style>
<g id="Group_195" transform="translate(0 0)">
	<g id="Group_194">
		<g id="Group_191">
			<path id="Path_397" class="st0" d="M9,32.8c0.1-11.3,8.5-20.3,19-20.3h7.8C39.8,5,47.2,0,55.7,0h15.2v6.3
				c3.6,3.6,6.1,8.1,7.1,13.1c10.3,0.7,18.4,10,18.4,21.3c0,11.8-8.8,21.3-19.7,21.3H14C6.3,62,0,55.2,0,46.9
				C-0.1,40.8,3.4,35.3,9,32.8z"/>
		</g>
		<path id="Path_398" class="st1" d="M25.5,32.8c0.1-11.3,8.5-20.3,19-20.3c2.4,0,4.9,0.5,7.1,1.5C55.3,5.7,63.1,0,72.2,0
			c10.9,0,20.1,8.3,22.4,19.4c10.3,0.7,18.4,10,18.4,21.3c0,11.8-8.8,21.3-19.7,21.3H30.5c-7.7,0-14-6.8-14-15.1
			C16.4,40.8,19.9,35.3,25.5,32.8z"/>
	</g>
</g>
<g id="Layer_2_00000019653463630531335520000017212492414606604475_">
	<g>
		<g>
			<path class="st2" d="M90.2,31.5c-0.2,0.1-0.3,0.2-0.2,0.4l0.1,4.5l-10.2,0.1c-0.2,0-0.4,0.2-0.4,0.4l0.1,6.5
				c0,0.2,0.2,0.4,0.4,0.4l10.2-0.1l0.1,4.5c0,0.2,0.1,0.3,0.3,0.4c0.2,0.1,0.3,0,0.4-0.1l8.1-8.3c0.1-0.1,0.1-0.2,0.1-0.3
				s0-0.2-0.1-0.3l-8.3-8.1C90.5,31.5,90.4,31.5,90.2,31.5z"/>
		</g>
	</g>
	<g>
		<g>
			<path class="st2" d="M42,48.7c0.2-0.1,0.3-0.2,0.2-0.4l-0.1-4.5l10.2-0.1c0.2,0,0.4-0.2,0.4-0.4l-0.1-6.5c0-0.2-0.2-0.4-0.4-0.4
				L42,36.5l0-4.5c0-0.2-0.1-0.3-0.3-0.4s-0.3,0-0.4,0.1L33.2,40c-0.1,0.1-0.1,0.2-0.1,0.3s0,0.2,0.1,0.3l8.3,8.1
				C41.6,48.7,41.8,48.8,42,48.7z"/>
		</g>
	</g>
</g>
<g id="Group_207_00000097472577417335643390000008120656913629928634_" transform="translate(54.35 23.055)">
	<path id="Path_418_00000124860751862629553880000014171445332985542022_" class="st3" d="M15.5,0h7.1c1.1,0,2,0.9,2,2v34.8
		c0,1.1-0.9,2-2,2h-7.1V0z"/>
	<path id="Path_419_00000008838015881018522220000009425848441303461274_" class="st2" d="M16.2,0H1c-1.1,0-2,0.9-2,2v34.8
		c0,1.1,0.9,2,2,2h15.2c1.1,0,2-0.9,2-2V2C18.1,0.9,17.3,0,16.2,0L16.2,0z"/>
	
		<rect id="Rectangle_230_00000118390808992226863280000004809235631985495461_" x="-1" y="30.7" class="st3" width="19.1" height="0.4"/>
	
		<rect id="Rectangle_231_00000049935106137430130040000016220869234862991267_" x="-1" y="23" class="st3" width="19.1" height="0.4"/>
	
		<rect id="Rectangle_232_00000071562129580736742590000006626777403143126925_" x="-1" y="15.4" class="st3" width="19.1" height="0.4"/>
	
		<rect id="Rectangle_233_00000063604608714602103450000016565103308367854771_" x="-1" y="7.7" class="st3" width="19.1" height="0.4"/>
	<g id="Group_202_00000075126839052957494610000011048704301285330855_" transform="translate(2.414 1.389)">
		<path id="Path_420_00000027592260748689960530000006063973430631497095_" class="st4" d="M6.1,3.8h-6.4C-0.7,3.8-1,4.1-1,4.5l0,0
			c0,0.4,0.3,0.7,0.7,0.7h6.4c0.4,0,0.7-0.3,0.7-0.7l0,0C6.9,4.1,6.5,3.8,6.1,3.8z"/>
		<path id="Path_421_00000021798227979388157740000015215004823298312377_" class="st4" d="M6.1,1.9h-6.4C-0.7,1.9-1,2.2-1,2.6l0,0
			C-1,3-0.7,3.4-0.3,3.4h6.4c0.4,0,0.7-0.3,0.7-0.7l0,0C6.9,2.2,6.5,1.9,6.1,1.9z"/>
		<path id="Path_422_00000140011236391267301240000017543347015969017745_" class="st4" d="M6.1,0h-6.4C-0.7,0-1,0.3-1,0.7l0,0
			c0,0.4,0.3,0.7,0.7,0.7h6.4c0.4,0,0.7-0.3,0.7-0.7l0,0C6.9,0.3,6.5,0,6.1,0z"/>
		
			<rect id="Rectangle_234_00000064321727941987902640000011849020801663690165_" x="7.5" y="30.7" class="st5" width="2.7" height="1.5"/>
		
			<rect id="Rectangle_235_00000114039394090348618770000017852225801409496500_" x="7.5" y="32.6" class="st6" width="2.7" height="1.5"/>
		
			<rect id="Rectangle_236_00000049201206023212192740000005495289499601890221_" x="7.5" y="34.5" class="st5" width="2.7" height="1.5"/>
		
			<rect id="Rectangle_237_00000183210472092022661170000011762885135204960647_" x="10.7" y="30.7" class="st5" width="2.7" height="1.5"/>
		
			<rect id="Rectangle_238_00000087408370834435246910000010388640178840799415_" x="10.7" y="32.6" class="st5" width="2.7" height="1.5"/>
		
			<rect id="Rectangle_239_00000010298805830772785340000002584391303107991967_" x="10.7" y="34.5" class="st6" width="2.7" height="1.5"/>
	</g>
	<g id="Group_203_00000027563152151005254450000009379633950164190130_" transform="translate(2.414 9.07)">
		<path id="Path_423_00000008859396483390977030000015778350948061287826_" class="st5" d="M6.1,3.8h-6.4C-0.7,3.8-1,4.1-1,4.5l0,0
			c0,0.4,0.3,0.7,0.7,0.7h6.4c0.4,0,0.7-0.3,0.7-0.7l0,0C6.9,4.1,6.5,3.8,6.1,3.8z"/>
		<path id="Path_424_00000178168528716517439520000005855376771974872217_" class="st4" d="M6.1,1.9h-6.4C-0.7,1.9-1,2.2-1,2.6l0,0
			C-1,3-0.7,3.4-0.3,3.4h6.4c0.4,0,0.7-0.3,0.7-0.7l0,0C6.9,2.2,6.5,1.9,6.1,1.9z"/>
		<path id="Path_425_00000084524688940278815510000001616103947525238678_" class="st4" d="M6.1,0h-6.4C-0.7,0-1,0.3-1,0.7l0,0
			c0,0.4,0.3,0.7,0.7,0.7h6.4c0.4,0,0.7-0.3,0.7-0.7l0,0C6.9,0.3,6.5,0,6.1,0z"/>
		
			<rect id="Rectangle_240_00000091732906390417888650000003461107986618223498_" x="7.5" y="15.4" class="st5" width="2.7" height="1.5"/>
		
			<rect id="Rectangle_241_00000155863358572941944710000017478842302192558721_" x="7.5" y="17.3" class="st5" width="2.7" height="1.5"/>
		
			<rect id="Rectangle_242_00000057843000343538146290000001421060028134265269_" x="7.5" y="19.2" class="st6" width="2.7" height="1.5"/>
		
			<rect id="Rectangle_243_00000150060567493146756460000012033473392827393180_" x="10.7" y="15.4" class="st6" width="2.7" height="1.5"/>
		
			<rect id="Rectangle_244_00000136394832829977177770000000991428087394633392_" x="10.7" y="17.3" class="st5" width="2.7" height="1.5"/>
		
			<rect id="Rectangle_245_00000077322084146015656350000001226469954023840932_" x="10.7" y="19.2" class="st6" width="2.7" height="1.5"/>
	</g>
	<g id="Group_204_00000183954262086521750330000004407989227672383633_" transform="translate(2.414 16.752)">
		<path id="Path_426_00000071553639729940595480000007822296240042286475_" class="st4" d="M6.1,3.8h-6.4C-0.7,3.8-1,4.1-1,4.5l0,0
			c0,0.4,0.3,0.7,0.7,0.7h6.4c0.4,0,0.7-0.3,0.7-0.7l0,0C6.9,4.1,6.5,3.8,6.1,3.8z"/>
		<path id="Path_427_00000114054527435936988040000016089256749525953950_" class="st4" d="M6.1,1.9h-6.4C-0.7,1.9-1,2.2-1,2.6l0,0
			C-1,3-0.7,3.4-0.3,3.4h6.4c0.4,0,0.7-0.3,0.7-0.7l0,0C6.9,2.2,6.5,1.9,6.1,1.9z"/>
		<path id="Path_428_00000064348812918738498490000016534225470001270942_" class="st4" d="M6.1,0h-6.4C-0.7,0-1,0.3-1,0.7l0,0
			c0,0.4,0.3,0.7,0.7,0.7h6.4c0.4,0,0.7-0.3,0.7-0.7l0,0C6.9,0.3,6.5,0,6.1,0z"/>
		
			<rect id="Rectangle_246_00000058588746726792560520000000429763350470659749_" x="7.5" y="0" class="st6" width="2.7" height="1.5"/>
		
			<rect id="Rectangle_247_00000154383998157494104690000000870546680330823828_" x="7.5" y="1.9" class="st5" width="2.7" height="1.5"/>
		
			<rect id="Rectangle_248_00000133490669372152922940000006667393232437514369_" x="7.5" y="3.8" class="st5" width="2.7" height="1.5"/>
		
			<rect id="Rectangle_249_00000144312341957562919780000016441614485260567189_" x="10.7" y="0" class="st5" width="2.7" height="1.5"/>
		
			<rect id="Rectangle_250_00000067206798663018363380000012057124236108526248_" x="10.7" y="1.9" class="st5" width="2.7" height="1.5"/>
		
			<rect id="Rectangle_251_00000183970292769344125790000010545025182778305700_" x="10.7" y="3.8" class="st6" width="2.7" height="1.5"/>
	</g>
	<g id="Group_205_00000052789278581231506470000009010561770560199098_" transform="translate(2.414 9.07)">
		<path id="Path_429_00000108311498045305412980000010744459554250147739_" class="st4" d="M6.1,19.2h-6.4c-0.4,0-0.7,0.3-0.7,0.7
			l0,0c0,0.4,0.3,0.7,0.7,0.7h6.4c0.4,0,0.7-0.3,0.7-0.7l0,0C6.9,19.5,6.5,19.2,6.1,19.2z"/>
		<path id="Path_430_00000168835464045840449700000016456651562924073900_" class="st4" d="M6.1,17.3h-6.4C-0.7,17.3-1,17.6-1,18
			l0,0c0,0.4,0.3,0.7,0.7,0.7h6.4c0.4,0,0.7-0.3,0.7-0.7l0,0C6.9,17.6,6.5,17.3,6.1,17.3z"/>
		<path id="Path_431_00000117661820307517332980000010458055544512826250_" class="st4" d="M6.1,15.4h-6.4c-0.4,0-0.7,0.3-0.7,0.7
			l0,0c0,0.4,0.3,0.7,0.7,0.7h6.4c0.4,0,0.7-0.3,0.7-0.7l0,0C6.9,15.7,6.5,15.4,6.1,15.4z"/>
		<rect id="Rectangle_252_00000062174141138808989960000013616014627987912617_" x="7.5" class="st5" width="2.7" height="1.5"/>
		
			<rect id="Rectangle_253_00000001634821954230344350000010766814678354137272_" x="7.5" y="1.9" class="st6" width="2.7" height="1.5"/>
		
			<rect id="Rectangle_254_00000026126228704534713910000016268421070369189813_" x="7.5" y="3.8" class="st5" width="2.7" height="1.5"/>
		<rect id="Rectangle_255_00000151509758473882976590000004142579683239139979_" x="10.7" class="st6" width="2.7" height="1.5"/>
		
			<rect id="Rectangle_256_00000027562396703839635900000005766332037656393919_" x="10.7" y="1.9" class="st5" width="2.7" height="1.5"/>
		
			<rect id="Rectangle_257_00000025407888493344477920000009098098745651179427_" x="10.7" y="3.8" class="st5" width="2.7" height="1.5"/>
	</g>
	<g id="Group_206_00000013157437344531437420000000476900531441647779_" transform="translate(2.414 1.392)">
		<path id="Path_432_00000160168676440559481230000014008735569724054420_" class="st4" d="M6.1,34.5h-6.4c-0.4,0-0.7,0.3-0.7,0.7
			l0,0c0,0.4,0.3,0.7,0.7,0.7h6.4c0.4,0,0.7-0.3,0.7-0.7l0,0C6.9,34.8,6.5,34.5,6.1,34.5z"/>
		<path id="Path_433_00000005257923744212561030000015074816498400181427_" class="st4" d="M6.1,32.6h-6.4c-0.4,0-0.7,0.3-0.7,0.7
			l0,0c0,0.4,0.3,0.7,0.7,0.7h6.4c0.4,0,0.7-0.3,0.7-0.7l0,0C6.9,32.9,6.5,32.6,6.1,32.6z"/>
		<path id="Path_434_00000116934852192140976620000014909677967781072044_" class="st4" d="M6.1,30.7h-6.4C-0.7,30.7-1,31-1,31.5
			l0,0c0,0.4,0.3,0.7,0.7,0.7h6.4c0.4,0,0.7-0.3,0.7-0.7l0,0C6.9,31,6.5,30.7,6.1,30.7z"/>
		
			<rect id="Rectangle_258_00000008121260483419379390000016458274053176535464_" x="7.5" y="0" class="st6" width="2.7" height="1.5"/>
		
			<rect id="Rectangle_259_00000126282002528663536590000010724485502965521321_" x="7.5" y="1.9" class="st5" width="2.7" height="1.5"/>
		
			<rect id="Rectangle_260_00000083071867484025646060000002090791890880786059_" x="7.5" y="3.8" class="st5" width="2.7" height="1.5"/>
		
			<rect id="Rectangle_261_00000043423849076273515650000016139860391728440498_" x="10.7" y="0" class="st5" width="2.7" height="1.5"/>
		
			<rect id="Rectangle_262_00000140694002661960956030000008187412882219957150_" x="10.7" y="1.9" class="st5" width="2.7" height="1.5"/>
		
			<rect id="Rectangle_263_00000176025831664559608930000001074577834966986140_" x="10.7" y="3.8" class="st6" width="2.7" height="1.5"/>
	</g>
</g>
</svg>
