<?xml version="1.0" encoding="UTF-8"?>
<svg id="Layer_1" data-name="Layer 1" xmlns="http://www.w3.org/2000/svg" version="1.1" viewBox="0 0 512 512">
  <defs>
    <style>
      .cls-1 {
        fill: #07396a;
        stroke-width: 0px;
      }
    </style>
  </defs>
  <path class="cls-1" d="M384.5,201c0,4.1-3.4,7.5-7.5,7.5h-209.4c-4.1,0-7.5-3.4-7.5-7.5s3.4-7.5,7.5-7.5h209.4c4.1,0,7.5,3.4,7.5,7.5ZM377,129.7h-209.4c-4.1,0-7.5,3.4-7.5,7.5s3.4,7.5,7.5,7.5h209.4c4.1,0,7.5-3.4,7.5-7.5s-3.4-7.5-7.5-7.5ZM377,97.9h-209.4c-4.1,0-7.5,3.4-7.5,7.5s3.4,7.5,7.5,7.5h209.4c4.1,0,7.5-3.4,7.5-7.5s-3.4-7.5-7.5-7.5ZM377,161.6h-209.4c-4.1,0-7.5,3.4-7.5,7.5s3.4,7.5,7.5,7.5h209.4c4.1,0,7.5-3.4,7.5-7.5s-3.4-7.5-7.5-7.5ZM236.2,49.2h140.8c4.1,0,7.5-3.4,7.5-7.5s-3.4-7.5-7.5-7.5h-140.8c-4.1,0-7.5,3.4-7.5,7.5s3.4,7.5,7.5,7.5ZM377,66h-140.8c-4.1,0-7.5,3.4-7.5,7.5s3.4,7.5,7.5,7.5h140.8c4.1,0,7.5-3.4,7.5-7.5s-3.4-7.5-7.5-7.5ZM474,378.9v26.3c0,7.9-6.4,14.3-14.3,14.3h-12.4c-4.5,0-8.2,2.5-9.9,6.6-1.7,4.1-.8,8.5,2.3,11.7l8.8,8.8c5.6,5.6,5.6,14.7,0,20.3l-18.6,18.6c-2.7,2.7-6.3,4.2-10.1,4.2s-7.4-1.5-10.1-4.2l-8.8-8.8c-3.2-3.2-7.5-4-11.7-2.3s-6.6,5.4-6.6,9.9v12.4c0,7.9-6.4,14.3-14.3,14.3h-26.3c-7.9,0-14.3-6.4-14.3-14.3v-12.4c0-4.5-2.5-8.2-6.6-9.9-4.1-1.7-8.5-.8-11.7,2.3l-8.8,8.8c-2.7,2.7-6.3,4.2-10.1,4.2s-7.4-1.5-10.1-4.2l-18.6-18.6c-5.6-5.6-5.6-14.7,0-20.3l8.8-8.8c3.2-3.2,4-7.5,2.3-11.7-.1-.3-.3-.6-.4-.9H45.5c-2.4,0-4.6-1.1-6-3s-1.8-4.4-1.1-6.7l-.3-282.9c0-4.1,3.4-7.5,7.5-7.5h49.3V39c0-4.1,3.4-7.5,7.5-7.5h64.3l28.3-28.3c1.4-1.4,3.3-2.2,5.3-2.2h211.7c4.1,0,7.5,3.4,7.5,7.5v216.8h40c2.4,0,4.6,1.1,6,3s1.8,4.4,1.1,6.7l-23.6,76.6,5.6,5.6c5.6,5.6,5.6,14.7,0,20.3l-8.8,8.8c-3.2,3.2-4,7.5-2.3,11.7s5.4,6.6,9.9,6.6h12.4c7.9,0,14.3,6.4,14.3,14.3h0ZM404.3,16h-196.7v59.9c0,4.1-3.4,7.5-7.5,7.5h-59.9v141.9h264V16ZM192.7,68.4V26.6l-41.8,41.8h41.8ZM109.8,46.5v178.8h15.5V75.9c0-2,.8-3.9,2.2-5.3l24.1-24.1h-41.8ZM53,367.9l41.8-135.6v-92.2h-41.8v227.8ZM55.7,410.2h181.3c-.6-1.6-.9-3.3-.9-5v-26.3c0-7.9,6.4-14.3,14.3-14.3h12.4c4.5,0,8.2-2.5,9.9-6.6,1.7-4.1.8-8.5-2.3-11.7l-8.8-8.8c-5.6-5.6-5.6-14.7,0-20.3l18.6-18.6c5.6-5.6,14.7-5.6,20.3,0l8.8,8.8c3.2,3.2,7.5,4,11.7,2.3,4.1-1.7,6.6-5.4,6.6-9.9v-12.4c0-7.9,6.4-14.3,14.3-14.3h26.3c7.9,0,14.3,6.4,14.3,14.3v12.4c0,4.5,2.5,8.2,6.6,9.9,4.1,1.7,8.5.8,11.7-2.3l8.8-8.8c5.6-5.6,14.7-5.6,20.3,0l1,1,18.3-59.3H108l-52.3,169.9ZM459,379.6h-11.8c-10.6,0-19.7-6.1-23.7-15.9-4.1-9.8-1.9-20.5,5.6-28l8.3-8.3-17.7-17.7-8.3,8.3c-7.5,7.5-18.2,9.6-28,5.6-9.8-4.1-15.9-13.2-15.9-23.7v-11.8h-25v11.8c0,10.6-6.1,19.7-15.9,23.7-9.8,4.1-20.5,1.9-28-5.6l-8.3-8.3-17.7,17.7,8.3,8.3c7.5,7.5,9.6,18.2,5.6,28-4.1,9.8-13.2,15.9-23.7,15.9h-11.8v25h11.8c10.6,0,19.7,6.1,23.7,15.9,4.1,9.8,1.9,20.5-5.6,28l-8.3,8.3,17.7,17.7,8.3-8.3c7.5-7.5,18.2-9.6,28-5.6,9.8,4.1,15.9,13.2,15.9,23.7v11.8h25v-11.8c0-10.6,6.1-19.7,15.9-23.7,9.8-4.1,20.5-1.9,28,5.6l8.3,8.3,17.7-17.7-8.3-8.3c-7.5-7.5-9.6-18.2-5.6-28,4.1-9.8,13.1-15.9,23.7-15.9h11.8v-25ZM417.6,392c0,34.5-28.1,62.5-62.5,62.5s-62.5-28.1-62.5-62.5,28.1-62.5,62.5-62.5,62.5,28.1,62.5,62.5ZM402.6,392c0-26.2-21.3-47.5-47.5-47.5s-47.5,21.3-47.5,47.5,21.3,47.5,47.5,47.5,47.5-21.3,47.5-47.5Z"/>
</svg>