<?xml version="1.0" encoding="UTF-8"?>
<svg id="Layer_1" data-name="Layer 1" xmlns="http://www.w3.org/2000/svg" version="1.1" viewBox="0 0 512 512">
  <defs>
    <style>
      .cls-1 {
        fill: #0b3d6c;
        stroke-width: 0px;
      }
    </style>
  </defs>
  <path class="cls-1" d="M401.1,311.7V76.8c0-14.1-11.5-25.6-25.6-25.6h-238.9c-.2,0-.3,0-.5.1-.8,0-1.6.2-2.3.5-.3,0-.5.2-.8.3-.9.4-1.7.9-2.4,1.7t0,0L62.3,122s0,0,0,0c-.7.7-1.2,1.6-1.7,2.4-.1.3-.2.5-.3.8-.3.7-.4,1.5-.5,2.3,0,.2-.1.3-.1.5v307.2c0,14.1,11.5,25.6,25.6,25.6h290.1c0,0,0,0,.1,0,42.3,0,76.6-34.5,76.6-76.8s-21.4-61.7-51.2-72.3h0ZM128,80.3v39.1h-39.1l39.1-39.1ZM379.7,443.5c-1-.1-2.1-.1-3.1.1-.1,0-.5,0-.7,0-.1,0-.2,0-.4,0-32.9,0-59.7-26.8-59.7-59.7s4.6-26.1,12.5-36.4v14.3c0,4.7,3.8,8.5,8.5,8.5s8.5-3.8,8.5-8.5v-34.1c0-.4-.2-.7-.2-1.1,0-.4-.1-.8-.2-1.2-.2-.7-.5-1.4-.9-2-.1-.2-.1-.4-.2-.6-.1-.2-.3-.2-.4-.4-.4-.6-.9-1-1.5-1.5-.4-.3-.7-.5-1.1-.8-.5-.3-1-.5-1.6-.6s-1.1-.3-1.7-.3c-.2,0-.4-.1-.7-.1h-34.1c-4.7,0-8.5,3.8-8.5,8.5s3.8,8.5,8.5,8.5h12.8c-10.6,13.4-16.8,30.1-16.8,47.6s11.2,45.7,28.6,59.7H85.3c-4.7,0-8.5-3.8-8.5-8.5V136.5h59.7c4.7,0,8.5-3.8,8.5-8.5v-59.7h230.4c4.7,0,8.5,3.8,8.5,8.5v230.9c-2.8-.3-5.7-.5-8.6-.5s-2.2,0-3.3.1c-4.7.5-8.1,4.6-7.7,9.3.5,4.7,4.6,8.2,9.3,7.7.6,0,1.1,0,1.6,0,32.9,0,59.7,26.8,59.7,59.7s-24.6,57.4-55.5,59.5h0Z"/>
  <path class="cls-1" d="M315.7,136.5h-153.6c-4.7,0-8.5,3.8-8.5,8.5s3.8,8.5,8.5,8.5h153.6c4.7,0,8.5-3.8,8.5-8.5s-3.8-8.5-8.5-8.5Z"/>
  <path class="cls-1" d="M315.7,187.7h-153.6c-4.7,0-8.5,3.8-8.5,8.5s3.8,8.5,8.5,8.5h153.6c4.7,0,8.5-3.8,8.5-8.5s-3.8-8.5-8.5-8.5Z"/>
  <path class="cls-1" d="M315.7,238.9h-153.6c-4.7,0-8.5,3.8-8.5,8.5s3.8,8.5,8.5,8.5h153.6c4.7,0,8.5-3.8,8.5-8.5s-3.8-8.5-8.5-8.5Z"/>
  <path class="cls-1" d="M315.7,290.1h-153.6c-4.7,0-8.5,3.8-8.5,8.5s3.8,8.5,8.5,8.5h153.6c4.7,0,8.5-3.8,8.5-8.5s-3.8-8.5-8.5-8.5Z"/>
  <path class="cls-1" d="M401.2,384h-17.2v-34.1c0-4.7-3.8-8.5-8.5-8.5s-8.5,3.8-8.5,8.5v42.7c0,4.7,3.8,8.5,8.5,8.5h25.8c4.7,0,8.5-3.8,8.5-8.5s-3.8-8.5-8.5-8.5Z"/>
</svg>