<?xml version="1.0" encoding="UTF-8"?>
<svg id="Layer_1" data-name="Layer 1" xmlns="http://www.w3.org/2000/svg" version="1.1" viewBox="0 0 512 512">
  <defs>
    <style>
      .cls-1 {
        fill: #07396a;
        stroke-width: 0px;
      }
    </style>
  </defs>
  <g id="_08_Groupchat" data-name="08 Groupchat">
    <g>
      <path class="cls-1" d="M24.3,127.2c0,3.3,2.7,6,6,6s6-2.7,6-6c0-25.3,20.6-45.9,46-45.9s45.9,20.6,45.9,45.9,2.7,6,6,6,6-2.7,6-6c0-24.1-14.8-44.8-35.8-53.5,8.8-6.7,14.6-17.2,14.6-29.1,0-20.2-16.5-36.7-36.7-36.7s-36.8,16.5-36.8,36.7,5.8,22.4,14.7,29.1c-21,8.7-35.9,29.4-35.9,53.5h0ZM82.2,19.9c13.6,0,24.7,11.1,24.7,24.7s-11.1,24.7-24.7,24.7-24.8-11.1-24.8-24.7,11.1-24.7,24.8-24.7Z"/>
      <path class="cls-1" d="M487.7,29c0-14.3-11.6-25.9-25.9-25.9h-236.4c-14.3,0-25.9,11.6-25.9,25.9v10.1l-34.8,17.2c-5.5,2.7-8.9,8.2-8.9,14.3s3.4,11.6,8.9,14.3l34.8,17.2v5.1c0,14.3,11.6,25.9,25.9,25.9h236.4c14.3,0,25.9-11.6,25.9-25.9V29ZM475.8,107.1c0,7.7-6.3,14-14,14h-236.4c-7.7,0-14-6.3-14-14v-8.8c0-2.3-1.3-4.3-3.3-5.4l-38.1-18.9c-2-1-2.2-2.8-2.2-3.6s.2-2.6,2.2-3.6l38.1-18.9c2-1,3.3-3.1,3.3-5.4v-13.8c0-7.7,6.3-14,14-14h236.4c7.7,0,14,6.3,14,14v78.2Z"/>
      <path class="cls-1" d="M435.4,43h-183.6c-3.3,0-6,2.7-6,6s2.7,6,6,6h183.6c3.3,0,6-2.7,6-6s-2.7-6-6-6Z"/>
      <path class="cls-1" d="M379.2,81.2h-127.5c-3.3,0-6,2.7-6,6s2.7,6,6,6h127.5c3.3,0,6-2.7,6-6s-2.7-6-6-6Z"/>
      <path class="cls-1" d="M451.9,261.6c8.9-6.7,14.7-17.2,14.7-29.1,0-20.2-16.5-36.7-36.8-36.7s-36.7,16.5-36.7,36.7,5.8,22.4,14.6,29.1c-21,8.7-35.8,29.4-35.8,53.5s2.7,6,6,6,6-2.7,6-6c0-25.3,20.6-45.9,45.9-45.9s46,20.6,46,45.9,2.7,6,6,6,6-2.7,6-6c0-24.1-14.8-44.8-35.9-53.5ZM429.8,207.7c13.7,0,24.8,11.1,24.8,24.7s-11.1,24.7-24.8,24.7-24.7-11.1-24.7-24.7,11.1-24.7,24.7-24.7Z"/>
      <path class="cls-1" d="M24.3,295c0,14.3,11.6,25.9,25.9,25.9h236.4c14.3,0,25.9-11.6,25.9-25.9v-5.1l34.8-17.2c5.5-2.7,8.9-8.2,8.9-14.3s-3.4-11.6-8.9-14.3l-34.8-17.2v-10.1c0-14.3-11.6-25.9-25.9-25.9H50.2c-14.3,0-25.9,11.6-25.9,25.9v78.2ZM36.2,216.8c0-7.7,6.3-14,14-14h236.4c7.7,0,14,6.3,14,14v13.8c0,2.3,1.3,4.3,3.3,5.4l38.1,18.9c2,1,2.2,2.8,2.2,3.6s-.2,2.6-2.2,3.6l-38.1,18.9c-2,1-3.3,3.1-3.3,5.4v8.8c0,7.7-6.3,14-14,14H50.2c-7.7,0-14-6.3-14-14v-78.2Z"/>
      <path class="cls-1" d="M76.6,242.8h183.6c3.3,0,6-2.7,6-6s-2.7-6-6-6H76.6c-3.3,0-6,2.7-6,6,0,3.3,2.7,6,6,6Z"/>
      <path class="cls-1" d="M260.2,269.1h-127.5c-3.3,0-6,2.7-6,6s2.7,6,6,6h127.5c3.3,0,6-2.7,6-6s-2.7-6-6-6Z"/>
      <path class="cls-1" d="M30.3,509c3.3,0,6-2.7,6-6,0-25.3,20.6-45.9,46-45.9s45.9,20.6,45.9,45.9,2.7,6,6,6,6-2.7,6-6c0-24.1-14.8-44.8-35.8-53.5,8.8-6.7,14.6-17.2,14.6-29.1,0-20.2-16.5-36.7-36.7-36.7s-36.8,16.5-36.8,36.7,5.8,22.4,14.7,29.1c-21,8.7-35.9,29.4-35.9,53.5,0,3.3,2.7,6,6,6ZM82.2,395.6c13.6,0,24.7,11.1,24.7,24.7s-11.1,24.7-24.7,24.7-24.8-11.1-24.8-24.7,11.1-24.7,24.8-24.7Z"/>
      <path class="cls-1" d="M225.4,508.8h236.4c14.3,0,25.9-11.6,25.9-25.9v-78.2c0-14.3-11.6-25.9-25.9-25.9h-236.4c-14.3,0-25.9,11.6-25.9,25.9v10.1l-34.8,17.2c-5.5,2.7-8.9,8.2-8.9,14.3,0,6.1,3.4,11.6,8.9,14.3l34.8,17.2v5.1c0,14.3,11.6,25.9,25.9,25.9h0ZM169.9,449.9c-2-1-2.2-2.8-2.2-3.6,0-.7.2-2.6,2.2-3.6l38.1-18.9c2-1,3.3-3.1,3.3-5.4v-13.8c0-7.7,6.3-14,14-14h236.4c7.7,0,14,6.3,14,14v78.2c0,7.7-6.3,14-14,14h-236.4c-7.7,0-14-6.3-14-14v-8.8c0-2.3-1.3-4.3-3.3-5.4l-38.1-18.9Z"/>
      <path class="cls-1" d="M251.8,430.7h183.6c3.3,0,6-2.7,6-6s-2.7-6-6-6h-183.6c-3.3,0-6,2.7-6,6s2.7,6,6,6Z"/>
      <path class="cls-1" d="M251.8,468.9h127.5c3.3,0,6-2.7,6-6s-2.7-6-6-6h-127.5c-3.3,0-6,2.7-6,6s2.7,6,6,6Z"/>
    </g>
  </g>
</svg>