<?xml version="1.0" encoding="utf-8"?>
<!-- Generator: Adobe Illustrator 27.5.0, SVG Export Plug-In . SVG Version: 6.00 Build 0)  -->
<svg version="1.1" id="data_recover" xmlns="http://www.w3.org/2000/svg" xmlns:xlink="http://www.w3.org/1999/xlink" x="0px"
	 y="0px" viewBox="0 0 113 72.9" style="enable-background:new 0 0 113 72.9;" xml:space="preserve">
<style type="text/css">
	.st0{fill:#074261;}
	.st1{fill:#005F8E;}
	.st2{fill:#E2E2E2;}
	.st3{fill:#AAAAAA;}
	.st4{fill:#606060;}
</style>
<g id="Group_195" transform="translate(0 0)">
	<g id="Group_194">
		<g id="Group_191">
			<path id="Path_397" class="st0" d="M9,32.8c0.1-11.3,8.5-20.3,19-20.3h7.8C39.8,5,47.2,0,55.7,0h15.2v6.3
				c3.6,3.6,6.1,8.1,7.1,13.1c10.3,0.7,18.4,10,18.4,21.3c0,11.8-8.8,21.3-19.7,21.3H14C6.3,62,0,55.2,0,46.9
				C-0.1,40.8,3.4,35.3,9,32.8z"/>
		</g>
		<path id="Path_398" class="st1" d="M25.5,32.8c0.1-11.3,8.5-20.3,19-20.3c2.4,0,4.9,0.5,7.1,1.5C55.3,5.7,63.1,0,72.2,0
			c10.9,0,20.1,8.3,22.4,19.4c10.3,0.7,18.4,10,18.4,21.3c0,11.8-8.8,21.3-19.7,21.3H30.5c-7.7,0-14-6.8-14-15.1
			C16.4,40.8,19.9,35.3,25.5,32.8z"/>
	</g>
</g>
<g>
	<polygon class="st2" points="49.9,18.9 49.8,55 50,55.7 60.3,55.8 76.2,55.9 76.7,55.4 76.8,27 68.9,27.2 68.4,26.5 68.5,18.7 	"/>
	<polygon class="st3" points="69.7,20.2 76.5,26.6 68.4,26.5 68.6,19.1 	"/>
	<g>
		<g>
			<path class="st4" d="M77.4,26.7c0-0.1-0.1-0.1-0.1-0.2l-8.3-8.3c-0.1-0.1-0.1-0.1-0.2-0.1c-0.1,0-0.2,0-0.2,0h-18
				c-0.7,0-1.3,0.6-1.3,1.3v35.9c0,0.7,0.6,1.3,1.3,1.3h25.7c0.7,0,1.3-0.6,1.3-1.3V26.9C77.4,26.9,77.4,26.8,77.4,26.7z M69.1,20.2
				l6.1,6.1h-6.1V20.2z M50.5,55.2V19.3h17.3v7.7c0,0.4,0.3,0.6,0.6,0.6h7.7l0,27.6H50.5z"/>
			<path d="M68.5,39.1c1.8,0,3.2-1.4,3.2-3.2c0-1.8-1.4-3.2-3.2-3.2s-3.2,1.4-3.2,3.2c0,0.3,0.1,0.7,0.2,1l-4.8,2.7
				c-0.6-0.7-1.4-1.1-2.4-1.1c-1.8,0-3.2,1.4-3.2,3.2c0,1.8,1.4,3.2,3.2,3.2c1,0,1.8-0.4,2.4-1.1l4.8,2.7c-0.1,0.3-0.2,0.6-0.2,1
				c0,1.8,1.4,3.2,3.2,3.2s3.2-1.4,3.2-3.2s-1.4-3.2-3.2-3.2c-1,0-1.8,0.4-2.4,1.1l-4.8-2.7c0.1-0.3,0.2-0.6,0.2-1
				c0-0.3-0.1-0.7-0.2-1l4.8-2.7C66.6,38.7,67.5,39.1,68.5,39.1z M68.5,34c1.1,0,1.9,0.9,1.9,1.9c0,1.1-0.9,1.9-1.9,1.9
				c-1.1,0-1.9-0.9-1.9-1.9S67.4,34,68.5,34z M58.2,43.6c-1.1,0-1.9-0.9-1.9-1.9s0.9-1.9,1.9-1.9c1.1,0,1.9,0.9,1.9,1.9
				S59.3,43.6,58.2,43.6z M68.5,45.5c1.1,0,1.9,0.9,1.9,1.9c0,1.1-0.9,1.9-1.9,1.9c-1.1,0-1.9-0.9-1.9-1.9
				C66.5,46.4,67.4,45.5,68.5,45.5z"/>
		</g>
	</g>
</g>
</svg>
