<?xml version="1.0" encoding="UTF-8"?>
<svg id="Capa_1" data-name="Capa 1" xmlns="http://www.w3.org/2000/svg" version="1.1" viewBox="0 0 512 512">
  <defs>
    <style>
      .cls-1 {
        fill: #07396a;
        stroke-width: 0px;
      }
    </style>
  </defs>
  <path class="cls-1" d="M435.5,146h-70.5v-50.5c0-2-.8-3.9-2.2-5.3L274.8,2.2C273.4.8,271.5,0,269.5,0H121.5C111.9,0,104,7.9,104,17.5v159.5h-22.5c-12.4,0-22.5,10.1-22.5,22.5v216c0,12.4,10.1,22.5,22.5,22.5h22.5v20.8c-.2,7.4,8.8,12.2,14.8,7.9l42.4-28.3c5.6-3.5,5.6-12.3,0-15.8l-42.4-28.3c-6-4.3-15,.5-14.8,7.9v20.8h-22.5c-4.1,0-7.5-3.4-7.5-7.5v-216c0-4.1,3.4-7.5,7.5-7.5h22.5v156.5c0,9.6,7.9,17.5,17.5,17.5h226c9.6,0,17.5-7.9,17.5-17.5v-75c0-4.1-3.4-7.5-7.5-7.5H119V17.5c0-1.4,1.1-2.5,2.5-2.5h140.5v70.5c0,9.6,7.9,17.5,17.5,17.5h70.5v135.5c0,4.1,3.4,7.5,7.5,7.5s7.5-3.4,7.5-7.5v-77.5h70.5c1.4,0,2.5,1.1,2.5,2.5v248.5h-231v-18.5c0-4.1-3.4-7.5-7.5-7.5s-7.5,3.4-7.5,7.5v101c0,9.6,7.9,17.5,17.5,17.5h226c9.6,0,17.5-7.9,17.5-17.5V163.5c0-9.6-7.9-17.5-17.5-17.5h0ZM119,412.5l27,18-27,18v-36ZM350,281v67.5c0,1.4-1.1,2.5-2.5,2.5H121.5c-1.4,0-2.5-1.1-2.5-2.5v-67.5h231ZM277,85.5V25.6l62.4,62.4h-59.9c-1.4,0-2.5-1.1-2.5-2.5ZM435.5,497h-226c-1.4,0-2.5-1.1-2.5-2.5v-67.5h231v67.5c0,1.4-1.1,2.5-2.5,2.5Z"/>
  <path class="cls-1" d="M374.5,454.5h-109c-4.1,0-7.5,3.4-7.5,7.5s3.4,7.5,7.5,7.5h109c4.1,0,7.5-3.4,7.5-7.5s-3.4-7.5-7.5-7.5Z"/>
  <path class="cls-1" d="M294,184.5c0-4.1-3.4-7.5-7.5-7.5h-109c-4.1,0-7.5,3.4-7.5,7.5s3.4,7.5,7.5,7.5h109c4.1,0,7.5-3.4,7.5-7.5Z"/>
  <path class="cls-1" d="M197.5,207c-4.1,0-7.5,3.4-7.5,7.5s3.4,7.5,7.5,7.5h72c4.1,0,7.5-3.4,7.5-7.5s-3.4-7.5-7.5-7.5h-72Z"/>
  <path class="cls-1" d="M269.5,162c4.1,0,7.5-3.4,7.5-7.5s-3.4-7.5-7.5-7.5h-72c-4.1,0-7.5,3.4-7.5,7.5s3.4,7.5,7.5,7.5h72Z"/>
  <path class="cls-1" d="M177.5,323.5h109c4.1,0,7.5-3.4,7.5-7.5s-3.4-7.5-7.5-7.5h-109c-4.1,0-7.5,3.4-7.5,7.5s3.4,7.5,7.5,7.5Z"/>
</svg>