<svg viewBox="0 0 32 32" xmlns="http://www.w3.org/2000/svg"><path d="m29 10.5v15a2 2 0 0 1 -2 2h-22a2 2 0 0 1 -2-2v-15z" fill="#00aeef"/><path d="m29 7.5v3h-26v-3a2 2 0 0 1 2-2h22a2 2 0 0 1 2 2z" fill="#2e3192"/><path d="m27 4.5h-3v-1a1 1 0 0 0 -2 0v1h-12v-1a1 1 0 0 0 -2 0v1h-3a3 3 0 0 0 -3 3v18a3 3 0 0 0 3 3h22a3 3 0 0 0 3-3v-18a3 3 0 0 0 -3-3zm-22 2h3a1 1 0 0 0 2 0h12a1 1 0 0 0 2 0h3a1 1 0 0 1 1 1v2h-24v-2a1 1 0 0 1 1-1zm22 20h-22a1 1 0 0 1 -1-1v-14h24v14a1 1 0 0 1 -1 1z" fill="#262262"/><g fill="#f1f2f2"><path d="m13 18.93a3 3 0 0 1 3-3 1 1 0 0 0 1-.84 1 1 0 0 0 -.68-1.09l-3-1a1 1 0 1 0 -.64 1.89l.32.11a5 5 0 0 0 -.26 7.72 1 1 0 0 0 .66.25 1 1 0 0 0 .6-1.79 3 3 0 0 1 -1-2.25z"/><path d="m21 18.93a5 5 0 0 0 -1.69-3.75 1 1 0 0 0 -1.31 1.5 3 3 0 0 1 -2 5.25 1 1 0 0 0 -.32 1.94l3 1a1 1 0 0 0 .32.06 1 1 0 0 0 .32-1.93l-.27-.09a5 5 0 0 0 1.95-3.98z"/></g></svg>