<svg height="440pt" viewBox="0 -37 440 440" width="440pt" xmlns="http://www.w3.org/2000/svg" xmlns:xlink="http://www.w3.org/1999/xlink"><linearGradient id="a"><stop offset="0" stop-color="#a9e1ff"/><stop offset="1" stop-color="#1593ff"/></linearGradient><linearGradient id="b" gradientUnits="userSpaceOnUse" x1="234.999" x2="305.001" xlink:href="#a" y1="325" y2="325"/><linearGradient id="c" gradientUnits="userSpaceOnUse" x1="0" x2="440" xlink:href="#a" y1="144.9995" y2="144.9995"/><linearGradient id="d" gradientUnits="userSpaceOnUse" x1="0" x2="348.5791" y1="128.0298" y2="128.0298"><stop offset="0" stop-color="#1593ff"/><stop offset="1" stop-color="#a9e1ff"/></linearGradient><path d="m304.160156 337.226562c-1.53125-2.296874-4.636718-2.917968-6.933594-1.386718l-22.226562 14.816406v-60.65625c0-2.761719-2.238281-5-5-5s-5 2.238281-5 5v60.65625l-22.226562-14.816406c-2.296876-1.53125-5.402344-.910156-6.933594 1.386718-1.53125 2.296876-.910156 5.402344 1.386718 6.933594l30 20c.058594.039063.121094.066406.179688.101563.078125.050781.152344.101562.234375.148437.042969.023438.089844.039063.136719.0625.085937.042969.167968.078125.253906.117188.125.050781.25.101562.375.140625.097656.035156.1875.066406.28125.089843.128906.035157.257812.0625.386719.085938.089843.019531.179687.039062.273437.050781.175782.023438.355469.03125.535156.039063.035157 0 .074219.007812.113282.007812.226562 0 .453125-.019531.675781-.050781.066406-.007813.132813-.023437.195313-.035156.160156-.027344.316406-.0625.46875-.105469.074218-.019531.148437-.042969.222656-.066406.148437-.050782.296875-.105469.441406-.171875.066406-.027344.128906-.054688.191406-.085938.171875-.082031.335938-.175781.5-.28125.027344-.015625.054688-.027343.082032-.046875l.050781-.03125c.011719-.007812.023437-.015625.03125-.023437l29.917969-19.945313c2.296874-1.53125 2.917968-4.636718 1.386718-6.933594zm0 0" fill="url(#b)"/><path d="m170 290h-110c-35.539062-10.0625-60-47.28125-60-86.179688 0-41.101562 29.089844-75.382812 67.738281-83.230468-.019531-.5625-.046875-1.128906-.046875-1.691406 0-37.527344 30.308594-67.949219 67.6875-67.949219 9.769532 0 19.042969 2.101562 27.421875 5.832031 16.589844-33.640625 51.121094-56.78125 91.050781-56.78125 56.070313 0 101.527344 45.628906 101.527344 101.910156 0 5.800782-.5 11.480469-1.429687 17.019532.480469-.007813.949219-.03125 1.429687-.03125 46.742188 0 84.621094 38.023437 84.621094 84.921874 0 45.988282-34.53125 84.730469-80 86.179688zm190-30v-20h-20v20zm-30 0v-20h-20v20zm-30 0v-20h-20v20zm-190-50v-20h-20v20zm-30 0v-20h-20v20zm-30 0v-20h-20v20zm0 0" fill="url(#c)"/><path d="m9.332031 222.230469c0-41.101563 29.089844-75.382813 67.742188-83.230469-.019531-.5625-.050781-1.132812-.050781-1.691406 0-37.527344 30.308593-67.949219 67.691406-67.949219 9.769531 0 19.039062 2.101563 27.417968 5.832031 16.589844-33.640625 51.121094-56.78125 91.050782-56.78125 35.828125 0 67.324218 18.636719 85.394531 46.769532-14.683594-38.128907-51.558594-65.179688-94.726563-65.179688-39.929687 0-74.460937 23.140625-91.050781 56.777344-8.378906-3.726563-17.652343-5.828125-27.421875-5.828125-37.378906 0-67.6875 30.417969-67.6875 67.949219 0 .5625.027344 1.128906.046875 1.691406-38.648437 7.847656-67.738281 42.128906-67.738281 83.230468 0 18.757813 5.703125 37.117188 15.578125 52.238282-4.03125-10.667969-6.246094-22.171875-6.246094-33.828125zm0 0" fill="url(#d)"/><g fill="#fff"><path d="m340 240h20v20h-20zm0 0"/><path d="m310 240h20v20h-20zm0 0"/><path d="m280 240h20v20h-20zm0 0"/><path d="m90 190h20v20h-20zm0 0"/><path d="m60 190h20v20h-20zm0 0"/><path d="m30 190h20v20h-20zm0 0"/><path d="m197.226562 244.160156c.851563.566406 1.816407.839844 2.769532.839844 1.613281 0 3.199218-.78125 4.164062-2.226562 1.53125-2.300782.910156-5.402344-1.386718-6.933594l-30-20c-.039063-.027344-.082032-.039063-.117188-.066406-.101562-.058594-.191406-.128907-.296875-.183594-.113281-.0625-.234375-.105469-.351563-.15625-.066406-.03125-.128906-.066406-.195312-.089844-.265625-.105469-.53125-.183594-.804688-.238281-.078124-.015625-.15625-.023438-.234374-.035157-.214844-.035156-.429688-.054687-.644532-.058593-.082031-.003907-.164062-.007813-.25-.003907-.273437.003907-.550781.03125-.820312.082032-.054688.011718-.109375.027344-.164063.042968-.222656.050782-.445312.117188-.660156.195313-.082031.03125-.164063.066406-.246094.101563-.222656.097656-.4375.210937-.648437.34375-.035156.023437-.074219.039062-.113282.0625v.003906l-30 20c-2.296874 1.527344-2.917968 4.632812-1.386718 6.933594 1.53125 2.296874 4.636718 2.917968 6.933594 1.386718l22.226562-14.816406v60.65625h10v-60.65625zm0 0"/><path d="m310 115c-2.09375 0-4.046875-1.324219-4.742188-3.417969-7.878906-23.632812-21.386718-42.023437-40.148437-54.664062-14.058594-9.472657-25.980469-11.992188-26.101563-12.019531-2.699218-.550782-4.449218-3.1875-3.902343-5.890626.546875-2.703124 3.175781-4.449218 5.875-3.910156 2.160156.429688 53.082031 11.28125 73.761719 73.320313.875 2.617187-.539063 5.449219-3.160157 6.324219-.523437.175781-1.058593.257812-1.582031.257812zm0 0"/></g></svg>