<svg id="Layer_1" enable-background="new 0 0 850 850" viewBox="0 0 850 850" xmlns="http://www.w3.org/2000/svg" xmlns:xlink="http://www.w3.org/1999/xlink"><defs><path id="XMLID_1_" d="m683.62 240.6s-12.22 32.47 3.11 33.86c15.33 1.4 26.91-17.27 23.2-30.81-3.71-13.53-19.5-24.73-26.31-3.05z"/><linearGradient id="lg1"><stop offset="0" stop-color="#ad695e"/><stop offset="1" stop-color="#8d544e"/></linearGradient><linearGradient id="SVGID_1_" gradientUnits="userSpaceOnUse" x1="685.582" x2="720.27" xlink:href="#lg1" y1="281.917" y2="281.917"/><linearGradient id="SVGID_2_" gradientUnits="userSpaceOnUse" x1="613.375" x2="645.264" xlink:href="#lg1" y1="594.392" y2="594.392"/><linearGradient id="SVGID_3_" gradientUnits="userSpaceOnUse" x1="689.249" x2="707.176" xlink:href="#lg1" y1="593.936" y2="593.936"/><linearGradient id="SVGID_4_" gradientUnits="userSpaceOnUse" x1="645.266" x2="734.858" xlink:href="#lg1" y1="369.568" y2="369.568"/><linearGradient id="SVGID_5_" gradientUnits="userSpaceOnUse" x1="683.317" x2="727.929" xlink:href="#lg1" y1="288.356" y2="288.356"/><clipPath id="XMLID_6_"><use xlink:href="#XMLID_1_"/></clipPath><linearGradient id="SVGID_6_" gradientUnits="userSpaceOnUse" x1="160.763" x2="204.353" xlink:href="#lg1" y1="339.343" y2="339.343"/><linearGradient id="SVGID_7_" gradientUnits="userSpaceOnUse" x1="159.581" x2="206.251" xlink:href="#lg1" y1="579.597" y2="579.597"/><linearGradient id="SVGID_8_" gradientUnits="userSpaceOnUse" x1="121.976" x2="150.261" xlink:href="#lg1" y1="581.766" y2="581.766"/><linearGradient id="SVGID_9_" gradientUnits="userSpaceOnUse" x1="97.752" x2="130.481" xlink:href="#lg1" y1="344.571" y2="344.571"/><linearGradient id="SVGID_10_" gradientUnits="userSpaceOnUse" x1="118.7" x2="177.845" xlink:href="#lg1" y1="342.798" y2="342.798"/></defs><g><g><g><g><g fill="#38ace5"><path d="m173.16 402.61h79.52c4.13 0 7.52-3.38 7.52-7.52v-54.58c0-4.13-3.38-7.52-7.52-7.52h-79.51c-4.13 0-7.52 3.38-7.52 7.52v54.58c-.01 4.14 3.37 7.52 7.51 7.52z"/><path d="m200.35 400.02-10.05 15.59-9.85-15.59z"/></g><g fill="#fff"><path d="m174.09 345.33h28.06v4.47h-28.06z"/><path d="m174.09 358.24h77.65v4.47h-77.65z"/><path d="m174.09 371.85h77.65v4.47h-77.65z"/><path d="m174.09 386.02h77.65v4.47h-77.65z"/></g></g><g><g fill="#58cbf9"><path d="m292.09 380.78h-79.52c-4.13 0-7.52-3.38-7.52-7.52v-54.58c0-4.13 3.38-7.52 7.52-7.52h79.51c4.13 0 7.52 3.38 7.52 7.52v54.58c0 4.14-3.38 7.52-7.51 7.52z"/><path d="m264.89 378.19 10.05 15.58 9.85-15.58z"/></g><g fill="#fff"><path d="m213.06 322.75h28.06v4.47h-28.06z"/><path d="m213.06 335.66h77.65v4.47h-77.65z"/><path d="m213.06 349.27h77.65v4.47h-77.65z"/><path d="m213.06 363.44h77.65v4.47h-77.65z"/></g></g></g><g><g><path d="m577.51 315.35v68.45c0 3.56 2.89 6.45 6.45 6.45h82.61c3.56 0 6.45-2.89 6.45-6.45v-59.52c0-3.56-2.89-6.45-6.45-6.45h-43.36c-1.71 0-3.35-.68-4.56-1.89l-5.14-5.14c-1.21-1.21-2.85-1.89-4.56-1.89h-24.99c-3.57 0-6.45 2.88-6.45 6.44z" fill="#58cbf9"/></g><g><path d="m594.88 322.38h60.76v78.49h-60.76z" fill="#f8f8f8"/><g fill="#c3dbe2"><path d="m601.2 329.81h17.36v3.04h-17.36z"/><path d="m601.2 336.65h22.39v3.04h-22.39z"/><path d="m640.96 336.65h8.29v3.04h-8.29z"/><path d="m601.2 343.49h48.05v3.04h-48.05z"/><path d="m601.2 350.33h48.05v3.04h-48.05z"/><path d="m601.2 357.17h48.05v3.04h-48.05z"/><path d="m601.2 364.01h48.05v3.04h-48.05z"/><path d="m601.2 370.85h48.05v3.04h-48.05z"/><path d="m601.2 377.69h48.05v3.04h-48.05z"/><path d="m601.2 384.53h48.05v3.04h-48.05z"/><path d="m601.2 391.37h48.05v3.04h-48.05z"/></g></g><g><path d="m575.37 351.95h100.86c4.3 0 7.62 3.79 7.05 8.06l-6.3 39.53c-.47 3.54-3.49 6.18-7.05 6.18h-89.11c-3.67 0-6.73-2.79-7.08-6.43l-5.45-39.53c-.41-4.19 2.88-7.81 7.08-7.81z" fill="#58cbf9"/></g></g><g><path d="m236.62 559.13 48.11-40.78 48.1 40.78-48.83 44.11z" fill="#38ace5"/><path d="m250.87 533.01h67.71v64.3h-67.71z" fill="#f8f8f8"/><g><path d="m287.66 569.1c-2.16 1.14-4.37 1.57-7 1.57-6.45 0-11.92-4.72-11.92-12.27 0-8.1 5.62-15.1 14.36-15.1 6.84 0 11.44 4.8 11.44 11.37 0 5.9-3.3 9.36-7 9.36-1.57 0-3.03-1.06-2.91-3.46h-.16c-1.38 2.32-3.19 3.46-5.55 3.46-2.28 0-4.25-1.85-4.25-4.96 0-4.88 3.85-9.32 9.32-9.32 1.69 0 3.19.35 4.21.83l-1.34 7.12c-.59 2.99-.12 4.37 1.18 4.4 2.01.04 4.25-2.64 4.25-7.2 0-5.7-3.42-9.79-9.52-9.79-6.41 0-11.8 5.07-11.8 13.06 0 6.57 4.29 10.62 10.11 10.62 2.24 0 4.33-.47 5.94-1.38zm-2.16-16.99c-.39-.12-1.06-.28-1.97-.28-3.46 0-6.25 3.26-6.25 7.08 0 1.73.87 2.99 2.6 2.99 2.28 0 4.37-2.91 4.8-5.35z" fill="#58cbf9"/></g><g><path d="m332.83 623.34h-96.21v-64.18l48.11 32.09 48.1-32.09z" fill="#58cbf9"/><path d="m236.62 623.34 48.11-40.77 48.1 40.77z" fill="#38ace5"/></g></g><g><g><path d="m553.53 541.07h74.05v102.32h-74.05z" fill="#38ace5"/><g><path d="m561.23 550.76h21.16v3.96h-21.16z" fill="#c3dbe2"/><path d="m561.23 559.67h27.28v3.96h-27.28z" fill="#c3dbe2"/><g fill="#fff"><path d="m609.68 559.67h10.11v3.96h-10.11z"/><path d="m561.23 568.59h58.56v3.96h-58.56z"/><path d="m561.23 577.5h58.56v3.96h-58.56z"/><path d="m561.23 586.42h58.56v3.96h-58.56z"/><path d="m561.23 595.34h58.56v3.96h-58.56z"/><path d="m561.23 604.25h58.56v3.96h-58.56z"/><path d="m561.23 613.17h58.56v3.96h-58.56z"/><path d="m561.23 622.08h58.56v3.96h-58.56z"/><path d="m561.23 631h58.56v3.96h-58.56z"/></g></g></g><g><path d="m527.44 534h74.05v102.32h-74.05z" fill="#58cbf9"/><g fill="#fff"><path d="m535.15 606.1h21.16v3.96h-21.16z"/><path d="m535.15 615.01h58.56v3.96h-58.56z"/><path d="m535.15 623.93h58.56v3.96h-58.56z"/></g><g><g><path d="m582.83 562.95c0-10.87-8.22-19.68-18.37-19.68-10.14 0-18.37 8.81-18.37 19.68 0 4.18 1.22 8.05 3.3 11.24h-.01l6.61 12.88h16.93l6.6-12.88c2.09-3.19 3.31-7.06 3.31-11.24z" fill="#fff"/><g fill="#38ace5"><path d="m560.78 587.11c-.32 0-.59-.28-.59-.63v-16.05c0-.35.26-.63.59-.63.32 0 .58.28.58.63v16.05c0 .35-.26.63-.58.63z"/><path d="m568.15 587.11c-.32 0-.59-.28-.59-.63v-16.05c0-.35.26-.63.59-.63.32 0 .58.28.58.63v16.05c0 .35-.26.63-.58.63z"/><path d="m572.76 571.43h-17.28c-.51 0-.93-.45-.93-1s.41-1 .93-1h17.28c.51 0 .93.45.93 1s-.42 1-.93 1z"/></g></g><g><path d="m574.76 599.3h-18.83c-2.08 0-3.76-1.68-3.76-3.76v-5.38c0-2.08 1.68-3.76 3.76-3.76h18.83c2.08 0 3.76 1.68 3.76 3.76v5.37c0 2.08-1.69 3.77-3.76 3.77z" fill="#fff"/></g></g></g></g><g><g><path d="m476.83 276.17h-71.2c-3.78 0-6.87-3.09-6.87-6.87v-40.69c0-3.78 3.09-6.87 6.87-6.87h71.2c3.78 0 6.87 3.09 6.87 6.87v40.69c.01 3.78-3.09 6.87-6.87 6.87z" fill="#38ace5"/><g fill="#fff"><path d="m398.44 233.08h85.27v11.57h-85.27z"/><g><path d="m404.11 264.53h74.25v3.19h-74.25z"/><path d="m455.22 257.35h23.14v3.19h-23.14z"/></g></g></g><g><path d="m442.5 261.05h-71.2c-3.78 0-6.87-3.09-6.87-6.87v-40.69c0-3.78 3.09-6.87 6.87-6.87h71.2c3.78 0 6.87 3.09 6.87 6.87v40.69c.01 3.78-3.09 6.87-6.87 6.87z" fill="#58cbf9"/><g><path d="m442.57 225.41h-16.33c-.87 0-1.58-.71-1.58-1.58v-9.33c0-.87.71-1.58 1.58-1.58h16.33c.87 0 1.58.71 1.58 1.58v9.33c-.01.87-.72 1.58-1.58 1.58z" fill="#38ace5"/><g fill="none" stroke="#dc970a" stroke-miterlimit="10" stroke-width=".413"><g><path d="m427.56 212.93v12.48"/><path d="m430.98 212.93v12.48"/><path d="m434.4 221.47v3.94"/><path d="m434.4 212.93v4.27"/><path d="m437.82 212.93v12.48"/><path d="m441.24 212.93v12.48"/></g><path d="m431.87 217.2h5.06v4.27h-5.06z"/></g></g><g fill="#fff"><path d="m369.89 213.85h11.57v11.57h-11.57z"/><g><path d="m369.89 235.67h26.83v3.19h-26.83z"/><path d="m369.89 242.86h74.25v3.19h-74.25z"/><path d="m369.89 250.04h74.25v3.19h-74.25z"/><path d="m431.32 235.67h12.82v3.19h-12.82z"/></g></g></g></g></g><g><path d="m474.02 432.01c-4.41 0-7.99-3.58-7.99-7.99v-44.13c0-22.9-18.63-41.54-41.54-41.54-22.9 0-41.53 18.63-41.53 41.54v44.13c0 4.41-3.58 7.99-7.99 7.99s-7.99-3.58-7.99-7.99v-44.13c0-31.71 25.8-57.51 57.51-57.51s57.51 25.8 57.51 57.51v44.13c.01 4.42-3.57 7.99-7.98 7.99z" fill="#f75e78"/><path d="m484.95 525.52h-120.91c-11.71 0-21.2-9.49-21.2-21.2v-90.74c0-11.71 9.49-21.2 21.2-21.2h120.91c11.71 0 21.2 9.49 21.2 21.2v90.73c0 11.72-9.49 21.21-21.2 21.21z" fill="#ed364d"/><g fill="#fff"><path d="m435.75 450.95c0 6.22-5.04 11.25-11.25 11.25-6.22 0-11.25-5.04-11.25-11.25 0-6.22 5.04-11.25 11.25-11.25 6.21-.01 11.25 5.03 11.25 11.25z"/><path d="m424.5 478.21c-2.47 0-4.5-2.02-4.5-4.5v-17.45c0-2.47 2.02-4.5 4.5-4.5 2.47 0 4.5 2.02 4.5 4.5v17.45c-.01 2.48-2.03 4.5-4.5 4.5z"/></g></g><g><g><path d="m699.6 224.14c-6.32-.09-12.87 2.59-16.91 8.17-1.76 2.42-2.99 5.29-4.05 8.19-1.25 3.4-2.29 6.9-3.32 10.39-2.21 7.41-4.41 14.83-6.61 22.24 1.77 1.77 4.1 3.21 6.33 4.05 5.86 2.18 12.08 3.12 18.23 2.76 1.73-3.63 3.36-7.32 5.09-10.95 1.04-2.18 2.08-4.38 2.7-6.76.76-2.94.85-6.06.83-9.13-.04-9.55-.53-19.64-2.29-28.96z" fill="#302120"/><path d="m640.79 304.58c-1.08-2.19-9.9 9.5-7.4 16.67s5.69 4.26 5.69 4.26 4.84-14.57 1.71-20.93z" fill="#5e5252"/><g><path d="m627.99 285.38s0 0 4.87 6.35c4.89 6.34 3.66 6.85 2.74 11.21-.86 4.08-7.84 3.18-10.61 1.96-2.35-1.02-8.62.56-10.36-.87-.7-.57 0-.88 2.02-1.1 2.38-.26 4.47-1.39 4.47-1.39-1.49-2.41-10.01-.53-11.25-3.37-.6-1.38 9.57 1.08 10.54-.35 0 0-.47-.93-5.37-2.57-2.81-.95-5.71-1.9-5.88-2.93-.29-1.88 5.28 1.22 12.35 1.91 0 0-2.85-1.6-5.59-2.89-2.5-1.17-4.95-1.97-4.37-3.14.47-.96 4.33.98 6.83 2.11 4.66 2.1 8.5 2.53 10.49 2.59.95.04 1.48-.02 1.48-.02-4.47-6.92-2.36-7.5-2.36-7.5z" fill="#ffb5a9"/></g><path d="m636.41 298.07 4.72 12.52-4.68 11.97s-3.53-14.22-4.77-18.7 4.73-5.79 4.73-5.79z" fill="#ffb5a9"/><path d="m691.77 280.39s-16.39 6.52-21.29 11.49l-13.32 45.13s-.45-3.15-1.36-1.87l-15.01-30.57s-.25 16.67-7.4 16.67c0 0 14.68 44.3 22.87 46.79s22.29-36.59 22.29-36.59z" fill="#302120"/><path d="m649.2 395.16c6.77-7.85 63.29-2.45 69.45 4.64s-9.11-93.6-9.11-93.6-27.85-2.81-29.41 5.16c-8.19 41.82-30.93 83.8-30.93 83.8z" fill="#2a1d1c"/><path d="m698.84 273.25s10.47-5.07 19.82-1.29l1.61 14.56s-22.23 8.87-29.42 6.26c-7.2-2.6-9.13-8.83 7.99-19.53z" fill="url(#SVGID_1_)"/><g fill="#ffb5a9"><path d="m622.26 603.43c2.55-2.26 9.11-11.93 10.46-16.8 1.9-6.87 4.16-16.31 6.46-26.6h9.82c-3.22 11.22-5.28 20.61-6.2 24.84.03.71.18 1.3.36 1.98.28 1.03.82 16.66.82 16.66h-21.98c.09-.03.15-.05.2-.06.03-.01.04-.01.06-.02z"/><path d="m695.94 560.03h11.6c-2.17 13.08-3.86 24.19-3.86 24.19v19.3h-12.64c1.22-5.78 4.73-23.09 4.73-30.39 0-4.29.07-8.68.17-13.1z"/><path d="m636.45 571.89c6.9-29.04 15.43-73 16.54-80.29.72-4.71 1.36-19.64 3.05-37.97.44-20.91 2.64-68.71 13.37-95.84l25.26.65c-1.02 21.55 18.07 44.8-5.18 69.72-3.03 9.31-13.06 40.86-14.51 54.76-1.72 16.4-4.51 23.67-13.18 41.97-7.5 15.84-12.81 34.29-16 47z"/><path d="m722.07 452.33c-1.62 9.18-3.91 15.32-5.18 23.05-1.84 11.25 3.39 27.54-1.89 45.65-2.5 8.57-7.17 36.88-9.66 52.54h-9.59c0-.15.01-.3.01-.44 0-38.11 4.8-83.54 4.09-100.82-.3-7.28-1.44-17.61-2.63-27.01-.01-.05-3.72-27.33-7.33-29.62-14.82-9.37-20.48-57.9-20.48-57.9l37.81 1.93s22.02 20.03 16.24 55.68c0 0 .02.37.05 1.01.94 16.77.03 27.61-1.44 35.93z"/></g><path d="m645.08 603.52s.97-14.31-1.59-18.04c0 0-2.83 4.91-6.69 4.91-2.52 0-3.53-6.34-5.68-4.91-1.89 1.25-3.16 4.82-8.23 8.48s-9.2 2.62-9.51 9.56z" fill="url(#SVGID_2_)"/><path d="m705.49 588.6s-.16-4.75-6.18-4.2-5.59 5.34-5.59 5.34-.91-.77-1.7 0-.12 7.36-1.65 8.75c-1.52 1.39-1.05 5.03-1.05 5.03h17.6s.95-4.68-.79-6.42 2.69-7.98-.64-8.5z" fill="url(#SVGID_3_)"/><path d="m713.26 343.51c4.49 12.08 18.38 54.46 13.84 111.11 0 0-13.54 9.32-42.63 8.26-31.48-1.15-39.2-12.11-39.2-12.11 12.35-52.8 28.36-114.96 28.36-114.96-17.44-32.58 13.03-55.4 13.03-55.4s.22-.09.63-.24c4-1.46 26.17-8.88 40.65 1.25.96.66 1.87 1.4 2.74 2.22 15.59 14.64-17.42 59.87-17.42 59.87z" fill="url(#SVGID_4_)"/><path d="m727.93 281.42c-1.88 1.13-4.12 2.34-6.75 3.63-47.98 23.49-36.71 1.48-36.71 1.48.03-1.58.5-3.06 1.35-4.43.4-.67.89-1.31 1.46-1.93 3.92-1.43 25.26-8.59 39.74.66.31.17.61.38.91.59z" fill="#ffb5a9"/><path d="m727.93 281.42c-1.88 1.13-4.12 2.34-6.75 3.63-47.98 23.49-36.71 1.48-36.71 1.48.03-1.58.5-3.06 1.35-4.43 1.75.9 5.31 2.66 6.48 2.96l.76 3.23 4.09-2.9s14.42.45 29.86-4.55c.32.16.62.37.92.58z" fill="url(#SVGID_5_)"/><path d="m718.65 276.18s-13.96 10.58-22.15 31.64 14.67 109.24 14.67 109.24 14.67-4.19 25.93-12.03l-16.72-61.97s18.08-41.06 18.42-47.78c0 0-3.11-14.69-20.15-19.1z" fill="#302120"/><path d="m724.44 277.5s2.12 7.34.57 22.83c0 0-3.6-2.93-10.42-2.5 0 0-16.93 21.07-17.17 52.93 0 0-7.22-30.49-2.02-45.97s23.26-32.83 23.26-32.83z" fill="#5e5252"/><path d="m690.06 278.68s-15.05 23.77-15.39 31.94 0 34.61 0 34.61l-25.24 56.81c-5.19-6.84-3.35-15.54 19.34-55.42 0 0-2.97-27.42-1.6-36.02 1.36-8.6 8.18-25.55 22.89-31.92z" fill="#302120"/><path d="m674.67 345.24s-.24-33.98 4.74-47.75c4.98-13.78 19.42-24.23 19.42-24.23s-18.09 6.5-25.02 23.33c0 0 1.71-.56 3.41-.37.01-.01-7.5 7.89-2.55 49.02z" fill="#5e5252"/><path d="m738.8 295.28s14.82 62.34 10.31 67.57-10.01 14.79-18.16-5.29-9.55-36.69-9.55-36.69 7.85-25.22 17.4-25.59z" fill="#302120"/><path d="m728.1 325.59s10.4-.26 12.85-7.73c0 0-8.02-3.1-12.85 7.73z" fill="#5e5252"/><path d="m728.85 307.82 3.68 16.55s6.27-1.46 7.63-5.94l-2.73-10.61z" fill="#ffb5a9"/><g><path d="m732.24 291.94s0 0-2.42 7.86c-2.43 7.86-1.12 7.84 1.19 11.53 2.16 3.45 8.36-.17 10.53-2.42 1.85-1.89 8.21-2.93 9.35-4.95.46-.81-.29-.82-2.25-.21-2.3.71-4.63.5-4.63.5.59-2.84 9.14-4.49 9.35-7.63.1-1.53-8.55 4.83-9.92 3.89 0 0 .12-1.05 4.13-4.54 2.3-2.01 4.68-4.05 4.49-5.08-.36-1.86-4.51 3.25-10.86 6.72 0 0 2.12-2.63 4.24-4.93 1.94-2.09 3.95-3.81 3.02-4.67-.76-.71-3.7 2.64-5.65 4.7-3.64 3.82-7.06 5.75-8.89 6.61-.87.42-1.39.57-1.39.57 1.87-8.26-.29-7.95-.29-7.95z" fill="#ffb5a9"/></g><g><g><g><use fill="#ffb5a9" xlink:href="#XMLID_1_"/></g><path d="m708.86 249.63s-2.36 14.23-1.09 27.3c.21 2.16-1.05 3.76-2.51 5.13-2.1 1.97-7.34 4.1-11.07 3.42-5.82-1.06 3.29-29.23 3.29-29.23z" fill="#ffb5a9"/></g></g><path d="m694.16 235.05c1.33 15.12 2.63 30.69-1.12 45.26 11.45 1.7 23.08-.88 33.39-6.84.42-11.37-1.77-23.26-5.66-33.73-1.84-4.94-4.15-9.79-7.7-13.3-3.54-3.51-8.5-5.5-13.02-4.06-4.51 1.45-6.37 7.33-5.89 12.67z" fill="#302120"/><path d="m696.09 236.26c-1.31 3.07-4.2 4.93-7.13 5.56s-5.94.21-8.9-.21c1.7-3.4 3.85-6.49 6.37-9.13 1.45-1.52 3.03-2.9 4.84-3.77 1.61-.77 3.42-1.13 5.15-.74.39.09.47.16.5.61.03.5.05 1.01.06 1.52.02 1 .01 2-.1 2.99-.12 1.09-.37 2.17-.79 3.17z" fill="#302120"/></g><g><path d="m120.28 256.12c.79 9.45 3.9 12.07.53 21.71-3.11 8.91-10.75 15.16-12.21 24.86-1.04 6.89.15 18.26 4.36 24.07 6.11 8.43 21.19 4.65 29.74 3.69 9.72-1.09 31.25-.67 37.68-10.08 4.87-7.14-.19-20.54-1.66-28.17-1.87-9.69-3.84-19.36-5.53-29.09-1.53-8.84-3.67-23.22-9.71-30.41-5.13-6.11-12.2-6.64-20.69-5.51-16.05 2.13-23.51 17.13-22.51 28.93z" fill="#302120"/><g><g><path d="m203.13 388.19s3.7.76 6.69 2.13c3 1.37 6.59 3.12 8.43 4 2.2 1.06.29 3.01-2.84 1.72s-3.85-1.58-3.85-1.58 10.49 7.86 12.27 10.9c1.62 2.78-4.38-1.27-9.53-4.34 0 0 8.82 9.35 8.27 11.47-.71 2.78-11.36-8.58-11.36-8.58s6.61 9.55 5.35 10.18c-1.4.7-9.35-8.24-9.35-8.24s3.96 6.96 2.98 7.08c-1.94.24-13.19-12.56-13.57-20.34.01 0 4.61-4.4 6.51-4.4z" fill="#ffb5a9"/></g><path d="m179.89 344.98c-5.08-43.69-14.63-60.02-14.63-60.02-8.94 36.58-2.29 55.32.71 64.86 3.01 9.54 30.65 43.93 30.65 43.93 2.14-2.68 4.99-4.63 7.73-5.26 0 0-8.76-15.44-11.86-21.23s-12.6-22.28-12.6-22.28z" fill="url(#SVGID_6_)"/></g><g><g><g><path d="m182.06 491.6-7.02 84.74h-12.36c-2.86-33.02-9.03-76.73.63-88.48-17.09-39.88-12.04-80.22-12.04-80.22 9.43-4.32 24.19-9.21 24.19-9.21 5.02 28.49 6.6 93.17 6.6 93.17z" fill="#302120"/></g><g><g><g><path d="m203.75 596.31h-40.43c-1.91 0-3.47-1.43-3.71-3.24-.03-.26-.04-.52-.02-.79l1.64-21.23s1.68-.78 4.04-1.33c1.4-.33 2.57-1.34 3-2.72.03-.1.06-.2.08-.31.93-4.09 6.82-5.39 7.91-1.39.14.52.26 1.02.37 1.5.03.12.05.24.07.36.17.86.3 1.65.39 2.34 0 .01 0 .03.01.04.22 1.76.2 2.89.2 2.89.53.68 1.05 1.35 1.55 2.01.26.33.5.65.75.97.53.69 1.05 1.36 1.56 2.01.23.3.47.6.7.89.56.7 1.11 1.37 1.67 1.99.25.28.5.56.75.82 2.08 2.19 4.19 3.69 6.67 4.03 4.38.6 11.55 1.08 15 7.52.07.13.13.27.17.41.52 1.54-.65 3.23-2.37 3.23z" fill="url(#SVGID_7_)"/></g></g></g></g><g><g><g><path d="m154.91 407.63s-2.92 45.22-8.85 84.15c-1.27 8.32-2.82 61.65-6.67 84.55h-12.38l-2.38-83.22s-6.69-53.12-.53-89.05z" fill="#302120"/></g><g><g><g><g><path d="m150.24 593.49c-.36 7.12-22.63 4.67-26.19 2.53-1.37-.83-1.95-2.42-2.06-4.35-.17-3.07.84-7.01 1.71-10.09 1.42-5.02 1.23-4.93 2.22-8.36 0 0-.26-5.58 7.04-7.71s9.97 11.76 11.22 14.43c1.14 2.45 5.57 5.79 6.03 11.82.05.56.06 1.13.03 1.73z" fill="url(#SVGID_8_)"/></g></g></g></g></g><g><path d="m125.22 394.67c-1.22 6.46-2.29 17.24.97 28.09 0 0 22.74 5.65 38.72-7.05 10.46-8.31 10.95-18.03 10.83-21.03h-50.52z" fill="#302120"/></g></g></g><g><g><path d="m107.6 398.52s2.96 2.68 4.5 5.6c1.54 2.91 3.03 6.02 3.94 7.84 1.1 2.18-1.22 2.32-2.82.77-2.43-2.36-2.78-4.09-2.78-4.09s3.51 12.63 3.06 16.13c-.41 3.19-2.69-3.68-4.9-9.26 0 0 1.27 12.79-.45 14.14-2.26 1.77-3.76-13.73-3.76-13.73s-.6 11.59-1.97 11.33c-1.53-.3-2.37-12.24-2.37-12.24s-1.12 7.93-1.96 7.43c-1.68-.99-2.78-18 1.67-24.39 0-.02 6.34-.7 7.84.47z" fill="#ffb5a9"/></g><g><g><g><path d="m130.48 310.28c-6.29 20.19-14.55 33.9-17.45 38.37-.19 2.84-1.14 16.31-2.84 29.05-1.13 8.45-1.54 16.58-1.68 21.82-3.32 1.48-6.69 1.43-10.11 0-1.47-21.58-.34-39.18 2.68-52.26-.18-17.05 17.63-58.73 17.63-58.73 8.5 6.26 11.77 21.75 11.77 21.75z" fill="url(#SVGID_9_)"/></g></g></g></g><g><path d="m177.84 395.85c-27.56 14.04-55.1 2.35-55.1 2.35 3.78-23.98 8.37-55.64 8.37-55.64-7.58-14.51-12.41-54.03-12.41-54.03 4.45-2.76 6.53-2.09 11.62-3.43 1.44-.38 2.76-.7 3.88-.96 2.31-.53 3.8-.8 3.8-.8 6.95-.95 14.19-.44 19.45.24.04.01.07.01.11.01 4.62.6 7.7 1.34 7.7 1.34s2.12 15.99 6.68 24.07c4.57 8.09 1.08 12.98 0 16.5-.21.68-.33 1.6-.4 2.65-.3 4.42-.68 25.2-.68 25.2z" fill="url(#SVGID_10_)"/><path d="m152.11 298.84c-7.56.23-14.34-8.26-17.91-14.69 2.31-.53 3.8-.8 3.8-.8 6.95-.95 14.19-.44 19.45.24.04.01.07.01.11.01.92 6.48 2.51 14.99-5.45 15.24z" fill="#ffb5a9"/></g><g fill="#ffb5a9"><path d="m140.72 292.06h16.12c-.73-3.19-2.25-11.44.1-17.06l-16.29-14.52s2.9 24.38.07 31.58z"/><path d="m155.28 282.49c-.06-2.44.33-5.08 1.67-7.48l-21.62-14.52s1.57 9.93 1.73 18.99c7.8 2.54 11.01 3.52 18.22 3.01z"/><path d="m160.27 277 1.3-3.23 3.25-9.53c.46-1.52.74-3.61.3-5.14-.53-1.84-.86-4.8-.04-8.05 2.2-8.71-1.39-13.51-1.39-13.51-4.62-8.36-16.48-8.93-16.48-8.93-14.7.02-16.61 14.47-16.61 14.47-2.83 9.54 4.3 17.95 4.31 17.96.9 1.06.92 2.72 1.32 3.99.43 1.37 1.11 2.66 1.97 3.78 1.94 2.52 4.51 4.98 7.21 6.56 2.55 1.5 7.56 3.16 11.17 3.31 1.48.08 2.95.17 3.69-1.68z"/></g><path d="m136.27 266.73c.26-6.85.41-6.42.41-6.42.26-1.99 3.88 2.52 3.93-.09.23-11.95 4.75-17.41 6.45-18.24 4.62-2.25 9.41-2.73 13.14-1.85 5.85 1.38 5.22 9.4 5.22 9.4 6.49-29.14-26.04-21.41-26.04-21.41-15.82 3.38-14.96 18.52-14.96 18.52-2.71 16.06 12.38 26.17 12.38 26.17z" fill="#302120"/><path d="m137.49 264.94c-.04.78-.69 1.39-1.46 1.35s-1.36-.71-1.32-1.49c.04-.79.69-1.39 1.46-1.35s1.36.7 1.32 1.49z" fill="#ffb5a9"/><path d="m158.35 237.45c-9.96 4.93-15.67 9.64-13.75 21.82 1.73 10.99 2.2 16.98-4.14 26.38-5.95 8.82-6.71 14-2.45 24 3.42 8.04 6.78 15.76-2.98 19.97-18.43 7.95-34.43-7.51-26.7-27.08 3.47-8.77 11.12-14.48 15.04-22.88 3.97-8.51.93-16.1.61-24.93-.53-14.77 20.15-35.1 31.81-20.21.98 1.25 1.78 2.79 2.5 4.22z" fill="#302120"/></g></g></g></svg>