<svg id="Layer_1" enable-background="new 0 0 492 492" viewBox="0 0 492 492" xmlns="http://www.w3.org/2000/svg"><g><path clip-rule="evenodd" d="m124.75 251.8c-14.63 0-27.87-5.93-37.46-15.52s-15.52-22.83-15.52-37.46c0-12.43 4.29-23.87 11.48-32.92 6.59-8.3 15.62-14.57 26.02-17.75.58-8.13 2.99-15.73 6.82-22.41 3.92-6.85 9.34-12.74 15.81-17.24-.49-1.73-.89-3.47-1.19-5.24-.52-2.98-.79-6.02-.79-9.1 0-14.63 5.93-27.87 15.52-37.46s22.83-15.52 37.46-15.52c8.59 0 16.72 2.06 23.92 5.71 5.21 2.64 9.92 6.12 13.96 10.26 4.03-6.96 9.6-12.91 16.24-17.39 8.46-5.71 18.64-9.04 29.6-9.04 13.56 0 25.94 5.12 35.33 13.53 8.02 7.19 13.83 16.78 16.31 27.64 1.74-.59 3.52-1.09 5.35-1.5.06-.01.13-.03.19-.04 3.73-.82 7.56-1.26 11.43-1.26 14.63 0 27.87 5.93 37.46 15.52s15.52 22.83 15.52 37.46c0 5.79-.95 11.4-2.71 16.69-1.04 3.12-2.35 6.1-3.9 8.92 10.21 2.75 19.19 8.46 25.96 16.15 8.22 9.33 13.2 21.58 13.2 34.99 0 14.63-5.93 27.87-15.52 37.46s-22.83 15.52-37.46 15.52z" fill="#5c9cee" fill-rule="evenodd"/><path clip-rule="evenodd" d="m206.65 123.42c-.01-.01-.01-.01 0 0-.19-.23-.34-.47-.48-.71-.01-.01-.01-.02-.02-.04.14.26.31.51.5.75zm3.67 1.75c-.73 0-1.42-.17-2.04-.46 0 0-.01 0-.01-.01.64.31 1.34.47 2.05.47zm-78.42-16.65c-6.47 4.5-11.88 10.39-15.81 17.24-3.82 6.68-6.23 14.28-6.82 22.41-10.4 3.17-19.43 9.45-26.02 17.75-7.19 9.05-11.48 20.49-11.48 32.92 0 6.72 1.25 13.14 3.53 19.06 42.14-1.35 83.01-17 120.14-39.02-3.04-6.87-4.73-14.47-4.73-22.47 0-2.61 2.11-4.72 4.72-4.72s4.72 2.11 4.72 4.72c0 6.2 1.22 12.11 3.44 17.5 25.75-16.14 49.56-35.15 70.55-54.24-7.74-5.88-17.4-9.38-27.88-9.38-6.14 0-12.14 1.21-17.66 3.5-1.4.58-2.77 1.23-4.11 1.95h-9.45v-5.27c3.14-2.13 6.49-3.93 9.99-5.38 6.69-2.77 13.9-4.24 21.24-4.24 13.22 0 25.36 4.62 34.9 12.33 15.74-14.75 29.73-29.37 41.58-42.57-1.53.37-3.03.8-4.5 1.3-2.48-10.86-8.29-20.45-16.31-27.64-9.38-8.41-21.77-13.53-35.33-13.53-10.96 0-21.14 3.33-29.6 9.04-6.63 4.48-12.2 10.43-16.24 17.39-4.04-4.13-8.75-7.61-13.96-10.26-7.2-3.65-15.33-5.71-23.92-5.71-14.63 0-27.87 5.93-37.46 15.52s-15.52 22.83-15.52 37.46c0 3.08.27 6.12.79 9.1.31 1.76.71 3.51 1.2 5.24z" fill="#6ca6f0" fill-rule="evenodd"/><g><path d="m175.85 355.74c0-2.92 1.82-5.29 4.06-5.29 8.99 0 18.06.77 26.94.77 2.24 0 4.06 2.37 4.06 5.29v30.89c0 2.92-1.82 5.29-4.06 5.29-8.07 0-17.86 0-26.94 0-2.24 0-4.06-2.37-4.06-5.29z" fill="#f9c5b8"/><path d="m225.81 319.99c2.4.54 4.16 2.71 4.1 5.26-.48 19.91-9.46 32.88-20.9 38.81-4.78 2.48-9.99 3.71-15.21 3.7s-10.44-1.27-15.23-3.77c-11.43-5.98-20.39-19-20.81-38.96-.05-2.45 1.58-4.54 3.84-5.17l-4.92-18.77c-.18-.7.24-1.42.94-1.6.72-.21 16.61-4.82 17.42-4.98.98-.2 27.87 1.96 27.95 1.96.04 0 .08.01.11.01l20.73 2.14c.37.04.68.22.9.49l5.12 6.44c.3.37.36.86.2 1.28z" fill="#f9c5b8"/><path clip-rule="evenodd" d="m227.82 284.38c16.41 14.02 2.73 40.94 1.56 43.16-.84 1.7-2.56 2.88-4.58 2.94-2.91.08-5.33-2.21-5.41-5.12-.38-12.83-2.57-18.79-4.17-21.46-15.24 7.86-27.21 3.33-35.93.04-2.34-.89-4.25-1.6-5.27-1.89-.52 12.08-5.09 22.64-6.06 24.77-.35.93-.97 1.77-1.84 2.4-2.36 1.71-5.66 1.18-7.37-1.18-11.55-15.93-9.34-31.98-.72-44.42 4.99-7.2 12.18-13.13 20.03-17 7.99-3.93 16.75-5.8 24.73-4.82 11.4 1.4 21.11 8.25 25.03 22.58z" fill="#6e555e" fill-rule="evenodd"/><path d="m175.85 369.76c14.49 4.56 27.55.12 35.06-3.66v-3.1c-.62.38-1.26.73-1.9 1.06-4.78 2.48-9.99 3.71-15.21 3.7s-10.44-1.27-15.23-3.77c-.92-.48-1.83-1.01-2.72-1.58z" fill="#fab1a6"/><g clip-rule="evenodd" fill-rule="evenodd"><path d="m123.57 457.45v-45.32c0-11.39 4.66-21.74 12.15-29.24 7.5-7.5 17.85-12.15 29.24-12.15h10.89c1.62 0 3.07.73 4.04 1.88l13.49 13.77 13.77-14.06c1.03-1.05 2.39-1.57 3.76-1.57v-.02h10.89c11.39 0 21.74 4.66 29.23 12.15 7.5 7.5 12.15 17.85 12.15 29.24v45.32c0 2.92-2.37 5.29-5.29 5.29h-129.03c-2.92 0-5.29-2.37-5.29-5.29z" fill="#b08cd2"/><path d="m160.07 462.74h-10.57v-40.42c0-2.92 2.37-5.29 5.29-5.29s5.29 2.37 5.29 5.29v40.42z" fill="#9e7ec7"/><path d="m236.01 373.27c5.69 2.1 10.81 5.41 15.03 9.63 7.5 7.5 12.15 17.85 12.15 29.24v45.32c0 2.92-2.37 5.29-5.29 5.29h-38.44c-.58-1.66-.89-3.43-.89-5.29v-45.32c0-13.86 5.51-27.05 15.31-36.84.69-.71 1.4-1.38 2.13-2.03z" fill="#9e7ec7"/></g><path d="m281.67 355.74c0-2.92 1.82-5.29 4.06-5.29 8.99 0 18.06.77 26.94.77 2.24 0 4.06 2.37 4.06 5.29v30.89c0 2.92-1.82 5.29-4.06 5.29-8.07 0-17.86 0-26.94 0-2.24 0-4.06-2.37-4.06-5.29z" fill="#f9c5b8"/><path d="m331.63 319.99c2.4.54 4.16 2.71 4.1 5.26-.48 19.91-9.46 32.88-20.9 38.81-4.78 2.48-9.99 3.71-15.21 3.7s-10.44-1.27-15.23-3.77c-11.43-5.98-20.39-19-20.81-38.96-.05-2.45 1.58-4.54 3.84-5.17l-4.92-18.77c-.18-.7.24-1.42.94-1.6.72-.21 16.61-4.82 17.42-4.98.98-.2 27.87 1.96 27.95 1.96.04 0 .08.01.11.01l20.73 2.14c.37.04.68.22.9.49l5.12 6.44c.3.37.36.86.2 1.28z" fill="#f9c5b8"/><path clip-rule="evenodd" d="m333.63 284.38c16.41 14.02 2.73 40.94 1.56 43.16-.84 1.7-2.56 2.88-4.58 2.94-2.91.08-5.33-2.21-5.41-5.12-.38-12.83-2.57-18.79-4.17-21.46-15.24 7.86-27.21 3.33-35.93.04-2.34-.89-4.25-1.6-5.27-1.89-.52 12.08-5.09 22.64-6.06 24.77-.35.93-.97 1.77-1.84 2.4-2.36 1.71-5.66 1.18-7.37-1.18-11.55-15.93-9.34-31.98-.72-44.42 4.99-7.2 12.18-13.13 20.03-17 7.99-3.93 16.75-5.8 24.73-4.82 11.41 1.4 21.12 8.25 25.03 22.58z" fill="#6e555e" fill-rule="evenodd"/><path d="m281.67 369.76c14.49 4.56 27.55.12 35.06-3.66v-3.1c-.62.38-1.26.73-1.9 1.06-4.78 2.48-9.99 3.71-15.21 3.7s-10.44-1.27-15.23-3.77c-.92-.48-1.83-1.01-2.72-1.58z" fill="#fab1a6"/><path clip-rule="evenodd" d="m229.33 457.45v-45.32c0-11.39 4.65-21.74 12.15-29.24s17.85-12.15 29.24-12.15h10.89c1.62 0 3.07.73 4.04 1.88l13.49 13.77 13.77-14.06c1.03-1.05 2.39-1.57 3.76-1.57v-.02h10.89c11.39 0 21.74 4.66 29.24 12.15 7.5 7.5 12.15 17.85 12.15 29.24v45.32c0 2.92-2.37 5.29-5.29 5.29h-129.05c-2.91 0-5.28-2.37-5.28-5.29z" fill="#98db7c" fill-rule="evenodd"/><path clip-rule="evenodd" d="m265.83 462.74h-10.57v-40.42c0-2.92 2.37-5.29 5.29-5.29s5.29 2.37 5.29 5.29v40.42z" fill="#89ca75" fill-rule="evenodd"/><path clip-rule="evenodd" d="m343.02 462.74h-10.57v-40.42c0-2.92 2.37-5.29 5.29-5.29s5.29 2.37 5.29 5.29v40.42z" fill="#89ca75" fill-rule="evenodd"/></g><g fill="#fff"><path d="m213.65 123.79c-1.84 1.84-4.83 1.84-6.67 0s-1.84-4.83 0-6.67c5.19-5.19 11.33-9.26 18.04-12.03 6.69-2.77 13.9-4.24 21.24-4.24 15.34 0 29.23 6.22 39.28 16.27s16.27 23.94 16.27 39.28c0 2.61-2.11 4.72-4.72 4.72s-4.72-2.11-4.72-4.72c0-12.73-5.16-24.26-13.51-32.61-8.34-8.34-19.87-13.51-32.61-13.51-6.14 0-12.14 1.21-17.66 3.5-5.51 2.29-10.59 5.67-14.94 10.01z"/><path d="m205.6 99.05c0-2.61 2.11-4.72 4.72-4.72s4.72 2.11 4.72 4.72v16.69h16.69c2.61 0 4.72 2.11 4.72 4.72s-2.11 4.72-4.72 4.72h-21.4c-2.61 0-4.72-2.11-4.72-4.72v-21.41z"/><path d="m278.87 189c1.84-1.84 4.83-1.84 6.67 0s1.84 4.83 0 6.67c-5.19 5.19-11.33 9.25-18.04 12.03-6.69 2.77-13.9 4.24-21.24 4.24-15.34 0-29.23-6.22-39.28-16.27s-16.27-23.94-16.27-39.28c0-2.61 2.11-4.72 4.72-4.72s4.72 2.11 4.72 4.72c0 12.73 5.16 24.26 13.51 32.61 8.34 8.34 19.87 13.51 32.61 13.51 6.14 0 12.14-1.21 17.66-3.5 5.51-2.29 10.59-5.67 14.94-10.01z"/><path d="m286.92 213.74c0 2.61-2.11 4.72-4.72 4.72s-4.72-2.11-4.72-4.72v-16.69h-16.68c-2.61 0-4.72-2.11-4.72-4.72s2.11-4.72 4.72-4.72h21.4c2.61 0 4.72 2.11 4.72 4.72z"/></g></g></svg>