<svg id="Layer_1" height="512" viewBox="0 0 512 512" width="512" xmlns="http://www.w3.org/2000/svg" data-name="Layer 1"><g><circle cx="256" cy="451.537" fill="#2891fa" r="49.463"/><g fill-rule="evenodd"><path d="m260.875 402.314c25.029 2.449 44.588 23.551 44.588 49.223s-19.559 46.774-44.588 49.223c-25.029-2.449-44.588-23.551-44.588-49.223s19.558-46.774 44.588-49.223z" fill="#43a2ff"/><path d="m291.738 485.732c-9.005 9.408-21.686 15.268-35.738 15.268s-26.734-5.859-35.738-15.268c9.004-9.409 21.686-15.269 35.738-15.269s26.733 5.86 35.738 15.269z" fill="#cfcfff"/><path d="m291.738 485.732c-7.949 8.306-18.764 13.845-30.857 15.029-14.384-1.406-26.959-8.973-35.056-20.027 8.35-6.44 18.816-10.27 30.176-10.27 14.051 0 26.733 5.86 35.738 15.269z" fill="#e9e9ff"/><path d="m256 470.464c10.424 0 18.927-8.502 18.927-18.927s-8.502-18.926-18.927-18.926-18.926 8.502-18.926 18.926 8.502 18.927 18.926 18.927z" fill="#e9e9ff"/></g></g><g><circle cx="398.265" cy="451.537" fill="#0ec75b" r="49.463" transform="matrix(.987 -.16 .16 .987 -67.186 69.625)"/><g fill-rule="evenodd"><path d="m403.139 402.314c25.029 2.449 44.588 23.551 44.588 49.223s-19.559 46.774-44.588 49.223c-25.029-2.449-44.588-23.551-44.588-49.223s19.558-46.774 44.588-49.223z" fill="#4fe88e"/><path d="m434.002 485.732c-9.005 9.408-21.686 15.268-35.738 15.268s-26.734-5.859-35.738-15.268c9.004-9.409 21.686-15.269 35.738-15.269s26.733 5.86 35.738 15.269z" fill="#cfcfff"/><path d="m434.002 485.732c-7.949 8.306-18.764 13.845-30.857 15.029-14.384-1.406-26.959-8.973-35.056-20.027 8.35-6.44 18.816-10.27 30.176-10.27 14.051 0 26.733 5.86 35.738 15.269z" fill="#e9e9ff"/></g><circle cx="398.264" cy="451.538" fill="#e9e9ff" r="18.927" transform="matrix(.973 -.23 .23 .973 -93.088 103.581)"/></g><g fill-rule="evenodd"><g><path d="m207.143 88.571c3.767-46.123 43.956-80.622 90.117-77.358 46.162 3.264 81.096 43.074 78.335 89.269 44.08 0 80.145 36.065 80.145 80.145s-36.065 80.145-80.145 80.145h-261.696c-31.907-.251-57.639-26.188-57.639-58.095s25.733-57.844 57.639-58.095c-7.761-30.765 12.371-63.006 41.109-69.793 17.391-4.107 37.569.562 52.134 13.782z" fill="#2891fa"/><path d="m298.688 11.333c45.45 3.976 79.639 43.433 76.907 89.15 44.08 0 80.145 36.065 80.145 80.145s-36.065 80.145-80.145 80.145h-235.281c-31.906-.251-57.639-26.188-57.639-58.095s17.987-57.844 49.894-58.095c-15.174-45.449 18.801-74.573 48.608-69.635 9.383 2.229 18.427 6.781 25.967 13.624 4.967 5.036 10.677 13.627 12.596 22.38-5.798-35.654 15.875-92.795 78.949-99.618z" fill="#43a2ff"/></g><path d="m250 328.292c0-3.314 2.686-6 6-6s6 2.686 6 6v34.478h136.264c3.314 0 6 2.686 6 6v48.305c0 3.314-2.686 6-6 6s-6-2.686-6-6v-42.305h-130.264v37.222c0 3.314-2.686 6-6 6s-6-2.686-6-6v-37.222h-130.288v42.305c0 3.301-2.675 5.977-5.976 5.977s-5.977-2.676-5.977-5.977v-48.305c0-3.301 2.675-5.977 5.976-5.977v-.023h136.265z" fill="#3d4a75"/><path d="m291.846 40.158c-3.301-.207-5.809-3.051-5.602-6.352s3.051-5.809 6.352-5.602c15.471.999 29.296 6.407 40.243 15.076 11.123 8.809 19.234 20.936 23.054 35.193.854 3.197-1.045 6.482-4.242 7.336s-6.482-1.045-7.336-4.242c-3.148-11.75-9.791-21.712-18.882-28.912-9.062-7.176-20.597-11.658-33.587-12.498z" fill="#e9e9ff"/></g><g><circle cx="113.736" cy="451.537" fill="#f9ac00" r="49.463" transform="matrix(.987 -.158 .158 .987 -69.807 23.596)"/><g fill-rule="evenodd"><path d="m118.611 402.314c25.029 2.449 44.588 23.551 44.588 49.223s-19.559 46.774-44.588 49.223c-25.029-2.449-44.588-23.551-44.588-49.223s19.558-46.774 44.588-49.223z" fill="#fdc72e"/><path d="m149.473 485.732c-9.005 9.408-21.686 15.268-35.737 15.268s-26.734-5.859-35.738-15.268c9.004-9.409 21.686-15.269 35.738-15.269s26.733 5.86 35.737 15.269z" fill="#cfcfff"/><path d="m149.473 485.732c-7.949 8.306-18.764 13.845-30.857 15.029-14.384-1.406-26.959-8.973-35.056-20.027 8.35-6.44 18.816-10.27 30.176-10.27 14.051 0 26.733 5.86 35.737 15.269z" fill="#e9e9ff"/></g><circle cx="113.736" cy="451.538" fill="#e9e9ff" r="18.927" transform="matrix(.973 -.231 .231 .973 -101.096 38.416)"/></g><g><path d="m337.272 342.028v-163.911c0-3.317-1.182-6.171-3.528-8.516l-35.731-35.73c-2.345-2.345-5.2-3.528-8.516-3.528h-114.77v211.685h162.544z" fill="#e9e9ff" fill-rule="evenodd"/><path d="m174.728 130.343h5.553v211.685h-5.553z" fill="#cfcfff"/><g fill-rule="evenodd"><path d="m298.014 133.87c-2.345-2.345-5.199-3.528-8.516-3.528h-3.057c4.381 1.808 7.486 6.131 7.486 11.145v24.493c0 4.245 3.462 7.707 7.707 7.707h24.493c5.014 0 9.337 3.104 11.145 7.486v-3.057c0-3.317-1.182-6.171-3.528-8.516l-35.731-35.73z" fill="#acace8"/><path d="m298.014 133.87c-1.896-1.896-4.126-3.032-6.663-3.398 2.651 2.215 4.345 5.542 4.345 9.245v24.493c0 4.245 3.462 7.707 7.707 7.707h24.493c3.704 0 7.031 1.694 9.245 4.345-.365-2.538-1.501-4.766-3.398-6.663l-35.731-35.731z" fill="#bcbcf5"/></g></g><path d="m257.091 167.688c3.314 0 6 2.686 6 6s-2.686 6-6 6h-54.638c-3.314 0-6-2.686-6-6s2.686-6 6-6zm52.456 137.947c3.314 0 6 2.686 6 6s-2.686 6-6 6h-21.258c-3.314 0-6-2.686-6-6s2.686-6 6-6zm-40.817 0c3.314 0 6 2.686 6 6s-2.686 6-6 6h-66.277c-3.314 0-6-2.686-6-6s2.686-6 6-6zm40.817-27.589c3.314 0 6 2.686 6 6s-2.686 6-6 6h-53.825c-3.314 0-6-2.686-6-6s2.686-6 6-6zm-76.582 0c3.314 0 6 2.686 6 6s-2.686 6-6 6h-30.513c-3.314 0-6-2.686-6-6s2.686-6 6-6zm76.582-27.59c3.314 0 6 2.686 6 6s-2.686 6-6 6h-78.627c-3.314 0-6-2.686-6-6s2.686-6 6-6zm-102.062 0c3.314 0 6 2.686 6 6s-2.686 6-6 6h-5.032c-3.314 0-6-2.686-6-6s2.686-6 6-6zm102.062-27.59c3.314 0 6 2.686 6 6s-2.686 6-6 6h-21.258c-3.314 0-6-2.686-6-6s2.686-6 6-6zm-40.817 0c3.314 0 6 2.686 6 6s-2.686 6-6 6h-66.277c-3.314 0-6-2.686-6-6s2.686-6 6-6zm40.817-27.589c3.314 0 6 2.686 6 6s-2.686 6-6 6h-107.094c-3.314 0-6-2.686-6-6s2.686-6 6-6z" fill="#bcbcf5" fill-rule="evenodd"/></svg>