<svg id="Layer_5" enable-background="new 0 0 64 64" height="512" viewBox="0 0 64 64" width="512" xmlns="http://www.w3.org/2000/svg" xmlns:xlink="http://www.w3.org/1999/xlink"><linearGradient id="SVGID_1_" gradientUnits="userSpaceOnUse" x1="32" x2="32" y1="63" y2="1"><stop offset="0" stop-color="#9f2fff"/><stop offset="1" stop-color="#0bb1d3"/></linearGradient><path d="m9 45.121c1.252.876 2 2.313 2 3.841v.222c-1.161.414-2 1.514-2 2.816 0 1.317.859 2.427 2.042 2.829.42 4.575 4.275 8.171 8.958 8.171s8.538-3.596 8.958-8.171c1.183-.402 2.042-1.512 2.042-2.829 0-1.302-.839-2.402-2-2.816v-.222c0-1.528.748-2.965 2-3.841 5.009-3.507 8-9.251 8-15.366 0-.255-.028-.503-.038-.755h17.038c3.86 0 7-3.14 7-7s-3.14-7-7-7c-.595 0-1.179.074-1.747.221-1.519-3.71-5.187-6.221-9.253-6.221-.444 0-.881.035-1.312.091-2.294-4.939-7.185-8.091-12.688-8.091-6.289 0-11.708 4.129-13.433 10.139-9.313 1.089-16.567 9.016-16.567 18.616 0 6.115 2.991 11.859 8 15.366zm11 15.879c-3.519 0-6.432-2.614-6.92-6h13.84c-.488 3.386-3.401 6-6.92 6zm8-8h-16c-.551 0-1-.448-1-1s.449-1 1-1h16c.551 0 1 .448 1 1s-.449 1-1 1zm-16.242-19.39c-.045-.105-.089-.211-.132-.32-.326-.839-1.014-1.485-1.887-1.771-.442-.145-.739-.556-.739-1.021v-.996c0-.465.297-.875.739-1.021.873-.286 1.561-.932 1.887-1.772.042-.107.086-.214.131-.318.356-.82.325-1.757-.087-2.572-.21-.415-.13-.916.199-1.245l.704-.704c.33-.33.828-.41 1.245-.199.815.412 1.753.443 2.571.087.106-.046.213-.09.32-.131.839-.327 1.485-1.015 1.772-1.887.145-.443.556-.74 1.021-.74h.996c.465 0 .875.297 1.021.74.287.872.932 1.56 1.771 1.886.107.042.214.086.319.131.819.356 1.757.325 2.572-.087.415-.21.916-.13 1.245.199l.704.704c.329.329.409.83.199 1.245-.412.815-.443 1.752-.087 2.571.045.105.089.212.132.321.326.839 1.014 1.484 1.887 1.771.442.145.739.556.739 1.021v.996c0 .465-.297.875-.74 1.021-.872.286-1.56.932-1.887 1.773-.042.107-.085.213-.13.317-.356.82-.325 1.758.087 2.572.21.415.13.915-.2 1.244l-.704.705c-.329.327-.828.407-1.245.198-.814-.411-1.751-.443-2.571-.088-.106.047-.214.091-.321.133-.839.326-1.484 1.015-1.771 1.887-.144.443-.555.74-1.02.74h-.996c-.465 0-.875-.298-1.021-.739-.286-.873-.932-1.561-1.769-1.886-.108-.043-.216-.087-.322-.133-.378-.164-.781-.246-1.186-.246-.473 0-.947.111-1.387.333-.417.209-.917.129-1.244-.198l-.705-.705c-.329-.329-.409-.829-.199-1.244.413-.815.445-1.752.089-2.572zm9.242 15.39v-6.042c1.117-.184 2.057-.971 2.419-2.074.059-.181.17-.325.303-.445l-1.557 8.561zm-4.722-8.561c.132.121.244.265.303.447.362 1.103 1.302 1.889 2.419 2.073v6.041h-1.165zm14.722-37.439c4.582 0 8.67 2.549 10.703 6.576-2.425.842-4.471 2.582-5.663 4.978l1.791.891c1.363-2.742 4.11-4.445 7.169-4.445 3.533 0 6.69 2.37 7.676 5.764l.316 1.085 1.039-.445c.625-.268 1.287-.404 1.969-.404 2.757 0 5 2.243 5 5s-2.243 5-5 5h-17.226c-1.163-7.844-7.18-14.121-14.904-15.641 1.336-2.638 4.045-4.359 7.13-4.359v-2c-4.096 0-7.664 2.427-9.204 6.079-.513-.043-1.028-.079-1.551-.079h-.489c-.018 0-.035.003-.053.003 1.672-4.769 6.145-8.003 11.297-8.003zm-11.245 10h.489c9.239 0 16.756 7.517 16.756 16.755 0 5.462-2.672 10.594-7.146 13.727-1.787 1.25-2.854 3.299-2.854 5.48v.038h-2.802l1.58-8.689c1.072.326 2.249.046 3.062-.766l.704-.705c.942-.941 1.171-2.372.57-3.561-.143-.282-.156-.601-.038-.874.056-.129.11-.26.161-.391.108-.279.345-.496.648-.596 1.265-.415 2.115-1.589 2.115-2.92v-.996c0-1.331-.85-2.505-2.116-2.921-.302-.099-.538-.316-.646-.594-.051-.132-.104-.263-.161-.393-.118-.273-.104-.591.038-.873.601-1.188.372-2.62-.57-3.561l-.704-.704c-.941-.942-2.372-1.17-3.561-.57-.281.143-.599.157-.874.038-.128-.056-.259-.109-.39-.161-.279-.108-.497-.345-.596-.648-.417-1.265-1.591-2.115-2.922-2.115h-.996c-1.331 0-2.505.85-2.921 2.116-.099.302-.316.538-.596.646-.131.051-.261.104-.391.161-.272.118-.591.105-.873-.038-1.189-.6-2.619-.372-3.561.57l-.704.704c-.942.941-1.171 2.373-.57 3.561.143.282.156.6.038.874-.056.129-.11.26-.161.39-.108.28-.345.497-.648.596-1.265.417-2.115 1.591-2.115 2.922v.996c0 1.331.85 2.505 2.116 2.921.302.1.538.316.646.594.051.133.105.264.162.394.118.272.104.591-.038.873-.601 1.188-.372 2.619.57 3.561l.705.705c.813.813 1.99 1.093 3.062.766l1.579 8.688h-2.802v-.038c0-2.181-1.067-4.229-2.853-5.479-4.475-3.133-7.147-8.265-7.147-13.728 0-9.238 7.517-16.755 16.755-16.755zm25.245 2v-2c3.309 0 6 2.691 6 6h-2c0-2.206-1.794-4-4-4zm-25 22c3.86 0 7-3.141 7-7 0-3.86-3.14-7-7-7s-7 3.14-7 7c0 3.859 3.14 7 7 7zm0-12c2.757 0 5 2.243 5 5s-2.243 5-5 5-5-2.243-5-5 2.243-5 5-5zm0 8c1.654 0 3-1.346 3-3s-1.346-3-3-3-3 1.346-3 3 1.346 3 3 3zm0-4c.551 0 1 .449 1 1s-.449 1-1 1-1-.449-1-1 .449-1 1-1zm31 4h-2v-2h2zm-2 8h-3v8h8v-8h-3v-6h-2zm3 6h-4v-4h4zm-12 4h-3v8h8v-8h-3v-16h-2zm3 6h-4v-4h4zm-1-24h-2v-2h2zm16 18h-3v8h8v-8h-3v-16h-2zm3 6h-4v-4h4zm-1-24h-2v-2h2z" fill="url(#SVGID_1_)"/></svg>