<svg enable-background="new 0 0 512 512" height="512" viewBox="0 0 512 512" width="512" xmlns="http://www.w3.org/2000/svg"><g id="_x33_57_x2C__Chat_x2C__Cloud_x2C__Message_x2C_"><g><g><g><path d="m75.829 193.249c-9.039-71.711 47.101-134.749 118.783-134.749 41.059 0 78.725 20.544 100.758 54.955 1.489 2.326.811 5.418-1.515 6.907s-5.417.812-6.907-1.515c-20.186-31.526-54.703-50.347-92.336-50.347-65.713 0-117.148 57.796-108.861 123.499.345 2.74-1.596 5.241-4.336 5.587-2.769.343-5.245-1.619-5.586-4.337z"/></g><path d="m397.668 348.5c-1.126 0-285.732-.051-286.114-.068-38.316-1.476-68.33-32.682-68.33-71.042 0-35.823 26.358-65.561 61.135-70.412-19.458-60.898 26.208-123.477 90.253-123.477 39.023 0 73.509 23.557 87.862 59.292 11.66-7.822 25.497-12.07 39.639-12.07 40.991 0 73.602 34.731 70.962 75.703 40.939-2.635 75.702 29.941 75.702 70.962 0 39.212-31.9 71.112-71.109 71.112z"/><path d="m111.844 338.435 285.823.065c33.696 0 61.109-27.414 61.109-61.111 0-37.302-33.349-66.167-70.577-60.378-3.341.518-6.229-2.361-5.709-5.71 5.799-37.212-23.078-70.577-60.378-70.577-14.164 0-27.97 4.956-38.874 13.955-2.718 2.241-6.863 1.043-7.944-2.331-11.278-35.198-43.702-58.847-80.683-58.847-59.664 0-100.833 60.449-78.73 116.008 1.27 3.189-.986 6.684-4.416 6.843-32.658 1.509-58.242 28.32-58.242 61.038 0 32.934 25.74 59.731 58.621 61.045z" fill="#e4f0fd"/><g><path d="m136.463 178.037c-2.762 0-5-2.239-5-5 0-32.829 26.708-59.537 59.537-59.537 2.762 0 5 2.239 5 5s-2.238 5-5 5c-27.314 0-49.537 22.222-49.537 49.537 0 2.761-2.238 5-5 5z"/></g></g><circle cx="433.516" cy="88.5" fill="#cadbfd" r="30"/><path d="m433.516 123.5c-19.299 0-35-15.701-35-35s15.701-35 35-35 35 15.701 35 35-15.701 35-35 35zm0-60c-13.785 0-25 11.215-25 25s11.215 25 25 25 25-11.215 25-25-11.215-25-25-25z"/><circle cx="68.516" cy="413.5" fill="#cadbfd" r="20"/><path d="m68.516 438.5c-13.785 0-25-11.215-25-25s11.215-25 25-25 25 11.215 25 25-11.215 25-25 25zm0-40c-8.271 0-15 6.728-15 15s6.729 15 15 15 15-6.728 15-15-6.728-15-15-15z"/><circle cx="336.016" cy="51" r="7.5"/><circle cx="436.016" cy="166" r="7.5"/><circle cx="446.016" cy="386" r="7.5"/><circle cx="76.016" cy="61" r="7.5"/><circle cx="121.016" cy="441" r="7.5"/><circle cx="361.016" cy="441" r="7.5"/><path d="m368.516 305.84c0 24.41-11.31 46.18-28.97 60.351l21.239 16.989h-66.699c-1.561-41.34-35.561-74.359-77.28-74.359-.97 0-1.94.02-2.91.06-.04-1.01-.06-2.02-.06-3.04 0-42.71 34.619-77.34 77.34-77.34 42.71-.001 77.34 34.629 77.34 77.339z" fill="#00ce66"/><path d="m294.086 383.18c.04.99.06 1.98.06 2.98 0 42.71-34.62 77.34-77.34 77.34h-69.61l21.24-16.99c-17.66-14.18-28.97-35.939-28.97-60.35 0-41.75 33.069-75.76 74.43-77.28.97-.04 1.94-.06 2.91-.06 41.72 0 75.72 33.02 77.28 74.36z" fill="#ff8848"/><path d="m360.786 388.18h-66.699c-2.762 0-5-2.238-5-5s2.238-5 5-5h52.444l-10.107-8.085c-1.185-.948-1.876-2.383-1.877-3.9-.001-1.518.688-2.954 1.871-3.903 17.222-13.819 27.099-34.394 27.099-56.451 0-39.889-32.451-72.34-72.34-72.34s-72.34 32.451-72.34 72.34c0 .954.018 1.898.056 2.842.109 2.76-2.038 5.085-4.798 5.194-2.764.115-5.084-2.039-5.194-4.798-.042-1.076-.063-2.151-.063-3.238 0-45.402 36.938-82.34 82.34-82.34s82.34 36.938 82.34 82.34c0 23.03-9.461 44.643-26.155 60.198l16.548 13.237c1.658 1.326 2.298 3.556 1.595 5.56-.705 2.003-2.597 3.344-4.72 3.344z"/><path d="m216.806 468.5h-69.61c-2.123 0-4.015-1.341-4.718-3.345-.702-2.004-.063-4.233 1.595-5.56l16.551-13.239c-16.696-15.563-26.157-37.174-26.157-60.196 0-21.459 8.207-41.772 23.108-57.2 14.863-15.387 34.799-24.292 56.138-25.077 1.017-.042 2.055-.063 3.094-.063 21.444 0 41.748 8.196 57.172 23.079 15.383 14.844 24.299 34.764 25.104 56.089.043 1.054.064 2.107.064 3.172-.001 45.403-36.938 82.34-82.341 82.34zm-55.354-10h55.355c39.889 0 72.34-32.451 72.34-72.34 0-.933-.019-1.855-.056-2.778 0-.005 0-.009 0-.014-1.473-38.999-33.224-69.548-72.284-69.548-.901 0-1.803.019-2.704.056-39.059 1.435-69.636 33.186-69.636 72.284 0 22.047 9.878 42.622 27.101 56.451 1.183.949 1.871 2.386 1.869 3.903s-.691 2.952-1.877 3.9z"/><path d="m213.516 363.5h-40c-2.762 0-5-2.238-5-5s2.238-5 5-5h40c2.762 0 5 2.238 5 5s-2.238 5-5 5z"/><path d="m258.516 388.5h-85c-2.762 0-5-2.238-5-5s2.238-5 5-5h85c2.762 0 5 2.238 5 5s-2.238 5-5 5z"/><path d="m258.516 413.5h-85c-2.762 0-5-2.238-5-5s2.238-5 5-5h85c2.762 0 5 2.238 5 5s-2.238 5-5 5z"/></g></g></svg>