<svg id="Layer_3" enable-background="new 0 0 60 60" height="512" viewBox="0 0 60 60" width="512" xmlns="http://www.w3.org/2000/svg"><g><g><g><g><path d="m15.001 6.579-7.421 7.421h7.421z" fill="#40444f"/></g></g></g><g><g><g><g><path d="m53 45c0 4.96-4.04 9-9 9s-9-4.04-9-9c0-2.05.7-4.01 1.94-5.58h-1.47c-.56 0-1-.45-1-1s.44-1 1-1h4c.08 0 .15.01.23.03.07.02.14.04.21.08.01 0 .01 0 .02.01.06.03.12.07.18.11l.02.02c.14.12.24.28.29.46.02.04.03.09.03.14.02.05.02.1.02.15v4c0 .55-.45 1-1 1-.56 0-1-.45-1-1v-1.72c-.94 1.22-1.47 2.72-1.47 4.3 0 3.86 3.14 7 7 7s7-3.14 7-7-3.14-7-7-7h-.19c-.56.07-1.04-.34-1.1-.89-.05-.55.35-1.04.9-1.1.14-.01.26-.01.39-.01 4.96 0 9 4.04 9 9z" fill="#40444f"/></g></g></g><g><g><path d="m47.019 46.999h-3.02c-.552 0-1-.448-1-1v-5c0-.552.448-1 1-1s1 .448 1 1v4h2.02c.552 0 1 .448 1 1s-.448 1-1 1z" fill="#40444f"/></g></g><g><g><g><path d="m44 6h-27v9c0 .55-.45 1-1 1h-9v35c0 1.65 1.35 3 3 3h27.68c-2.83-1.99-4.68-5.28-4.68-9 0-1.4.27-2.8.79-4.09-.79-.54-1.32-1.46-1.32-2.49 0-1.65 1.35-3 3-3h4c.24 0 .47.03.72.09.02.01.04.01.07.02h.48l.25.24c.43-.94 1.32-1.63 2.4-1.75.27-.02.43-.02.61-.02 1.04 0 2.05.14 3 .42v-25.42c0-1.65-1.34-3-3-3zm-19 30h-6c-.55 0-1-.45-1-1s.45-1 1-1h6c.55 0 1 .45 1 1s-.45 1-1 1zm12-6h-18c-.55 0-1-.45-1-1s.45-1 1-1h18c.55 0 1 .45 1 1s-.45 1-1 1zm0-6h-18c-.55 0-1-.45-1-1s.45-1 1-1h18c.55 0 1 .45 1 1s-.45 1-1 1zm0-6h-18c-.55 0-1-.45-1-1s.45-1 1-1h18c.55 0 1 .45 1 1s-.45 1-1 1z" fill="#2b79c3"/></g></g></g></g></g></svg>