<svg width="2500" height="920" viewBox="0 0 2500 920" fill="none" xmlns="http://www.w3.org/2000/svg">
<g clip-path="url(#clip0_1070_5350)">
<path fill-rule="evenodd" clip-rule="evenodd" d="M1094.14 418.224L965.678 172.071H787.798L1094.14 755.995L1399.57 172.071H1222.61L1094.14 418.224ZM2213.5 302.339L2463.25 742.533H2270.98L2240.45 681.432H2023.03L1993.39 742.533H1801.15L2131.72 157.7L2213.5 302.339ZM2213.5 213.405C2220.67 213.405 2226.97 210.707 2231.46 205.325C2236.86 199.93 2239.54 193.639 2239.54 186.454C2239.54 179.269 2236.86 173.873 2231.46 168.491C2226.97 163.095 2220.67 160.398 2213.5 160.398C2206.3 160.398 2200.02 163.095 2194.63 168.491C2189.23 173.886 2187.43 179.269 2187.43 186.454C2187.43 193.639 2190.14 199.93 2194.63 205.325C2200.02 210.707 2206.3 213.405 2213.5 213.405ZM2213.5 155.002C2205.42 155.002 2197.31 157.7 2191.94 163.99C2184.75 169.373 2182.03 177.466 2182.03 186.441C2182.03 195.429 2184.75 203.509 2191.02 208.892C2197.3 215.182 2204.5 218.775 2213.49 218.775C2221.57 218.775 2229.65 215.182 2235.92 209.787C2242.23 203.509 2244.91 195.416 2244.91 186.428C2244.91 178.348 2242.23 170.255 2235.92 163.977C2229.66 157.7 2222.46 155.002 2213.5 155.002ZM2213.5 191.836C2214.38 191.836 2215.3 192.744 2216.18 192.744C2217.09 192.744 2217.99 193.639 2217.99 195.442C2218.89 196.337 2218.89 197.232 2218.89 199.93C2218.89 201.732 2218.89 203.522 2219.78 204.417H2227.86V203.522V202.627V198.14C2227.86 194.547 2226.97 191.849 2224.26 190.06C2223.38 189.165 2221.58 189.165 2219.78 188.257C2222.13 188.156 2224.36 187.196 2226.05 185.559C2226.96 184.664 2227.86 182.861 2227.86 179.269C2227.86 175.676 2226.97 172.978 2223.37 171.176C2221.13 170.052 2218.67 169.436 2216.17 169.373H2199.09V204.417H2208.97V191.836H2213.5ZM2213.5 175.676H2208.99V185.559H2213.49C2215.29 185.559 2216.17 184.664 2217.08 184.664C2218.88 183.769 2218.88 181.966 2218.88 180.177C2218.88 178.374 2217.97 176.584 2216.17 176.584C2215.3 175.676 2214.38 175.676 2213.5 175.676ZM2131.72 468.52L2076.93 574.535H2186.55L2131.72 468.52ZM752.767 742.533V172.083H586.572V742.533H752.767ZM1785.87 324.802V172.083H1434.6V742.533H1785.87V590.722H1601.72V516.145H1785.87V396.668H1601.72V324.802H1785.87ZM487.742 172.083H321.548V393.97L36.7578 135.236V742.533H202.952V530.503L487.73 784.762L487.742 172.083Z" fill="black"/>
</g>
<defs>
<clipPath id="clip0_1070_5350">
<rect width="2500" height="920" fill="white"/>
</clipPath>
</defs>
</svg>
