<svg id="Illustration" xmlns="http://www.w3.org/2000/svg" xmlns:xlink="http://www.w3.org/1999/xlink" width="350.596" height="266.116" viewBox="0 0 350.596 266.116">
  <defs>
    <linearGradient id="linear-gradient" x1="9.94" y1="-4.889" x2="9.94" y2="-5.894" gradientUnits="objectBoundingBox">
      <stop offset="0" stop-color="#ccc"/>
      <stop offset="1" stop-color="#ccc"/>
    </linearGradient>
    <linearGradient id="linear-gradient-2" x1="0.742" y1="0.94" x2="0.259" y2="0.06" xlink:href="#linear-gradient"/>
    <linearGradient id="linear-gradient-3" x1="5.84" y1="-0.609" x2="5.84" y2="-1.609" xlink:href="#linear-gradient"/>
    <linearGradient id="linear-gradient-4" x1="0.607" y1="0.986" x2="0.393" y2="0.013" xlink:href="#linear-gradient"/>
    <linearGradient id="linear-gradient-5" x1="5.379" y1="-2.761" x2="5.379" y2="-3.761" xlink:href="#linear-gradient"/>
    <linearGradient id="linear-gradient-6" x1="0.606" y1="0.986" x2="0.392" y2="0.013" xlink:href="#linear-gradient"/>
    <linearGradient id="linear-gradient-7" x1="15.78" y1="-5.837" x2="15.78" y2="-6.835" xlink:href="#linear-gradient"/>
    <linearGradient id="linear-gradient-8" x1="0.743" y1="0.936" x2="0.264" y2="0.064" xlink:href="#linear-gradient"/>
  </defs>
  <g id="Group_598" data-name="Group 598">
    <ellipse id="Ellipse_73" data-name="Ellipse 73" cx="143.721" cy="2.139" rx="143.721" ry="2.139" transform="translate(63.155 241.196)" fill="#ebeff2"/>
    <g id="Group_524" data-name="Group 524" transform="translate(51.366)">
      <g id="Group_497" data-name="Group 497" transform="translate(109.446 177.927)">
        <g id="Group_491" data-name="Group 491" transform="translate(0.637 0.523)">
          <g id="Group_490" data-name="Group 490">
            <g id="Group_489" data-name="Group 489">
              <g id="Group_488" data-name="Group 488">
                <g id="Group_487" data-name="Group 487">
                  <path id="Path_1570" data-name="Path 1570" d="M1119.952,1145.252H1058.8l12.221-61.152h36.71Z" transform="translate(-1058.8 -1084.1)" fill="#fff"/>
                </g>
              </g>
            </g>
          </g>
        </g>
        <g id="Group_496" data-name="Group 496">
          <g id="Group_495" data-name="Group 495">
            <g id="Group_494" data-name="Group 494">
              <g id="Group_493" data-name="Group 493">
                <g id="Group_492" data-name="Group 492">
                  <path id="Path_1571" data-name="Path 1571" d="M1118.427,1144H1056l12.449-62.2H1106l.091.41Zm-61.152-1.047h59.878l-12.016-60.105h-35.845Z" transform="translate(-1056 -1081.8)" fill="#777b7f"/>
                </g>
              </g>
            </g>
          </g>
        </g>
      </g>
      <g id="Group_513" data-name="Group 513">
        <g id="Group_502" data-name="Group 502" transform="translate(6.122)">
          <g id="Group_501" data-name="Group 501">
            <g id="Group_500" data-name="Group 500">
              <g id="Group_499" data-name="Group 499">
                <g id="Group_498" data-name="Group 498">
                  <path id="Path_1572" data-name="Path 1572" d="M868.64,483.457H616.679A14.686,14.686,0,0,1,602,468.778v-154.1A14.686,14.686,0,0,1,616.679,300H868.64a14.686,14.686,0,0,1,14.679,14.679V468.8A14.666,14.666,0,0,1,868.64,483.457Z" transform="translate(-602 -300)" fill="#777b7f"/>
                </g>
              </g>
            </g>
          </g>
        </g>
        <g id="Group_507" data-name="Group 507">
          <g id="Group_506" data-name="Group 506">
            <g id="Group_505" data-name="Group 505">
              <g id="Group_504" data-name="Group 504">
                <g id="Group_503" data-name="Group 503">
                  <path id="Path_1573" data-name="Path 1573" d="M841.74,483.457H589.779A14.686,14.686,0,0,1,575.1,468.778v-154.1A14.686,14.686,0,0,1,589.779,300H841.74a14.686,14.686,0,0,1,14.679,14.679V468.8A14.666,14.666,0,0,1,841.74,483.457Z" transform="translate(-575.1 -300)" fill="#393947"/>
                </g>
              </g>
            </g>
          </g>
        </g>
        <g id="Group_512" data-name="Group 512" transform="translate(3.05 3.05)">
          <g id="Group_511" data-name="Group 511">
            <g id="Group_510" data-name="Group 510">
              <g id="Group_509" data-name="Group 509">
                <g id="Group_508" data-name="Group 508">
                  <path id="Path_1574" data-name="Path 1574" d="M600.13,490.758a11.636,11.636,0,0,1-11.63-11.63V325.03a11.636,11.636,0,0,1,11.63-11.63H852.09a11.636,11.636,0,0,1,11.63,11.63V479.151a11.636,11.636,0,0,1-11.63,11.63H600.13Z" transform="translate(-588.5 -313.4)" fill="#fff"/>
                </g>
              </g>
            </g>
          </g>
        </g>
      </g>
      <g id="Group_518" data-name="Group 518" transform="translate(83.183 238.988)">
        <g id="Group_517" data-name="Group 517">
          <g id="Group_516" data-name="Group 516">
            <g id="Group_515" data-name="Group 515">
              <g id="Group_514" data-name="Group 514">
                <path id="Path_1575" data-name="Path 1575" d="M1062.9,1356.222H940.6a6.124,6.124,0,0,1,6.122-6.122h110.083a6.1,6.1,0,0,1,6.1,6.122Z" transform="translate(-940.6 -1350.1)" fill="#777b7f"/>
              </g>
            </g>
          </g>
        </g>
      </g>
      <g id="Group_523" data-name="Group 523" transform="translate(79.496 238.988)">
        <g id="Group_522" data-name="Group 522">
          <g id="Group_521" data-name="Group 521">
            <g id="Group_520" data-name="Group 520">
              <g id="Group_519" data-name="Group 519">
                <path id="Path_1576" data-name="Path 1576" d="M1046.727,1356.222H924.4a6.124,6.124,0,0,1,6.122-6.122h110.083a6.124,6.124,0,0,1,6.122,6.122Z" transform="translate(-924.4 -1350.1)" fill="#393947"/>
              </g>
            </g>
          </g>
        </g>
      </g>
    </g>
    <g id="Group_541" data-name="Group 541" transform="translate(0 104.497)">
      <ellipse id="Ellipse_74" data-name="Ellipse 74" cx="93.333" cy="1.479" rx="93.333" ry="1.479" transform="translate(0 158.615)" fill="#ebeff2"/>
      <g id="Group_525" data-name="Group 525" transform="translate(34.047 107.818)">
        <path id="Path_1577" data-name="Path 1577" d="M546.361,1286.7l-4.984-48.134a5.8,5.8,0,0,0-5.781-5.212H510.22a5.786,5.786,0,0,0-5.781,5.212l-4.984,48.134-.455-.046,4.984-48.134a6.266,6.266,0,0,1,6.236-5.621H535.6a6.234,6.234,0,0,1,6.236,5.621l4.984,48.134Z" transform="translate(-499 -1232.9)" fill="#393947"/>
      </g>
      <g id="Group_526" data-name="Group 526" transform="translate(15.908 107.818)">
        <path id="Path_1578" data-name="Path 1578" d="M466.661,1286.7l-4.984-48.134a5.8,5.8,0,0,0-5.781-5.212H430.52a5.786,5.786,0,0,0-5.781,5.212l-4.984,48.134-.455-.046,4.984-48.134a6.267,6.267,0,0,1,6.236-5.621h25.353a6.234,6.234,0,0,1,6.236,5.621l4.984,48.134Z" transform="translate(-419.3 -1232.9)" fill="#393947"/>
      </g>
      <g id="Group_527" data-name="Group 527" transform="translate(7.339 47.212)">
        <path id="Path_1579" data-name="Path 1579" d="M388.031,970.646a6.377,6.377,0,0,0-6.281,7.51l7.829,43.332a10.619,10.619,0,0,0,10.469,8.739h52.777a2.137,2.137,0,0,0,2.139-2.139h0a2.137,2.137,0,0,0-2.139-2.139H433.89a6.372,6.372,0,0,1-6.281-5.257l-8.1-44.834a6.372,6.372,0,0,0-6.281-5.257H388.031Z" transform="translate(-381.647 -969.69)" fill="#d0d0d0"/>
        <path id="Path_1580" data-name="Path 1580" d="M392.131,966.645a6.377,6.377,0,0,0-6.281,7.51l7.829,43.333a10.619,10.619,0,0,0,10.469,8.739h52.777a2.137,2.137,0,0,0,2.139-2.139h0a2.137,2.137,0,0,0-2.139-2.139H437.99a6.372,6.372,0,0,1-6.281-5.257l-8.1-44.834a6.372,6.372,0,0,0-6.281-5.257H392.131Z" transform="translate(-384.814 -966.6)" fill="#ebeff2"/>
      </g>
      <g id="Group_537" data-name="Group 537" transform="translate(15.976)">
        <path id="Path_1581" data-name="Path 1581" d="M536.923,838.8s-1.479,6.3-6.623,8.512l5.3,11.015h13.245l2.071-9.764-3.164-2.526s-.546-3.323-.774-7.237Z" transform="translate(-505.106 -820.673)" fill="#e29a7a"/>
        <g id="Group_529" data-name="Group 529" transform="translate(20.779 23.998)">
          <g id="Group_528" data-name="Group 528">
            <path id="Path_1582" data-name="Path 1582" d="M535.479,868.059l-1.821-1.616s-.273,7.966-5.462,7.966c-6.259,0-9.354-9.809-9.354-9.809l-1.525,1.252c-.888.728-1.525,1.161-1.525,1.161l-4.893,63.11,30.132-1.457-4.165-26.445S535.479,880.577,535.479,868.059Z" transform="translate(-510.9 -864.6)" fill="#fff"/>
          </g>
        </g>
        <g id="Group_530" data-name="Group 530" transform="translate(29.859 82.397)">
          <path id="Path_1583" data-name="Path 1583" d="M689.6,1394.4v5.417l5.257,6.1-.228,1.889-13.428-1.183V1394.4Z" transform="translate(-651.523 -1332.224)" fill="#f5b493"/>
          <path id="Path_1584" data-name="Path 1584" d="M676.1,1420.635v9.172h24.192a1.3,1.3,0,0,0,1.3-1.3h0a1.274,1.274,0,0,0-.546-1.047c-2.481-1.752-12.7-8.853-15.385-9.263,0,0-2.276,2.822-5.257,2.822A17.171,17.171,0,0,1,676.1,1420.635Z" transform="translate(-647.583 -1350.607)" fill="#393947"/>
          <path id="Path_1585" data-name="Path 1585" d="M550.8,1121.223v12.244c0,4.074,1.411,4.6,9.1,6.464s16.932,3.755,16.932,3.755L579.7,1185.4s8.421,2.8,11.4.91c0,0,3.186-24.443,3.6-34.638s.91-18.071-2.64-21.37c-6.577-6.122-19.459-9.1-19.459-9.1H550.8Z" transform="translate(-550.8 -1121.2)" fill="#393947"/>
        </g>
        <path id="Path_1586" data-name="Path 1586" d="M549.059,759.164c-5.621.137-8.489,4.916-9.035,9.194-.387,3.118,1.479,8.352,2.5,10.947a2.709,2.709,0,0,0,2.321,1.707l.615.045,13.7-4.8,1.912-9.468C561.075,766.811,564.125,758.823,549.059,759.164Z" transform="translate(-512.576 -759.153)" fill="#393947"/>
        <g id="Group_532" data-name="Group 532" transform="translate(10.424 82.297)">
          <path id="Path_1587" data-name="Path 1587" d="M580.8,1394.4v12.221l13.4,1.183.25-1.889-5.257-6.1V1394.4Z" transform="translate(-554.536 -1332.124)" fill="#f5b493"/>
          <path id="Path_1588" data-name="Path 1588" d="M575.6,1420.635v9.172h24.215a1.3,1.3,0,0,0,1.3-1.3h0a1.274,1.274,0,0,0-.546-1.047c-2.481-1.752-12.7-8.853-15.385-9.263,0,0-2.276,2.822-5.257,2.822A17.506,17.506,0,0,1,575.6,1420.635Z" transform="translate(-550.52 -1350.507)" fill="#393947"/>
          <path id="Path_1589" data-name="Path 1589" d="M465.4,1121.3v13.655c0,4.073,5.439,5.689,11.311,6.873s14.725,1.957,14.725,1.957l-.933,41.125s9.468,2.3,12.449.41c0,0,4.347-24.9,5.758-34.32,1.411-9.4,2.344-15.885,0-20.118s-21.484-9.559-21.484-9.559H465.4Z" transform="translate(-465.4 -1121.178)" fill="#393947"/>
          <g id="Group_531" data-name="Group 531" transform="translate(21.703)">
            <path id="Path_1590" data-name="Path 1590" d="M582.346,1150.676h0a.127.127,0,0,1-.114-.137c1.365-9.172,2.367-15.794.023-20.05-2.3-4.142-21.234-9.468-21.416-9.513a.108.108,0,0,1,.068-.2c.774.228,19.208,5.394,21.552,9.627,2.39,4.3,1.388,10.97.023,20.187A.165.165,0,0,1,582.346,1150.676Z" transform="translate(-560.762 -1120.762)" fill="#070707"/>
          </g>
        </g>
        <path id="Path_1591" data-name="Path 1591" d="M471.511,875.3l-13.837,11.22s-3.3,47.611-4.074,54.962c0,0,14.27-5.03,19.3-8.466,0,0,5.94-33.865,4.552-42.513A40.727,40.727,0,0,0,471.511,875.3Z" transform="translate(-445.862 -848.867)" fill="#4880f4"/>
        <path id="Path_1592" data-name="Path 1592" d="M603.214,879.8s-4.506,19.254-4.62,33.478a45.053,45.053,0,0,0,3.5,18.343,7.411,7.411,0,0,0,5.758,4.347l9.581,1.32s-9.855-7.783-8.079-20.437,3.027-31.543,3.027-31.543Z" transform="translate(-557.856 -852.343)" fill="#4880f4"/>
        <path id="Path_1593" data-name="Path 1593" d="M566.659,783.03c.523,3.118.023,9.49-.592,13.223-.615,3.755-3.05,9.285-7.328,8.216s-7.852-4.074-7.829-8.739c0,0-3.71-.8-3.71-4.484,0-3.664,3.482-3.619,3.869-.979,0,0,2.253-3.414,1.07-6.554-1.183-3.163,3-4.393,4.916-2.981A12.117,12.117,0,0,0,566.659,783.03Z" transform="translate(-518.16 -775.373)" fill="#f5b493"/>
        <g id="Group_534" data-name="Group 534" transform="translate(43.745 27.89)">
          <path id="Path_1594" data-name="Path 1594" d="M707.982,1064.321a23.428,23.428,0,0,0,3.232.455c2.5.25,6.236-1.525,9.558-1.206s6.077,1.775,7.306,3.254,1.912,2.594,1.138,2.936-2.777-2.367-4.233-3.095a7.01,7.01,0,0,0-2.5-.728s4.757,2.572,5.166,4.848c.159.888-.728,1.275-1.388.159-.933-1.593-3.937-3.823-5.234-3.869,0,0,3.687,3.209,4.3,4.415.41.819.137,1.32-.182,1.434-.478.159-2.253-2.481-3.482-3.141a9.641,9.641,0,0,0-4.119-.842c-1.434.068-3.71,3.141-5.985,2.708s-5.758-1.206-5.758-1.206a3.072,3.072,0,0,1-1.73-4.119C705.091,1063.751,707.982,1064.321,707.982,1064.321Z" transform="translate(-682.859 -1022.149)" fill="#f5b493"/>
          <path id="Path_1595" data-name="Path 1595" d="M622.551,886.434l-8.193-4.734s-1.115,20.3-1.707,28.448c-.228,3.186-1.07,10.742,2.5,12.381s20.1,7.465,20.1,7.465-1.092-2.754,2.162-6.1a141.435,141.435,0,0,1-12.585-9.672l1.411-20.938A7.451,7.451,0,0,0,622.551,886.434Z" transform="translate(-612.267 -881.7)" fill="#4880f4"/>
          <g id="Group_533" data-name="Group 533" transform="translate(0 28.312)">
            <path id="Path_1596" data-name="Path 1596" d="M634.773,1026.2h-.045c-.159-.068-16.568-5.826-20.1-7.465-3.414-1.57-2.89-8.238-2.617-11.834.023-.25.045-.478.045-.683a.114.114,0,0,1,.228,0c-.023.2-.023.432-.046.683-.273,3.528-.774,10.1,2.481,11.607,3.3,1.525,17.911,6.691,19.868,7.374-.182-.728-.523-3.072,2.162-5.895a142.54,142.54,0,0,1-12.472-9.6.113.113,0,0,1,.159-.159,143.1,143.1,0,0,0,12.563,9.65.118.118,0,0,1,.046.091.137.137,0,0,1-.023.091c-3.186,3.254-2.162,5.963-2.139,5.985a.1.1,0,0,1-.023.114A.174.174,0,0,1,634.773,1026.2Z" transform="translate(-611.813 -1006.1)" fill="#070707"/>
          </g>
        </g>
        <g id="Group_536" data-name="Group 536" transform="translate(0 26.433)">
          <path id="Path_1597" data-name="Path 1597" d="M541.833,1059.5s3.232.3,5.735.228,6.008-2.253,9.354-2.344,6.259,1.047,7.647,2.367,2.207,2.344,1.479,2.777-3.05-2.025-4.574-2.572a7.121,7.121,0,0,0-2.572-.432s5.03,2,5.712,4.188c.273.865-.569,1.343-1.343.319-1.115-1.457-4.347-3.323-5.667-3.232,0,0,4.028,2.754,4.779,3.869.5.774.3,1.3-.023,1.434-.455.205-2.526-2.185-3.823-2.708a9.3,9.3,0,0,0-4.188-.341c-1.411.25-3.323,3.573-5.621,3.414s-6.054.3-11.129-1.616Z" transform="translate(-510.745 -1015.939)" fill="#f5b493"/>
          <path id="Path_1598" data-name="Path 1598" d="M445.248,875.3l-12.062,5.143a13.98,13.98,0,0,0-7.67,8.762c-2.071,7.1-5.394,18.548-5.576,20.665-.273,3.186-1.3,10.856,2.344,12.335,3.641,1.5,25.99,3.391,28.175,3.141,0,0-.842-4.961,2.959-6.35,0,0-16.432-6.236-20.938-7.055Z" transform="translate(-419.599 -875.3)" fill="#4880f4"/>
          <g id="Group_535" data-name="Group 535" transform="translate(9.553 16.787)">
            <path id="Path_1599" data-name="Path 1599" d="M482.336,982.48c-2.822,0-13.109-.819-20.665-1.821a.116.116,0,0,1,.046-.228c8.034,1.07,19.163,1.934,21.052,1.821-.091-.751-.455-4.825,2.754-6.236-2.162-.82-16.523-6.213-20.642-6.941-.023,0-.068-.023-.068-.046a.069.069,0,0,1,0-.091l6.9-19.8a.108.108,0,1,1,.2.068l-6.85,19.663c4.643.888,20.665,6.964,20.824,7.032a.129.129,0,0,1,0,.227c-3.664,1.343-2.89,6.168-2.868,6.213a.137.137,0,0,1-.023.091c-.023.023-.046.045-.068.045Z" transform="translate(-461.574 -949.062)" fill="#070707"/>
          </g>
        </g>
      </g>
      <g id="Group_540" data-name="Group 540" transform="translate(7.465 76.276)">
        <g id="Group_538" data-name="Group 538" transform="translate(0 2.957)">
          <path id="Path_1600" data-name="Path 1600" d="M439.711,1189.686l-7.647-73.806a9.035,9.035,0,0,0-8.99-8.125H399.292a9.017,9.017,0,0,0-8.99,8.125l-7.647,73.783-.455-.046,7.647-73.783a9.482,9.482,0,0,1,9.445-8.535h23.783a9.466,9.466,0,0,1,9.445,8.535l7.647,73.783Z" transform="translate(-382.2 -1107.3)" fill="#393947"/>
        </g>
        <g id="Group_539" data-name="Group 539" transform="translate(105.759 2.957)">
          <path id="Path_1601" data-name="Path 1601" d="M904.411,1189.686l-7.647-73.806a9.035,9.035,0,0,0-8.99-8.125H863.992a9.017,9.017,0,0,0-8.99,8.125l-7.647,73.783-.455-.046,7.647-73.783a9.482,9.482,0,0,1,9.445-8.535h23.783a9.465,9.465,0,0,1,9.445,8.535l7.647,73.783Z" transform="translate(-846.9 -1107.3)" fill="#393947"/>
        </g>
        <rect id="Rectangle_593" data-name="Rectangle 593" width="108.877" height="3.027" transform="translate(158.057 3.027) rotate(180)" fill="#fbbe08"/>
        <rect id="Rectangle_594" data-name="Rectangle 594" width="42.331" height="3.027" transform="translate(49.178 3.027) rotate(180)" fill="#e09b00"/>
      </g>
      <rect id="Rectangle_595" data-name="Rectangle 595" width="27.219" height="1.616" transform="translate(58.717 74.659)" fill="#393947"/>
      <path id="Path_1602" data-name="Path 1602" d="M696.3,995.726h33.546l14.611-27.2a1.175,1.175,0,0,0-1.024-1.73h-30.2a2.366,2.366,0,0,0-2.071,1.229Z" transform="translate(-617.35 -919.542)" fill="#393947"/>
    </g>
    <g id="Group_576" data-name="Group 576" transform="translate(115.552 57.807)">
      <path id="Path_1603" data-name="Path 1603" d="M902.829,590.043l6.714,23.054a2.023,2.023,0,0,1-1.388,2.526l-28.13,8.193a2.023,2.023,0,0,1-2.526-1.388l-8.284-28.38a2.023,2.023,0,0,1,1.388-2.526l11.4-3.323,5.3,4.256,13-3.8A2.069,2.069,0,0,1,902.829,590.043Z" transform="translate(-866.4 -580.416)" fill="#ed9e00"/>
      <g id="Group_552" data-name="Group 552" transform="translate(11.236 4.324)">
        <path id="Path_1604" data-name="Path 1604" d="M936.61,601.4l-21.53,6.281L906.5,578.3l18.207-5.3,4.3,2.367Z" transform="translate(-906.5 -573)" fill="#e6e6e6"/>
        <g id="Group_551" data-name="Group 551" transform="translate(4.378 3.857)">
          <g id="Group_542" data-name="Group 542">
            <path id="Path_1605" data-name="Path 1605" d="M925.98,594.693a.274.274,0,0,1-.228-.159.2.2,0,0,1,.159-.273l14.679-4.3a.216.216,0,0,1,.273.159.2.2,0,0,1-.159.273l-14.679,4.279C926.025,594.693,926,594.693,925.98,594.693Z" transform="translate(-925.738 -589.947)" fill="#b3b3b3"/>
          </g>
          <g id="Group_543" data-name="Group 543" transform="translate(0.774 2.686)">
            <path id="Path_1606" data-name="Path 1606" d="M929.38,606.47a.274.274,0,0,1-.228-.159.2.2,0,0,1,.159-.273l14.679-4.279a.216.216,0,0,1,.273.159.2.2,0,0,1-.159.273l-14.679,4.279Z" transform="translate(-929.138 -601.747)" fill="#b3b3b3"/>
          </g>
          <g id="Group_544" data-name="Group 544" transform="translate(1.548 5.326)">
            <path id="Path_1607" data-name="Path 1607" d="M932.78,618.07a.274.274,0,0,1-.228-.159.2.2,0,0,1,.159-.273l14.679-4.279a.216.216,0,0,1,.273.159.2.2,0,0,1-.159.273l-14.679,4.279Z" transform="translate(-932.538 -613.347)" fill="#b3b3b3"/>
          </g>
          <g id="Group_545" data-name="Group 545" transform="translate(2.321 7.988)">
            <path id="Path_1608" data-name="Path 1608" d="M936.18,629.77a.274.274,0,0,1-.228-.159.2.2,0,0,1,.159-.273l14.679-4.279a.216.216,0,0,1,.273.159.2.2,0,0,1-.159.273l-14.679,4.279Z" transform="translate(-935.938 -625.047)" fill="#b3b3b3"/>
          </g>
          <g id="Group_546" data-name="Group 546" transform="translate(3.095 10.651)">
            <path id="Path_1609" data-name="Path 1609" d="M939.58,641.47a.274.274,0,0,1-.228-.159.2.2,0,0,1,.159-.273l14.679-4.279a.216.216,0,0,1,.273.159.2.2,0,0,1-.159.273l-14.679,4.279Z" transform="translate(-939.338 -636.747)" fill="#b3b3b3"/>
          </g>
          <g id="Group_547" data-name="Group 547" transform="translate(3.869 13.291)">
            <path id="Path_1610" data-name="Path 1610" d="M942.98,653.07a.274.274,0,0,1-.228-.159.2.2,0,0,1,.159-.273l14.679-4.279a.216.216,0,0,1,.273.159.2.2,0,0,1-.159.273l-14.679,4.279Z" transform="translate(-942.738 -648.347)" fill="#b3b3b3"/>
          </g>
          <g id="Group_548" data-name="Group 548" transform="translate(4.643 15.954)">
            <path id="Path_1611" data-name="Path 1611" d="M946.38,664.77a.274.274,0,0,1-.228-.159.2.2,0,0,1,.159-.273l14.679-4.279a.216.216,0,0,1,.273.159.2.2,0,0,1-.159.273l-14.679,4.279Z" transform="translate(-946.138 -660.047)" fill="#b3b3b3"/>
          </g>
          <g id="Group_549" data-name="Group 549" transform="translate(5.417 18.617)">
            <path id="Path_1612" data-name="Path 1612" d="M949.78,676.47a.274.274,0,0,1-.228-.159.2.2,0,0,1,.159-.273l14.679-4.279a.216.216,0,0,1,.273.159.2.2,0,0,1-.159.273l-14.679,4.279C949.825,676.447,949.8,676.47,949.78,676.47Z" transform="translate(-949.538 -671.747)" fill="#b3b3b3"/>
          </g>
          <g id="Group_550" data-name="Group 550" transform="translate(6.19 21.257)">
            <path id="Path_1613" data-name="Path 1613" d="M953.18,688.07a.274.274,0,0,1-.228-.159.2.2,0,0,1,.159-.273l14.679-4.279a.216.216,0,0,1,.273.159.2.2,0,0,1-.159.273l-14.679,4.279Z" transform="translate(-952.938 -683.347)" fill="#b3b3b3"/>
          </g>
        </g>
        <path id="Path_1614" data-name="Path 1614" d="M990.8,575.367l-3.323.979L986.5,573Z" transform="translate(-968.293 -573)" fill="#ccc"/>
      </g>
      <g id="Group_563" data-name="Group 563" transform="translate(1.404 3.983)">
        <path id="Path_1615" data-name="Path 1615" d="M893.41,599.88l-21.53,6.281L863.3,576.8l18.207-5.3,4.3,2.344Z" transform="translate(-863.3 -571.5)" fill="#e6e6e6"/>
        <g id="Group_562" data-name="Group 562" transform="translate(4.378 3.88)">
          <g id="Group_553" data-name="Group 553">
            <path id="Path_1616" data-name="Path 1616" d="M882.78,593.27a.274.274,0,0,1-.228-.159.2.2,0,0,1,.159-.273l14.679-4.279a.216.216,0,0,1,.273.159.2.2,0,0,1-.159.273l-14.679,4.279Z" transform="translate(-882.538 -588.547)" fill="#b3b3b3"/>
          </g>
          <g id="Group_554" data-name="Group 554" transform="translate(0.774 2.64)">
            <path id="Path_1617" data-name="Path 1617" d="M886.18,604.87a.274.274,0,0,1-.228-.159.2.2,0,0,1,.159-.273l14.679-4.279a.216.216,0,0,1,.273.159.2.2,0,0,1-.159.273l-14.679,4.279Z" transform="translate(-885.938 -600.147)" fill="#b3b3b3"/>
          </g>
          <g id="Group_555" data-name="Group 555" transform="translate(1.548 5.303)">
            <path id="Path_1618" data-name="Path 1618" d="M889.58,616.57a.274.274,0,0,1-.228-.159.2.2,0,0,1,.159-.273l14.679-4.279a.216.216,0,0,1,.273.159.2.2,0,0,1-.159.273l-14.679,4.279Z" transform="translate(-889.338 -611.847)" fill="#b3b3b3"/>
          </g>
          <g id="Group_556" data-name="Group 556" transform="translate(2.321 7.966)">
            <path id="Path_1619" data-name="Path 1619" d="M892.98,628.27a.274.274,0,0,1-.227-.159.2.2,0,0,1,.159-.273l14.679-4.279a.216.216,0,0,1,.273.159.2.2,0,0,1-.159.273l-14.679,4.279Z" transform="translate(-892.738 -623.547)" fill="#b3b3b3"/>
          </g>
          <g id="Group_557" data-name="Group 557" transform="translate(3.095 10.606)">
            <path id="Path_1620" data-name="Path 1620" d="M896.38,639.87a.274.274,0,0,1-.228-.159.2.2,0,0,1,.159-.273l14.679-4.279a.216.216,0,0,1,.273.159.2.2,0,0,1-.159.273l-14.679,4.279Z" transform="translate(-896.138 -635.147)" fill="#b3b3b3"/>
          </g>
          <g id="Group_558" data-name="Group 558" transform="translate(3.869 13.268)">
            <path id="Path_1621" data-name="Path 1621" d="M899.78,651.57a.274.274,0,0,1-.228-.159.2.2,0,0,1,.159-.273l14.679-4.279a.216.216,0,0,1,.273.159.2.2,0,0,1-.159.273l-14.679,4.279Z" transform="translate(-899.538 -646.847)" fill="#b3b3b3"/>
          </g>
          <g id="Group_559" data-name="Group 559" transform="translate(4.643 15.931)">
            <path id="Path_1622" data-name="Path 1622" d="M903.18,663.27a.274.274,0,0,1-.228-.159.2.2,0,0,1,.159-.273l14.679-4.279a.216.216,0,0,1,.273.159.2.2,0,0,1-.159.273l-14.679,4.279C903.225,663.248,903.2,663.27,903.18,663.27Z" transform="translate(-902.938 -658.547)" fill="#b3b3b3"/>
          </g>
          <g id="Group_560" data-name="Group 560" transform="translate(5.417 18.571)">
            <path id="Path_1623" data-name="Path 1623" d="M906.58,674.87a.274.274,0,0,1-.228-.159.2.2,0,0,1,.159-.273l14.679-4.279a.216.216,0,0,1,.273.159.2.2,0,0,1-.159.273l-14.679,4.279Z" transform="translate(-906.338 -670.147)" fill="#b3b3b3"/>
          </g>
          <g id="Group_561" data-name="Group 561" transform="translate(6.19 21.234)">
            <path id="Path_1624" data-name="Path 1624" d="M909.98,686.57a.274.274,0,0,1-.227-.159.2.2,0,0,1,.159-.273l14.679-4.279a.216.216,0,0,1,.273.159.2.2,0,0,1-.159.273l-14.679,4.279Z" transform="translate(-909.738 -681.847)" fill="#b3b3b3"/>
          </g>
        </g>
        <path id="Path_1625" data-name="Path 1625" d="M947.6,573.844l-3.323.979L943.3,571.5Z" transform="translate(-925.093 -571.5)" fill="#ccc"/>
      </g>
      <g id="Group_574" data-name="Group 574" transform="translate(5.136)">
        <path id="Path_1626" data-name="Path 1626" d="M909.787,582.38l-21.53,6.281L879.7,559.3l18.207-5.3,4.3,2.344Z" transform="translate(-879.7 -554)" fill="#f4f4f4"/>
        <g id="Group_573" data-name="Group 573" transform="translate(4.356 3.88)">
          <g id="Group_564" data-name="Group 564">
            <path id="Path_1627" data-name="Path 1627" d="M899.08,575.77a.274.274,0,0,1-.228-.159.2.2,0,0,1,.159-.273l14.679-4.279a.216.216,0,0,1,.273.159.2.2,0,0,1-.159.273l-14.679,4.279Z" transform="translate(-898.838 -571.047)" fill="#b3b3b3"/>
          </g>
          <g id="Group_565" data-name="Group 565" transform="translate(0.774 2.64)">
            <path id="Path_1628" data-name="Path 1628" d="M902.48,587.37a.274.274,0,0,1-.228-.159.2.2,0,0,1,.159-.273l14.679-4.279a.216.216,0,0,1,.273.159.2.2,0,0,1-.159.273l-14.679,4.279Z" transform="translate(-902.238 -582.647)" fill="#b3b3b3"/>
          </g>
          <g id="Group_566" data-name="Group 566" transform="translate(1.57 5.303)">
            <path id="Path_1629" data-name="Path 1629" d="M905.98,599.07a.274.274,0,0,1-.228-.159.2.2,0,0,1,.159-.273l14.679-4.279a.216.216,0,0,1,.273.159.2.2,0,0,1-.159.273l-14.679,4.279Z" transform="translate(-905.738 -594.347)" fill="#b3b3b3"/>
          </g>
          <g id="Group_567" data-name="Group 567" transform="translate(2.344 7.966)">
            <path id="Path_1630" data-name="Path 1630" d="M909.38,610.77a.274.274,0,0,1-.228-.159.2.2,0,0,1,.159-.273l14.679-4.279a.216.216,0,0,1,.273.159.2.2,0,0,1-.159.273l-14.679,4.279A.032.032,0,0,0,909.38,610.77Z" transform="translate(-909.138 -606.047)" fill="#b3b3b3"/>
          </g>
          <g id="Group_568" data-name="Group 568" transform="translate(3.118 10.606)">
            <path id="Path_1631" data-name="Path 1631" d="M912.78,622.37a.274.274,0,0,1-.228-.159.2.2,0,0,1,.159-.273l14.679-4.279a.216.216,0,0,1,.273.159.2.2,0,0,1-.159.273l-14.679,4.279Z" transform="translate(-912.538 -617.647)" fill="#b3b3b3"/>
          </g>
          <g id="Group_569" data-name="Group 569" transform="translate(3.892 13.266)">
            <path id="Path_1632" data-name="Path 1632" d="M916.18,634.063a.274.274,0,0,1-.228-.159.2.2,0,0,1,.159-.273l14.679-4.279a.224.224,0,1,1,.114.432l-14.679,4.256A.071.071,0,0,1,916.18,634.063Z" transform="translate(-915.938 -629.338)" fill="#b3b3b3"/>
          </g>
          <g id="Group_570" data-name="Group 570" transform="translate(4.666 15.931)">
            <path id="Path_1633" data-name="Path 1633" d="M919.58,645.77a.274.274,0,0,1-.228-.159.2.2,0,0,1,.159-.273l14.679-4.279a.216.216,0,0,1,.273.159.2.2,0,0,1-.159.273l-14.679,4.279C919.6,645.748,919.6,645.77,919.58,645.77Z" transform="translate(-919.338 -641.047)" fill="#b3b3b3"/>
          </g>
          <g id="Group_571" data-name="Group 571" transform="translate(5.439 18.571)">
            <path id="Path_1634" data-name="Path 1634" d="M922.98,657.37a.274.274,0,0,1-.228-.159.2.2,0,0,1,.159-.273l14.679-4.279a.216.216,0,0,1,.273.159.2.2,0,0,1-.159.273l-14.679,4.279Z" transform="translate(-922.738 -652.647)" fill="#b3b3b3"/>
          </g>
          <g id="Group_572" data-name="Group 572" transform="translate(6.213 21.234)">
            <path id="Path_1635" data-name="Path 1635" d="M926.38,669.07a.274.274,0,0,1-.228-.159.2.2,0,0,1,.159-.273l14.679-4.279a.216.216,0,0,1,.273.159.2.2,0,0,1-.159.273l-14.679,4.256C926.4,669.07,926.4,669.07,926.38,669.07Z" transform="translate(-926.138 -664.347)" fill="#b3b3b3"/>
          </g>
        </g>
        <path id="Path_1636" data-name="Path 1636" d="M964,556.344l-3.345.979L959.7,554Z" transform="translate(-941.493 -554)" fill="#e6e6e6"/>
      </g>
      <g id="Group_575" data-name="Group 575" transform="translate(0 11.812)">
        <path id="Path_1637" data-name="Path 1637" d="M890.807,607.721l6.441,22.076-30.087,8.785a2.023,2.023,0,0,1-2.526-1.388l-7.419-25.444a2.023,2.023,0,0,1,1.388-2.526l11.4-3.323,5.3,4.256,13-3.8A1.988,1.988,0,0,1,890.807,607.721Z" transform="translate(-857.131 -605.9)" fill="#fbbe08"/>
        <path id="Path_1638" data-name="Path 1638" d="M1033.439,704.683l-1.662.478-.478-1.661h0a1.7,1.7,0,0,0,2.139,1.184Z" transform="translate(-991.661 -681.288)" fill="#fbbe08"/>
      </g>
    </g>
    <g id="Group_587" data-name="Group 587" transform="translate(231.408 59.855)">
      <path id="Path_1639" data-name="Path 1639" d="M1409.282,590.164l-7.1,18.776a2.362,2.362,0,0,1-3.073,1.365l-31.361-11.835a2.381,2.381,0,0,1-1.388-3.072l7.1-18.776a2.356,2.356,0,0,1,1.775-1.479l19.367-3.8a2.419,2.419,0,0,1,2.367.888l11.994,15.658A2.46,2.46,0,0,1,1409.282,590.164Z" transform="translate(-1366.199 -569.408)" fill="#ffb829"/>
      <g id="Group_586" data-name="Group 586" transform="translate(4.849)">
        <path id="Path_1640" data-name="Path 1640" d="M1412.125,602.623l-24.625-9.308L1398.97,563l20.824,7.9,2.367,5.257Z" transform="translate(-1387.5 -563)" fill="#f4f4f4"/>
        <g id="Group_585" data-name="Group 585" transform="translate(5.334 5.903)">
          <g id="Group_577" data-name="Group 577" transform="translate(8.057)">
            <path id="Path_1641" data-name="Path 1641" d="M1463.375,595.756a.172.172,0,0,1-.091-.023l-16.8-6.35a.23.23,0,0,1,.159-.432l16.8,6.35a.237.237,0,0,1,.136.3A.2.2,0,0,1,1463.375,595.756Z" transform="translate(-1446.337 -588.937)" fill="#b3b3b3"/>
          </g>
          <g id="Group_578" data-name="Group 578" transform="translate(6.896 3.05)">
            <path id="Path_1642" data-name="Path 1642" d="M1458.275,609.156a.172.172,0,0,1-.091-.023l-16.8-6.35a.23.23,0,1,1,.159-.432l16.8,6.35a.237.237,0,0,1,.136.3A.219.219,0,0,1,1458.275,609.156Z" transform="translate(-1441.237 -602.337)" fill="#b3b3b3"/>
          </g>
          <g id="Group_579" data-name="Group 579" transform="translate(5.758 6.077)">
            <path id="Path_1643" data-name="Path 1643" d="M1453.275,622.456a.173.173,0,0,1-.091-.023l-16.8-6.35a.23.23,0,1,1,.16-.432l16.8,6.35a.237.237,0,0,1,.137.3A.2.2,0,0,1,1453.275,622.456Z" transform="translate(-1436.237 -615.637)" fill="#b3b3b3"/>
          </g>
          <g id="Group_580" data-name="Group 580" transform="translate(4.597 9.103)">
            <path id="Path_1644" data-name="Path 1644" d="M1448.175,635.756a.173.173,0,0,1-.091-.023l-16.8-6.35a.23.23,0,1,1,.159-.432l16.8,6.35a.237.237,0,0,1,.136.3A.2.2,0,0,1,1448.175,635.756Z" transform="translate(-1431.137 -628.937)" fill="#b3b3b3"/>
          </g>
          <g id="Group_581" data-name="Group 581" transform="translate(3.459 12.153)">
            <path id="Path_1645" data-name="Path 1645" d="M1443.175,649.156a.172.172,0,0,1-.091-.023l-16.8-6.35a.23.23,0,1,1,.159-.432l16.8,6.35a.237.237,0,0,1,.136.3A.219.219,0,0,1,1443.175,649.156Z" transform="translate(-1426.137 -642.337)" fill="#b3b3b3"/>
          </g>
          <g id="Group_582" data-name="Group 582" transform="translate(2.299 15.18)">
            <path id="Path_1646" data-name="Path 1646" d="M1438.075,662.456a.172.172,0,0,1-.091-.023l-16.8-6.35a.23.23,0,1,1,.159-.432l16.8,6.35a.237.237,0,0,1,.136.3A.2.2,0,0,1,1438.075,662.456Z" transform="translate(-1421.037 -655.637)" fill="#b3b3b3"/>
          </g>
          <g id="Group_583" data-name="Group 583" transform="translate(1.161 18.23)">
            <path id="Path_1647" data-name="Path 1647" d="M1433.075,675.856a.172.172,0,0,1-.091-.023l-16.8-6.35a.23.23,0,0,1,.159-.432l16.8,6.35a.236.236,0,0,1,.137.3A.218.218,0,0,1,1433.075,675.856Z" transform="translate(-1416.037 -669.037)" fill="#b3b3b3"/>
          </g>
          <g id="Group_584" data-name="Group 584" transform="translate(0 21.257)">
            <path id="Path_1648" data-name="Path 1648" d="M1427.975,689.156a.174.174,0,0,1-.091-.023l-16.8-6.35a.23.23,0,1,1,.159-.432l16.8,6.35a.237.237,0,0,1,.137.3A.219.219,0,0,1,1427.975,689.156Z" transform="translate(-1410.937 -682.337)" fill="#b3b3b3"/>
          </g>
        </g>
        <path id="Path_1649" data-name="Path 1649" d="M1526.823,602.957,1523,601.5l1.456-3.8Z" transform="translate(-1492.162 -589.803)" fill="#e6e6e6"/>
      </g>
      <path id="Path_1650" data-name="Path 1650" d="M1384.288,607.918l-17.82,5.1a2.348,2.348,0,0,1-.114-1.957l7.1-18.776a2.1,2.1,0,0,1,.41-.683Z" transform="translate(-1366.194 -585.091)" fill="#ffd12c"/>
      <path id="Path_1651" data-name="Path 1651" d="M1492.78,651.574l-7.1,18.776a2.451,2.451,0,0,1-1.388,1.388l-9.991-15.612,18.639-5.326A3.108,3.108,0,0,1,1492.78,651.574Z" transform="translate(-1449.697 -630.818)" fill="#ffd12c"/>
      <path id="Path_1652" data-name="Path 1652" d="M1401.72,678.753a2.448,2.448,0,0,1-1.707,0L1368.674,666.9a2.368,2.368,0,0,1-1.274-1.115l17.82-5.1,2.458-.705a2.377,2.377,0,0,1,2.686,1.024l1.366,2.139Z" transform="translate(-1367.125 -637.833)" fill="#ffbf2f"/>
    </g>
    <g id="Group_591" data-name="Group 591" transform="translate(209.857 25.512)">
      <path id="Path_1653" data-name="Path 1653" d="M1303.362,437h-29.586a2.283,2.283,0,0,0-2.276,2.276V464.31l4.552-4.552h27.31a2.283,2.283,0,0,0,2.276-2.276V439.276A2.268,2.268,0,0,0,1303.362,437Z" transform="translate(-1271.5 -431.333)" fill="#8cc63f"/>
      <g id="Group_588" data-name="Group 588" transform="translate(7.966 14.748)">
        <circle id="Ellipse_75" data-name="Ellipse 75" cx="2.276" cy="2.276" r="2.276" fill="#fff"/>
        <circle id="Ellipse_76" data-name="Ellipse 76" cx="2.276" cy="2.276" r="2.276" transform="translate(6.828)" fill="#fff"/>
        <circle id="Ellipse_77" data-name="Ellipse 77" cx="2.276" cy="2.276" r="2.276" transform="translate(13.655)" fill="#fff"/>
      </g>
      <g id="Group_590" data-name="Group 590" transform="translate(27.128)">
        <circle id="Ellipse_78" data-name="Ellipse 78" cx="6.463" cy="6.463" r="6.463" fill="#e81f2d"/>
        <g id="Group_589" data-name="Group 589" transform="translate(4.188 3.004)">
          <path id="Path_1654" data-name="Path 1654" d="M1409.828,425.8a2.386,2.386,0,0,1,1.593-.5,2.478,2.478,0,0,1,1.138.228,1.672,1.672,0,0,1,.728.637,1.762,1.762,0,0,1,.25.91,1.564,1.564,0,0,1-.3.979,1.462,1.462,0,0,1-.706.546v.046a1.386,1.386,0,0,1,.819.592,1.776,1.776,0,0,1,.3,1.092,1.955,1.955,0,0,1-.25.979,1.576,1.576,0,0,1-.751.683,2.952,2.952,0,0,1-2.868-.273,1.949,1.949,0,0,1-.683-1.548h1.252a1.03,1.03,0,0,0,.319.728,1.091,1.091,0,0,0,.8.273,1.045,1.045,0,0,0,.728-.25,1.008,1.008,0,0,0,.25-.683.912.912,0,0,0-.341-.8,1.953,1.953,0,0,0-1.092-.228h-.273v-1.047h.273c.865,0,1.3-.3,1.3-.865a.759.759,0,0,0-.228-.614,1.023,1.023,0,0,0-.682-.228.864.864,0,0,0-.66.228.954.954,0,0,0-.273.592h-1.252A1.8,1.8,0,0,1,1409.828,425.8Z" transform="translate(-1409.1 -425.3)" fill="#fff"/>
        </g>
      </g>
    </g>
    <g id="Group_592" data-name="Group 592" transform="translate(153.552 39.691)">
      <path id="Path_1655" data-name="Path 1655" d="M1060.741,498.456l-31.27,4.279a2.431,2.431,0,0,1-2.731-2.071l-2.617-19.231a2.431,2.431,0,0,1,2.071-2.731l31.27-4.279a2.431,2.431,0,0,1,2.731,2.071l2.617,19.231A2.431,2.431,0,0,1,1060.741,498.456Z" transform="translate(-1024.1 -474.4)" fill="#e81f2d"/>
      <path id="Path_1656" data-name="Path 1656" d="M1088.5,507.9a6.884,6.884,0,1,0-11.357,7.783l5.166,3.937a2.2,2.2,0,0,0,3.073-.41l3.937-5.166A4.395,4.395,0,0,0,1088.5,507.9Z" transform="translate(-1063.737 -499.593)" fill="#fff"/>
    </g>
    <g id="Group_593" data-name="Group 593" transform="translate(117.662 44.291)">
      <path id="Path_1657" data-name="Path 1657" d="M990.73,744.581H896.805A30.4,30.4,0,0,1,866.4,714.175v-1.07A30.4,30.4,0,0,1,896.805,682.7H990.73a30.4,30.4,0,0,1,30.406,30.405v1.07A30.416,30.416,0,0,1,990.73,744.581Z" transform="translate(-866.4 -639.893)" fill="#4880f4"/>
      <circle id="Ellipse_79" data-name="Ellipse 79" cx="37.574" cy="37.574" r="37.574" transform="translate(33.96 53.138) rotate(-45)" fill="#4880f4"/>
      <circle id="Ellipse_80" data-name="Ellipse 80" cx="19.39" cy="19.39" r="19.39" transform="translate(24.419 49.476) rotate(-45)" fill="#4880f4"/>
    </g>
    <path id="Path_1658" data-name="Path 1658" d="M1455.541,499.474l-7.579-2.253a.608.608,0,0,0-.751.41l-1.57,5.234-.341,1.161,1.5-.819,6.987,2.094a.609.609,0,0,0,.751-.41l1.388-4.666A.578.578,0,0,0,1455.541,499.474Z" transform="translate(-1195.888 -452.318)" fill="#e6e6e6"/>
    <path id="Path_1659" data-name="Path 1659" d="M1210.531,421.151l-6.646,1.434a.552.552,0,0,0-.41.615l1,4.6.227,1.024.8-1.252,6.122-1.343a.551.551,0,0,0,.41-.614l-.888-4.1A.5.5,0,0,0,1210.531,421.151Z" transform="translate(-1009.095 -393.567)" fill="#e6e6e6"/>
    <path id="Path_1660" data-name="Path 1660" d="M981.111,496.668a2.973,2.973,0,0,0-3.346,4.916l2.708.774a.982.982,0,0,0,1.183-.66l.774-2.708A1.9,1.9,0,0,0,981.111,496.668Z" transform="translate(-833.703 -451.857)" fill="none" stroke="#e81f2d" stroke-linecap="round" stroke-linejoin="round" stroke-miterlimit="10" stroke-width="2"/>
    <path id="Path_1661" data-name="Path 1661" d="M1216.871,487.7a3.926,3.926,0,0,0-7.693,1.57l1.844,3.209a1.258,1.258,0,0,0,1.707.455l3.209-1.843A2.471,2.471,0,0,0,1216.871,487.7Z" transform="translate(-1013.249 -443.32)" fill="none" stroke="#e81f2d" stroke-linecap="round" stroke-linejoin="round" stroke-miterlimit="10" stroke-width="2"/>
    <g id="Group_594" data-name="Group 594" transform="translate(98.619 21.734)">
      <path id="Path_1662" data-name="Path 1662" d="M812.389,405.576l-1.639-2.981a1.165,1.165,0,0,0-1.593-.455l-.637.364a1.173,1.173,0,0,1-1.388-.2,11.775,11.775,0,0,0-1.684-1.343,1.2,1.2,0,0,1-.478-1.32l.2-.683a1.184,1.184,0,0,0-.8-1.457l-3.254-.956a1.184,1.184,0,0,0-1.457.8l-.2.683a1.168,1.168,0,0,1-1.115.865,13.658,13.658,0,0,0-2.139.228,1.208,1.208,0,0,1-1.274-.592l-.364-.637a1.165,1.165,0,0,0-1.593-.455l-2.981,1.639a1.165,1.165,0,0,0-.455,1.593l.364.637a1.173,1.173,0,0,1-.2,1.388,11.789,11.789,0,0,0-1.343,1.684,1.2,1.2,0,0,1-1.32.478l-.683-.2a1.183,1.183,0,0,0-1.456.8l-.956,3.254a1.183,1.183,0,0,0,.8,1.457l.683.2a1.168,1.168,0,0,1,.865,1.115,13.658,13.658,0,0,0,.228,2.139,1.208,1.208,0,0,1-.592,1.274l-.637.364a1.165,1.165,0,0,0-.455,1.593l1.639,2.981a1.165,1.165,0,0,0,1.593.455l.637-.364a1.173,1.173,0,0,1,1.388.2,11.787,11.787,0,0,0,1.684,1.343,1.2,1.2,0,0,1,.478,1.32l-.2.683a1.184,1.184,0,0,0,.8,1.457l3.255.956a1.183,1.183,0,0,0,1.456-.8l.2-.683a1.168,1.168,0,0,1,1.115-.865,13.656,13.656,0,0,0,2.139-.228,1.208,1.208,0,0,1,1.275.592l.364.637a1.165,1.165,0,0,0,1.593.455l2.981-1.639a1.165,1.165,0,0,0,.455-1.593l-.364-.637a1.173,1.173,0,0,1,.2-1.388,11.786,11.786,0,0,0,1.343-1.684,1.2,1.2,0,0,1,1.32-.478l.683.2a1.184,1.184,0,0,0,1.457-.8l.956-3.254a1.184,1.184,0,0,0-.8-1.457l-.683-.2a1.168,1.168,0,0,1-.865-1.115,13.652,13.652,0,0,0-.228-2.139,1.208,1.208,0,0,1,.592-1.274l.637-.364A1.16,1.16,0,0,0,812.389,405.576Zm-11.812,9.24a4.1,4.1,0,1,1,1.616-5.576A4.112,4.112,0,0,1,800.577,414.816Z" transform="translate(-783.628 -396.267)" fill="url(#linear-gradient)"/>
      <path id="Path_1663" data-name="Path 1663" d="M799.881,395.727a1.345,1.345,0,0,1,.319.046l3.255.956a1.184,1.184,0,0,1,.8,1.456l-.2.683a1.187,1.187,0,0,0,.478,1.32,11.781,11.781,0,0,1,1.684,1.343,1.169,1.169,0,0,0,.842.341,1.143,1.143,0,0,0,.546-.137l.637-.364a1.232,1.232,0,0,1,.569-.137,1.17,1.17,0,0,1,1.024.615l1.639,2.981a1.165,1.165,0,0,1-.455,1.593l-.637.364a1.208,1.208,0,0,0-.592,1.274,11.394,11.394,0,0,1,.227,2.139,1.189,1.189,0,0,0,.865,1.115l.683.2a1.184,1.184,0,0,1,.8,1.457l-.956,3.254a1.167,1.167,0,0,1-1.138.842,1.344,1.344,0,0,1-.319-.046l-.683-.2a1.759,1.759,0,0,0-.341-.045,1.134,1.134,0,0,0-.979.523,11.8,11.8,0,0,1-1.343,1.684,1.173,1.173,0,0,0-.2,1.388l.364.637a1.165,1.165,0,0,1-.455,1.593l-2.981,1.639a1.235,1.235,0,0,1-.569.137,1.169,1.169,0,0,1-1.024-.615l-.364-.637a1.178,1.178,0,0,0-1.047-.615.931.931,0,0,0-.25.023,11.388,11.388,0,0,1-2.139.228,1.189,1.189,0,0,0-1.115.865l-.2.683a1.167,1.167,0,0,1-1.138.842,1.346,1.346,0,0,1-.319-.046l-3.255-.956a1.184,1.184,0,0,1-.8-1.457l.2-.683a1.187,1.187,0,0,0-.478-1.32,11.785,11.785,0,0,1-1.684-1.343,1.169,1.169,0,0,0-.842-.341,1.3,1.3,0,0,0-.569.137l-.637.364a1.232,1.232,0,0,1-.569.137,1.169,1.169,0,0,1-1.024-.615l-1.639-2.981a1.165,1.165,0,0,1,.455-1.593l.637-.364a1.208,1.208,0,0,0,.592-1.274,11.393,11.393,0,0,1-.228-2.139,1.189,1.189,0,0,0-.865-1.115l-.683-.2a1.183,1.183,0,0,1-.8-1.457l.956-3.255a1.167,1.167,0,0,1,1.138-.842,1.345,1.345,0,0,1,.319.046l.683.2a1.756,1.756,0,0,0,.341.046,1.134,1.134,0,0,0,.979-.523,11.789,11.789,0,0,1,1.343-1.684,1.173,1.173,0,0,0,.2-1.388l-.364-.637a1.165,1.165,0,0,1,.455-1.593l2.981-1.639a1.234,1.234,0,0,1,.569-.137,1.17,1.17,0,0,1,1.024.614l.364.637a1.179,1.179,0,0,0,1.047.615.93.93,0,0,0,.25-.023,11.4,11.4,0,0,1,2.139-.228,1.189,1.189,0,0,0,1.115-.865l.2-.683a1.245,1.245,0,0,1,1.161-.842m-2.162,18.821a4.191,4.191,0,0,0,1.98-.5,4.115,4.115,0,0,0-1.98-7.715,4.193,4.193,0,0,0-1.98.5,4.112,4.112,0,0,0-1.616,5.576,4.065,4.065,0,0,0,3.6,2.139m2.162-19.049h0a1.393,1.393,0,0,0-1.343,1l-.2.683a.971.971,0,0,1-.887.706,14.244,14.244,0,0,0-2.185.228.628.628,0,0,1-.2.023.965.965,0,0,1-.842-.478l-.364-.637a1.407,1.407,0,0,0-1.229-.728,1.46,1.46,0,0,0-.683.182l-2.981,1.639a1.482,1.482,0,0,0-.683.842,1.356,1.356,0,0,0,.114,1.07l.364.637a.932.932,0,0,1-.159,1.115,12.472,12.472,0,0,0-1.365,1.707.992.992,0,0,1-.8.41,1.142,1.142,0,0,1-.273-.046l-.683-.2a1.127,1.127,0,0,0-.387-.046,1.393,1.393,0,0,0-1.343,1l-.956,3.254a1.356,1.356,0,0,0,.114,1.07,1.482,1.482,0,0,0,.842.683l.683.2a.971.971,0,0,1,.706.888,14.235,14.235,0,0,0,.228,2.185.932.932,0,0,1-.478,1.024l-.637.364a1.482,1.482,0,0,0-.683.842,1.357,1.357,0,0,0,.114,1.07l1.639,2.981a1.408,1.408,0,0,0,1.229.728,1.459,1.459,0,0,0,.683-.182l.637-.364a1.035,1.035,0,0,1,.455-.114.963.963,0,0,1,.683.273,12.464,12.464,0,0,0,1.707,1.366.972.972,0,0,1,.387,1.07l-.2.683a1.357,1.357,0,0,0,.114,1.07,1.482,1.482,0,0,0,.842.683l3.254.956a1.129,1.129,0,0,0,.387.045,1.393,1.393,0,0,0,1.343-1l.2-.683a.971.971,0,0,1,.888-.706,14.236,14.236,0,0,0,2.185-.228.629.629,0,0,1,.2-.023.965.965,0,0,1,.842.478l.364.637a1.407,1.407,0,0,0,1.229.728,1.459,1.459,0,0,0,.683-.182l2.981-1.639a1.482,1.482,0,0,0,.683-.842,1.356,1.356,0,0,0-.114-1.07l-.364-.637a.932.932,0,0,1,.159-1.115,12.486,12.486,0,0,0,1.366-1.707.991.991,0,0,1,.8-.41,1.145,1.145,0,0,1,.273.046l.683.2a1.127,1.127,0,0,0,.387.046,1.393,1.393,0,0,0,1.343-1l.956-3.255a1.355,1.355,0,0,0-.114-1.07,1.482,1.482,0,0,0-.842-.683l-.683-.2a.971.971,0,0,1-.706-.888,14.242,14.242,0,0,0-.228-2.185.932.932,0,0,1,.478-1.024l.637-.364a1.483,1.483,0,0,0,.683-.842,1.357,1.357,0,0,0-.114-1.07l-1.639-2.981a1.407,1.407,0,0,0-1.229-.728,1.458,1.458,0,0,0-.683.182l-.637.364a1.036,1.036,0,0,1-.455.114.963.963,0,0,1-.683-.273,12.476,12.476,0,0,0-1.707-1.366.972.972,0,0,1-.387-1.07l.2-.683a1.356,1.356,0,0,0-.114-1.07,1.482,1.482,0,0,0-.842-.683l-3.255-.956a2.24,2.24,0,0,0-.387-.046Zm-2.162,18.821a3.923,3.923,0,0,1-3.414-2,3.832,3.832,0,0,1-.319-2.959,3.88,3.88,0,0,1,1.866-2.321,3.8,3.8,0,0,1,1.866-.478,3.923,3.923,0,0,1,3.414,2,3.832,3.832,0,0,1,.319,2.959,3.88,3.88,0,0,1-1.866,2.321,3.925,3.925,0,0,1-1.866.478Z" transform="translate(-782.727 -395.5)" fill="url(#linear-gradient-2)"/>
    </g>
    <g id="Group_595" data-name="Group 595" transform="translate(281.129 36.163)">
      <path id="Path_1664" data-name="Path 1664" d="M1606.455,469.167l-.5-2.3a.818.818,0,0,0-.979-.615l-.5.114a.86.86,0,0,1-.887-.387,9.464,9.464,0,0,0-.842-1.206.818.818,0,0,1-.045-.979l.273-.41a.786.786,0,0,0-.25-1.115l-1.98-1.252a.786.786,0,0,0-1.115.25l-.273.41a.831.831,0,0,1-.911.364,7.793,7.793,0,0,0-1.456-.25.776.776,0,0,1-.729-.637l-.114-.5a.818.818,0,0,0-.979-.615l-2.3.5a.806.806,0,0,0-.614.956l.114.5a.86.86,0,0,1-.387.888,9.444,9.444,0,0,0-1.206.842.818.818,0,0,1-.979.045l-.41-.273a.787.787,0,0,0-1.115.25l-1.251,1.98a.786.786,0,0,0,.25,1.115l.409.273a.83.83,0,0,1,.364.91,7.8,7.8,0,0,0-.25,1.457.776.776,0,0,1-.637.728l-.5.114a.806.806,0,0,0-.615.956l.5,2.3a.818.818,0,0,0,.979.615l.5-.114a.861.861,0,0,1,.888.387,9.462,9.462,0,0,0,.842,1.206.818.818,0,0,1,.046.979l-.273.41a.786.786,0,0,0,.25,1.115l1.98,1.252a.786.786,0,0,0,1.115-.25l.273-.41a.83.83,0,0,1,.91-.364,7.794,7.794,0,0,0,1.456.25.776.776,0,0,1,.729.637l.114.5a.818.818,0,0,0,.979.614l2.3-.5a.806.806,0,0,0,.615-.956l-.114-.5a.86.86,0,0,1,.387-.888,9.438,9.438,0,0,0,1.206-.842.818.818,0,0,1,.979-.045l.409.273a.787.787,0,0,0,1.115-.25l1.251-1.98a.786.786,0,0,0-.25-1.115l-.409-.273a.83.83,0,0,1-.364-.91,7.816,7.816,0,0,0,.25-1.457.775.775,0,0,1,.637-.728l.5-.114A.806.806,0,0,0,1606.455,469.167Zm-9.627,3.823a2.844,2.844,0,1,1,2.162-3.391A2.836,2.836,0,0,1,1596.828,472.99Z" transform="translate(-1585.714 -459.767)" fill="url(#linear-gradient-3)"/>
      <path id="Path_1665" data-name="Path 1665" d="M1594.3,459.128a.822.822,0,0,1,.8.637l.114.5a.85.85,0,0,0,.728.637,10.275,10.275,0,0,1,1.457.25.629.629,0,0,0,.205.023.838.838,0,0,0,.705-.387l.273-.41a.778.778,0,0,1,.683-.364.75.75,0,0,1,.432.137l1.98,1.252a.814.814,0,0,1,.25,1.115l-.273.41a.857.857,0,0,0,.045.979,8.823,8.823,0,0,1,.842,1.206.861.861,0,0,0,.705.41.5.5,0,0,0,.182-.023l.5-.114a.5.5,0,0,1,.182-.023.822.822,0,0,1,.8.637l.5,2.3a.806.806,0,0,1-.615.956l-.5.114a.851.851,0,0,0-.637.728,10.253,10.253,0,0,1-.25,1.456.858.858,0,0,0,.364.91l.41.273a.814.814,0,0,1,.25,1.115l-1.252,1.98a.778.778,0,0,1-.683.364.749.749,0,0,1-.432-.137l-.41-.273a.821.821,0,0,0-.455-.137.911.911,0,0,0-.523.182,8.813,8.813,0,0,1-1.206.842.781.781,0,0,0-.387.888l.114.5a.806.806,0,0,1-.614.956l-2.3.5a.5.5,0,0,1-.182.023.822.822,0,0,1-.8-.637l-.114-.5a.851.851,0,0,0-.728-.637,10.239,10.239,0,0,1-1.457-.25.631.631,0,0,0-.2-.023.838.838,0,0,0-.705.387l-.273.41a.779.779,0,0,1-.683.364.75.75,0,0,1-.433-.137l-1.98-1.252a.814.814,0,0,1-.25-1.115l.273-.41a.856.856,0,0,0-.046-.979,8.849,8.849,0,0,1-.842-1.206.861.861,0,0,0-.705-.41.5.5,0,0,0-.182.023l-.5.114a.5.5,0,0,1-.182.023.822.822,0,0,1-.8-.637l-.5-2.3a.806.806,0,0,1,.614-.956l.5-.114a.851.851,0,0,0,.637-.728,10.257,10.257,0,0,1,.25-1.457.858.858,0,0,0-.364-.91l-.41-.273a.815.815,0,0,1-.25-1.115l1.252-1.98a.778.778,0,0,1,.683-.364.749.749,0,0,1,.433.136l.41.273a.821.821,0,0,0,.455.137.911.911,0,0,0,.523-.182,8.832,8.832,0,0,1,1.206-.842.78.78,0,0,0,.387-.888l-.114-.5a.806.806,0,0,1,.615-.956l2.3-.5a.445.445,0,0,1,.182-.023m.865,13.063a2.844,2.844,0,1,0-2.776-2.23,2.858,2.858,0,0,0,2.776,2.23M1594.3,458.9h0a.775.775,0,0,0-.228.023l-2.3.5a1.131,1.131,0,0,0-.66.455.931.931,0,0,0-.137.774l.114.5a.612.612,0,0,1-.3.637,9.4,9.4,0,0,0-1.252.865.559.559,0,0,1-.364.137.523.523,0,0,1-.319-.091l-.41-.273a.977.977,0,0,0-.569-.159,1.071,1.071,0,0,0-.888.478l-1.252,1.98a.93.93,0,0,0-.137.774,1.133,1.133,0,0,0,.455.66l.41.273a.583.583,0,0,1,.25.66,8.687,8.687,0,0,0-.273,1.5.559.559,0,0,1-.455.523l-.5.114a1.132,1.132,0,0,0-.66.455.93.93,0,0,0-.136.774l.5,2.3a1.048,1.048,0,0,0,1.024.819.772.772,0,0,0,.228-.023l.5-.114a.987.987,0,0,0,.114-.023.631.631,0,0,1,.523.3,9.424,9.424,0,0,0,.865,1.252.613.613,0,0,1,.046.706l-.273.41a.931.931,0,0,0-.136.774,1.131,1.131,0,0,0,.455.66l1.98,1.252a.978.978,0,0,0,.569.159,1.071,1.071,0,0,0,.887-.478l.273-.41a.571.571,0,0,1,.5-.273.288.288,0,0,1,.136.023,8.687,8.687,0,0,0,1.5.273.559.559,0,0,1,.524.455l.114.5a1.048,1.048,0,0,0,1.024.819.774.774,0,0,0,.228-.023l2.3-.5a1.129,1.129,0,0,0,.66-.455.93.93,0,0,0,.137-.774l-.114-.5a.612.612,0,0,1,.3-.637,9.4,9.4,0,0,0,1.252-.865.558.558,0,0,1,.364-.137.522.522,0,0,1,.318.091l.41.273a.978.978,0,0,0,.569.159,1.071,1.071,0,0,0,.888-.478l1.252-1.98a.93.93,0,0,0,.137-.774,1.131,1.131,0,0,0-.455-.66l-.41-.273a.584.584,0,0,1-.25-.66,8.71,8.71,0,0,0,.273-1.5.56.56,0,0,1,.455-.523l.5-.114a1.132,1.132,0,0,0,.66-.455.931.931,0,0,0,.137-.774l-.5-2.3a1.048,1.048,0,0,0-1.024-.819.769.769,0,0,0-.227.023l-.5.114a.979.979,0,0,0-.114.023.631.631,0,0,1-.524-.3,9.428,9.428,0,0,0-.865-1.252.614.614,0,0,1-.046-.706l.273-.41a.931.931,0,0,0,.137-.774,1.132,1.132,0,0,0-.455-.66l-1.98-1.252a.955.955,0,0,0-.546-.159,1.071,1.071,0,0,0-.888.478l-.273.41a.571.571,0,0,1-.5.273.288.288,0,0,1-.136-.023,8.693,8.693,0,0,0-1.5-.273.56.56,0,0,1-.524-.455l-.114-.5a1.114,1.114,0,0,0-1.047-.819Zm.865,13.063a2.648,2.648,0,0,1-2.549-2.048,2.559,2.559,0,0,1,.342-1.957,2.492,2.492,0,0,1,1.639-1.138,2.427,2.427,0,0,1,.569-.068,2.647,2.647,0,0,1,2.549,2.048,2.559,2.559,0,0,1-.341,1.957,2.491,2.491,0,0,1-1.639,1.138,2.291,2.291,0,0,1-.569.068Z" transform="translate(-1584.665 -458.9)" fill="url(#linear-gradient-4)"/>
    </g>
    <g id="Group_596" data-name="Group 596" transform="translate(85.246 101.162)">
      <path id="Path_1666" data-name="Path 1666" d="M745.655,754.767l-.5-2.3a.818.818,0,0,0-.979-.615l-.5.114a.861.861,0,0,1-.888-.387,9.481,9.481,0,0,0-.842-1.206.818.818,0,0,1-.045-.979l.273-.41a.786.786,0,0,0-.25-1.115l-1.98-1.252a.786.786,0,0,0-1.115.25l-.273.41a.83.83,0,0,1-.91.364,7.8,7.8,0,0,0-1.457-.25.775.775,0,0,1-.728-.637l-.114-.5a.818.818,0,0,0-.979-.615l-2.3.5a.806.806,0,0,0-.615.956l.114.5a.861.861,0,0,1-.387.888,9.467,9.467,0,0,0-1.206.842.818.818,0,0,1-.979.045l-.409-.273a.786.786,0,0,0-1.115.25l-1.252,1.98a.786.786,0,0,0,.25,1.115l.409.273a.831.831,0,0,1,.364.91,7.785,7.785,0,0,0-.25,1.457.775.775,0,0,1-.637.728l-.5.114a.806.806,0,0,0-.615.956l.5,2.3a.818.818,0,0,0,.979.615l.5-.114a.861.861,0,0,1,.888.387,9.486,9.486,0,0,0,.842,1.206.818.818,0,0,1,.045.979l-.273.41a.786.786,0,0,0,.25,1.115l1.98,1.252a.786.786,0,0,0,1.115-.25l.273-.41a.831.831,0,0,1,.91-.364,7.8,7.8,0,0,0,1.457.25.775.775,0,0,1,.728.637l.114.5a.818.818,0,0,0,.979.615l2.3-.5a.806.806,0,0,0,.615-.956l-.114-.5a.861.861,0,0,1,.387-.888,9.455,9.455,0,0,0,1.206-.842.818.818,0,0,1,.979-.046l.409.273a.786.786,0,0,0,1.115-.25l1.252-1.98a.786.786,0,0,0-.25-1.115l-.41-.273a.83.83,0,0,1-.364-.91,7.809,7.809,0,0,0,.25-1.457.776.776,0,0,1,.637-.728l.5-.114A.806.806,0,0,0,745.655,754.767Zm-9.6,3.823a2.844,2.844,0,1,1,2.162-3.391A2.837,2.837,0,0,1,736.051,758.59Z" transform="translate(-724.936 -745.367)" fill="url(#linear-gradient-5)"/>
      <path id="Path_1667" data-name="Path 1667" d="M733.577,744.728a.822.822,0,0,1,.8.637l.114.5a.851.851,0,0,0,.728.637,10.262,10.262,0,0,1,1.457.25.628.628,0,0,0,.2.023.838.838,0,0,0,.706-.387l.273-.41a.778.778,0,0,1,.683-.364.749.749,0,0,1,.432.136l1.98,1.252a.814.814,0,0,1,.25,1.115l-.273.41a.857.857,0,0,0,.046.979,8.805,8.805,0,0,1,.842,1.206.862.862,0,0,0,.706.41.5.5,0,0,0,.182-.023l.5-.114a.5.5,0,0,1,.182-.023.822.822,0,0,1,.8.637l.5,2.3a.806.806,0,0,1-.615.956l-.5.114a.851.851,0,0,0-.637.728,10.242,10.242,0,0,1-.25,1.457.859.859,0,0,0,.364.91l.41.273a.814.814,0,0,1,.25,1.115l-1.252,1.98a.778.778,0,0,1-.683.364.749.749,0,0,1-.432-.136l-.41-.273a.82.82,0,0,0-.455-.137.912.912,0,0,0-.523.182,8.8,8.8,0,0,1-1.206.842.781.781,0,0,0-.387.888l.114.5a.806.806,0,0,1-.615.956l-2.3.5a.5.5,0,0,1-.182.023.822.822,0,0,1-.8-.637l-.114-.5a.851.851,0,0,0-.728-.637,10.242,10.242,0,0,1-1.457-.25.628.628,0,0,0-.2-.023.838.838,0,0,0-.706.387l-.273.41a.779.779,0,0,1-.683.364.749.749,0,0,1-.432-.136L728,762.866a.814.814,0,0,1-.25-1.115l.273-.41a.857.857,0,0,0-.046-.979,8.814,8.814,0,0,1-.842-1.206.862.862,0,0,0-.706-.41.5.5,0,0,0-.182.023l-.5.114a.5.5,0,0,1-.182.023.822.822,0,0,1-.8-.637l-.5-2.3a.806.806,0,0,1,.615-.956l.5-.114a.851.851,0,0,0,.637-.728,10.259,10.259,0,0,1,.25-1.457.858.858,0,0,0-.364-.91l-.41-.273a.814.814,0,0,1-.25-1.115l1.252-1.98a.778.778,0,0,1,.683-.364.75.75,0,0,1,.432.137l.41.273a.821.821,0,0,0,.455.136.913.913,0,0,0,.523-.182,8.8,8.8,0,0,1,1.206-.842.781.781,0,0,0,.387-.888l-.114-.5a.806.806,0,0,1,.615-.956l2.3-.5a.5.5,0,0,1,.182-.023m.888,13.063a2.844,2.844,0,1,0-2.777-2.23,2.82,2.82,0,0,0,2.777,2.23m-.888-13.291h0a.777.777,0,0,0-.228.023l-2.3.5a1.13,1.13,0,0,0-.66.455.931.931,0,0,0-.137.774l.114.5a.612.612,0,0,1-.3.637,9.412,9.412,0,0,0-1.252.865.558.558,0,0,1-.364.136.523.523,0,0,1-.319-.091l-.41-.273a.956.956,0,0,0-.546-.159,1.071,1.071,0,0,0-.888.478l-1.252,1.98a.93.93,0,0,0-.137.774,1.132,1.132,0,0,0,.455.66l.41.273a.583.583,0,0,1,.25.66,8.7,8.7,0,0,0-.273,1.5.56.56,0,0,1-.455.524l-.5.114a1.131,1.131,0,0,0-.66.455.93.93,0,0,0-.136.774l.5,2.3a1.048,1.048,0,0,0,1.024.819.774.774,0,0,0,.228-.023l.5-.114a.986.986,0,0,0,.114-.023.631.631,0,0,1,.523.3,9.427,9.427,0,0,0,.865,1.252.614.614,0,0,1,.046.706l-.273.41a.93.93,0,0,0-.136.774,1.131,1.131,0,0,0,.455.66l1.98,1.252a.977.977,0,0,0,.569.159,1.071,1.071,0,0,0,.888-.478l.273-.41a.571.571,0,0,1,.5-.273.288.288,0,0,1,.136.023,8.684,8.684,0,0,0,1.5.273.559.559,0,0,1,.524.455l.114.5a1.048,1.048,0,0,0,1.024.819.776.776,0,0,0,.228-.023l2.3-.5a1.131,1.131,0,0,0,.66-.455.93.93,0,0,0,.137-.774l-.114-.5a.612.612,0,0,1,.3-.637,9.4,9.4,0,0,0,1.252-.865.558.558,0,0,1,.364-.137.522.522,0,0,1,.319.091l.41.273a.977.977,0,0,0,.569.159,1.071,1.071,0,0,0,.888-.478l1.252-1.98a.931.931,0,0,0,.137-.774,1.131,1.131,0,0,0-.455-.66l-.41-.273a.583.583,0,0,1-.25-.66,8.7,8.7,0,0,0,.273-1.5.56.56,0,0,1,.455-.523l.5-.114a1.131,1.131,0,0,0,.66-.455.931.931,0,0,0,.137-.774l-.5-2.3a1.048,1.048,0,0,0-1.024-.819.78.78,0,0,0-.228.023l-.5.114a.991.991,0,0,0-.114.023.631.631,0,0,1-.523-.3,9.423,9.423,0,0,0-.865-1.252.614.614,0,0,1-.046-.706l.273-.409a.93.93,0,0,0,.137-.774,1.132,1.132,0,0,0-.455-.66l-1.98-1.252a.978.978,0,0,0-.569-.159,1.071,1.071,0,0,0-.888.478l-.273.41a.571.571,0,0,1-.5.273.288.288,0,0,1-.137-.023,8.705,8.705,0,0,0-1.5-.273.559.559,0,0,1-.523-.455l-.114-.5a1.114,1.114,0,0,0-1.047-.819Zm.888,13.063a2.648,2.648,0,0,1-2.549-2.048,2.558,2.558,0,0,1,.341-1.957,2.492,2.492,0,0,1,1.639-1.138,2.432,2.432,0,0,1,.569-.068,2.648,2.648,0,0,1,2.549,2.048,2.559,2.559,0,0,1-.341,1.957,2.491,2.491,0,0,1-1.639,1.138,2.583,2.583,0,0,1-.569.068Z" transform="translate(-723.965 -744.5)" fill="url(#linear-gradient-6)"/>
    </g>
    <g id="Group_597" data-name="Group 597" transform="translate(289.394 114.476)">
      <path id="Path_1668" data-name="Path 1668" d="M1634.962,806.944l-1.047-1.206a.544.544,0,0,0-.774-.045l-.25.228a.547.547,0,0,1-.66.045,6.811,6.811,0,0,0-.91-.455.55.55,0,0,1-.341-.569l.023-.341a.558.558,0,0,0-.524-.592l-1.593-.114a.558.558,0,0,0-.592.524l-.023.341a.534.534,0,0,1-.432.5,5.228,5.228,0,0,0-.956.319.556.556,0,0,1-.637-.137l-.227-.25a.544.544,0,0,0-.774-.046l-1.206,1.047a.543.543,0,0,0-.045.774l.228.25a.548.548,0,0,1,.046.66,6.793,6.793,0,0,0-.455.91.55.55,0,0,1-.569.341l-.341-.023a.558.558,0,0,0-.592.524l-.114,1.593a.558.558,0,0,0,.524.592l.341.023a.538.538,0,0,1,.5.41,5.246,5.246,0,0,0,.319.956.556.556,0,0,1-.136.637l-.25.227a.544.544,0,0,0-.046.774l1.047,1.206a.544.544,0,0,0,.774.046l.25-.228a.547.547,0,0,1,.66-.045,6.789,6.789,0,0,0,.91.455.55.55,0,0,1,.341.569l-.023.341a.558.558,0,0,0,.523.592l1.593.114a.558.558,0,0,0,.592-.523l.023-.341a.534.534,0,0,1,.432-.5,5.244,5.244,0,0,0,.956-.319.556.556,0,0,1,.637.136l.228.25a.544.544,0,0,0,.774.046l1.206-1.047a.544.544,0,0,0,.046-.774l-.228-.25a.547.547,0,0,1-.046-.66,6.8,6.8,0,0,0,.455-.91.55.55,0,0,1,.569-.341l.341.023a.558.558,0,0,0,.592-.523l.114-1.593a.558.558,0,0,0-.523-.592l-.341-.023a.538.538,0,0,1-.5-.41,5.212,5.212,0,0,0-.318-.956.556.556,0,0,1,.136-.637l.25-.228A.542.542,0,0,0,1634.962,806.944Zm-4.484,5.462a1.935,1.935,0,1,1,.182-2.731A1.921,1.921,0,0,1,1630.479,812.406Z" transform="translate(-1621.917 -803.69)" fill="url(#linear-gradient-7)"/>
      <path id="Path_1669" data-name="Path 1669" d="M1627.881,803.25h.046l1.593.114a.56.56,0,0,1,.523.592l-.023.341a.55.55,0,0,0,.341.569,4.857,4.857,0,0,1,.91.455.743.743,0,0,0,.3.091.557.557,0,0,0,.364-.137l.25-.228a.558.558,0,0,1,.364-.137.57.57,0,0,1,.41.182L1634,806.3a.543.543,0,0,1-.046.774l-.25.228a.564.564,0,0,0-.136.637,5.254,5.254,0,0,1,.319.956.611.611,0,0,0,.5.432l.341.023a.56.56,0,0,1,.524.592l-.114,1.593a.566.566,0,0,1-.546.523h-.045l-.341-.023h-.046a.575.575,0,0,0-.523.341,4.858,4.858,0,0,1-.455.91.547.547,0,0,0,.046.66l.228.25a.543.543,0,0,1-.046.774l-1.206,1.047a.557.557,0,0,1-.364.136.569.569,0,0,1-.41-.182l-.228-.25a.569.569,0,0,0-.409-.182.81.81,0,0,0-.228.046,5.229,5.229,0,0,1-.956.319.612.612,0,0,0-.432.5l-.023.341a.565.565,0,0,1-.546.523h-.046l-1.593-.114a.56.56,0,0,1-.523-.592l.023-.341a.55.55,0,0,0-.341-.569,4.852,4.852,0,0,1-.91-.455.742.742,0,0,0-.3-.091.558.558,0,0,0-.364.137l-.25.228a.558.558,0,0,1-.364.137.57.57,0,0,1-.41-.182l-1.047-1.206a.544.544,0,0,1,.046-.774l.25-.228a.564.564,0,0,0,.137-.637,5.223,5.223,0,0,1-.319-.956.555.555,0,0,0-.5-.41l-.341-.023a.56.56,0,0,1-.523-.592l.114-1.593a.566.566,0,0,1,.546-.524h.046l.341.023h.045a.575.575,0,0,0,.523-.341,4.859,4.859,0,0,1,.455-.91.547.547,0,0,0-.045-.66l-.228-.25a.544.544,0,0,1,.046-.774l1.206-1.047a.559.559,0,0,1,.364-.137.57.57,0,0,1,.41.182l.228.25a.57.57,0,0,0,.41.182.805.805,0,0,0,.228-.046,5.257,5.257,0,0,1,.956-.319.611.611,0,0,0,.432-.5l.023-.341a.569.569,0,0,1,.546-.546m.387,8.944a1.935,1.935,0,1,0-1.457-.66,1.977,1.977,0,0,0,1.457.66m-.387-9.172h0a.774.774,0,0,0-.774.728l-.023.341a.315.315,0,0,1-.25.3,7.424,7.424,0,0,0-1,.341.289.289,0,0,1-.137.023.365.365,0,0,1-.25-.114l-.228-.25a.851.851,0,0,0-.592-.273.8.8,0,0,0-.523.2l-1.206,1.047a.794.794,0,0,0-.273.546.749.749,0,0,0,.182.569l.228.25a.309.309,0,0,1,.023.387,5.051,5.051,0,0,0-.455.933.357.357,0,0,1-.318.2h-.023l-.341-.023h-.046a.774.774,0,0,0-.774.728l-.114,1.593a.75.75,0,0,0,.182.569.794.794,0,0,0,.546.273l.341.023a.315.315,0,0,1,.3.25,7.389,7.389,0,0,0,.341,1,.343.343,0,0,1-.068.387l-.25.228a.794.794,0,0,0-.273.546.749.749,0,0,0,.182.569l1.047,1.206a.85.85,0,0,0,.592.273.8.8,0,0,0,.524-.2l.25-.228a.366.366,0,0,1,.2-.068.534.534,0,0,1,.182.046,5.034,5.034,0,0,0,.933.455.333.333,0,0,1,.2.341l-.023.341a.769.769,0,0,0,.728.819l1.593.114h.046a.773.773,0,0,0,.774-.728l.023-.341a.315.315,0,0,1,.25-.3,7.42,7.42,0,0,0,1-.341.289.289,0,0,1,.136-.023.366.366,0,0,1,.25.114l.228.25a.849.849,0,0,0,.592.273.8.8,0,0,0,.523-.2l1.206-1.047a.793.793,0,0,0,.273-.546.75.75,0,0,0-.182-.569l-.228-.25a.31.31,0,0,1-.023-.387,5.047,5.047,0,0,0,.455-.933.357.357,0,0,1,.319-.2h.023l.341.023h.046a.774.774,0,0,0,.774-.728l.114-1.593a.75.75,0,0,0-.182-.569.794.794,0,0,0-.546-.273l-.341-.023a.315.315,0,0,1-.3-.25,7.355,7.355,0,0,0-.341-1,.343.343,0,0,1,.068-.387l.25-.228a.793.793,0,0,0,.273-.546.75.75,0,0,0-.182-.569l-1.047-1.206a.849.849,0,0,0-.592-.273.8.8,0,0,0-.523.2l-.25.228a.367.367,0,0,1-.2.068.534.534,0,0,1-.182-.046,5.05,5.05,0,0,0-.933-.455.333.333,0,0,1-.2-.341l.023-.341a.75.75,0,0,0-.182-.569.793.793,0,0,0-.546-.273l-1.593-.114c0,.023-.023.023-.046.023Zm.387,8.944a1.706,1.706,0,0,1-1.115-2.981,1.712,1.712,0,0,1,1.115-.432,1.706,1.706,0,0,1,1.115,2.981,1.666,1.666,0,0,1-1.115.432Z" transform="translate(-1620.981 -803)" fill="url(#linear-gradient-8)"/>
    </g>
  </g>
</svg>
