<svg xmlns="http://www.w3.org/2000/svg" xmlns:xlink="http://www.w3.org/1999/xlink" width="460" height="417" viewBox="0 0 460 417">
  <defs>
    <clipPath id="clip-path">
      <rect id="Rectangle_610" data-name="Rectangle 610" width="460" height="417" rx="30" transform="translate(0 0.407)" fill="#fefefe"/>
    </clipPath>
    <clipPath id="clip-path-2">
      <rect id="Rectangle_611" data-name="Rectangle 611" width="717" height="651" transform="translate(0.231 0.176)" fill="none"/>
    </clipPath>
  </defs>
  <g id="Mask_Group_16" data-name="Mask Group 16" transform="translate(0 -0.407)" clip-path="url(#clip-path)">
    <g id="Group_617" data-name="Group 617" transform="translate(-135.231 -94.769)">
      <g id="Group_612" data-name="Group 612" transform="translate(0 0)">
        <g id="Group_611" data-name="Group 611" transform="translate(0 0)" clip-path="url(#clip-path-2)">
          <path id="Path_1676" data-name="Path 1676" d="M375.631,855.623s-60.295-80.178-38.446-173.946S471.92,561.507,521.08,555.134s104.693-44.608,192.089-45.518,139.287,56.443,150.212,159.315S795.015,857.81,795.015,857.81Z" transform="translate(-223.726 -343.422)" fill="#e2eff8"/>
          <path id="Path_1677" data-name="Path 1677" d="M871.552,1568.154c0,2.278-109.1,4.124-243.683,4.124s-243.683-1.846-243.683-4.124,109.1-4.124,243.683-4.124,243.683,1.846,243.683,4.124" transform="translate(-258.649 -1054.703)" fill="#92afe6"/>
        </g>
      </g>
      <path id="Path_1678" data-name="Path 1678" d="M812.277,1384.187l2.44.287,34.7-88.589h-3.051Z" transform="translate(-547.426 -873.821)" fill="#191c4b"/>
      <path id="Path_1679" data-name="Path 1679" d="M1118.128,1296.162l22.185,88.184h2.219l-21.907-88.461Z" transform="translate(-753.743 -873.821)" fill="#191c4b"/>
      <g id="Group_614" data-name="Group 614" transform="translate(0 0)">
        <g id="Group_613" data-name="Group 613" transform="translate(0 0)" clip-path="url(#clip-path-2)">
          <path id="Path_1680" data-name="Path 1680" d="M914.145,1034.341v1.028a8.587,8.587,0,0,1-8.562,8.562h-97.3a8.59,8.59,0,0,1-8.565-8.562v-1.028a8.483,8.483,0,0,1,.478-2.812l-.3-1.516L779.924,927.651a6.167,6.167,0,0,1,6.089-7.352l2.483.013,42.124.234a11.4,11.4,0,0,1,11.084,9.041l11.113,52.587,4.774,22.588,4.442,21.013h43.549a8.588,8.588,0,0,1,8.562,8.566" transform="translate(-525.522 -620.463)" fill="#0e1545"/>
          <path id="Path_1681" data-name="Path 1681" d="M1033.4,622.85c-1.914.358-3.345-2.031-4.66,1.552s-4.062,10.869-6.45,11.348-13.021-5.493-13.021-5.493a81.431,81.431,0,0,0-.827,11.371c.026,3.241.348,6.486,1.3,8.7,2.626,6.092,1.432,10.033,1.432,10.033s-12.184,5.256-12.3,4.9-18.4-22.7-18.4-22.7l1.142-5.06a34.157,34.157,0,0,0,8.321-8.471,19.982,19.982,0,0,0,2.727-5.936,15.206,15.206,0,0,0,.41-2.324s2.75-19.252,3.44-19.711,22.917-13.75,22.917-13.75l13.981,15.354a32.77,32.77,0,0,1-.136,5.731c-.358,1.552-1.672,2.031-.957,5.617s2.987,8.481,1.077,8.839" transform="translate(-660.887 -395.839)" fill="#fea893"/>
          <path id="Path_1682" data-name="Path 1682" d="M1023.558,585.711s-5.495-5.256-2.389-10.035,7.525-2.15,8.72,4.539a30.563,30.563,0,0,0,2.15-7.287c.359-3.225,2.39-2.031,3.584-.955s3.823,1.433,4.539-2.031.836-7.287,2.987-4.659,7.407,9.556,16.6,5.615,13.977-13.618,7.167-23.892c0,0-1.314,4.9-7.406,4.9s-17.8-9.2-24.37-10.512-12.663,2.031-11.707,8c0,0-13.26-2.389-14.335,8.72s2.986,35.121,2.986,35.121,9.676-2.031,11.468-7.526" transform="translate(-680.076 -364.673)" fill="#090b31"/>
          <path id="Path_1683" data-name="Path 1683" d="M1028.057,715.8l-18.5-12.6a20,20,0,0,0,2.727-5.936l16.6,7.163a81.406,81.406,0,0,0-.827,11.371" transform="translate(-680.504 -470.015)" fill="#de9380"/>
          <path id="Path_1684" data-name="Path 1684" d="M1073.166,881.59s2.75,19.994,26.742,34.74,22.743,16.5,22.743,16.5l-60.232-8.5Z" transform="translate(-716.163 -594.351)" fill="#6f98e6"/>
          <path id="Path_1685" data-name="Path 1685" d="M956.948,791.649c0,37.994-3.837,74.247-3.837,74.247l-64.966-2.19c-3.873-29.012-5.789-60.332.185-89.136,3.983-19.21,11.768-35.306,30.6-42.759.286-.111.576-.221.866-.332,0,0,10.375,22.8,22.383,22.7,0,0,2.805.065,2.463-5.149a27.023,27.023,0,0,0-1.263-6.1s13.567,10.723,13.567,48.717" transform="translate(-596.156 -493.091)" fill="#75a1f2"/>
          <path id="Path_1686" data-name="Path 1686" d="M1016.515,751.523c-.124,2.252-.251,7.062-10.56.875-8.8-5.281-14.276-17.209-15.689-20.587.286-.111.576-.221.866-.332,0,0,10.375,22.8,22.384,22.7,0,0,2.8.065,2.463-5.149a7.071,7.071,0,0,1,.537,2.5" transform="translate(-667.491 -493.091)" fill="#223686"/>
          <path id="Path_1687" data-name="Path 1687" d="M1322.514,811.661l-15.127-.605a5.442,5.442,0,0,0-5.357,3.647l-25.893,73.155h-35.589a2.465,2.465,0,0,0-2.458,2.458h0a2.465,2.465,0,0,0,2.458,2.458h55.943a2.446,2.446,0,0,0,1.629-.625,4.822,4.822,0,0,0,3.824-3.227l24.776-71.085a4.651,4.651,0,0,0-4.206-6.177" transform="translate(-834.665 -546.768)" fill="#161c45"/>
          <path id="Path_1688" data-name="Path 1688" d="M935.26,832.194s-9.51-36.456,2.378-47.552,27.474,14.53,32.494,54.156c0,0,18.492,12.945,46.494,19.021l-1.32,17.435s-50.722-.264-67.629-12.416c0,0-7.4-3.962-12.416-30.644" transform="translate(-627.957 -527.2)" fill="#9ab8ff"/>
          <path id="Path_1689" data-name="Path 1689" d="M1186.2,1019.489a201.031,201.031,0,0,0,22.267-.966c11.829-1.208,21.486,5.793,19.8,8.69s-18.348,1.207-23.417,3.139-19.555,1.206-19.555,1.206-.355-8.206.909-12.069" transform="translate(-799.021 -686.628)" fill="#fea691"/>
          <path id="Path_1690" data-name="Path 1690" d="M1051.646,1265.079l.547-16.353-11.446-58.324-20.424,54.12-1.38,3.658s26.165,7.631,28.888,11.449,0,7.631,0,7.631l-52.329-2.727,2.734-14.856,17.437-94.707s-.17.081-.495.228c-2.454,1.1-13.7,5.832-26.217,6.313-14.173.546-83.942-2.181-83.942-2.181s-10.948-.84-7.163-25.208a114.451,114.451,0,0,1,2.877-12.962l139.386,1.13s8.416,1.064,9.473,7.758c0,0,18.953-.15,20.043,15.11.992,13.912.628,87.59.553,100.535-.007,1.26-.01,1.943-.01,1.943s38.157,11.992,38.7,17.987Z" transform="translate(-604.618 -755.957)" fill="#1e3d75"/>
          <path id="Path_1691" data-name="Path 1691" d="M1071.838,1245.693l-13.636,4.123c5.451-67.592-5.451-106.839-5.451-106.839L1042.4,1190.4l-20.424,54.12c-6.46,1.5-14.944,3.479-22.087,5.155l17.437-94.707s-.169.081-.495.228l8.126-15.491-125.447-5.584a114.513,114.513,0,0,1,2.877-12.962l139.386,1.13s8.415,1.064,9.473,7.758c0,0,18.953-.15,20.043,15.11.993,13.912.628,87.59.553,100.535" transform="translate(-606.268 -755.957)" fill="#28539e"/>
          <path id="Path_1692" data-name="Path 1692" d="M861.4,998.589a7.144,7.144,0,0,1-3.808,6.173,15.21,15.21,0,0,1-3.212,1.419c-12.236,3.931-36.165-1.152-36.165-1.152s6.44,17.046-6.818,21.97a77.52,77.52,0,0,1-11.494,3.014L779.924,927.651a6.167,6.167,0,0,1,6.089-7.352l2.483.013c8.142,9.054,18.318,26.607,21.765,59.336l36.455.368,1.048.01a18.4,18.4,0,0,1,5.054,2.148c3.974,2.392,8.806,7.208,8.582,16.415" transform="translate(-525.522 -620.463)" fill="#141e63"/>
          <path id="Path_1693" data-name="Path 1693" d="M968.785,1086.37l.036.026c-.065,0-.078-.013-.036-.026" transform="translate(-652.985 -732.489)" fill="#294799"/>
          <path id="Path_1694" data-name="Path 1694" d="M1000.089,1122.373a7.144,7.144,0,0,1-3.807,6.173,15.223,15.223,0,0,1-3.212,1.419,36.363,36.363,0,0,0-7.664-26.165l1.048.01a18.4,18.4,0,0,1,5.054,2.148c3.973,2.392,8.806,7.208,8.581,16.415" transform="translate(-664.213 -744.247)" fill="#1c2a8c"/>
          <path id="Path_1695" data-name="Path 1695" d="M1346.12,1074.261h-21.606l18.768,152.651-7.5-.749L1317.039,1074.7H1193.323l-9.747,151.459h-7.5l8.247-152.208-22.266-.514-.273-6.291,4.1-6.291,175.854.82,4.689,5.471.234.273Z" transform="translate(-783.193 -715.281)" fill="#05052d"/>
          <path id="Path_1696" data-name="Path 1696" d="M1346.433,1067.151H1161.786l4.1-6.291,175.853.82Z" transform="translate(-783.193 -715.281)" fill="#fbd3a2"/>
        </g>
      </g>
      <path id="Path_1697" data-name="Path 1697" d="M520.255,1180.361l17.131,73.768,3.5-3.846L522.7,1171.97Z" transform="translate(-350.437 -790.233)" fill="#4b9cca"/>
      <g id="Group_616" data-name="Group 616" transform="translate(0 0)">
        <g id="Group_615" data-name="Group 615" transform="translate(0 0)" clip-path="url(#clip-path-2)">
          <path id="Path_1698" data-name="Path 1698" d="M451.114,980.946c-8.233,3.344-20.746,2.578-32.434-21.95,1.7-.275,3.507-1,4.258-2.541a4.427,4.427,0,0,0-.542-4.28,11.087,11.087,0,0,0-3.351-2.965,30.2,30.2,0,0,0-5.528-2.853c-1.545-4.369-3.061-9.236-4.533-14.646-1.233-4.525-2.408-9.013-3.493-13.4a9.911,9.911,0,0,0,5.789-.253c.044-3.366,0-7.267-2.586-9.794a18.825,18.825,0,0,0-6.294-3.514c-4.161-20.293-4.837-35.726,3.218-36.4,8.738-.721,20.211,9.11,33.267,31.766a48.444,48.444,0,0,0-.84,5.008c-.2,1.7-.394,3.4-.595,5.1-.186,1.583-.5,3.3.089,4.837a2.971,2.971,0,0,0,3.18,2.044c1.6-.372,2.207-2.289,2.467-3.909.23-1.411.4-2.831.528-4.25q1.794,3.445,3.619,7.193a119.946,119.946,0,0,1,8.307,22.536,43.931,43.931,0,0,0-3.15,10.663,24.092,24.092,0,0,0-.074,5.573c.126,1.211.2,3.307,1.523,3.9a2.124,2.124,0,0,0,2.586-1.271,7.717,7.717,0,0,0,.409-3.151,28,28,0,0,1,.773-5.759c2.578,16.652.03,29.618-6.591,32.3" transform="translate(-268.896 -585.4)" fill="#6ac4f3"/>
          <path id="Path_1699" data-name="Path 1699" d="M588.288,949.328c-6.219,1.04-13.568-10.611-18.145-27.515l.029.03c1.516,1.546,3.366,3.113,5.529,2.995a1.16,1.16,0,0,0,.787-.29,1.343,1.343,0,0,0,.26-.84,6.123,6.123,0,0,0-.46-3.626,7.023,7.023,0,0,0-2.906-2.229,26.882,26.882,0,0,1-3.7-2.423c-.438-.349-.877-.706-1.293-1.085-.3-1.442-.565-2.906-.817-4.4-.565-3.374-.981-6.673-1.256-9.86.892.743,1.791,1.494,2.683,2.244a6.538,6.538,0,0,0,1.976,1.293,6.74,6.74,0,0,0,3.4.007c.334-.052.721-.148.862-.46a.924.924,0,0,0,.03-.55c-.364-2.237-2.006-4.042-3.73-5.521a31.784,31.784,0,0,0-3.4-2.563c-.706-.468-1.508-.855-2.207-1.353-.349-15.121,2.771-26.267,8.426-27.211,7.594-1.271,16.86,16.362,20.709,39.382.134.809.26,1.612.379,2.414-1.085,1.554-2.1,3.151-3.039,4.8a17.251,17.251,0,0,0-2.675,7.564,3.465,3.465,0,0,0,.171,1.435c.609,1.471,2.786,1.672,4.094.758a7.7,7.7,0,0,0,2.445-4l.089-.267c1.063,17.157-2.1,30.25-8.241,31.275" transform="translate(-381.23 -583.772)" fill="#6ac4f3"/>
          <path id="Path_1700" data-name="Path 1700" d="M441.023,1264.565c0,11.265-8.946,7.393-21.526,7.393a24.45,24.45,0,0,1-3.336-.231,36.356,36.356,0,0,0,4.533-2.786,40.188,40.188,0,0,0,4.785-4.28,10.67,10.67,0,0,0,2.475-3.321,3.548,3.548,0,0,0-3.827-5.187,11.784,11.784,0,0,0-3.634,1.16l-4.035,1.783a13.022,13.022,0,0,1-4.845,1.433,12.869,12.869,0,0,1-3.188-.446c-2.363-.527-4.741-1-7.052-1.724-.275-.09-.55-.171-.832-.238l-.4-.824a14.78,14.78,0,0,0,6-4.28c.959-1.189,1.6-3.106.453-4.1a3.048,3.048,0,0,0-2.861-.246,4.635,4.635,0,0,0-1.464.535c-.505.215-1,.461-1.493.713-.959.513-1.888,1.078-2.816,1.635a29.28,29.28,0,0,1-4.763,2.43c-.312-.536-.6-1.063-.884-1.6-9.273-17.551-4.949-25.8,17.982-22.322.364.817.743,1.634,1.152,2.444q2.051,4.1,4.444,8.018a9.685,9.685,0,0,0,2.355,2.89,3.5,3.5,0,0,0,3.522.535c.765-1.738-.015-3.745-.847-5.454-1.182-2.437-2.467-4.822-3.819-7.171.29.06.58.12.869.186,12.29,2.7,23.05,21.786,23.05,33.051" transform="translate(-261.056 -828.893)" fill="#6ac4f3"/>
          <path id="Path_1701" data-name="Path 1701" d="M668.692,1192.038c-.684.082-1.375.2-2.036.26-4.548.438-9.3-.951-13.613.55a1.8,1.8,0,0,0-1.2.936c-.208.6.223,1.226.647,1.709a6.211,6.211,0,0,0,3.485,2.319c1.092.178,2.266-.149,3.314.23a8.048,8.048,0,0,0,1.345.542,3.158,3.158,0,0,0,1.36-.163c.944-.26,1.887-.512,2.831-.773-.453.594-.936,1.219-1.449,1.88a3.627,3.627,0,0,0-.639.149,35.555,35.555,0,0,0-6.658,3.5,28.408,28.408,0,0,1-3.76,1.924c-5.253,2.111-11.138,1.5-16.786,1.91-2.14.156-4.726.84-5.246,2.928a4.328,4.328,0,0,0,1.337,3.79c2.75,3.025,7.044,4,11.064,4.726.787.141,1.583.282,2.378.4-9.526,7.676-19.654,11.383-25.68.468l-1.6-4.414s-4.324-20.583,12.119-34.2c-.1.7-.193,1.382-.26,2.051q-.468,4.737-.929,9.481c-.037.394-.075.788-.119,1.174a3.339,3.339,0,0,0,.409,2.467,2.441,2.441,0,0,0,2.534.557,6.157,6.157,0,0,0,3.916-4.31,21.852,21.852,0,0,0,.565-6.034,70.639,70.639,0,0,1,.869-10.009c5.632-2.964,12.84-5.246,22.062-6.368,0,0,9.437-.6,8.634,9.236-.7,8.56.728,12.26,1.114,13.078" transform="translate(-415.876 -788.712)" fill="#6ac4f3"/>
          <path id="Path_1702" data-name="Path 1702" d="M595.126,1264.55s1.907-41.678,43.04-62.381c0,0-40.043,28.6-40.316,63.2Z" transform="translate(-400.942 -810.603)" fill="#4b9cca"/>
          <path id="Path_1703" data-name="Path 1703" d="M425.129,1257.738s40.8,5.125,48.179,44.9h-3.9s6.355-26.858-44.284-44.9" transform="translate(-286.268 -848.089)" fill="#4b9cca"/>
          <path id="Path_1704" data-name="Path 1704" d="M573.713,1075.184s5.068-38.1,6.558-42.717,10.484-43.424,9.17-50.978c0,0,2.128-33.729-6.291-64.834,0,0,14.033,39.771,8.322,76.575s-13.042,56.129-14.105,81.653Z" transform="translate(-386.498 -618.005)" fill="#4b9cca"/>
          <path id="Path_1705" data-name="Path 1705" d="M488.146,1104.067s-.022-.774-.071-2.177c-.339-9.531-1.987-48.1-7.105-70.565-5.871-25.769-34.177-75.082-34.177-75.082s31.249,45.032,38.241,79.994,6.293,68.524,6.293,68.524Z" transform="translate(-300.881 -644.709)" fill="#4b9cca"/>
          <path id="Path_1706" data-name="Path 1706" d="M552.7,1437.2l-4.161,45.059-14.943-.126-22.106-.193-6.353-41.061-.572-3.678Z" transform="translate(-339.854 -969.145)" fill="#2b3d62"/>
          <rect id="Rectangle_613" data-name="Rectangle 613" width="59.345" height="14.444" transform="translate(160.021 452.819)" fill="#3a83bb"/>
          <rect id="Rectangle_614" data-name="Rectangle 614" width="26.061" height="14.444" transform="translate(193.306 452.819)" fill="#2b3d62"/>
          <path id="Path_1707" data-name="Path 1707" d="M534.784,1448.5v41.255l-22.106-.193-6.353-41.062Z" transform="translate(-341.04 -976.769)" fill="#3a83bb"/>
        </g>
      </g>
    </g>
  </g>
</svg>
